<svg width="247" height="246" viewBox="0 0 247 246" fill="none" xmlns="http://www.w3.org/2000/svg">
<g clip-path="url(#clip0_2391_2407)">
<rect x="0.5" width="246.5" height="246" rx="123" fill="#E4EBE4"/>
<g clip-path="url(#clip1_2391_2407)">
<path d="M94.7529 71.4442C95.0387 75.5315 91.9489 79.0942 87.8711 79.3793C83.7932 79.6645 80.2376 76.5665 79.9518 72.4792C79.666 68.3919 82.7558 64.8292 86.8337 64.544C90.9115 64.2589 94.4671 67.3569 94.7529 71.4442Z" fill="#0B2925"/>
<path d="M92.2958 142.658C109.604 141.447 122.706 127.182 121.56 110.796C120.414 94.4089 105.454 82.1061 88.1463 83.3164C70.8381 84.5267 57.736 98.7918 58.8819 115.178C60.0278 131.565 74.9877 143.868 92.2958 142.658Z" fill="#19453F"/>
<path d="M95.0176 180.496L93.1297 180.628C78.102 181.679 65.516 167.727 66.4713 151.003L66.8694 143.674C67.6642 130.079 77.3814 119.284 89.766 118.418C102.075 117.557 113.2 126.895 115.885 140.322L117.299 147.525C120.567 163.878 110.045 179.445 95.0176 180.496Z" fill="#19453F"/>
<path d="M109.576 127.149C104.918 121.314 97.6198 117.869 89.7661 118.418C83.0452 118.888 77.1295 122.192 73.2234 127.105C90.9019 144.427 103.703 134.329 109.576 127.149Z" fill="#0B2925"/>
<path d="M87.4321 73.097C71.0451 74.2429 58.3909 83.1902 59.8781 104.459L59.9893 106.049C61.0743 121.565 74.4886 133.253 89.9694 132.171L93.141 131.949C108.622 130.866 120.279 117.425 119.194 101.909L119.083 100.319C117.68 80.2612 103.819 71.9511 87.4321 73.097Z" fill="#F4DCC9"/>
<path d="M114.588 85.954C112.989 75.037 100.978 67.13 87.0829 68.1016C73.1879 69.0733 62.3937 78.575 62.3305 89.6082L114.588 85.954Z" fill="#19453F"/>
<path d="M126.318 106.126C126.583 109.911 123.774 113.15 119.998 113.414C116.222 113.678 112.99 110.861 112.725 107.077C112.461 103.292 115.27 100.053 119.045 99.7894C122.821 99.5254 126.054 102.342 126.318 106.126Z" fill="#F4DCC9"/>
<path d="M123.032 106.889C123.164 108.781 121.76 110.4 119.872 110.533C117.984 110.665 116.368 109.256 116.236 107.364C116.103 105.472 117.508 103.852 119.396 103.72C121.208 103.594 122.9 104.997 123.032 106.889Z" fill="#D9B89E"/>
<path d="M65.6037 110.371C65.8683 114.156 63.0594 117.395 59.2836 117.659C55.5078 117.923 52.2754 115.106 52.0108 111.322C51.7461 107.537 54.5551 104.299 58.3309 104.035C62.1067 103.77 65.339 106.587 65.6037 110.371Z" fill="#F4DCC9"/>
<path d="M59.158 114.777C61.0348 114.645 62.4496 113.014 62.3181 111.133C62.1865 109.252 60.5585 107.833 58.6817 107.965C56.8049 108.096 55.3901 109.727 55.5216 111.608C55.6532 113.489 57.2812 114.908 59.158 114.777Z" fill="#D9B89E"/>
<path d="M84.3033 102.143C84.6209 106.684 81.18 110.652 76.649 110.969C72.118 111.286 68.1584 107.836 67.8408 103.294C67.5233 98.7528 70.9642 94.7852 75.4952 94.4684C80.0314 94.2272 83.9858 97.6016 84.3033 102.143Z" fill="#493C31"/>
<path d="M85.3468 104.047C85.6802 108.816 82.1387 111.345 77.6078 111.662C73.0768 111.979 69.223 110.043 68.8843 105.199C68.5509 100.43 71.9759 96.2354 76.5069 95.9186C81.0378 95.6017 85.0081 99.2032 85.3468 104.047Z" fill="white"/>
<path d="M82.0734 103.897C82.2798 106.849 80.0327 109.44 77.0876 109.646C74.1425 109.852 71.5619 107.674 71.3502 104.646C71.1437 101.695 73.3909 99.1035 76.336 98.8975C79.2811 98.6916 81.867 100.945 82.0734 103.897Z" fill="#0B2925"/>
<path d="M81.6038 100.431C81.7096 101.944 80.5861 103.24 79.0757 103.346C77.5654 103.451 76.2725 102.325 76.1666 100.811C76.0608 99.297 77.1843 98.0014 78.6946 97.8958C80.205 97.7902 81.4979 98.9168 81.6038 100.431Z" fill="white"/>
<path d="M95.6309 101.354C95.9484 105.895 99.9081 109.345 104.439 109.028C108.97 108.712 112.411 104.744 112.093 100.203C111.776 95.6612 107.816 92.2111 103.285 92.5279C98.684 92.9257 95.3133 96.8123 95.6309 101.354Z" fill="#493C31"/>
<path d="M94.7866 103.391C95.1201 108.159 98.9792 110.171 103.51 109.855C108.041 109.538 111.588 107.084 111.249 102.24C110.916 97.4713 106.94 93.7941 102.409 94.1109C97.8783 94.4278 94.4479 98.5467 94.7866 103.391Z" fill="white"/>
<path d="M98.0831 102.779C98.2895 105.731 100.875 107.984 103.82 107.778C106.766 107.572 109.013 104.981 108.806 102.029C108.6 99.0775 106.014 96.8244 103.069 97.0304C100.048 97.2416 97.8766 99.8274 98.0831 102.779Z" fill="#0B2925"/>
<path d="M102.748 98.9553C102.854 100.469 104.147 101.596 105.657 101.49C107.167 101.384 108.291 100.089 108.185 98.5751C108.079 97.0613 106.786 95.9348 105.276 96.0404C103.766 96.146 102.642 97.4415 102.748 98.9553Z" fill="white"/>
<path d="M93.7155 109.776C93.7949 110.911 92.1071 110.649 90.0682 110.791C88.0292 110.934 86.3943 111.429 86.3149 110.293C86.2356 109.158 87.8281 108.058 89.867 107.915C91.906 107.773 93.6308 108.565 93.7155 109.776Z" fill="#D9B89E"/>
<path d="M111.006 90.0835C110.617 91.0234 108.88 91.1449 107.079 90.358C105.354 89.5659 104.272 88.1965 104.662 87.2565C105.051 86.3165 106.788 86.1951 108.589 86.9819C110.389 87.7687 111.396 89.1435 111.006 90.0835Z" fill="#5F4E41"/>
<path d="M68.1882 93.0782C68.7048 93.9548 70.4417 93.8333 72.115 92.8036C73.7129 91.7791 74.594 90.2724 74.0774 89.3958C73.5608 88.5192 71.8239 88.6406 70.1506 89.6704C68.4772 90.7001 67.6716 92.2016 68.1882 93.0782Z" fill="#5F4E41"/>
<path d="M91.2426 127.595C96.581 127.222 100.655 123.293 100.342 118.82C100.03 114.347 95.4483 111.024 90.1099 111.397C84.7715 111.771 80.6974 115.699 81.0102 120.172C81.3229 124.645 85.9041 127.968 91.2426 127.595Z" fill="#19453F"/>
<path d="M90.9833 123.886C93.861 123.685 96.0564 121.557 95.8869 119.132C95.7173 116.707 93.247 114.905 90.3693 115.106C87.4916 115.308 85.2961 117.436 85.4657 119.861C85.6352 122.285 88.1055 124.088 90.9833 123.886Z" fill="#0B2925"/>
<path d="M67.1181 159.173C67.2254 159.622 67.3274 159.995 67.4346 160.444C74.1128 163.704 80.6919 164.461 86.4311 164.06C96.3992 163.363 103.697 159.201 104.425 158.77C109.424 159.714 113.841 159.937 117.26 160.002C117.315 159.694 117.364 159.311 117.494 158.997C106.189 159.027 81.1775 156.213 70.0231 132.349C69.8231 132.743 69.623 133.138 69.4984 133.527C77.2923 149.487 91.2529 155.964 103.04 158.487C98.7868 160.61 83.2552 167.476 67.1181 159.173Z" fill="#0B2925"/>
<path d="M60.654 92.7677C60.654 92.7677 84.552 85.0878 116.46 88.8654C116.46 88.8654 117.325 83.861 113.693 80.7683C110.062 77.6755 76.3826 75.6952 62.4181 84.3538C62.4936 84.3485 59.7549 87.5064 60.654 92.7677Z" fill="#0B2925"/>
</g>
<path d="M189.489 133.941C188.857 134.145 188.331 134.282 187.835 134.476C186.931 134.844 186.454 135.563 186.509 136.471C186.519 136.657 186.627 136.924 186.774 137.017C187.713 137.638 189.103 137.106 189.371 136.011C189.504 135.475 189.5 134.913 189.718 134.306C189.991 135.275 190.333 136.232 190.512 137.217C192.167 146.369 184.998 153.174 179.36 154.406C176.498 155.032 173.714 154.714 170.945 153.873C168.58 153.151 166.232 152.371 163.848 151.708C162.557 151.348 161.229 151.175 159.793 150.901C160.36 149.52 160.918 148.12 161.52 146.741C162.959 143.434 165.026 140.634 168.075 138.642C171.984 136.095 177.416 136.573 180.391 140.716C181.904 142.818 183.754 142.993 186.223 141.432C185.906 141.527 185.582 141.63 185.257 141.72C183.559 142.164 182.54 141.807 181.618 140.329C180.494 138.516 179.126 136.995 177.133 136.134C176.653 135.923 176.145 135.751 175.55 135.518C176.903 134.554 178.004 133.458 178.144 131.809C178.216 130.991 177.991 130.153 177.754 129.317C177.986 131.196 177.361 132.691 175.795 133.669C174.94 134.202 173.968 134.748 172.988 134.87C170.063 135.25 167.419 136.139 165.133 138.128C165.25 137.831 165.367 137.533 165.462 137.232C166.161 135.148 166.383 133.033 165.88 130.866C165.543 129.435 165.482 128 165.933 126.583C166.434 124.977 167.454 123.93 169.165 123.65C169.273 123.632 169.379 123.6 169.572 123.547C167.323 122.944 165.508 124.305 164.29 127.436C164.211 127.379 164.109 127.355 164.063 127.286C162.665 125.29 160.742 124.063 158.39 123.506C158.174 123.459 157.963 123.404 157.747 123.357C156.073 122.95 155.365 122.089 155.263 120.362C155.241 120.025 155.254 119.689 155.254 119.272C154.426 122.288 155.486 123.924 157.813 124.666C161.556 125.845 163.541 128.52 164.011 132.354C164.251 134.322 163.752 136.192 162.977 137.997C161.666 141.073 159.465 143.444 156.978 145.599C156.273 146.204 155.566 146.795 154.793 147.446C153.151 143.67 150.449 140.698 148.165 137.44C146.319 134.803 145.04 131.905 145.188 128.607C145.528 120.864 151.611 113.761 160.01 113.783C160.273 113.78 160.534 113.799 160.82 113.932C160.45 114.084 160.069 114.218 159.717 114.395C158.531 114.99 158.236 116.173 159.056 117.209C159.214 117.405 159.665 117.524 159.917 117.454C160.826 117.197 161.221 116.61 161.256 115.575C161.27 115.038 161.214 114.498 161.188 113.849C164.754 114.307 167.649 115.905 169.724 118.823C173.419 124.027 171.843 128.878 168.522 133.522C169.672 132.258 170.752 130.909 171.988 129.743C175.235 126.689 179.892 126.199 183.999 128.352C186.446 129.595 188.173 131.48 189.489 133.941ZM180.887 142.307C180.423 143.476 180.076 144.514 179.594 145.492C178.853 146.999 178.133 148.545 177.192 149.933C176.022 151.658 173.918 152.289 172.292 151.631C170.808 151.026 169.977 149.386 170.385 147.844C170.802 146.273 171.791 145.704 173.668 145.959C174.123 146.021 174.576 146.07 175.029 146.119C174.488 145.877 173.921 145.77 173.35 145.72C171.98 145.589 170.751 145.844 169.912 147.055C169.041 148.327 169.01 149.673 169.662 151.03C171.051 153.924 174.971 154.42 177.366 152.009C178.918 150.449 179.722 148.486 180.305 146.415C180.681 145.136 181.047 143.837 180.887 142.307ZM156.066 124.814C153.954 125.523 152.119 126.679 150.497 128.153C149.302 129.229 148.283 130.443 147.804 132.018C146.749 135.419 149.671 138.834 153.007 138.093C154.367 137.789 155.381 137 155.786 135.646C156.189 134.279 155.625 133.116 154.885 132.017C154.99 132.437 155.182 132.836 155.361 133.237C155.954 134.575 155.539 135.827 154.265 136.562C152.682 137.481 150.611 136.897 149.762 135.281C149.203 134.229 149.178 133.128 149.531 131.999C149.982 130.547 150.947 129.426 152.022 128.418C153.33 127.184 154.711 126.014 156.066 124.814ZM184.515 130.1C182.096 129.436 180.036 130.907 179.118 133.8C180.036 133.93 180.955 134.061 181.879 134.184C182.05 134.211 182.225 134.216 182.392 134.216C183.742 134.191 184.303 133.554 184.052 132.269C183.907 131.487 183.812 130.753 184.515 130.1ZM164.793 123.522C167.169 122.025 167.967 119.167 166.522 117.387C165.809 118.188 165.809 118.188 164.619 118.471C163.343 118.776 162.939 119.476 163.429 120.693C163.84 121.653 164.336 122.577 164.793 123.522ZM182.403 138.627C184.098 140.156 186.334 140.191 187.743 138.731C186.267 136.477 184.117 136.421 182.403 138.627ZM157.279 117.014C156.371 118.89 157.179 121.096 159.104 122.003C160.551 119.488 159.865 117.595 157.279 117.014ZM160.729 136.859C160.692 137.095 160.679 137.18 160.663 137.253C160.382 138.599 159.384 139.031 158.217 138.33C157.19 137.718 156.678 136.817 156.854 135.634C157.033 134.38 157.716 133.439 158.959 133.063C160.474 132.607 161.615 133.194 162.429 134.524C161.722 132.426 159.053 131.762 157.308 133.243C156.164 134.214 155.795 135.533 156.068 136.954C156.314 138.212 157.363 138.828 158.507 139.143C159.936 139.543 161.065 138.443 160.729 136.859ZM167.771 142.043C166.667 142.256 166.132 142.922 166.215 143.909C166.336 145.376 168.298 146.798 169.712 146.401C170.832 146.08 171.753 145.439 172.313 144.386C172.899 143.28 172.85 142.163 172.205 141.096C171.589 140.074 170.618 139.549 169.494 139.641C169.801 139.728 170.017 139.775 170.216 139.846C171.499 140.284 172.253 141.464 172.09 142.811C171.939 144.06 171.239 144.942 170.085 145.393C169.042 145.804 168.112 145.523 167.312 144.774C166.439 143.962 166.482 143.016 167.424 142.295C167.512 142.239 167.605 142.175 167.771 142.043ZM145.963 129.123C147.895 129.167 149.335 128.598 150.492 127.042C149.731 126.69 149.056 126.317 148.338 126.056C147.65 125.803 147.025 126.095 146.736 126.735C146.393 127.466 146.223 128.273 145.963 129.123ZM180.024 153.307C181.051 152.718 182.247 152.309 182.319 151.004C182.387 149.79 181.309 149.248 180.533 148.517C179.415 150.053 179.445 151.598 180.024 153.307ZM172.975 148.285C173.419 148.78 173.796 149.287 174.268 149.694C175.098 150.416 175.751 150.335 176.461 149.472C176.785 149.084 177.059 148.649 177.408 148.159C175.911 147.771 174.525 147.128 172.975 148.285ZM153.136 134.138C153.584 132.34 152.743 131.181 151.807 129.99C151.407 130.551 150.998 131.009 150.726 131.541C150.32 132.311 150.463 132.829 151.218 133.272C151.791 133.621 152.438 133.832 153.136 134.138ZM177.145 143.568C177.634 142.798 178.099 142.178 178.457 141.492C178.803 140.823 178.623 140.373 177.926 140.067C177.326 139.806 176.699 139.633 176.066 139.42C175.394 141.048 176.37 142.183 177.145 143.568ZM160.459 128.336C160.032 127.782 159.651 127.249 159.225 126.743C158.82 126.276 158.308 126.244 157.88 126.677C157.319 127.265 156.83 127.917 156.227 128.63C157.756 128.957 159.113 129.424 160.459 128.336ZM184.153 147.478C184.461 147.163 184.727 146.923 184.959 146.648C186.118 145.237 185.983 144.676 184.311 143.949C184.221 143.909 184.121 143.898 184.043 143.842C183.576 143.545 183.396 143.797 183.264 144.215C182.87 145.47 183.543 146.413 184.153 147.478ZM150.267 123.098C150.299 123.204 150.338 123.315 150.37 123.421C151.252 123.419 152.155 123.538 153.014 123.401C153.947 123.244 154.078 122.659 153.466 121.949C153.32 121.786 153.175 121.623 153.015 121.462C152.429 120.866 151.961 120.854 151.417 121.501C151 122.002 150.65 122.561 150.267 123.098ZM168.319 127.676C169.17 127.735 169.896 127.634 170.373 126.915C170.946 126.061 170.769 125.173 170.443 124.144C169.934 124.424 169.493 124.609 169.124 124.894C168.212 125.589 168.555 126.678 168.319 127.676ZM174.185 131.737C174.583 131.58 174.986 131.415 175.389 131.25C176.174 130.916 176.702 130.091 176.718 129.234C176.725 128.857 176.603 128.711 176.219 128.699C174.397 128.651 173.444 130.054 174.185 131.737ZM154.318 119.534C154.672 117.667 153.59 116.647 151.586 116.921C151.594 118.747 152.599 119.725 154.318 119.534ZM185.62 132.958C185.73 134.024 185.45 134.8 184.737 135.434C183.622 136.414 182.368 136.52 181.028 136.113C180.304 135.894 179.602 135.608 178.87 135.384C178.196 135.177 177.523 135.103 176.958 135.378C177.942 135.734 178.989 136.052 179.979 136.483C181.507 137.144 182.969 137.114 184.414 136.288C185.671 135.576 186.176 134.282 185.62 132.958ZM164.234 126.361C163.965 125.669 163.836 125.066 163.531 124.575C163.078 123.859 162.492 123.227 161.981 122.542C161.101 121.355 160.789 120.039 161.503 118.703C161.829 118.078 162.459 117.611 162.899 117.127C162.014 117.234 161.3 117.785 160.951 118.726C160.282 120.534 160.626 122.172 161.937 123.605C162.686 124.425 163.363 125.312 164.234 126.361ZM153.579 141.868C155.425 140.78 155.509 139.543 153.856 138.222C152.818 138.744 152.533 140.278 153.579 141.868ZM168.882 148.868C166.918 147.85 165.597 148.467 165.586 150.387C167.317 150.764 168.364 150.296 168.882 148.868ZM189.732 144.241C189.566 143.255 189.174 142.535 188.368 142.08C187.916 141.829 186.476 142.113 186.512 142.447C186.572 142.93 186.837 143.477 187.19 143.799C187.879 144.421 188.782 144.255 189.732 144.241ZM151.668 120.18C151.621 120.112 151.588 120.041 151.542 119.972C151.046 120.201 150.458 120.342 150.057 120.687C148.949 121.623 148.599 123.552 149.19 124.877C149.62 125.826 150.649 126.404 151.561 126.209C152.481 126.02 153.437 125.213 153.846 124.255C153.5 124.556 153.209 124.849 152.873 125.086C152.147 125.604 151.37 125.943 150.496 125.415C149.623 124.888 149.296 124.06 149.412 123.095C149.568 121.707 150.183 120.61 151.668 120.18ZM181.974 144.641C181.913 144.609 181.846 144.586 181.785 144.554C181.534 145.124 181.208 145.666 181.057 146.261C180.746 147.467 181.222 148.318 182.351 148.789C183.949 149.452 186.44 148.227 186.842 146.526C186.932 146.15 186.869 145.737 186.873 145.347C186.535 147.058 185.327 148.303 183.72 148.42C182.168 148.527 181.193 147.44 181.522 145.926C181.624 145.498 181.818 145.077 181.974 144.641ZM169.304 131.02C169.457 130.272 169.219 129.687 168.581 129.279C167.996 128.898 167.426 128.98 166.869 129.345C165.814 130.057 166.692 130.98 166.465 131.949C167.095 131.6 167.721 131.439 167.981 131.041C168.229 130.659 168.117 130.032 168.158 129.49C168.968 129.638 169.127 130.335 169.304 131.02ZM172.557 132.719C170.991 132.996 170.722 133.34 170.916 134.906C171.596 134.402 172.803 135.096 173.083 133.784C173.249 133.034 173.058 132.433 172.421 131.991C171.95 131.667 171.461 131.652 170.981 131.941C171.625 131.972 172.241 131.994 172.557 132.719ZM174.538 141.33C174.493 140.691 174.6 140.041 174.367 139.566C174.055 138.951 173.332 138.864 172.659 138.873C172.521 140.369 172.905 140.916 174.538 141.33ZM159.359 130.599C160.199 131.84 160.799 132.018 162.086 131.447C161.565 129.79 160.558 129.466 159.359 130.599ZM174.865 142.658C175.013 144.037 176.149 145.049 177.338 144.884C178.54 144.717 179.66 143.278 179.464 142.15C179.043 143.493 178.149 144.379 177.177 144.424C176.237 144.457 175.368 143.79 174.865 142.658ZM157.476 130.519C156.355 130.137 155.328 129.691 155.364 128.371C155.39 127.2 156.113 126.418 157.128 125.879C155.692 126.225 154.647 127.741 154.944 128.977C155.182 129.979 156.374 130.745 157.476 130.519ZM166.776 140.917C168.209 140.927 168.956 141.281 169.227 142.104C169.501 142.954 169.225 143.459 168.048 144.192C168.838 144.219 169.374 143.935 169.688 143.277C170.005 142.599 169.811 141.985 169.36 141.449C168.641 140.604 167.723 140.64 166.776 140.917ZM162.126 137.688C162.103 136.434 161.607 135.628 160.799 135.326C160.057 135.047 159.275 135.192 158.854 135.749C158.464 136.281 158.325 136.86 158.685 137.557C158.873 136.191 159.221 135.737 160.07 135.663C160.962 135.597 161.585 136.16 162.126 137.688ZM163.349 133.382C163.159 131.628 162.636 129.756 161.603 128.401C162.138 129.937 162.778 131.762 163.349 133.382ZM172.179 138.21C172.168 138.142 172.143 138.077 172.132 138.009C171.146 138.224 170.161 138.438 169.183 138.657C169.198 138.704 169.207 138.758 169.214 138.798C170.209 138.603 171.197 138.403 172.179 138.21Z" fill="white"/>
<path d="M180.887 142.306C181.047 143.836 180.681 145.134 180.321 146.425C179.737 148.496 178.934 150.459 177.382 152.019C174.986 154.429 171.059 153.928 169.678 151.04C169.026 149.683 169.057 148.337 169.928 147.065C170.764 145.84 172.001 145.591 173.366 145.73C173.931 145.788 174.504 145.886 175.045 146.129C174.592 146.08 174.131 146.025 173.684 145.968C171.799 145.708 170.81 146.277 170.401 147.854C169.992 149.396 170.816 151.03 172.308 151.641C173.934 152.299 176.045 151.673 177.207 149.943C178.149 148.554 178.863 147.017 179.61 145.502C180.076 144.513 180.415 143.469 180.887 142.306Z" fill="#19453F"/>
<path d="M156.066 124.814C154.711 126.014 153.336 127.176 152.014 128.413C150.948 129.426 149.982 130.547 149.523 131.993C149.176 133.115 149.201 134.215 149.755 135.276C150.603 136.892 152.674 137.475 154.257 136.556C155.531 135.821 155.938 134.564 155.353 133.231C155.175 132.83 154.983 132.432 154.877 132.011C155.618 133.11 156.181 134.273 155.778 135.641C155.376 137.008 154.367 137.789 153 138.088C149.663 138.829 146.741 135.414 147.796 132.012C148.283 130.443 149.294 129.224 150.49 128.148C152.127 126.684 153.949 125.531 156.066 124.814Z" fill="#19453F"/>
<path d="M184.515 130.101C183.812 130.754 183.902 131.496 184.053 132.27C184.298 133.563 183.743 134.192 182.392 134.217C182.225 134.217 182.051 134.212 181.879 134.185C180.955 134.062 180.045 133.937 179.118 133.801C180.05 130.906 182.105 129.442 184.515 130.101Z" fill="#CA6C46"/>
<path d="M164.794 123.521C164.336 122.576 163.835 121.66 163.443 120.69C162.94 119.475 163.349 118.767 164.633 118.468C165.823 118.185 165.823 118.185 166.536 117.384C167.974 119.158 167.175 122.016 164.794 123.521Z" fill="#CA6C46"/>
<path d="M182.403 138.627C184.111 136.429 186.275 136.482 187.743 138.731C186.332 140.177 184.103 140.148 182.403 138.627Z" fill="#CA6C46"/>
<path d="M157.279 117.015C159.865 117.595 160.557 119.481 159.104 122.004C157.174 121.105 156.371 118.891 157.279 117.015Z" fill="#CA6C46"/>
<path d="M160.728 136.859C161.077 138.441 159.935 139.543 158.511 139.135C157.373 138.812 156.319 138.204 156.073 136.946C155.794 135.533 156.169 134.206 157.312 133.235C159.058 131.754 161.727 132.418 162.433 134.516C161.614 133.194 160.478 132.599 158.964 133.055C157.72 133.431 157.037 134.372 156.859 135.626C156.682 136.809 157.195 137.71 158.222 138.322C159.389 139.023 160.392 138.583 160.668 137.245C160.67 137.175 160.678 137.097 160.728 136.859Z" fill="#19453F"/>
<path d="M167.77 142.041C167.597 142.168 167.503 142.232 167.418 142.302C166.47 143.031 166.425 143.963 167.306 144.781C168.106 145.529 169.041 145.803 170.078 145.4C171.238 144.941 171.932 144.067 172.084 142.818C172.253 141.463 171.493 140.291 170.21 139.853C170.011 139.782 169.794 139.735 169.488 139.647C170.612 139.556 171.583 140.081 172.199 141.103C172.844 142.169 172.893 143.287 172.307 144.393C171.747 145.446 170.826 146.087 169.705 146.407C168.292 146.805 166.33 145.383 166.209 143.916C166.14 142.927 166.672 142.247 167.77 142.041Z" fill="#19453F"/>
<path d="M145.961 129.125C146.222 128.275 146.4 127.474 146.735 126.736C147.024 126.097 147.643 125.812 148.337 126.057C149.055 126.319 149.735 126.684 150.491 127.044C149.334 128.6 147.894 129.169 145.961 129.125Z" fill="#CA6C46"/>
<path d="M180.023 153.308C179.452 151.604 179.414 150.053 180.546 148.515C181.322 149.246 182.4 149.788 182.333 151.002C182.246 152.309 181.05 152.718 180.023 153.308Z" fill="#CA6C46"/>
<path d="M172.974 148.285C174.524 147.128 175.909 147.758 177.406 148.146C177.057 148.635 176.782 149.07 176.458 149.458C175.749 150.321 175.103 150.409 174.265 149.681C173.796 149.287 173.419 148.78 172.974 148.285Z" fill="#CA6C46"/>
<path d="M153.136 134.14C152.438 133.833 151.784 133.616 151.213 133.281C150.458 132.838 150.315 132.32 150.721 131.55C151.001 131.023 151.408 130.552 151.802 129.999C152.744 131.182 153.585 132.341 153.136 134.14Z" fill="#CA6C46"/>
<path d="M177.145 143.569C176.362 142.179 175.394 141.049 176.072 139.413C176.705 139.626 177.332 139.799 177.931 140.06C178.629 140.366 178.803 140.824 178.463 141.485C178.1 142.179 177.636 142.813 177.145 143.569Z" fill="#CA6C46"/>
<path d="M160.459 128.336C159.107 129.431 157.756 128.956 156.23 128.643C156.825 127.924 157.313 127.272 157.883 126.69C158.302 126.252 158.821 126.276 159.228 126.756C159.657 127.24 160.033 127.782 160.459 128.336Z" fill="#CA6C46"/>
<path d="M184.153 147.48C183.535 146.409 182.863 145.466 183.257 144.211C183.388 143.793 183.568 143.54 184.035 143.837C184.114 143.893 184.213 143.905 184.303 143.945C185.975 144.672 186.111 145.233 184.951 146.644C184.74 146.922 184.461 147.164 184.153 147.48Z" fill="#CA6C46"/>
<path d="M150.37 123.422C150.669 122.433 151.124 121.829 151.416 121.502C151.756 121.125 151.974 121.019 152.19 121.017C152.459 121.007 152.72 121.157 153.023 121.468C153.174 121.623 153.327 121.792 153.473 121.955C153.8 122.331 153.913 122.674 153.805 122.942C153.718 123.165 153.455 123.3 153.022 123.407C152.507 123.528 151.618 123.657 150.37 123.422Z" fill="#CA6C46"/>
<path d="M168.319 127.676C168.548 126.686 168.211 125.589 169.123 124.893C169.492 124.609 169.942 124.429 170.443 124.144C170.776 125.179 170.945 126.061 170.373 126.914C169.904 127.639 169.169 127.735 168.319 127.676Z" fill="#CA6C46"/>
<path d="M174.185 131.737C173.438 130.063 174.383 128.653 176.213 128.708C176.597 128.719 176.719 128.866 176.712 129.242C176.702 130.092 176.168 130.925 175.383 131.258C174.993 131.421 174.588 131.572 174.185 131.737Z" fill="#CA6C46"/>
<path d="M154.318 119.534C152.605 119.718 151.6 118.74 151.586 116.921C153.585 116.655 154.672 117.668 154.318 119.534Z" fill="#CA6C46"/>
<path d="M185.621 132.958C186.163 134.285 185.658 135.579 184.415 136.288C182.975 137.107 181.508 137.145 179.979 136.484C178.99 136.053 177.943 135.735 176.958 135.379C177.524 135.103 178.204 135.184 178.871 135.385C179.595 135.603 180.304 135.894 181.029 136.113C182.369 136.521 183.623 136.414 184.737 135.435C185.459 134.806 185.731 134.024 185.621 132.958Z" fill="#19453F"/>
<path d="M164.235 126.361C163.356 125.306 162.687 124.425 161.938 123.606C160.625 122.158 160.283 120.534 160.952 118.726C161.296 117.793 162.007 117.228 162.9 117.127C162.46 117.611 161.83 118.078 161.504 118.703C160.798 120.044 161.096 121.363 161.982 122.542C162.493 123.227 163.079 123.859 163.532 124.575C163.837 125.066 163.966 125.669 164.235 126.361Z" fill="#19453F"/>
<path d="M153.58 141.868C152.535 140.278 152.819 138.743 153.857 138.222C155.51 139.542 155.426 140.78 153.58 141.868Z" fill="#CA6C46"/>
<path d="M168.883 148.869C168.371 150.289 167.323 150.757 165.587 150.388C165.598 148.468 166.919 147.851 168.883 148.869Z" fill="#CA6C46"/>
<path d="M189.732 144.242C188.79 144.261 187.878 144.421 187.196 143.792C186.843 143.469 186.57 142.917 186.517 142.44C186.476 142.113 187.921 141.822 188.374 142.073C189.18 142.528 189.566 143.255 189.732 144.242Z" fill="#CA6C46"/>
<path d="M151.666 120.18C150.18 120.597 149.572 121.699 149.405 123.103C149.289 124.068 149.616 124.896 150.49 125.423C151.363 125.95 152.14 125.612 152.866 125.093C153.202 124.856 153.493 124.564 153.839 124.263C153.43 125.221 152.48 126.02 151.554 126.217C150.642 126.412 149.606 125.829 149.183 124.885C148.584 123.554 148.937 121.639 150.05 120.695C150.459 120.355 151.033 120.217 151.535 119.98C151.582 120.049 151.628 120.117 151.666 120.18Z" fill="#19453F"/>
<path d="M181.973 144.641C181.822 145.07 181.629 145.491 181.529 145.932C181.2 147.447 182.175 148.534 183.727 148.426C185.328 148.317 186.542 147.064 186.88 145.353C186.871 145.751 186.939 146.156 186.849 146.533C186.444 148.22 183.961 149.45 182.357 148.795C181.229 148.324 180.745 147.467 181.064 146.267C181.222 145.678 181.546 145.123 181.792 144.56C181.845 144.586 181.906 144.618 181.973 144.641Z" fill="#19453F"/>
<path d="M169.305 131.022C169.121 130.344 168.968 129.64 168.153 129.499C168.112 130.041 168.224 130.668 167.975 131.05C167.715 131.448 167.095 131.601 166.46 131.958C166.686 130.989 165.814 130.058 166.863 129.354C167.418 128.976 167.991 128.907 168.576 129.288C169.22 129.688 169.457 130.273 169.305 131.022Z" fill="#CA6C46"/>
<path d="M172.558 132.719C172.248 131.986 171.619 131.966 170.974 131.936C171.46 131.639 171.949 131.654 172.414 131.986C173.051 132.428 173.243 133.028 173.077 133.779C172.789 135.085 171.587 134.383 170.909 134.9C170.724 133.34 170.992 132.996 172.558 132.719Z" fill="#CA6C46"/>
<path d="M174.538 141.33C172.905 140.916 172.521 140.369 172.651 138.867C173.324 138.858 174.047 138.945 174.359 139.56C174.6 140.041 174.485 140.686 174.538 141.33Z" fill="#CA6C46"/>
<path d="M159.358 130.6C160.558 129.467 161.564 129.792 162.086 131.448C160.798 132.019 160.199 131.842 159.358 130.6Z" fill="#CA6C46"/>
<path d="M174.866 142.66C175.368 143.791 176.246 144.464 177.177 144.426C178.15 144.381 179.043 143.494 179.464 142.152C179.66 143.279 178.54 144.718 177.338 144.885C176.15 145.05 175 144.041 174.866 142.66Z" fill="#19453F"/>
<path d="M157.475 130.517C156.379 130.736 155.187 129.97 154.944 128.976C154.646 127.74 155.685 126.231 157.127 125.878C156.113 126.417 155.389 127.198 155.363 128.37C155.322 129.697 156.355 130.136 157.475 130.517Z" fill="#19453F"/>
<path d="M166.777 140.916C167.722 140.626 168.648 140.595 169.361 141.448C169.812 141.984 170.006 142.598 169.689 143.277C169.383 143.94 168.845 144.211 168.049 144.191C169.234 143.464 169.505 142.967 169.228 142.103C168.965 141.286 168.204 140.934 166.777 140.916Z" fill="#19453F"/>
<path d="M162.126 137.688C161.585 136.16 160.954 135.592 160.07 135.664C159.226 135.729 158.873 136.191 158.685 137.557C158.331 136.852 158.462 136.267 158.854 135.75C159.269 135.2 160.057 135.047 160.798 135.326C161.607 135.628 162.103 136.434 162.126 137.688Z" fill="#19453F"/>
<path d="M163.35 133.383C162.784 131.754 162.145 129.93 161.603 128.401C162.637 129.757 163.16 131.629 163.35 133.383Z" fill="#19453F"/>
<path d="M172.18 138.211C171.192 138.411 170.196 138.606 169.214 138.799C169.199 138.753 169.19 138.699 169.183 138.658C170.169 138.444 171.154 138.23 172.132 138.01C172.151 138.084 172.168 138.143 172.18 138.211Z" fill="#19453F"/>
<path d="M191.749 145.489C194.301 138.75 192.139 130.51 185.46 126.822C180.619 124.146 175.505 125.144 172.621 128.005C172.555 128.065 172.471 128.1 172.257 128.233C173.394 125.283 173.595 123.415 172.894 121.058C171.478 116.313 168.161 113.486 163.508 112.217C155.363 109.985 146.253 115.573 144.127 124.019C142.948 128.713 143.698 133.139 145.906 137.39C147.31 140.08 148.765 142.747 150.008 145.513C150.008 145.513 154.694 152.85 153.505 154.585C153.505 154.585 157.816 152.611 163.143 154.871C162.994 154.813 162.851 154.746 162.71 154.694C162.787 154.736 162.864 154.779 162.94 154.822C162.964 154.839 162.98 154.85 163.004 154.867C164.205 154.901 165.395 155.035 166.591 155.21C169.333 155.604 172.056 156.175 174.804 156.36C182.367 156.869 189.092 152.509 191.749 145.489ZM179.362 154.407C176.499 155.033 173.715 154.715 170.947 153.874C168.581 153.152 166.233 152.372 163.849 151.709C162.559 151.349 161.23 151.176 159.794 150.902C160.362 149.522 160.919 148.122 161.521 146.742C162.961 143.435 165.027 140.635 168.077 138.643C171.986 136.096 177.417 136.574 180.392 140.717C181.905 142.819 183.756 142.995 186.225 141.433C185.907 141.528 185.584 141.631 185.258 141.721C183.561 142.166 182.542 141.809 181.62 140.33C180.495 138.518 179.128 136.996 177.135 136.135C176.654 135.924 176.146 135.752 175.551 135.519C176.904 134.555 178.006 133.459 178.146 131.81C178.217 130.992 177.993 130.154 177.755 129.318C177.987 131.197 177.363 132.692 175.797 133.671C174.941 134.203 173.969 134.749 172.989 134.872C170.065 135.251 167.42 136.14 165.134 138.129C165.251 137.832 165.368 137.534 165.463 137.233C166.163 135.149 166.384 133.034 165.882 130.867C165.544 129.436 165.484 128.001 165.934 126.584C166.436 124.978 167.455 123.931 169.166 123.651C169.274 123.633 169.38 123.601 169.573 123.548C167.324 122.945 165.51 124.306 164.291 127.437C164.212 127.381 164.111 127.356 164.064 127.287C162.666 125.291 160.744 124.064 158.391 123.507C158.175 123.46 157.964 123.405 157.748 123.358C156.074 122.951 155.367 122.09 155.264 120.363C155.243 120.026 155.256 119.69 155.255 119.273C154.427 122.289 155.487 123.925 157.815 124.667C161.557 125.846 163.542 128.522 164.012 132.355C164.252 134.323 163.753 136.193 162.979 137.998C161.668 141.074 159.467 143.445 156.979 145.6C156.275 146.205 155.568 146.796 154.794 147.447C153.153 143.671 150.451 140.699 148.166 137.441C146.32 134.805 145.041 131.906 145.189 128.608C145.529 120.865 151.613 113.763 160.011 113.784C160.275 113.781 160.535 113.8 160.821 113.933C160.451 114.085 160.07 114.219 159.718 114.396C158.532 114.991 158.237 116.174 159.058 117.21C159.216 117.406 159.666 117.525 159.919 117.455C160.828 117.198 161.222 116.611 161.257 115.576C161.271 115.039 161.215 114.499 161.19 113.85C164.755 114.308 167.651 115.907 169.725 118.825C173.42 124.028 171.844 128.879 168.524 133.523C169.673 132.259 170.754 130.911 171.989 129.744C175.236 126.69 179.893 126.2 184 128.353C186.409 129.616 188.142 131.494 189.458 133.955C188.825 134.159 188.299 134.295 187.804 134.49C186.899 134.857 186.423 135.577 186.478 136.485C186.488 136.67 186.595 136.937 186.743 137.031C187.681 137.652 189.072 137.119 189.34 136.025C189.472 135.488 189.468 134.926 189.686 134.32C189.96 135.288 190.301 136.246 190.481 137.23C192.168 146.37 185.007 153.181 179.362 154.407Z" fill="#19453F"/>
<path d="M153.504 154.585C153.504 154.585 158.768 154.48 165.206 155.032L159.426 152.354L154.785 153.189L153.504 154.585Z" fill="#19453F"/>
<path d="M153.527 154.602C153.176 153.542 152.792 152.46 152.386 151.361C151.364 148.586 150.265 146.018 149.137 143.644C150.654 145.189 152.185 146.732 153.702 148.277L154.429 152.936L153.527 154.602Z" fill="#19453F"/>
</g>
<rect x="0.710616" y="0.210616" width="246.079" height="245.579" rx="122.789" stroke="#DFDFDF" stroke-width="0.421233"/>
<defs>
<clipPath id="clip0_2391_2407">
<rect x="0.5" width="246.5" height="246" rx="123" fill="white"/>
</clipPath>
<clipPath id="clip1_2391_2407">
<rect width="74.4135" height="116.241" fill="white" transform="translate(49 67.1904) rotate(-4)"/>
</clipPath>
</defs>
</svg>
