<svg width="247" height="246" viewBox="0 0 247 246" fill="none" xmlns="http://www.w3.org/2000/svg">
<g clip-path="url(#clip0_2394_2968)">
<rect x="0.5" width="246.5" height="246" rx="123" fill="#E4EBE4"/>
<path d="M59.4956 319.355C54.1902 271.849 49.6216 212.431 48.8847 164.484C48.7373 157.278 49.1794 149.041 53.8954 144.335C57.5798 140.658 62.8853 140.364 67.7486 140.07C70.6961 139.923 73.7909 139.776 76.4437 141.541C81.8965 145.07 81.8965 153.748 81.1597 160.807C76.4437 209.489 70.4013 268.908 65.6854 317.59" fill="#19453F"/>
<path d="M92.9498 317.588C84.5494 270.671 77.0333 214.194 73.0542 166.542C72.4647 159.335 72.17 151.099 76.2965 146.099C79.5387 142.275 84.4021 141.392 88.9707 140.804C91.7708 140.51 94.5709 140.068 97.2236 141.539C102.529 144.628 103.119 153.305 102.971 160.365C101.94 209.194 100.761 269.642 99.729 318.471" fill="#19453F"/>
<path d="M53.896 102.859C51.0959 118.302 49.0327 127.567 45.9378 141.981C44.7588 147.423 41.6639 162.571 40.3376 167.866C38.8638 173.896 32.3794 174.484 33.1162 165.072C33.7057 157.571 34.4426 152.129 34.8847 145.511C36.0637 127.126 36.2111 113.154 39.6007 96.6816" fill="#F4DCC9"/>
<path d="M40.3386 167.718C39.7491 170.66 39.6017 173.748 39.7491 176.69C40.0438 179.925 40.1912 183.308 40.3386 185.955C40.3386 187.426 39.1596 187.426 38.7175 186.544C38.2753 185.661 37.3911 184.485 36.949 183.455C36.6542 182.867 35.6226 182.867 35.3279 183.455C34.2962 185.661 33.2646 189.779 33.412 192.721C33.5594 195.515 31.4961 198.31 30.4645 195.074C29.1381 191.25 28.8434 185.955 29.1381 183.161C29.7276 175.954 32.6751 172.719 33.1172 165.218" fill="#F4DCC9"/>
<path d="M111.667 88.5899C116.236 91.0902 116.236 98.7381 116.088 104.915C115.794 125.065 121.689 144.773 132.594 159.48C133.773 160.951 135.247 162.569 135.836 164.187C136.573 166.099 135.836 168.893 135.1 170.805C134.363 172.717 133.626 174.041 132.447 175.659C131.857 176.394 130.384 177.57 129.499 177.129C128.763 176.688 129.057 175.217 129.205 174.335C130.089 170.511 130.236 168.158 126.699 164.187H126.552C113.436 148.303 100.319 130.212 98.8455 107.71C98.5508 103.003 98.8455 97.8557 101.056 93.7376C103.267 89.3253 107.983 86.6779 111.667 88.5899Z" fill="#F4DCC9"/>
<path d="M51.2441 110.504C46.9702 108.739 42.549 107.121 38.2751 105.356C37.833 105.209 37.2435 104.915 37.0961 104.474C36.9487 104.18 36.9487 103.739 36.9487 103.297C37.5382 95.5024 40.191 87.7074 45.3491 81.6774C50.5072 75.6473 58.4654 71.6762 66.7184 71.9704C67.75 71.9704 68.9289 72.1175 69.3711 72.9999C69.8132 73.7353 69.8132 74.6177 69.6658 75.3531C68.4868 82.4127 65.5393 89.0311 62.4445 95.5024C60.8234 98.8852 59.2022 102.415 57.5811 105.798" fill="#CA6C46"/>
<path d="M101.941 107.565C106.362 104.917 110.783 102.417 115.352 99.7696C115.794 99.4755 116.383 99.1813 116.531 98.7401C116.678 98.2989 116.678 98.0047 116.531 97.5635C114.762 89.9156 110.931 82.7089 104.446 77.8554C98.109 73.0019 88.9718 70.6487 79.982 72.5607C78.9504 72.8549 77.624 73.149 77.1819 74.1785C76.7397 74.9139 76.8871 75.7964 77.1819 76.6788C79.3925 83.4443 83.519 89.3273 87.6454 95.0632C89.8561 98.1518 92.0667 101.24 94.2773 104.329" fill="#CA6C46"/>
<g opacity="0.1">
<path d="M49.0335 91.5327C47.1177 96.9745 46.5281 102.857 46.2334 108.74C48.2966 109.476 50.3599 110.358 52.2758 111.094L58.6129 106.534C60.234 103.152 61.8551 99.6218 63.4762 96.2391C66.4237 89.7678 69.5185 83.1494 70.6975 76.0898C70.8449 75.2073 70.8449 74.3249 70.4028 73.7366C69.8133 73.0012 68.6343 72.707 67.7501 72.707C67.0132 72.707 66.2763 72.707 65.6868 72.707C58.3181 76.6781 52.1284 83.2965 49.0335 91.5327Z" fill="black"/>
</g>
<g opacity="0.1">
<path d="M93.6873 104.622L101.203 107.857C101.94 107.416 102.824 106.975 103.561 106.534C102.53 97.4149 100.761 88.1491 95.161 81.3837C91.4767 76.9714 86.3186 73.8828 80.8657 73.1475C86.1712 83.0015 87.9397 94.9146 93.6873 104.622Z" fill="black"/>
</g>
<path d="M75.4131 180.807C68.0444 180.807 54.0438 179.63 49.9174 174.482C47.2646 171.1 47.2646 166.687 47.2646 162.569C46.9699 150.509 46.8225 107.563 50.3595 93.0026C51.5385 88.002 53.4543 83.0015 56.844 78.7363C60.2336 74.4711 61.2652 71.2354 75.2657 71.9708C87.0557 72.5591 91.0348 75.0594 94.5718 80.207C97.9614 85.2076 99.2878 92.4143 100.614 98.1502C104.298 114.329 104.741 144.038 104.741 165.658C104.741 168.158 103.562 175.218 101.204 176.1C95.3087 178.306 83.3713 180.807 75.4131 180.807Z" fill="#CA6C46"/>
<path d="M70.1071 57.7046C63.3279 56.0868 60.9699 41.0851 63.3279 33.8784C64.0647 31.8194 65.8332 29.0249 67.8965 28.1425C70.4018 26.9659 73.3493 26.5247 75.2652 27.113C79.3917 28.2896 81.6023 28.8779 84.8445 29.0249C87.792 29.172 88.971 29.4662 91.0342 31.5252C92.2132 32.7018 91.0342 34.7609 91.329 36.3787C93.0975 44.4678 86.3183 52.8511 78.36 55.9397" fill="#0B2925"/>
<path d="M68.6341 73.882C68.9289 69.9109 69.371 63.8808 69.6658 61.2335C69.8132 60.0569 69.8132 59.0274 69.9605 57.8508C69.9605 57.5566 70.1079 57.2625 70.2553 57.1154C70.4026 56.9683 70.55 56.9683 70.8448 56.9683C72.7606 56.6742 74.6765 57.8508 76.5924 58.4391C78.9504 59.1744 81.4557 58.8803 83.6663 59.4686C83.9611 59.4686 84.2558 59.6157 84.4032 59.9098C84.5506 60.0569 84.5506 60.204 84.5506 60.4981C84.5506 63.7338 84.4032 70.6463 84.4032 74.7644C84.4032 75.6469 83.2242 80.0591 77.624 80.0591C72.1711 79.9121 68.4868 75.4998 68.6341 73.882Z" fill="#F4DCC9"/>
<path d="M70.255 57.1164C70.4024 56.9693 70.5498 56.9693 70.8445 56.9693C72.7604 56.6751 74.6762 57.8517 76.5921 58.44C78.9501 59.1754 81.4555 58.8813 83.6661 59.4696C83.9608 59.4696 84.2556 59.6166 84.403 59.9108C84.5503 60.0579 84.5503 60.2049 84.5503 60.4991C84.5503 62.264 84.5503 64.176 84.5503 65.9409C82.3397 66.9704 80.1291 67.5587 77.7711 67.5587C74.5289 67.4116 71.434 65.6467 69.6655 62.8523C69.6655 62.264 69.8129 61.8228 69.8129 61.2345C69.9603 60.0579 69.9603 59.0283 70.1076 57.8517C69.9603 57.5576 70.1076 57.4105 70.255 57.1164Z" fill="#E5C8B1"/>
<path d="M68.9288 52.2621C66.7182 51.5267 64.9497 49.9088 64.9497 48.1439C64.9497 46.379 67.013 44.6141 69.2236 44.9083" fill="#F4DCC9"/>
<path d="M68.6346 52.4099C69.3714 61.3815 74.9717 63.4405 80.8666 66.5291C81.8983 67.1174 83.6667 67.5586 84.8457 67.5586C87.7932 67.7057 89.5617 65.0583 90.5933 62.8522C92.3618 58.8812 93.5408 54.7631 94.4251 50.4979C95.0146 47.5564 95.3093 44.6149 94.4251 41.6734C93.5408 38.7319 91.3302 36.0845 87.9406 34.9079C83.8141 33.5842 79.2455 34.9079 76.0033 37.2611C71.1399 40.6438 67.8977 45.9386 68.6346 51.3803" fill="#F4DCC9"/>
<path d="M94.2774 50.3516C93.8353 52.9989 93.9827 52.5577 93.9827 54.1755C93.9827 54.3226 94.13 55.6463 94.8669 56.3817C95.4564 56.97 95.4564 58.1466 94.7195 58.5878C94.2774 58.8819 93.9826 59.029 93.5405 59.029C92.8036 59.029 92.2142 58.7349 91.9194 58.1466" fill="#F4DCC9"/>
<path d="M86.1729 44.1725C86.0255 44.1725 86.1729 44.3196 86.3202 44.3196C86.4676 44.3196 86.615 44.3196 86.7624 44.3196C88.2361 44.0254 90.0046 44.1725 91.4783 44.7608C91.6257 44.9079 91.9204 44.9079 92.2152 45.0549C92.5099 45.0549 92.8047 45.0549 92.8047 44.7608V44.6137C92.6573 44.3196 92.2152 44.0254 91.9205 43.8783C90.5941 43.29 89.1203 43.143 87.6466 43.4371C86.9097 43.7313 86.3202 43.8783 86.1729 44.1725Z" fill="#5F4E41"/>
<g opacity="0.54">
<path d="M77.7725 53.4392C77.3304 55.3512 78.6568 57.2631 80.72 57.7044C82.7833 58.1456 84.6991 56.969 85.1412 54.9099C85.5834 52.998 84.257 51.086 82.1938 50.6448C80.1305 50.2035 78.0673 51.5272 77.7725 53.4392Z" fill="#D9B89E"/>
</g>
<path d="M88.2361 49.0266C88.0887 50.0561 88.5308 50.9386 89.1203 51.0857C89.7098 51.2328 90.2993 50.3503 90.4467 49.3208C90.5941 48.2912 90.152 47.4088 89.5625 47.2617C88.973 47.2617 88.3835 47.9971 88.2361 49.0266Z" fill="#0B2925"/>
<path d="M99.8766 28.8777C98.9924 26.2304 96.487 24.1713 93.6869 24.0242C88.3814 23.583 83.9602 29.3189 78.6547 29.0248C77.3283 29.0248 76.1494 28.5836 74.823 28.5836C71.4334 28.4365 68.3385 31.378 67.3069 34.6136C66.2753 37.8493 66.8648 41.5262 68.0438 44.7618L69.2228 45.056C69.2228 45.056 69.2228 45.056 69.2228 44.9089C69.5175 45.6443 69.9596 46.3797 70.2544 46.968C70.5491 47.7034 71.5808 47.7034 71.8755 46.968C73.4966 42.5557 75.4125 39.7613 79.539 38.2905C80.5706 37.9964 81.7496 37.8493 82.9286 37.8493C85.4339 37.8493 87.9393 38.2905 90.4447 38.2905C92.95 38.2905 95.6028 37.9964 97.5186 36.3786C99.8766 34.6136 100.761 31.5251 99.8766 28.8777Z" fill="#0B2925"/>
<path d="M168.111 321.558C164.132 280.818 160.89 229.636 160.3 188.455C160.3 182.277 160.448 175.218 163.985 171.1C166.785 168.011 170.616 167.57 174.153 167.423C176.364 167.276 178.722 167.276 180.491 168.599C184.47 171.541 184.47 179.042 184.028 185.219C180.491 226.988 176.069 278.17 172.68 319.94" fill="#F4DCC9"/>
<path d="M190.807 319.94C185.648 279.494 181.227 230.813 179.459 189.926C179.164 183.748 179.164 176.689 182.554 172.424C185.059 169.188 188.891 168.6 192.428 168.158C194.491 167.864 196.849 167.717 198.765 168.894C202.744 171.688 203.039 179.189 202.744 185.219C200.681 227.136 198.175 279.053 195.965 320.97" fill="#F4DCC9"/>
<path d="M199.355 131.243C208.492 126.684 208.492 116.536 207.46 110.064C206.576 104.77 202.302 100.799 200.829 95.7981C198.618 88.4444 205.545 80.2081 202.597 73.1485C201.123 69.4716 200.386 65.9418 199.65 61.9708C199.06 59.1764 197.292 56.0878 194.344 52.705C191.397 49.3223 185.354 47.8516 180.933 47.8516C176.07 47.8516 170.175 50.4989 168.111 54.9112C166.196 59.3234 166.49 65.5006 167.522 70.207C168.554 74.9134 153.374 110.506 155.143 115.065C156.616 118.889 175.185 91.8271 176.364 95.7981C178.428 103.005 179.312 128.89 186.091 131.979C189.186 133.302 193.165 134.332 199.355 131.243Z" fill="#0B2925"/>
<path d="M190.364 112.418C195.08 125.949 198.322 133.891 203.333 146.539C205.101 151.246 210.259 164.482 212.175 169.042C214.386 174.337 220.133 173.748 218.07 165.512C216.302 158.747 214.975 154.04 213.502 148.157C209.67 131.685 207.459 119.183 202.006 104.917" fill="#F4DCC9"/>
<path d="M212.176 168.748C213.207 171.396 213.797 174.043 213.944 176.838C214.239 179.779 214.534 182.868 214.829 185.368C214.976 186.692 216.155 186.397 216.302 185.662C216.597 184.927 217.187 183.603 217.334 182.573C217.481 181.985 218.365 181.838 218.808 182.279C219.987 184.044 221.608 187.721 221.902 190.368C222.197 192.869 224.408 195.075 224.85 192.133C225.439 188.604 224.85 183.75 224.26 181.103C222.639 174.631 219.544 172.278 218.071 165.513" fill="#F4DCC9"/>
<path d="M157.352 102.712C152.931 104.33 151.899 110.948 151.162 116.39C148.51 134.186 140.552 150.511 128.909 161.836C127.583 163.013 126.256 164.189 125.519 165.513C124.635 167.131 124.782 169.631 125.225 171.396C125.667 173.161 125.961 174.484 126.846 176.102C127.14 176.838 128.467 178.014 129.204 177.867C129.941 177.573 129.941 176.249 129.941 175.367C129.793 171.984 129.941 169.778 133.625 166.837C147.331 154.776 161.331 140.951 165.9 121.243C166.932 117.125 167.374 112.566 166.047 108.595C164.426 104.477 160.742 101.388 157.352 102.712Z" fill="#F4DCC9"/>
<path d="M147.921 237.432C158.679 243.609 171.501 245.08 183.733 243.609C195.965 242.285 207.755 238.314 219.545 234.196C220.724 233.755 221.903 233.314 222.492 232.284C223.229 231.108 222.787 229.637 222.345 228.313C214.829 204.193 209.081 187.426 201.565 163.306C200.534 160.07 196.849 148.304 196.702 144.921C196.554 140.95 197.881 139.921 199.355 136.244C203.334 125.802 203.481 106.241 203.039 105.358C202.597 104.476 201.713 103.74 200.828 103.299C187.859 95.21 170.617 94.6217 157.205 101.681C155.29 102.711 153.521 103.887 152.489 105.652C150.868 108.594 152.932 126.684 159.711 137.715C161.037 139.774 162.364 141.98 162.953 144.333C163.69 147.422 160.006 159.776 158.384 166.1C151.605 195.074 150.132 211.547 147.921 232.872" fill="#CA6C46"/>
<path d="M185.796 97.4158C185.354 93.4448 184.322 85.2086 184.028 82.4142C183.88 81.2376 183.733 80.208 183.586 79.0314C183.586 78.7373 183.438 78.4431 183.291 78.2961C183.143 78.149 182.996 78.149 182.849 78.149C181.375 77.8548 180.049 79.0314 178.575 79.6197C176.806 80.3551 174.89 80.061 173.122 80.6493C172.975 80.6493 172.68 80.7963 172.532 81.0905C172.532 81.2376 172.532 81.3846 172.532 81.6788C172.68 84.9144 171.943 93.5919 172.238 97.71C172.238 98.5924 174.743 102.416 179.901 102.122C183.88 102.122 185.944 99.0337 185.796 97.4158Z" fill="#F4DCC9"/>
<path d="M183.291 78.591C183.144 78.4439 182.996 78.4439 182.849 78.4439C181.375 78.1497 180.049 79.3263 178.575 79.9146C176.807 80.65 174.891 80.3559 173.122 80.9442C172.975 80.9442 172.68 81.0913 172.533 81.3854C172.533 81.5325 172.533 81.6796 172.533 81.9737C172.68 83.7386 172.68 85.6506 172.827 87.4155C174.596 88.445 176.364 89.0333 178.133 88.8862C180.638 88.7392 182.996 86.9743 184.175 84.1798C184.175 83.5915 184.028 83.1503 184.028 82.562C183.881 81.3854 183.733 80.3559 183.586 79.1793C183.586 79.0322 183.438 78.738 183.291 78.591Z" fill="#E5C8B1"/>
<path d="M188.006 76.6791C190.217 76.6791 192.428 75.7967 193.164 74.1789C193.754 72.561 192.428 70.2078 190.217 69.7666" fill="#F4DCC9"/>
<path d="M188.154 76.827C184.47 85.0632 178.427 85.0632 171.943 85.9456C170.764 86.0927 168.995 85.9456 167.816 85.6515C165.016 84.769 164.279 81.8275 163.985 79.3272C163.69 75.062 163.837 70.6498 164.574 66.5317C165.016 63.5902 165.753 60.6487 167.669 58.2955C169.437 55.9423 172.532 54.0303 175.922 54.0303C180.196 54.0303 184.027 56.9718 186.385 60.2074C189.922 64.9138 191.101 71.091 188.449 75.9445" fill="#F4DCC9"/>
<path d="M164.722 66.2354C164.28 68.8827 164.28 68.4415 163.69 69.9122C163.69 70.0593 163.101 71.383 162.069 71.8242C161.332 72.1184 160.89 73.295 161.48 74.0303C161.774 74.4716 162.069 74.6186 162.511 74.7657C163.101 75.0599 163.838 74.9128 164.28 74.4716" fill="#F4DCC9"/>
<path d="M195.228 71.3825C189.038 69.6176 183.733 66.2349 179.017 62.558C176.806 60.7931 174.596 58.8811 173.269 56.675C172.532 55.4984 172.09 53.8805 173.122 52.851C174.154 51.8215 176.364 51.9686 178.133 52.4098C179.312 52.7039 180.638 53.1452 181.817 53.4393C183.88 54.1747 185.796 55.0571 187.417 56.3808C189.333 57.8516 190.659 59.6165 191.838 61.5285C193.165 63.4404 194.491 65.3524 194.344 67.5586" fill="#0B2925"/>
<path d="M174.448 63.1458C174.595 63.2929 174.448 63.2929 174.301 63.2929C174.153 63.2929 174.006 63.1458 174.006 63.1458C172.68 62.2634 170.911 61.8221 169.437 61.9692C169.143 61.9692 168.995 61.9692 168.7 61.9692C168.406 61.9692 168.258 61.6751 168.258 61.528L168.406 61.3809C168.7 61.2338 169.143 61.0868 169.585 61.0868C170.911 60.9397 172.532 61.3809 173.711 62.1163C173.859 62.5575 174.301 62.8517 174.448 63.1458Z" fill="#672C2C"/>
<g opacity="0.54">
<path d="M179.164 74.7645C178.869 76.6765 176.953 78.0002 174.89 77.706C172.827 77.4119 171.353 75.647 171.648 73.5879C171.943 71.6759 173.859 70.3522 175.922 70.6464C178.132 70.9405 179.459 72.7054 179.164 74.7645Z" fill="#E5C8B1"/>
</g>
<path d="M170.763 66.9694C170.469 67.9989 169.879 68.7343 169.29 68.5872C168.7 68.4401 168.405 67.5577 168.7 66.5282C168.995 65.4986 169.584 64.7633 170.174 64.9103C170.763 65.0574 171.058 65.9399 170.763 66.9694Z" fill="#15213F"/>
<path d="M148.679 36.9842C148.327 37.2305 148.029 37.4154 147.76 37.6299C147.272 38.029 147.115 38.564 147.322 39.1139C147.364 39.2266 147.481 39.3709 147.59 39.4003C148.288 39.6045 149.044 39.0107 149.001 38.2842C148.98 37.9278 148.871 37.5816 148.889 37.1658C149.243 37.7114 149.637 38.2371 149.935 38.8105C152.702 44.1435 149.575 49.7107 146.331 51.546C144.684 52.4786 142.905 52.8136 141.036 52.8221C139.438 52.8279 137.84 52.7942 136.243 52.8397C135.377 52.8636 134.524 53.0102 133.586 53.1154C133.673 52.155 133.75 51.1846 133.858 50.2182C134.116 47.9031 134.857 45.7808 136.36 43.9695C138.286 41.6523 141.729 40.9114 144.356 42.9007C145.691 43.9092 146.866 43.6648 148.092 42.2303C147.914 42.3495 147.734 42.4747 147.55 42.592C146.588 43.1903 145.891 43.1642 145.04 42.4278C144 41.5236 142.866 40.8453 141.472 40.6942C141.135 40.6554 140.788 40.6464 140.376 40.6157C141.028 39.7628 141.499 38.8766 141.271 37.8318C141.158 37.3133 140.86 36.8389 140.554 36.3684C141.056 37.4839 140.955 38.5255 140.176 39.4283C139.749 39.9203 139.253 40.4422 138.672 40.705C136.94 41.4972 135.477 42.5501 134.446 44.2138C134.461 44.0078 134.476 43.8019 134.478 43.5979C134.512 42.1783 134.245 40.8306 133.522 39.589C133.04 38.7705 132.729 37.8962 132.737 36.9359C132.74 35.8489 133.17 35.0084 134.172 34.509C134.236 34.4772 134.295 34.4375 134.404 34.3679C132.901 34.425 132.041 35.6111 131.886 37.7755C131.826 37.7558 131.759 37.7599 131.717 37.7264C130.474 36.7612 129.053 36.3707 127.495 36.4755C127.353 36.4877 127.212 36.494 127.07 36.5062C125.959 36.5743 125.358 36.1778 124.966 35.1314C124.888 34.9276 124.832 34.7179 124.752 34.4607C124.816 36.48 125.783 37.2874 127.361 37.3014C129.895 37.315 131.63 38.5878 132.652 40.8642C133.175 42.033 133.224 43.2822 133.09 44.5437C132.868 46.6924 131.962 48.5755 130.837 50.38C130.518 50.8876 130.194 51.3873 129.841 51.9366C128.108 49.9194 125.873 48.6003 123.842 47.0253C122.2 45.7503 120.858 44.2053 120.32 42.1416C119.053 37.2979 121.453 31.7543 126.64 30.1657C126.802 30.1138 126.967 30.0758 127.169 30.103C126.969 30.2678 126.76 30.4228 126.576 30.5994C125.958 31.1929 126.001 31.9788 126.705 32.4622C126.84 32.5529 127.141 32.5403 127.283 32.4489C127.795 32.117 127.927 31.6791 127.751 31.0341C127.657 30.6998 127.52 30.3774 127.38 29.9817C129.668 29.5841 131.76 30.0186 133.597 31.4238C136.87 33.9303 136.822 37.2249 135.659 40.7242C136.127 39.7252 136.537 38.6868 137.077 37.7311C138.498 35.2271 141.279 34.0363 144.224 34.5816C145.971 34.8822 147.397 35.7162 148.679 36.9842ZM144.966 43.7882C144.902 44.5981 144.886 45.305 144.775 46.0002C144.605 47.0717 144.456 48.163 144.139 49.1992C143.746 50.4871 142.568 51.278 141.44 51.1817C140.408 51.0912 139.582 50.2379 139.54 49.2085C139.498 48.1592 140 47.6195 141.207 47.4185C141.5 47.3703 141.789 47.3142 142.078 47.258C141.697 47.2114 141.327 47.2539 140.965 47.332C140.094 47.5123 139.384 47.9041 139.098 48.8116C138.803 49.7626 139.041 50.5996 139.702 51.3127C141.111 52.8338 143.624 52.3921 144.643 50.4473C145.303 49.1885 145.425 47.8241 145.39 46.4343C145.378 45.573 145.356 44.7019 144.966 43.7882ZM126.31 37.7257C125.142 38.566 124.23 39.6295 123.51 40.8488C122.978 41.7411 122.58 42.6845 122.585 43.7477C122.583 46.0483 125.037 47.5985 126.955 46.5049C127.736 46.0575 128.212 45.3773 128.204 44.4646C128.191 43.5439 127.622 42.9336 126.955 42.3966C127.1 42.6359 127.295 42.8453 127.481 43.0586C128.103 43.7718 128.085 44.6232 127.439 45.3198C126.638 46.1889 125.248 46.224 124.416 45.3885C123.871 44.8454 123.645 44.1708 123.647 43.4065C123.649 42.4245 124.031 41.5485 124.502 40.7217C125.074 39.7106 125.703 38.725 126.31 37.7257ZM144.876 35.562C143.257 35.6134 142.266 36.9147 142.251 38.8748C142.843 38.7803 143.435 38.6858 144.028 38.5854C144.139 38.5692 144.248 38.5393 144.351 38.5074C145.18 38.2341 145.404 37.7346 145.004 36.9892C144.766 36.5344 144.567 36.0993 144.876 35.562ZM131.45 35.2641C132.631 33.8871 132.578 31.9707 131.347 31.1481C131.059 31.7784 131.059 31.7784 130.379 32.18C129.65 32.6114 129.534 33.1205 130.068 33.7785C130.505 34.2923 130.987 34.7682 131.45 35.2641ZM145.199 41.2276C146.537 41.848 147.924 41.4427 148.515 40.2732C147.174 39.1637 145.836 39.5392 145.199 41.2276ZM125.571 32.6808C125.369 34.0117 126.288 35.2192 127.649 35.4119C128.062 33.5835 127.278 32.5459 125.571 32.6808ZM131.486 44.2705C131.508 44.4229 131.516 44.4783 131.52 44.5258C131.603 45.4106 131.07 45.8673 130.216 45.6575C129.465 45.4752 128.977 45.017 128.86 44.2531C128.732 43.4456 128.973 42.7342 129.669 42.2653C130.517 41.695 131.333 41.8395 132.089 42.5049C131.253 41.3448 129.479 41.4441 128.684 42.6914C128.164 43.5084 128.188 44.3933 128.627 45.2179C129.019 45.9475 129.784 46.1278 130.55 46.1041C131.508 46.078 131.995 45.1839 131.486 44.2705ZM136.82 46.1265C136.179 46.4686 135.977 46.9819 136.216 47.5752C136.57 48.4574 138.053 48.9606 138.849 48.4459C139.48 48.0345 139.926 47.4632 140.071 46.7066C140.221 45.9123 139.978 45.2318 139.377 44.6967C138.801 44.1833 138.102 44.0445 137.426 44.3154C137.631 44.3109 137.774 44.2987 137.911 44.3043C138.786 44.3299 139.476 44.9143 139.633 45.7771C139.777 46.5766 139.514 47.2544 138.887 47.7529C138.322 48.2057 137.694 48.2092 137.058 47.8999C136.364 47.565 136.21 46.9734 136.654 46.3486C136.698 46.297 136.743 46.2395 136.82 46.1265ZM120.897 42.3124C122.097 41.9709 122.878 41.3454 123.295 40.1643C122.758 40.0924 122.271 39.9906 121.778 39.9661C121.305 39.9415 120.975 40.2413 120.918 40.6908C120.846 41.2078 120.895 41.7382 120.897 42.3124ZM146.531 50.7417C147.052 50.1821 147.712 49.7013 147.508 48.8822C147.318 48.1204 146.55 47.9916 145.931 47.6882C145.534 48.8494 145.847 49.797 146.531 50.7417ZM141.222 48.9866C141.591 49.2074 141.92 49.4482 142.289 49.6096C142.939 49.8971 143.327 49.7219 143.6 49.054C143.726 48.7528 143.813 48.4318 143.935 48.0633C142.937 48.1093 141.958 47.977 141.222 48.9866ZM126.28 44.0396C126.214 42.8439 125.474 42.2894 124.669 41.733C124.529 42.1551 124.364 42.5158 124.297 42.8961C124.194 43.4488 124.381 43.7413 124.931 43.8707C125.351 43.9765 125.791 43.9834 126.28 44.0396ZM142.896 45.2801C143.051 44.7115 143.22 44.2399 143.31 43.7487C143.396 43.2693 143.2 43.0263 142.711 42.97C142.291 42.9236 141.871 42.9365 141.439 42.9256C141.335 44.0584 142.154 44.5731 142.896 45.2801ZM129.693 39.0618C129.324 38.8013 128.987 38.5448 128.628 38.314C128.289 38.103 127.967 38.181 127.785 38.5299C127.551 38.9997 127.374 39.4951 127.138 40.05C128.143 39.9605 129.07 39.9899 129.693 39.0618ZM147.967 46.3567C148.098 46.103 148.216 45.9047 148.306 45.6906C148.753 44.5986 148.562 44.2784 147.392 44.1486C147.328 44.1408 147.265 44.1528 147.206 44.1332C146.861 44.039 146.798 44.2292 146.797 44.5123C146.793 45.3617 147.388 45.8156 147.967 46.3567ZM122.404 37.7728C122.444 37.8321 122.489 37.8934 122.529 37.9527C123.073 37.7831 123.653 37.6846 124.157 37.4359C124.703 37.1614 124.673 36.7754 124.159 36.4539C124.038 36.3809 123.917 36.308 123.788 36.239C123.312 35.9828 123.022 36.0647 122.809 36.5681C122.648 36.9565 122.538 37.3686 122.404 37.7728ZM134.418 37.1555C134.955 37.0295 135.384 36.8285 135.541 36.2935C135.731 35.6575 135.453 35.1434 135.056 34.5702C134.795 34.8401 134.558 35.0387 134.384 35.2846C133.954 35.8876 134.373 36.4944 134.418 37.1555ZM138.813 38.5426C139.029 38.3698 139.246 38.1911 139.463 38.0124C139.884 37.657 140.053 37.0468 139.899 36.5146C139.831 36.2811 139.728 36.214 139.489 36.28C138.355 36.5975 138.035 37.6457 138.813 38.5426ZM124.224 34.8005C124.087 33.5813 123.224 33.1577 122.04 33.709C122.393 34.8347 123.2 35.2465 124.224 34.8005ZM146.104 37.1152C146.374 37.752 146.35 38.2847 146.031 38.8121C145.53 39.6291 144.776 39.9338 143.871 39.938C143.382 39.9412 142.895 39.8988 142.4 39.9C141.945 39.9011 141.515 39.9833 141.219 40.2612C141.894 40.2933 142.601 40.2896 143.294 40.3671C144.364 40.4832 145.26 40.1861 145.994 39.4002C146.634 38.7216 146.699 37.8265 146.104 37.1152ZM131.647 37.1227C131.349 36.7472 131.154 36.3992 130.872 36.1544C130.455 35.7991 129.974 35.5211 129.527 35.1955C128.758 34.6311 128.314 33.8779 128.5 32.9172C128.582 32.4695 128.882 32.0609 129.061 31.6784C128.535 31.9133 128.2 32.3893 128.164 33.0368C128.096 34.2803 128.621 35.2254 129.703 35.8603C130.322 36.2231 130.909 36.6414 131.647 37.1227ZM128.028 48.7257C128.96 47.7018 128.776 46.9222 127.504 46.4224C126.962 46.9424 127.08 47.944 128.028 48.7257ZM138.808 50.1269C137.401 49.873 136.704 50.5063 137.063 51.6933C138.204 51.5955 138.761 51.1071 138.808 50.1269ZM150.793 43.2949C150.503 42.7174 150.124 42.3481 149.539 42.2209C149.212 42.1524 148.378 42.6018 148.464 42.8016C148.593 43.0884 148.861 43.3748 149.141 43.5068C149.684 43.7589 150.21 43.4844 150.793 43.2949ZM122.712 35.7051C122.67 35.6715 122.636 35.634 122.595 35.6004C122.332 35.8367 121.996 36.0355 121.814 36.325C121.31 37.1142 121.461 38.3711 122.079 39.0764C122.525 39.5802 123.27 39.7407 123.796 39.4464C124.328 39.1541 124.764 38.4739 124.833 37.8045C124.678 38.0563 124.553 38.2923 124.392 38.5025C124.042 38.9607 123.627 39.3181 122.988 39.1593C122.348 39.0005 121.988 38.5519 121.876 37.9345C121.707 37.0479 121.878 36.2536 122.712 35.7051ZM146.081 45.0209C146.038 45.0131 145.992 45.0112 145.949 45.0034C145.902 45.4035 145.804 45.7997 145.825 46.1956C145.862 46.9994 146.319 47.4338 147.105 47.5091C148.218 47.6133 149.522 46.3826 149.446 45.2562C149.429 45.0068 149.312 44.7636 149.24 44.5222C149.358 45.6425 148.849 46.6416 147.88 47.0202C146.942 47.3828 146.133 46.8977 146.048 45.9001C146.029 45.617 146.068 45.3199 146.081 45.0209ZM135.664 39.0314C135.616 38.5405 135.358 38.2244 134.886 38.0948C134.452 37.9712 134.116 38.1304 133.842 38.4617C133.326 39.1024 134.044 39.5046 134.089 40.146C134.411 39.8106 134.767 39.5919 134.851 39.2967C134.932 39.0134 134.743 38.6476 134.665 38.3052C135.193 38.2426 135.424 38.642 135.664 39.0314ZM137.996 39.4593C137.082 39.9288 136.982 40.1924 137.4 41.1219C137.724 40.6816 138.601 40.8794 138.524 40.0164C138.483 39.5215 138.251 39.1875 137.773 39.0362C137.42 38.9262 137.116 39.0101 136.875 39.2799C137.278 39.176 137.662 39.0721 137.996 39.4593ZM140.861 44.3961C140.711 44.0104 140.653 43.5888 140.419 43.3399C140.109 43.0199 139.646 43.1042 139.233 43.2379C139.433 44.1877 139.774 44.4522 140.861 44.3961ZM129.446 40.6681C130.201 41.2741 130.605 41.2691 131.291 40.6715C130.653 39.7485 129.97 39.7402 129.446 40.6681ZM141.316 45.1533C141.67 45.9761 142.564 46.3837 143.266 46.0553C143.976 45.723 144.393 44.6211 144.057 43.9627C144.054 44.8714 143.671 45.5891 143.08 45.8024C142.506 46.0017 141.842 45.7559 141.316 45.1533ZM128.268 40.9778C127.504 40.9559 126.785 40.8765 126.555 40.0554C126.348 39.3273 126.645 38.7069 127.169 38.181C126.348 38.668 125.993 39.8034 126.412 40.5092C126.75 41.0825 127.632 41.3278 128.268 40.9778ZM135.991 45.6216C136.878 45.3542 137.406 45.4301 137.73 45.8867C138.062 46.3591 137.988 46.7235 137.401 47.4001C137.894 47.2663 138.171 46.9884 138.239 46.523C138.305 46.0437 138.068 45.7017 137.688 45.4571C137.083 45.0725 136.523 45.2699 135.991 45.6216ZM132.506 44.5155C132.253 43.7459 131.792 43.3431 131.236 43.3108C130.725 43.2804 130.27 43.5191 130.117 43.9432C129.977 44.3454 130.002 44.7294 130.357 45.0909C130.213 44.2122 130.34 43.8654 130.851 43.6582C131.389 43.4471 131.88 43.6755 132.506 44.5155ZM132.44 41.625C131.988 40.5787 131.308 39.5231 130.411 38.8838C131.035 39.7297 131.778 40.7337 132.44 41.625ZM138.81 42.9202C138.79 42.8806 138.762 42.845 138.742 42.8055C138.175 43.1256 137.608 43.4458 137.046 43.7679C137.064 43.7936 137.08 43.8252 137.092 43.8489C137.669 43.5387 138.241 43.2264 138.81 42.9202Z" fill="white"/>
<path d="M144.966 43.7872C145.356 44.701 145.378 45.5721 145.402 46.4373C145.437 47.827 145.315 49.1915 144.655 50.4503C143.636 52.3951 141.117 52.8348 139.714 51.3157C139.053 50.6026 138.815 49.7656 139.11 48.8146C139.392 47.8992 140.108 47.5094 140.977 47.335C141.337 47.2629 141.709 47.2144 142.089 47.261C141.801 47.3172 141.506 47.3714 141.219 47.4215C140.006 47.6205 139.504 48.1603 139.552 49.2115C139.594 50.2409 140.414 51.0922 141.452 51.1847C142.58 51.281 143.764 50.4921 144.151 49.2022C144.468 48.166 144.615 47.0807 144.787 46.0032C144.886 45.304 144.896 44.5952 144.966 43.7872Z" fill="#19453F"/>
<path d="M126.311 37.7262C125.703 38.7255 125.076 39.7051 124.497 40.7202C124.031 41.549 123.649 42.425 123.642 43.4051C123.642 44.1634 123.867 44.838 124.411 45.387C125.242 46.2225 126.632 46.1874 127.434 45.3183C128.08 44.6218 128.092 43.7684 127.476 43.0572C127.289 42.8438 127.095 42.6344 126.95 42.3952C127.616 42.9321 128.186 43.5425 128.198 44.4631C128.21 45.3837 127.737 46.058 126.95 46.5034C125.032 47.5971 122.577 46.0468 122.579 43.7462C122.581 42.685 122.973 41.7396 123.505 40.8474C124.236 39.6319 125.141 38.5725 126.311 37.7262Z" fill="#19453F"/>
<path d="M144.877 35.563C144.567 36.1003 144.764 36.5413 145.005 36.9901C145.403 37.7415 145.18 38.2351 144.351 38.5083C144.248 38.5403 144.14 38.5702 144.029 38.5863C143.435 38.6868 142.849 38.7832 142.252 38.8758C142.274 36.9117 143.263 35.6164 144.877 35.563Z" fill="#CA6C46"/>
<path d="M131.451 35.2637C130.988 34.7679 130.504 34.2979 130.077 33.7742C129.535 33.1202 129.652 32.6051 130.388 32.1757C131.068 31.7741 131.068 31.7741 131.355 31.1438C132.581 31.9644 132.633 33.8808 131.451 35.2637Z" fill="#CA6C46"/>
<path d="M145.199 41.2273C145.834 39.5448 147.179 39.1653 148.515 40.2728C147.92 41.4345 146.539 41.8417 145.199 41.2273Z" fill="#CA6C46"/>
<path d="M125.572 32.6811C127.278 32.5463 128.065 33.5779 127.65 35.4123C126.287 35.2255 125.369 34.0121 125.572 32.6811Z" fill="#CA6C46"/>
<path d="M131.485 44.2714C132.002 45.1809 131.507 46.0789 130.551 46.0991C129.787 46.1168 129.02 45.9425 128.628 45.2128C128.187 44.3942 128.165 43.5033 128.685 42.6864C129.48 41.4391 131.254 41.3397 132.09 42.4999C131.332 41.8404 130.518 41.69 129.67 42.2603C128.975 42.7292 128.733 43.4406 128.862 44.2481C128.978 45.012 129.466 45.4702 130.217 45.6525C131.071 45.8622 131.606 45.3996 131.521 44.5207C131.509 44.4772 131.499 44.4277 131.485 44.2714Z" fill="#19453F"/>
<path d="M136.82 46.1259C136.737 46.237 136.692 46.2945 136.652 46.354C136.206 46.9847 136.356 47.5684 137.056 47.9052C137.692 48.2145 138.322 48.2051 138.885 47.7582C139.514 47.2538 139.775 46.582 139.631 45.7825C139.476 44.9137 138.784 44.3353 137.909 44.3097C137.772 44.3041 137.629 44.3163 137.424 44.3208C138.1 44.0498 138.799 44.1887 139.375 44.7021C139.976 45.2372 140.219 45.9176 140.069 46.7119C139.924 47.4686 139.478 48.0399 138.847 48.4513C138.051 48.966 136.568 48.4628 136.214 47.5806C135.983 46.9832 136.181 46.4621 136.82 46.1259Z" fill="#19453F"/>
<path d="M120.896 42.3134C120.895 41.7392 120.852 41.2107 120.918 40.6918C120.974 40.2423 121.302 39.9484 121.777 39.9671C122.27 39.9916 122.76 40.0874 123.294 40.1653C122.878 41.3464 122.097 41.9719 120.896 42.3134Z" fill="#CA6C46"/>
<path d="M146.53 50.7422C145.853 49.7994 145.534 48.8499 145.939 47.6847C146.557 47.9881 147.326 48.1169 147.516 48.8787C147.712 49.7018 147.052 50.1826 146.53 50.7422Z" fill="#CA6C46"/>
<path d="M141.222 48.9865C141.958 47.9769 142.933 48.1012 143.93 48.0552C143.809 48.4238 143.722 48.7448 143.596 49.046C143.323 49.7139 142.941 49.891 142.285 49.6016C141.92 49.448 141.591 49.2073 141.222 48.9865Z" fill="#CA6C46"/>
<path d="M126.281 44.0403C125.792 43.984 125.346 43.9752 124.93 43.8772C124.379 43.7479 124.193 43.4553 124.296 42.9027C124.369 42.5244 124.53 42.1557 124.668 41.7396C125.475 42.29 126.215 42.8446 126.281 44.0403Z" fill="#CA6C46"/>
<path d="M142.897 45.2807C142.149 44.5718 141.336 44.059 141.442 42.9203C141.874 42.9311 142.293 42.9182 142.713 42.9647C143.202 43.0209 143.397 43.2699 143.313 43.7433C143.221 44.2405 143.056 44.72 142.897 45.2807Z" fill="#CA6C46"/>
<path d="M129.694 39.0623C129.068 39.9963 128.144 39.961 127.142 40.0584C127.372 39.5015 127.549 39.0061 127.79 38.5383C127.965 38.1874 128.29 38.1035 128.633 38.3224C128.99 38.5393 129.325 38.8018 129.694 39.0623Z" fill="#CA6C46"/>
<path d="M147.968 46.3573C147.383 45.8142 146.788 45.3603 146.792 44.5109C146.793 44.2278 146.856 44.0376 147.2 44.1318C147.26 44.1514 147.323 44.1394 147.387 44.1472C148.557 44.277 148.748 44.5972 148.301 45.6893C148.224 45.9013 148.098 46.1035 147.968 46.3573Z" fill="#CA6C46"/>
<path d="M122.529 37.953C122.526 37.2858 122.691 36.826 122.809 36.5684C122.947 36.271 123.061 36.1639 123.194 36.122C123.358 36.0641 123.548 36.1072 123.794 36.2413C123.917 36.3083 124.044 36.3832 124.165 36.4562C124.438 36.6258 124.574 36.8155 124.558 37.0017C124.547 37.1561 124.41 37.2891 124.163 37.4382C123.869 37.6112 123.345 37.8599 122.529 37.953Z" fill="#CA6C46"/>
<path d="M134.418 37.1559C134.371 36.5006 133.954 35.8879 134.384 35.285C134.558 35.039 134.801 34.8424 135.056 34.5706C135.459 35.1457 135.731 35.6578 135.541 36.2939C135.39 36.8308 134.955 37.0298 134.418 37.1559Z" fill="#CA6C46"/>
<path d="M138.813 38.5433C138.033 37.6523 138.347 36.6021 139.487 36.2866C139.726 36.2206 139.829 36.2877 139.897 36.5212C140.053 37.0474 139.882 37.6636 139.461 38.019C139.252 38.1938 139.03 38.3646 138.813 38.5433Z" fill="#CA6C46"/>
<path d="M124.225 34.8008C123.202 35.2409 122.396 34.829 122.04 33.7093C123.223 33.1639 124.087 33.5815 124.225 34.8008Z" fill="#CA6C46"/>
<path d="M146.104 37.1146C146.692 37.8299 146.627 38.7249 145.995 39.3996C145.262 40.1795 144.364 40.4826 143.295 40.3665C142.602 40.2889 141.895 40.2926 141.22 40.2606C141.516 39.9827 141.951 39.9025 142.401 39.8994C142.89 39.8962 143.383 39.9406 143.872 39.9374C144.777 39.9332 145.53 39.6285 146.031 38.8115C146.357 38.2861 146.375 37.7514 146.104 37.1146Z" fill="#19453F"/>
<path d="M131.647 37.123C130.903 36.6397 130.322 36.2234 129.704 35.8606C128.617 35.2178 128.096 34.2806 128.164 33.0371C128.198 32.3955 128.53 31.9116 129.062 31.6787C128.883 32.0612 128.583 32.4698 128.501 32.9175C128.321 33.8801 128.756 34.6374 129.528 35.1958C129.974 35.5214 130.456 35.7994 130.872 36.1547C131.154 36.3996 131.349 36.7475 131.647 37.123Z" fill="#19453F"/>
<path d="M128.028 48.7246C127.08 47.9429 126.963 46.9413 127.504 46.4213C128.776 46.9211 128.96 47.7007 128.028 48.7246Z" fill="#CA6C46"/>
<path d="M138.809 50.1277C138.764 51.1019 138.206 51.5904 137.064 51.6941C136.705 50.5071 137.402 49.8738 138.809 50.1277Z" fill="#CA6C46"/>
<path d="M150.794 43.2956C150.216 43.4871 149.684 43.7597 149.143 43.5016C148.864 43.3696 148.59 43.0812 148.466 42.7964C148.379 42.6026 149.215 42.1472 149.542 42.2157C150.126 42.343 150.503 42.7182 150.794 43.2956Z" fill="#CA6C46"/>
<path d="M122.711 35.7057C121.873 36.2463 121.709 37.0426 121.873 37.941C121.986 38.5585 122.345 39.007 122.985 39.1659C123.625 39.3247 124.04 38.9673 124.389 38.5091C124.551 38.2988 124.675 38.0629 124.831 37.8111C124.761 38.4805 124.328 39.1547 123.794 39.453C123.268 39.7473 122.517 39.5848 122.076 39.0829C121.453 38.3757 121.305 37.1267 121.812 36.3315C122 36.044 122.328 35.8492 122.592 35.607C122.634 35.6405 122.676 35.6741 122.711 35.7057Z" fill="#19453F"/>
<path d="M146.081 45.0221C146.07 45.3152 146.031 45.6122 146.053 45.9032C146.139 46.9009 146.948 47.386 147.885 47.0233C148.853 46.6507 149.363 45.6457 149.245 44.5254C149.315 44.7727 149.435 45.01 149.451 45.2594C149.523 46.3779 148.225 47.6105 147.111 47.5123C146.324 47.437 145.862 47.0005 145.83 46.1988C145.815 45.8048 145.91 45.4007 145.954 45.0066C145.992 45.0124 146.035 45.0202 146.081 45.0221Z" fill="#19453F"/>
<path d="M135.664 39.0315C135.422 38.648 135.193 38.2427 134.663 38.3113C134.741 38.6536 134.93 39.0194 134.849 39.3028C134.765 39.598 134.411 39.8107 134.087 40.152C134.042 39.5106 133.326 39.1025 133.84 38.4677C134.11 38.1285 134.45 37.9772 134.884 38.1009C135.358 38.2245 135.616 38.5406 135.664 39.0315Z" fill="#CA6C46"/>
<path d="M137.997 39.459C137.665 39.0658 137.274 39.1737 136.87 39.2776C137.113 39.0018 137.418 38.9179 137.768 39.0339C138.246 39.1851 138.478 39.5192 138.519 40.0141C138.591 40.8751 137.715 40.6714 137.395 41.1196C136.983 40.192 137.083 39.9285 137.997 39.459Z" fill="#CA6C46"/>
<path d="M140.861 44.3959C139.774 44.452 139.433 44.1875 139.227 43.2357C139.64 43.1021 140.103 43.0178 140.413 43.3378C140.653 43.5886 140.705 44.0082 140.861 44.3959Z" fill="#CA6C46"/>
<path d="M129.446 40.669C129.97 39.7412 130.653 39.7494 131.291 40.6725C130.606 41.2701 130.202 41.275 129.446 40.669Z" fill="#CA6C46"/>
<path d="M141.317 45.154C141.843 45.7566 142.513 46.0044 143.081 45.8031C143.672 45.5898 144.054 44.8721 144.058 43.9634C144.394 44.6218 143.977 45.7237 143.267 46.056C142.565 46.3844 141.663 45.9808 141.317 45.154Z" fill="#19453F"/>
<path d="M128.268 40.9777C127.634 41.3218 126.752 41.0765 126.412 40.5091C125.993 39.8033 126.346 38.6739 127.169 38.1809C126.645 38.7068 126.348 39.3272 126.556 40.0553C126.783 40.8824 127.504 40.9558 128.268 40.9777Z" fill="#19453F"/>
<path d="M135.993 45.6218C136.52 45.2621 137.086 45.0667 137.689 45.4573C138.07 45.7019 138.306 46.0438 138.24 46.5231C138.178 46.9905 137.897 47.2604 137.403 47.4002C137.995 46.7256 138.067 46.3671 137.732 45.8868C137.414 45.4322 136.877 45.3603 135.993 45.6218Z" fill="#19453F"/>
<path d="M132.506 44.5155C131.88 43.6756 131.383 43.4452 130.851 43.6583C130.342 43.8595 130.213 44.2123 130.357 45.091C130.004 44.7236 129.973 44.3376 130.117 43.9432C130.268 43.5251 130.725 43.2805 131.236 43.3109C131.792 43.3432 132.253 43.746 132.506 44.5155Z" fill="#19453F"/>
<path d="M132.44 41.6259C131.781 40.7287 131.038 39.7247 130.412 38.8848C131.309 39.5241 131.988 40.5797 132.44 41.6259Z" fill="#19453F"/>
<path d="M138.81 42.92C138.239 43.2322 137.662 43.5425 137.092 43.8488C137.074 43.8231 137.058 43.7914 137.046 43.7677C137.614 43.4476 138.181 43.1274 138.743 42.8053C138.769 42.8468 138.791 42.8804 138.81 42.92Z" fill="#19453F"/>
<path d="M152.275 43.6775C152.565 39.0319 149.659 34.3586 144.833 33.3566C141.335 32.6286 138.369 34.2198 137.135 36.5353C137.106 36.5848 137.06 36.6226 136.954 36.7456C137.093 34.7079 136.861 33.5166 135.978 32.1962C134.2 29.5376 131.613 28.4253 128.499 28.5299C123.047 28.7055 118.49 33.892 118.789 39.5102C118.957 42.6321 120.264 45.2206 122.437 47.4228C123.817 48.8153 125.224 50.1839 126.518 51.6538C126.518 51.6538 130.81 55.2883 130.407 56.5861C130.407 56.5861 132.691 54.5452 136.41 54.9242C136.307 54.9166 136.206 54.903 136.109 54.8973C136.164 54.909 136.22 54.9207 136.275 54.9325C136.293 54.9384 136.305 54.9423 136.323 54.9482C137.071 54.7405 137.831 54.5961 138.603 54.4754C140.37 54.1959 142.159 54.0292 143.891 53.6191C148.656 52.4908 151.974 48.517 152.275 43.6775ZM146.331 51.5442C144.684 52.4767 142.905 52.8117 141.036 52.8202C139.438 52.8261 137.84 52.7924 136.243 52.8378C135.377 52.8617 134.524 53.0083 133.586 53.1136C133.673 52.1531 133.75 51.1828 133.858 50.2164C134.116 47.9012 134.857 45.779 136.36 43.9677C138.286 41.6505 141.729 40.9095 144.356 42.8989C145.691 43.9073 146.866 43.6629 148.092 42.2285C147.914 42.3477 147.734 42.4729 147.55 42.5901C146.588 43.1884 145.891 43.1624 145.04 42.426C144 41.5217 142.866 40.8434 141.472 40.6924C141.135 40.6536 140.788 40.6445 140.376 40.6139C141.028 39.7609 141.499 38.8748 141.271 37.83C141.158 37.3115 140.86 36.837 140.554 36.3666C141.056 37.482 140.955 38.5237 140.176 39.4264C139.749 39.9185 139.253 40.4404 138.672 40.7032C136.94 41.4954 135.477 42.5483 134.446 44.2119C134.461 44.006 134.476 43.8 134.478 43.5961C134.512 42.1764 134.245 40.8288 133.522 39.5872C133.04 38.7687 132.729 37.8943 132.737 36.9341C132.74 35.8471 133.17 35.0066 134.172 34.5072C134.236 34.4753 134.295 34.4356 134.404 34.366C132.901 34.4232 132.041 35.6092 131.886 37.7736C131.826 37.754 131.759 37.7581 131.717 37.7245C130.474 36.7594 129.053 36.3689 127.495 36.4736C127.353 36.4859 127.212 36.4921 127.07 36.5044C125.959 36.5724 125.358 36.1759 124.966 35.1295C124.888 34.9258 124.832 34.716 124.752 34.4589C124.816 36.4782 125.783 37.2856 127.361 37.2996C129.895 37.3132 131.63 38.586 132.652 40.8624C133.175 42.0312 133.224 43.2804 133.09 44.5419C132.868 46.6906 131.962 48.5737 130.837 50.3781C130.518 50.8858 130.194 51.3855 129.841 51.9348C128.108 49.9175 125.873 48.5984 123.842 47.0234C122.2 45.7484 120.858 44.2034 120.32 42.1397C119.053 37.2961 121.453 31.7525 126.64 30.1638C126.803 30.112 126.967 30.074 127.169 30.1012C126.969 30.266 126.76 30.4209 126.576 30.5976C125.958 31.1911 126.001 31.977 126.705 32.4603C126.84 32.5511 127.141 32.5385 127.283 32.4471C127.795 32.1152 127.927 31.6773 127.751 31.0323C127.657 30.6979 127.52 30.3755 127.38 29.9799C129.668 29.5823 131.76 30.0167 133.597 31.4219C136.87 33.9284 136.822 37.2231 135.659 40.7224C136.127 39.7234 136.537 38.6849 137.077 37.7293C138.498 35.2252 141.279 34.0345 144.225 34.5797C145.952 34.9002 147.379 35.7283 148.661 36.9962C148.31 37.2426 148.011 37.4275 147.742 37.6419C147.254 38.0411 147.097 38.576 147.304 39.1259C147.346 39.2387 147.463 39.3829 147.572 39.4124C148.27 39.6166 149.027 39.0227 148.983 38.2962C148.963 37.9399 148.853 37.5937 148.872 37.1779C149.225 37.7235 149.619 38.2491 149.917 38.8226C152.702 44.1417 149.581 49.7108 146.331 51.5442Z" fill="#19453F"/>
<path d="M130.407 56.5867C130.407 56.5867 133.635 55.5176 137.714 54.6306L133.636 54.0802L130.931 55.4806L130.407 56.5867Z" fill="#19453F"/>
<path d="M130.424 56.593C130.005 56.006 129.562 55.4111 129.101 54.8103C127.941 53.2926 126.774 51.9175 125.625 50.667C126.856 51.3312 128.095 51.9915 129.326 52.6557L130.663 55.3926L130.424 56.593Z" fill="#19453F"/>
</g>
<rect x="0.710616" y="0.210616" width="246.079" height="245.579" rx="122.789" stroke="#DFDFDF" stroke-width="0.421233"/>
<defs>
<clipPath id="clip0_2394_2968">
<rect x="0.5" width="246.5" height="246" rx="123" fill="white"/>
</clipPath>
</defs>
</svg>
