<svg width="247" height="246" viewBox="0 0 247 246" fill="none" xmlns="http://www.w3.org/2000/svg">
<rect x="0.210616" y="0.210616" width="246.079" height="245.579" rx="122.789" fill="#E4EBE4"/>
<rect x="0.210616" y="0.210616" width="246.079" height="245.579" rx="122.789" stroke="#DFDFDF" stroke-width="0.421233"/>
<g clip-path="url(#clip0_2396_3316)">
<path d="M67.9033 72.7462C67.5443 72.3865 60.1787 58.3583 60.1787 58.3583C60.1787 58.3583 59.3677 52.7763 59.1949 50.7114C59.0088 48.6464 59.1949 42.9712 57.9318 43.3309C56.6688 43.6906 55.326 51.6039 55.326 51.6039C55.326 51.6039 45.3679 40.0936 44.1181 40.0004C42.8684 39.9071 42.5892 41.0795 42.8551 41.6257C43.121 42.1719 49.2235 51.6039 49.2235 51.6039C49.2235 51.6039 43.214 47.1144 40.1694 45.2226C37.1248 43.3309 36.1277 44.3167 36.1277 44.9562C36.1277 45.5823 42.9481 50.9778 43.932 51.977C44.9158 52.9628 45.6338 53.8687 45.0089 53.8687C44.384 53.8687 35.4097 49.7255 34.5057 50.4449C33.6016 51.1643 33.9606 51.977 35.0508 52.7896C36.1277 53.6023 44.2112 56.7463 44.743 57.2925C45.2881 57.8387 37.7364 58.3716 37.5636 58.9977C37.3774 59.6239 37.8295 60.3433 38.5474 60.623C39.2654 60.8895 43.8389 60.5298 44.9158 61.076C45.9927 61.6222 47.3355 63.5939 49.2235 64.4065C51.1114 65.2192 53.3583 65.0326 53.3583 65.0326L58.118 76.7295L67.9033 72.7462Z" fill="#F4DCC9"/>
<path d="M116.816 72.1197C113.652 72.586 111.697 73.3853 107.749 77.0623C103.8 80.7525 99.3994 84.1629 98.0566 92.7957C96.7137 101.428 95.9027 119.413 99.0404 129.485C102.178 139.556 135.124 145.405 145.72 138.837C156.316 132.282 162.592 128.952 163.496 116.722C164.307 105.652 160.358 101.255 153.351 98.1112C146.345 94.9672 143.566 90.6508 139.617 83.0972C136.187 76.5294 132.611 74.198 127.585 72.4794C123.065 70.9341 118.731 71.8267 116.816 72.1197Z" fill="#0B2925"/>
<path d="M128.396 128.592C128.396 128.592 117.986 138.118 114.038 136.319C110.089 134.521 108.108 125.435 108.108 125.435C108.108 125.435 110.887 124.276 111.432 122.731C111.511 122.517 111.578 122.198 111.658 121.825C112.11 119.56 112.509 115.004 112.509 115.004L128.569 111.5C128.569 111.5 128.024 113.978 127.426 116.842C126.721 120.226 125.923 124.156 125.884 125.089C125.791 126.794 128.396 128.592 128.396 128.592Z" fill="#F4DCC9"/>
<path d="M128.569 111.514C128.569 111.514 128.024 113.992 127.426 116.856C124.541 118.694 119.794 121.465 116.723 121.945C114.357 122.318 112.708 122.118 111.658 121.852C112.11 119.587 112.509 115.031 112.509 115.031L128.569 111.514Z" fill="#E5C8B1"/>
<path d="M192.479 105.332C192.971 105.225 206.798 97.4984 206.798 97.4984C206.798 97.4984 210.561 93.2752 211.864 91.6366C213.167 89.998 216.172 85.1621 216.996 86.1479C217.82 87.1337 214.51 94.4876 214.51 94.4876C214.51 94.4876 229.055 90.2911 230.118 90.9039C231.195 91.5167 230.756 92.6358 230.238 92.9422C229.719 93.2486 219.482 97.8181 219.482 97.8181C219.482 97.8181 226.888 97.3385 230.437 97.4184C233.974 97.4984 234.226 98.8705 233.881 99.3901C233.535 99.923 224.96 100.709 223.604 101.002C222.247 101.295 221.157 101.655 221.676 102.001C222.194 102.348 231.807 103.773 232.139 104.865C232.472 105.958 231.727 106.437 230.397 106.531C229.068 106.624 220.732 104.852 219.987 105.012C219.243 105.172 225.093 109.728 224.893 110.354C224.694 110.98 223.923 111.34 223.191 111.167C222.46 111.007 218.924 108.209 217.74 108.063C216.557 107.93 214.363 108.849 212.369 108.502C210.375 108.156 208.646 106.784 208.646 106.784L198.25 113.978L192.479 105.332Z" fill="#F4DCC9"/>
<path d="M152.102 246H64.021C64.5927 243.868 66.1216 238.273 68.6078 229.96C71.8386 219.169 82.3418 206.22 82.3418 206.22L82.9268 203.289L85.0407 192.725L134.313 200.824V208.645C134.313 208.645 138.886 217.011 143.473 223.752C147.382 229.52 151.105 242.376 152.102 246Z" fill="#CA6C46"/>
<path d="M108.879 124.663C108.879 124.663 110.062 130.524 114.662 131.47C125.165 133.628 127.053 127.354 127.053 127.354L196.521 101.788L200.563 113.925C200.563 113.925 155.319 153.865 151.291 158.181C147.249 162.497 147.249 166.547 145.095 173.288C142.941 180.029 141.598 207.02 141.598 207.02L78.0472 202.97C78.0472 202.97 81.2779 179.763 82.8999 169.518C84.522 159.26 86.1307 147.936 86.1307 147.936C86.1307 147.936 66.1878 111.514 62.4253 98.0183C58.6495 84.523 57.3066 76.7029 57.3066 76.7029L67.544 71.041L108.879 124.663Z" fill="#19453F"/>
<path d="M101.739 86.9479C101.739 86.9479 100.569 98.3649 100.476 103.68C100.383 108.983 103.441 115.284 107.39 117.083C111.338 118.881 118.784 118.708 122.373 117.629C125.963 116.55 132.425 113.312 134.313 108.543C136.2 103.774 136.732 90.8246 136.732 90.8246C136.732 90.8246 128.649 86.9612 123.902 84.5232C119.143 82.0986 115.646 79.9404 115.646 79.9404C115.646 79.9404 109.357 82.2851 106.486 83.6307C103.627 84.9762 101.739 86.9479 101.739 86.9479Z" fill="#F4DCC9"/>
<path d="M102.111 90.2775C101.939 90.5173 102.138 91.0102 102.47 90.837C102.909 90.6105 103.281 90.2775 103.72 90.0377C104.185 89.7845 104.691 89.5714 105.196 89.4248C106.379 89.0651 107.523 89.1318 108.746 89.1584C109.264 89.1717 111.179 89.5048 111.312 88.6522C111.471 87.5731 108.759 87.4265 108.134 87.3999C105.728 87.2933 103.561 88.3591 102.111 90.2775Z" fill="#5F4E41"/>
<path d="M129.753 91.1576C129.899 91.4108 129.646 91.877 129.34 91.6772C128.928 91.4108 128.583 91.0377 128.184 90.758C127.745 90.4516 127.266 90.1984 126.774 89.9853C125.631 89.5057 124.488 89.4524 123.278 89.3592C122.759 89.3192 120.818 89.4391 120.778 88.5865C120.738 87.4941 123.451 87.6406 124.075 87.6806C126.469 87.8005 128.516 89.0927 129.753 91.1576Z" fill="#5F4E41"/>
<path d="M126.867 99.1235C125.963 98.4307 124.78 98.0577 123.623 98.0843C122.467 98.111 121.337 98.5373 120.512 99.27C120.113 99.6297 119.768 100.069 119.675 100.589C119.555 101.295 119.941 102.041 120.526 102.534C121.111 103.027 121.868 103.307 122.626 103.493C123.916 103.8 125.418 103.813 126.362 102.987C126.668 102.72 126.894 102.374 127.08 102.028C127.333 101.548 127.506 101.029 127.506 100.496C127.492 99.9494 127.253 99.4299 126.867 99.1235Z" fill="#E5C8B1"/>
<path d="M102.351 97.9518C103.415 97.5255 104.638 97.4722 105.754 97.8053C106.858 98.1383 107.842 98.8577 108.44 99.777C108.733 100.23 108.945 100.749 108.892 101.269C108.826 101.988 108.254 102.601 107.563 102.921C106.871 103.241 106.06 103.307 105.276 103.281C103.96 103.227 102.51 102.841 101.806 101.802C101.58 101.456 101.447 101.069 101.367 100.683C101.247 100.163 101.221 99.6038 101.367 99.0975C101.527 98.5913 101.899 98.1383 102.351 97.9518Z" fill="#E5C8B1"/>
<path d="M112.548 94.355C112.163 95.9936 111.737 97.6988 111.591 99.3774C111.498 100.403 112.389 100.723 113.28 100.989C113.639 101.096 113.785 100.55 113.439 100.443C112.681 100.217 112.176 100.057 112.203 99.1776C112.229 98.6447 112.376 98.0719 112.482 97.5523C112.668 96.5398 112.881 95.514 113.12 94.5149C113.187 94.1418 112.642 93.9953 112.548 94.355Z" fill="#E5C8B1"/>
<path d="M126.907 96.9657C126.588 95.3937 125.338 94.4745 124.155 94.0748C123.49 93.8483 122.799 93.7951 122.121 93.8617C121.576 93.915 120.672 93.9016 120.432 94.621C120.392 94.7543 120.406 94.9274 120.499 95.0207C120.924 95.4204 121.35 95.1539 121.842 95.074C122.4 94.994 122.985 94.9807 123.543 95.0873C124.62 95.2871 125.963 95.9799 126.508 97.2055C126.654 97.4853 126.96 97.2455 126.907 96.9657Z" fill="#0B2925"/>
<path d="M126.362 93.8215C126.242 94.1146 126.123 94.4077 125.976 94.6741C125.857 94.8873 125.737 95.2203 125.485 95.2603C125.405 95.2736 125.352 95.2337 125.325 95.1537C125.259 94.9139 125.485 94.6874 125.604 94.4876C125.764 94.2212 125.937 93.9547 126.096 93.6883C126.176 93.5284 126.428 93.6483 126.362 93.8215Z" fill="#0B2925"/>
<path d="M127.266 94.7809C127.08 95.1539 126.774 95.7001 126.242 95.7667C126.109 95.78 126.043 95.6601 126.083 95.5802C126.176 95.407 126.375 95.3004 126.535 95.1672C126.721 95.0207 126.894 94.8608 127.04 94.6876C127.12 94.6077 127.306 94.6743 127.266 94.7809Z" fill="#0B2925"/>
<path d="M127.678 96.0063C127.559 96.1794 127.399 96.326 127.226 96.4459C127.067 96.5525 126.881 96.6724 126.655 96.659C126.562 96.659 126.535 96.5525 126.588 96.4992C126.708 96.3793 126.921 96.3393 127.08 96.2461C127.24 96.1395 127.386 96.0196 127.506 95.8864C127.572 95.7931 127.745 95.8997 127.678 96.0063Z" fill="#0B2925"/>
<path d="M103.215 95.8068C103.866 94.7011 105.382 94.3814 106.552 94.5013C107.097 94.5546 107.629 94.7011 108.161 94.9009C108.6 95.0741 109.052 95.4471 109.45 95.1274C109.517 95.0741 109.583 94.9542 109.557 94.8476C109.424 94.1682 108.812 94.0083 108.307 93.8085C107.589 93.5287 106.831 93.3556 106.087 93.3689C104.757 93.3955 103.255 93.9551 102.843 95.5004C102.776 95.7402 103.069 96.0599 103.215 95.8068Z" fill="#0B2925"/>
<path d="M103.414 92.7822C103.694 93.1818 104.013 93.5815 104.318 93.9678C104.505 94.2076 104.079 94.4075 103.893 94.1677C103.574 93.7547 103.308 93.3417 103.082 92.8887C103.016 92.7289 103.308 92.6356 103.414 92.7822Z" fill="#0B2925"/>
<path d="M102.497 93.5153C102.657 93.7018 102.843 93.875 103.029 94.0482C103.202 94.208 103.401 94.3279 103.521 94.5144C103.574 94.6077 103.508 94.7143 103.388 94.6876C102.856 94.5677 102.51 93.9815 102.298 93.5952C102.231 93.4753 102.417 93.422 102.497 93.5153Z" fill="#0B2925"/>
<path d="M102.138 94.5939C102.271 94.7538 102.417 94.887 102.59 95.0069C102.75 95.1135 102.963 95.1801 103.095 95.3133C103.149 95.3666 103.135 95.4599 103.042 95.4599C102.83 95.4466 102.63 95.3 102.457 95.1801C102.258 95.0336 102.098 94.8737 101.965 94.6872C101.886 94.5806 102.058 94.4874 102.138 94.5939Z" fill="#0B2925"/>
<path d="M108.613 109.742C108.626 109.902 108.64 110.048 108.666 110.208C108.932 112.513 109.876 114.977 112.562 115.084C114.609 115.177 116.298 113.072 116.936 111.327C116.976 111.234 117.002 111.14 117.029 111.047C117.468 109.728 117.574 108.343 117.587 106.957C117.587 106.837 117.587 105.838 117.561 104.999C117.548 104.346 117.521 103.787 117.468 103.787C117.468 103.787 108.746 103.547 108.733 103.547C108.653 103.547 108.6 104.04 108.573 104.746C108.52 106.451 108.587 109.422 108.613 109.742Z" fill="#E5C8B1"/>
<path d="M108.613 109.742C108.626 109.902 108.64 110.048 108.666 110.208C108.932 112.513 109.876 114.977 112.562 115.084C114.609 115.177 116.298 113.072 116.936 111.327C116.976 111.234 117.002 111.141 117.029 111.047C117.468 109.729 117.574 108.343 117.587 106.958C117.587 106.838 117.587 105.839 117.561 104.999C117.561 104.999 117.561 104.986 117.548 104.986C117.548 104.986 108.999 104.759 108.573 104.746C108.52 106.451 108.587 109.422 108.613 109.742Z" fill="#E5C8B1"/>
<path d="M87.5001 140.023C86.5827 145.352 85.2532 150.587 84.2959 155.889C84.2162 156.342 84.8543 156.529 84.9873 156.076C86.6093 150.974 87.4735 145.512 88.2579 140.223C88.3244 139.743 87.5799 139.517 87.5001 140.023Z" fill="#0D2D28"/>
<path d="M107.656 160.899C108.946 170.97 111.605 181.641 116.683 190.514C116.909 190.913 117.468 190.567 117.295 190.154C113.213 180.562 109.796 171.303 108.427 160.885C108.361 160.419 107.589 160.406 107.656 160.899Z" fill="#0D2D28"/>
<path d="M108.493 185.051C109.61 187.476 110.873 189.941 112.482 192.085C112.761 192.445 113.359 192.125 113.107 191.726C111.711 189.394 110.288 187.143 109.131 184.678C108.932 184.239 108.294 184.612 108.493 185.051Z" fill="#19453F"/>
<path d="M84.6283 205.994C89.5209 209.364 96.0755 208.725 101.713 209.005C109.49 209.391 117.335 210.27 124.966 208.192C125.484 208.045 125.272 207.246 124.74 207.379C117.321 209.231 109.902 208.618 102.364 208.179C96.6604 207.846 89.9862 208.672 84.9872 205.368C84.6017 205.115 84.2427 205.741 84.6283 205.994Z" fill="#0B2925"/>
<path d="M102.537 209.444C102.976 221.047 103.441 232.651 103.867 244.255C103.88 244.801 104.731 244.801 104.718 244.255C104.439 232.651 104 221.021 103.308 209.444C103.269 208.951 102.511 208.951 102.537 209.444Z" fill="#0B2925"/>
<path d="M120.645 77.8486C124.262 80.8594 128.357 83.4572 132.771 85.1358C132.943 85.2024 133.063 84.9093 132.89 84.8427C128.583 82.8977 124.541 80.6329 120.858 77.6355C120.712 77.5156 120.499 77.7154 120.645 77.8486Z" fill="#19453F"/>
<path d="M140.442 94.7945C141.506 97.9918 145.614 99.0576 148.366 100.27C150.467 101.189 152.913 101.922 154.282 103.893C155.652 105.865 156.157 108.356 156.37 110.701C156.396 110.941 156.755 110.941 156.742 110.701C156.556 107.024 155.24 103.054 151.756 101.349C149.642 100.323 147.449 99.4572 145.295 98.5114C143.46 97.6987 141.452 96.7528 140.748 94.7146C140.681 94.528 140.376 94.608 140.442 94.7945Z" fill="#19453F"/>
<path d="M150.214 105.372C151.809 107.717 152.341 110.194 152.421 112.992C152.421 113.219 152.74 113.205 152.767 112.992C153.059 110.248 152.062 107.437 150.52 105.199C150.374 105.026 150.081 105.199 150.214 105.372Z" fill="#19453F"/>
</g>
<path d="M179.657 56.0993C179.32 56.2078 179.039 56.2808 178.775 56.3844C178.293 56.5801 178.039 56.9636 178.069 57.4476C178.074 57.5467 178.131 57.6889 178.21 57.7387C178.71 58.0696 179.451 57.7858 179.594 57.2025C179.665 56.9166 179.663 56.6169 179.779 56.2937C179.925 56.81 180.107 57.3202 180.202 57.845C181.084 62.7233 177.263 66.3503 174.258 67.0067C172.733 67.3407 171.249 67.1713 169.773 66.7227C168.512 66.338 167.261 65.9222 165.99 65.5688C165.302 65.3768 164.594 65.2846 163.829 65.139C164.131 64.403 164.428 63.6567 164.749 62.9213C165.516 61.159 166.618 59.6665 168.243 58.6046C170.327 57.2473 173.222 57.5021 174.807 59.7101C175.614 60.8304 176.6 60.9241 177.916 60.0919C177.747 60.1426 177.575 60.1974 177.401 60.2451C176.496 60.4822 175.953 60.2919 175.462 59.504C174.862 58.5378 174.134 57.7268 173.071 57.268C172.815 57.1554 172.544 57.0639 172.227 56.9393C172.948 56.4256 173.536 55.8418 173.61 54.9625C173.648 54.5265 173.529 54.0798 173.402 53.6344C173.526 54.6359 173.193 55.4326 172.358 55.9543C171.902 56.2383 171.384 56.529 170.862 56.5945C169.303 56.7969 167.893 57.2706 166.675 58.3309C166.737 58.1722 166.8 58.0136 166.85 57.8532C167.223 56.7424 167.341 55.615 167.073 54.4599C166.893 53.6974 166.861 52.9324 167.101 52.1772C167.369 51.3211 167.912 50.7632 168.824 50.6138C168.882 50.6041 168.938 50.5872 169.041 50.5588C167.842 50.2378 166.875 50.9632 166.226 52.6317C166.184 52.6017 166.129 52.5886 166.105 52.552C165.359 51.4881 164.335 50.8341 163.081 50.5372C162.966 50.5121 162.853 50.4828 162.738 50.4577C161.846 50.2408 161.469 49.7818 161.414 48.8613C161.403 48.6817 161.41 48.5028 161.409 48.2806C160.968 49.8881 161.533 50.76 162.774 51.1555C164.768 51.7837 165.826 53.2099 166.077 55.2532C166.205 56.3022 165.939 57.2988 165.526 58.2608C164.827 59.9005 163.654 61.1642 162.328 62.3128C161.953 62.6352 161.576 62.9503 161.164 63.2973C160.289 61.2848 158.849 59.7005 157.631 57.964C156.647 56.5587 155.965 55.0137 156.044 53.2559C156.225 49.1288 159.468 45.3433 163.944 45.3547C164.085 45.3533 164.224 45.3634 164.376 45.434C164.179 45.5154 163.976 45.5865 163.788 45.681C163.156 45.9982 162.999 46.6284 163.436 47.1809C163.52 47.2853 163.761 47.3487 163.895 47.3113C164.38 47.1744 164.59 46.8613 164.609 46.31C164.616 46.0235 164.586 45.7359 164.573 45.39C166.473 45.6339 168.016 46.486 169.122 48.0413C171.091 50.8146 170.251 53.4003 168.482 55.8755C169.094 55.2021 169.67 54.4832 170.329 53.8615C172.059 52.2337 174.542 51.9725 176.731 53.1199C178.035 53.7825 178.955 54.7873 179.657 56.0993ZM175.072 60.5584C174.825 61.1814 174.64 61.7347 174.383 62.2557C173.988 63.0591 173.604 63.8829 173.102 64.6228C172.479 65.5424 171.358 65.8788 170.491 65.5279C169.7 65.2052 169.257 64.3313 169.474 63.5095C169.697 62.6721 170.224 62.3688 171.224 62.5045C171.467 62.5379 171.708 62.564 171.95 62.5901C171.661 62.4608 171.359 62.4041 171.055 62.3774C170.324 62.3074 169.669 62.4433 169.222 63.0889C168.758 63.7668 168.742 64.4845 169.089 65.2077C169.83 66.7502 171.919 67.0143 173.196 65.7295C174.023 64.8979 174.451 63.8519 174.762 62.7477C174.962 62.0659 175.157 61.3738 175.072 60.5584ZM161.842 51.2341C160.717 51.612 159.739 52.2281 158.874 53.0141C158.237 53.5877 157.694 54.2346 157.438 55.0738C156.876 56.8869 158.434 58.7071 160.212 58.3122C160.937 58.1498 161.477 57.7294 161.693 57.0079C161.908 56.2791 161.607 55.6591 161.213 55.0735C161.269 55.2974 161.371 55.5099 161.466 55.7236C161.783 56.4372 161.561 57.1041 160.882 57.4959C160.039 57.9857 158.934 57.6748 158.482 56.8135C158.185 56.2524 158.171 55.6657 158.359 55.0637C158.6 54.2899 159.114 53.6924 159.687 53.1554C160.384 52.4976 161.12 51.8739 161.842 51.2341ZM177.006 54.0516C175.717 53.6976 174.619 54.4821 174.129 56.0236C174.619 56.0933 175.108 56.163 175.601 56.2284C175.692 56.2428 175.785 56.2456 175.874 56.2455C176.594 56.2321 176.893 55.893 176.759 55.2079C176.682 54.7913 176.631 54.3998 177.006 54.0516ZM166.494 50.5457C167.76 49.7479 168.186 48.2244 167.415 47.2758C167.035 47.7027 167.035 47.7027 166.401 47.8536C165.721 48.0159 165.506 48.3891 165.767 49.038C165.986 49.5494 166.25 50.0421 166.494 50.5457ZM175.88 58.5966C176.783 59.4117 177.975 59.4301 178.726 58.6521C177.939 57.4507 176.794 57.4209 175.88 58.5966ZM162.489 47.077C162.005 48.0769 162.436 49.2528 163.461 49.7362C164.233 48.3955 163.867 47.3864 162.489 47.077ZM164.328 57.6545C164.308 57.78 164.301 57.8257 164.293 57.8641C164.143 58.5819 163.611 58.812 162.989 58.4386C162.442 58.1119 162.168 57.6318 162.262 57.0012C162.358 56.3332 162.722 55.8314 163.384 55.6312C164.192 55.3882 164.8 55.7009 165.234 56.4097C164.857 55.2913 163.435 54.9375 162.504 55.7271C161.895 56.2443 161.698 56.9478 161.844 57.7049C161.975 58.3755 162.534 58.704 163.143 58.872C163.905 59.0849 164.507 58.4986 164.328 57.6545ZM168.081 60.4172C167.493 60.5308 167.208 60.8861 167.252 61.4121C167.316 62.194 168.362 62.9518 169.116 62.7401C169.713 62.5694 170.204 62.2277 170.502 61.6665C170.814 61.0769 170.788 60.4812 170.445 59.9129C170.116 59.3681 169.599 59.0882 168.999 59.137C169.163 59.1836 169.278 59.2087 169.385 59.2464C170.068 59.4798 170.47 60.1087 170.383 60.827C170.302 61.4925 169.93 61.9626 169.314 62.203C168.758 62.4222 168.263 62.2721 167.837 61.8732C167.371 61.4402 167.394 60.9363 167.896 60.552C167.943 60.5219 167.993 60.4876 168.081 60.4172ZM156.457 53.531C157.487 53.5544 158.255 53.2514 158.871 52.4219C158.466 52.2344 158.106 52.0355 157.723 51.896C157.356 51.7614 157.023 51.9173 156.869 52.258C156.687 52.648 156.596 53.078 156.457 53.531ZM174.612 66.4214C175.159 66.1072 175.797 65.8891 175.835 65.1936C175.871 64.5468 175.297 64.258 174.883 63.8682C174.287 64.6868 174.303 65.5101 174.612 66.4214ZM170.855 63.7445C171.092 64.0084 171.293 64.2784 171.544 64.4955C171.986 64.8806 172.335 64.8369 172.713 64.377C172.886 64.1702 173.032 63.9383 173.218 63.6774C172.42 63.4706 171.681 63.1279 170.855 63.7445ZM160.28 56.2042C160.519 55.2455 160.071 54.6281 159.572 53.9933C159.359 54.292 159.141 54.5361 158.996 54.8197C158.78 55.2302 158.856 55.5063 159.258 55.7424C159.564 55.9282 159.908 56.0407 160.28 56.2042ZM173.077 61.2304C173.338 60.8199 173.586 60.4893 173.777 60.1239C173.961 59.767 173.866 59.5275 173.494 59.364C173.174 59.2251 172.84 59.133 172.502 59.0193C172.144 59.8869 172.664 60.4922 173.077 61.2304ZM164.184 53.1116C163.956 52.8164 163.753 52.532 163.526 52.2626C163.31 52.0136 163.037 51.9965 162.809 52.2274C162.51 52.5407 162.25 52.8881 161.928 53.268C162.743 53.4424 163.466 53.6913 164.184 53.1116ZM176.813 63.3146C176.977 63.1462 177.119 63.0187 177.242 62.872C177.86 62.12 177.788 61.821 176.897 61.4336C176.849 61.412 176.796 61.4061 176.754 61.3761C176.505 61.2178 176.409 61.3525 176.339 61.5754C176.129 62.244 176.488 62.7468 176.813 63.3146ZM158.751 50.3196C158.768 50.376 158.789 50.4354 158.806 50.4919C159.277 50.4907 159.758 50.5544 160.216 50.4812C160.713 50.3977 160.783 50.0859 160.456 49.7074C160.379 49.6204 160.301 49.5334 160.216 49.4476C159.904 49.1297 159.654 49.1234 159.364 49.4685C159.142 49.7354 158.955 50.0335 158.751 50.3196ZM168.373 52.76C168.827 52.7913 169.214 52.7374 169.468 52.3539C169.773 51.899 169.679 51.4259 169.505 50.8772C169.234 51.0264 168.999 51.1252 168.802 51.2768C168.316 51.6473 168.499 52.2278 168.373 52.76ZM171.5 54.9242C171.712 54.8405 171.927 54.7525 172.142 54.6646C172.56 54.4869 172.842 54.047 172.85 53.59C172.853 53.3894 172.788 53.3114 172.584 53.3051C171.613 53.2792 171.105 54.0275 171.5 54.9242ZM160.911 48.4199C161.099 47.4252 160.523 46.8812 159.454 47.0272C159.459 48.0007 159.994 48.5219 160.911 48.4199ZM177.595 55.5751C177.653 56.1431 177.504 56.5571 177.124 56.895C176.53 57.417 175.862 57.4737 175.147 57.2565C174.761 57.1399 174.387 56.9878 173.997 56.8682C173.638 56.7581 173.279 56.7183 172.978 56.8652C173.502 57.0549 174.06 57.2242 174.588 57.4542C175.403 57.8063 176.182 57.7904 176.952 57.3498C177.622 56.9707 177.891 56.2809 177.595 55.5751ZM166.196 52.0588C166.053 51.6902 165.984 51.3684 165.821 51.1068C165.58 50.7251 165.267 50.3886 164.995 50.0232C164.526 49.3908 164.36 48.689 164.74 47.9769C164.914 47.644 165.25 47.395 165.485 47.137C165.013 47.1941 164.632 47.4876 164.446 47.9893C164.089 48.9529 164.273 49.8259 164.972 50.5902C165.371 51.0269 165.732 51.4997 166.196 52.0588ZM160.516 60.3242C161.501 59.7441 161.546 59.0847 160.664 58.3807C160.111 58.6588 159.959 59.4769 160.516 60.3242ZM168.673 64.0552C167.627 63.5124 166.922 63.8417 166.917 64.865C167.839 65.0657 168.397 64.8164 168.673 64.0552ZM179.786 61.5892C179.698 61.0633 179.489 60.6798 179.059 60.4371C178.818 60.3034 178.051 60.4545 178.07 60.6328C178.102 60.8904 178.244 61.1815 178.432 61.3536C178.799 61.6847 179.28 61.5964 179.786 61.5892ZM159.498 48.7645C159.473 48.7279 159.456 48.6901 159.431 48.6535C159.166 48.7757 158.853 48.8505 158.639 49.0346C158.049 49.5337 157.862 50.5615 158.177 51.2679C158.407 51.7739 158.955 52.0819 159.441 51.978C159.932 51.8772 160.441 51.4472 160.659 50.9364C160.475 51.097 160.319 51.2527 160.141 51.3791C159.754 51.6552 159.339 51.8358 158.874 51.5547C158.408 51.2737 158.234 50.8325 158.296 50.3183C158.379 49.5784 158.707 48.9936 159.498 48.7645ZM175.651 61.802C175.619 61.7852 175.583 61.7726 175.551 61.7559C175.417 62.0599 175.243 62.3484 175.163 62.6656C174.997 63.3083 175.251 63.762 175.852 64.0129C176.704 64.3662 178.032 63.7136 178.246 62.8072C178.294 62.6065 178.261 62.3862 178.263 62.1784C178.083 63.0902 177.438 63.754 176.582 63.8163C175.755 63.8737 175.235 63.2942 175.411 62.4869C175.465 62.2592 175.568 62.0345 175.651 61.802ZM168.898 54.5424C168.98 54.1435 168.853 53.8314 168.513 53.6144C168.201 53.4112 167.897 53.4548 167.6 53.6491C167.038 54.0288 167.506 54.5206 167.385 55.0372C167.721 54.8513 168.054 54.7656 168.193 54.5534C168.325 54.3497 168.265 54.0153 168.287 53.7264C168.719 53.8057 168.804 54.1768 168.898 54.5424ZM170.632 55.4477C169.798 55.5953 169.654 55.7786 169.757 56.6132C170.12 56.3449 170.763 56.7147 170.913 56.0155C171.001 55.6154 170.899 55.2955 170.56 55.0599C170.308 54.8872 170.048 54.8791 169.792 55.0332C170.136 55.0496 170.464 55.0612 170.632 55.4477ZM171.688 60.0376C171.664 59.6971 171.721 59.3505 171.597 59.0972C171.431 58.7695 171.045 58.7232 170.687 58.7278C170.613 59.5254 170.818 59.817 171.688 60.0376ZM163.597 54.3176C164.045 54.9794 164.365 55.0739 165.051 54.7698C164.773 53.8868 164.237 53.7138 163.597 54.3176ZM171.862 60.7454C171.941 61.4804 172.547 62.0195 173.18 61.9317C173.821 61.8426 174.418 61.0756 174.313 60.4746C174.089 61.1901 173.613 61.6627 173.095 61.6868C172.594 61.7042 172.13 61.3486 171.862 60.7454ZM162.594 54.2749C161.997 54.0715 161.449 53.8337 161.468 53.1304C161.482 52.5059 161.867 52.0892 162.408 51.8021C161.643 51.9862 161.086 52.7946 161.244 53.4532C161.371 53.9875 162.007 54.3957 162.594 54.2749ZM167.551 59.8173C168.314 59.8224 168.713 60.0111 168.857 60.4499C169.003 60.9032 168.856 61.1724 168.229 61.5629C168.65 61.5774 168.936 61.4257 169.103 61.0754C169.272 60.7137 169.169 60.3865 168.928 60.1009C168.545 59.6504 168.055 59.6696 167.551 59.8173ZM165.073 58.0962C165.06 57.4278 164.796 56.9981 164.365 56.8371C163.969 56.6886 163.553 56.766 163.329 57.0629C163.12 57.346 163.046 57.6548 163.238 58.0263C163.338 57.2983 163.524 57.0561 163.976 57.0171C164.452 56.9817 164.784 57.2816 165.073 58.0962ZM165.724 55.8013C165.623 54.8664 165.344 53.8687 164.793 53.1463C165.079 53.9651 165.42 54.9375 165.724 55.8013ZM170.431 58.3744C170.425 58.3384 170.412 58.3035 170.406 58.2675C169.88 58.3817 169.355 58.4958 168.834 58.6129C168.842 58.6375 168.846 58.6663 168.85 58.688C169.381 58.584 169.907 58.4771 170.431 58.3744Z" fill="white"/>
<path d="M175.072 60.5571C175.157 61.3725 174.962 62.0646 174.77 62.7524C174.459 63.8566 174.031 64.9027 173.204 65.7342C171.927 67.0191 169.834 66.752 169.098 65.2125C168.75 64.4892 168.767 63.7716 169.231 63.0936C169.677 62.4409 170.336 62.308 171.063 62.3822C171.365 62.413 171.67 62.4655 171.958 62.5949C171.717 62.5687 171.471 62.5396 171.233 62.5093C170.228 62.3706 169.701 62.6739 169.483 63.5143C169.265 64.3361 169.704 65.2069 170.5 65.5327C171.366 65.8835 172.492 65.5501 173.111 64.6275C173.613 63.8877 173.994 63.0681 174.391 62.2605C174.64 61.7335 174.821 61.1772 175.072 60.5571Z" fill="#19453F"/>
<path d="M161.842 51.234C161.12 51.8739 160.387 52.4933 159.683 53.1523C159.114 53.6923 158.6 54.2899 158.355 55.0607C158.17 55.6584 158.183 56.2451 158.478 56.8105C158.93 57.6717 160.035 57.9827 160.878 57.4928C161.557 57.101 161.774 56.4312 161.462 55.7205C161.367 55.5068 161.265 55.2944 161.209 55.0704C161.603 55.6561 161.904 56.2761 161.689 57.0048C161.474 57.7335 160.937 58.1497 160.208 58.3091C158.43 58.704 156.872 56.8839 157.434 55.0708C157.694 54.2345 158.233 53.5847 158.87 53.011C159.743 52.231 160.714 51.6161 161.842 51.234Z" fill="#19453F"/>
<path d="M177.006 54.0517C176.631 54.3998 176.679 54.7955 176.759 55.208C176.89 55.8973 176.594 56.2321 175.874 56.2456C175.785 56.2457 175.692 56.2428 175.601 56.2285C175.108 56.163 174.623 56.0964 174.129 56.0237C174.626 54.4809 175.721 53.7007 177.006 54.0517Z" fill="#CA6C46"/>
<path d="M166.494 50.5448C166.251 50.0412 165.983 49.5527 165.774 49.0359C165.506 48.3882 165.724 48.0108 166.409 47.8515C167.043 47.7006 167.043 47.7006 167.423 47.2737C168.189 48.2193 167.764 49.7427 166.494 50.5448Z" fill="#CA6C46"/>
<path d="M175.88 58.5967C176.79 57.4251 177.943 57.4538 178.726 58.6521C177.974 59.4229 176.786 59.4075 175.88 58.5967Z" fill="#CA6C46"/>
<path d="M162.489 47.0774C163.867 47.3868 164.236 48.3917 163.461 49.7366C162.433 49.2574 162.005 48.0773 162.489 47.0774Z" fill="#CA6C46"/>
<path d="M164.327 57.655C164.513 58.4979 163.904 59.0854 163.145 58.8683C162.539 58.6961 161.977 58.3719 161.846 57.7012C161.697 56.9483 161.897 56.2407 162.506 55.7235C163.437 54.9338 164.859 55.2877 165.236 56.406C164.799 55.7015 164.194 55.3845 163.386 55.6275C162.724 55.8277 162.36 56.3296 162.265 56.9975C162.17 57.6282 162.444 58.1083 162.991 58.4349C163.613 58.8083 164.148 58.5741 164.295 57.8604C164.296 57.8232 164.3 57.7818 164.327 57.655Z" fill="#19453F"/>
<path d="M168.081 60.4168C167.988 60.4842 167.938 60.5185 167.893 60.5558C167.388 60.9444 167.364 61.441 167.833 61.8771C168.259 62.2759 168.758 62.4218 169.311 62.2068C169.929 61.9622 170.299 61.4964 170.38 60.8309C170.47 60.1083 170.065 59.4836 169.381 59.2502C169.275 59.2125 169.16 59.1874 168.996 59.1408C169.595 59.092 170.113 59.3719 170.441 59.9168C170.785 60.4851 170.811 61.0808 170.499 61.6703C170.2 62.2315 169.71 62.5732 169.112 62.7439C168.359 62.9556 167.313 62.1978 167.248 61.4159C167.212 60.8887 167.495 60.5262 168.081 60.4168Z" fill="#19453F"/>
<path d="M156.457 53.5315C156.595 53.0785 156.69 52.6514 156.869 52.2585C157.023 51.9178 157.353 51.766 157.723 51.8965C158.106 52.036 158.468 52.2307 158.871 52.4224C158.254 53.2519 157.487 53.5549 156.457 53.5315Z" fill="#CA6C46"/>
<path d="M174.611 66.4208C174.307 65.5126 174.287 64.6863 174.89 63.8664C175.304 64.2563 175.878 64.545 175.842 65.1919C175.796 65.8885 175.159 66.1067 174.611 66.4208Z" fill="#CA6C46"/>
<path d="M170.854 63.7445C171.68 63.128 172.418 63.4634 173.216 63.6702C173.03 63.9311 172.884 64.1631 172.711 64.3699C172.333 64.8297 171.989 64.8764 171.542 64.4884C171.292 64.2785 171.091 64.0085 170.854 63.7445Z" fill="#CA6C46"/>
<path d="M160.281 56.2044C159.909 56.0409 159.56 55.9254 159.256 55.7468C158.853 55.5107 158.777 55.2345 158.994 54.8241C159.143 54.5435 159.36 54.2922 159.57 53.9977C160.072 54.6282 160.52 55.2457 160.281 56.2044Z" fill="#CA6C46"/>
<path d="M173.078 61.2302C172.66 60.4891 172.145 59.8867 172.506 59.0149C172.843 59.1286 173.177 59.2207 173.497 59.3596C173.869 59.5231 173.962 59.7668 173.78 60.1196C173.587 60.4891 173.34 60.8269 173.078 61.2302Z" fill="#CA6C46"/>
<path d="M164.184 53.1116C163.464 53.6956 162.743 53.4425 161.93 53.2753C162.247 52.8924 162.507 52.545 162.811 52.2347C163.035 52.0008 163.311 52.0137 163.528 52.2699C163.756 52.5278 163.957 52.8165 164.184 53.1116Z" fill="#CA6C46"/>
<path d="M176.813 63.3153C176.483 62.7446 176.125 62.2418 176.335 61.5731C176.405 61.3502 176.501 61.2156 176.75 61.3738C176.792 61.4038 176.845 61.4098 176.893 61.4313C177.784 61.8188 177.856 62.1178 177.238 62.8698C177.126 63.0183 176.977 63.147 176.813 63.3153Z" fill="#CA6C46"/>
<path d="M158.806 50.4915C158.966 49.9646 159.208 49.6425 159.364 49.4681C159.545 49.2673 159.662 49.2107 159.776 49.21C159.92 49.2044 160.059 49.2847 160.22 49.4503C160.301 49.533 160.383 49.623 160.46 49.71C160.635 49.9104 160.695 50.0929 160.637 50.2359C160.591 50.3548 160.451 50.4265 160.22 50.4838C159.945 50.5484 159.472 50.6168 158.806 50.4915Z" fill="#CA6C46"/>
<path d="M168.373 52.7599C168.496 52.2319 168.316 51.6472 168.802 51.2767C168.999 51.1251 169.238 51.0293 169.505 50.8771C169.683 51.4287 169.773 51.8989 169.468 52.3538C169.218 52.7403 168.827 52.7912 168.373 52.7599Z" fill="#CA6C46"/>
<path d="M171.5 54.9241C171.102 54.0316 171.605 53.2803 172.58 53.3092C172.785 53.3156 172.85 53.3936 172.847 53.5941C172.841 54.0469 172.557 54.4911 172.138 54.6688C171.931 54.7555 171.714 54.8362 171.5 54.9241Z" fill="#CA6C46"/>
<path d="M160.911 48.4197C159.997 48.5175 159.462 47.9963 159.454 47.027C160.52 46.8852 161.099 47.425 160.911 48.4197Z" fill="#CA6C46"/>
<path d="M177.595 55.5757C177.884 56.2828 177.615 56.9726 176.952 57.3505C176.185 57.7868 175.403 57.807 174.588 57.4548C174.06 57.2249 173.502 57.0556 172.978 56.8659C173.279 56.719 173.642 56.7618 173.997 56.8688C174.383 56.9855 174.761 57.1406 175.147 57.2572C175.862 57.4743 176.53 57.4177 177.124 56.8957C177.508 56.5607 177.653 56.1438 177.595 55.5757Z" fill="#19453F"/>
<path d="M166.197 52.0594C165.728 51.4972 165.371 51.0274 164.972 50.5907C164.272 49.8193 164.09 48.9535 164.447 47.9898C164.63 47.4924 165.009 47.1916 165.485 47.1376C165.251 47.3955 164.915 47.6446 164.741 47.9775C164.364 48.6926 164.523 49.3956 164.995 50.0238C165.268 50.3892 165.58 50.7257 165.822 51.1074C165.984 51.369 166.053 51.6908 166.197 52.0594Z" fill="#19453F"/>
<path d="M160.517 60.3239C159.96 59.4766 160.111 58.6585 160.665 58.3804C161.546 59.0844 161.501 59.7438 160.517 60.3239Z" fill="#CA6C46"/>
<path d="M168.674 64.056C168.401 64.813 167.842 65.0623 166.917 64.8658C166.923 63.8425 167.627 63.5131 168.674 64.056Z" fill="#CA6C46"/>
<path d="M179.786 61.5901C179.284 61.6003 178.799 61.6856 178.435 61.3503C178.247 61.1782 178.101 60.8841 178.073 60.6295C178.051 60.4554 178.822 60.3001 179.063 60.4337C179.492 60.6765 179.698 61.0642 179.786 61.5901Z" fill="#CA6C46"/>
<path d="M159.497 48.7645C158.705 48.9864 158.381 49.5741 158.292 50.3225C158.23 50.8366 158.404 51.2778 158.87 51.5589C159.336 51.84 159.75 51.6594 160.137 51.3832C160.316 51.2569 160.471 51.1012 160.655 50.9406C160.437 51.4513 159.931 51.8771 159.438 51.9822C158.951 52.0861 158.399 51.7751 158.174 51.2721C157.855 50.5626 158.043 49.5421 158.636 49.0387C158.854 48.8577 159.16 48.7841 159.428 48.6576C159.452 48.6942 159.477 48.7309 159.497 48.7645Z" fill="#19453F"/>
<path d="M175.651 61.8023C175.571 62.0306 175.468 62.2553 175.414 62.4902C175.239 63.2975 175.758 63.877 176.586 63.8196C177.439 63.7615 178.086 63.0935 178.267 62.1817C178.261 62.3937 178.298 62.6098 178.25 62.8105C178.034 63.7097 176.711 64.3653 175.856 64.0162C175.254 63.7653 174.996 63.3086 175.167 62.6688C175.251 62.3547 175.423 62.059 175.555 61.7592C175.583 61.7729 175.615 61.7897 175.651 61.8023Z" fill="#19453F"/>
<path d="M168.899 54.5427C168.801 54.1813 168.719 53.8061 168.284 53.7309C168.263 54.0198 168.322 54.3542 168.19 54.558C168.052 54.7701 167.721 54.8516 167.382 55.0418C167.503 54.5252 167.038 54.0291 167.597 53.6537C167.893 53.4521 168.198 53.4157 168.51 53.6189C168.853 53.8317 168.98 54.1438 168.899 54.5427Z" fill="#CA6C46"/>
<path d="M170.633 55.4472C170.467 55.0565 170.132 55.0461 169.788 55.0297C170.047 54.8714 170.308 54.8795 170.556 55.0564C170.895 55.292 170.997 55.6119 170.909 56.012C170.755 56.7082 170.115 56.3342 169.754 56.6097C169.655 55.7781 169.798 55.5947 170.633 55.4472Z" fill="#CA6C46"/>
<path d="M171.688 60.0375C170.817 59.817 170.613 59.5254 170.682 58.7248C171.04 58.7201 171.426 58.7665 171.592 59.0942C171.72 59.3505 171.66 59.6941 171.688 60.0375Z" fill="#CA6C46"/>
<path d="M163.597 54.3178C164.237 53.7141 164.773 53.887 165.051 54.77C164.365 55.0741 164.045 54.9796 163.597 54.3178Z" fill="#CA6C46"/>
<path d="M171.863 60.7461C172.131 61.3494 172.598 61.7079 173.095 61.6875C173.613 61.6635 174.089 61.1909 174.314 60.4754C174.418 61.0764 173.821 61.8434 173.18 61.9324C172.547 62.0203 171.934 61.4823 171.863 60.7461Z" fill="#19453F"/>
<path d="M162.593 54.2746C162.009 54.3912 161.374 53.983 161.244 53.4529C161.086 52.7943 161.639 51.9901 162.408 51.8018C161.867 52.0889 161.482 52.5055 161.468 53.1301C161.446 53.8376 161.996 54.0711 162.593 54.2746Z" fill="#19453F"/>
<path d="M167.551 59.817C168.055 59.662 168.549 59.6458 168.929 60.1006C169.169 60.3861 169.272 60.7133 169.103 61.075C168.941 61.4283 168.654 61.5728 168.23 61.5625C168.861 61.175 169.005 60.91 168.858 60.4496C168.718 60.0137 168.312 59.8263 167.551 59.817Z" fill="#19453F"/>
<path d="M165.073 58.0958C164.784 57.2812 164.448 56.9784 163.977 57.0168C163.527 57.0515 163.339 57.298 163.239 58.026C163.05 57.6503 163.119 57.3385 163.329 57.0626C163.55 56.7699 163.97 56.6883 164.365 56.8367C164.796 56.9978 165.06 57.4274 165.073 58.0958Z" fill="#19453F"/>
<path d="M165.724 55.8015C165.423 54.9335 165.082 53.9611 164.793 53.1465C165.344 53.8689 165.623 54.8666 165.724 55.8015Z" fill="#19453F"/>
<path d="M170.431 58.375C169.905 58.4819 169.374 58.5858 168.85 58.6886C168.842 58.6639 168.838 58.6351 168.834 58.6135C169.359 58.4994 169.885 58.3852 170.406 58.2681C170.416 58.3071 170.425 58.3389 170.431 58.375Z" fill="#19453F"/>
<path d="M180.861 62.2527C182.222 58.661 181.069 54.2689 177.509 52.3034C174.929 50.8772 172.203 51.4089 170.666 52.9337C170.631 52.9656 170.586 52.9843 170.472 53.0553C171.078 51.483 171.185 50.4871 170.811 49.2313C170.057 46.7021 168.289 45.1951 165.809 44.5188C161.468 43.329 156.612 46.3075 155.478 50.8093C154.85 53.3113 155.25 55.6703 156.427 57.9359C157.175 59.3697 157.951 60.7915 158.613 62.2656C158.613 62.2656 161.111 66.1763 160.477 67.1013C160.477 67.1013 162.775 66.0488 165.614 67.2537C165.535 67.2225 165.459 67.1872 165.384 67.1591C165.424 67.1818 165.465 67.2046 165.506 67.2274C165.519 67.2364 165.527 67.2424 165.54 67.2514C166.18 67.2698 166.814 67.3411 167.452 67.434C168.914 67.6443 170.365 67.9488 171.83 68.0473C175.861 68.3187 179.445 65.9945 180.861 62.2527ZM174.259 67.0061C172.733 67.34 171.249 67.1706 169.774 66.722C168.513 66.3374 167.261 65.9215 165.991 65.5681C165.303 65.3762 164.595 65.2839 163.829 65.1383C164.132 64.4023 164.429 63.6561 164.75 62.9206C165.517 61.1583 166.618 59.6659 168.244 58.6039C170.327 57.2466 173.222 57.5014 174.808 59.7095C175.615 60.8297 176.601 60.9234 177.917 60.0913C177.747 60.1419 177.575 60.1968 177.402 60.2444C176.497 60.4815 175.954 60.2912 175.462 59.5033C174.863 58.5371 174.134 57.7261 173.072 57.2673C172.816 57.1548 172.545 57.0632 172.228 56.9387C172.949 56.4249 173.536 55.8411 173.611 54.9618C173.649 54.5258 173.529 54.0791 173.403 53.6337C173.526 54.6352 173.193 55.432 172.359 55.9536C171.903 56.2376 171.385 56.5283 170.862 56.5938C169.303 56.7963 167.894 57.27 166.676 58.3302C166.738 58.1716 166.8 58.013 166.851 57.8525C167.224 56.7417 167.342 55.6143 167.074 54.4592C166.894 53.6968 166.862 52.9317 167.102 52.1766C167.369 51.3205 167.913 50.7625 168.825 50.6131C168.882 50.6034 168.939 50.5865 169.041 50.5582C167.843 50.2371 166.876 50.9625 166.226 52.631C166.184 52.601 166.13 52.5879 166.105 52.5513C165.36 51.4874 164.335 50.8335 163.082 50.5365C162.966 50.5114 162.854 50.4821 162.739 50.457C161.847 50.2401 161.469 49.7812 161.415 48.8606C161.403 48.6811 161.41 48.5021 161.41 48.2799C160.969 49.8875 161.534 50.7594 162.774 51.1548C164.769 51.783 165.827 53.2092 166.077 55.2525C166.205 56.3015 165.939 57.2981 165.527 58.2601C164.828 59.8998 163.655 61.1636 162.329 62.3122C161.953 62.6345 161.577 62.9497 161.164 63.2967C160.289 61.2841 158.849 59.6998 157.632 57.9633C156.647 56.558 155.966 55.0131 156.045 53.2552C156.226 49.1281 159.469 45.3426 163.945 45.354C164.085 45.3526 164.224 45.3627 164.377 45.4334C164.179 45.5147 163.976 45.5858 163.789 45.6803C163.157 45.9975 162.999 46.6277 163.437 47.1803C163.521 47.2847 163.761 47.348 163.896 47.3106C164.38 47.1737 164.591 46.8606 164.609 46.3093C164.617 46.0228 164.587 45.7352 164.573 45.3893C166.474 45.6332 168.017 46.4853 169.122 48.0406C171.092 50.8139 170.252 53.3997 168.482 55.8748C169.095 55.2015 169.671 54.4825 170.329 53.8608C172.06 52.233 174.542 51.9718 176.731 53.1192C178.015 53.7927 178.939 54.7933 179.64 56.1052C179.303 56.2137 179.023 56.2867 178.758 56.3903C178.276 56.5861 178.022 56.9695 178.052 57.4535C178.057 57.5526 178.114 57.6949 178.193 57.7446C178.693 58.0755 179.435 57.7918 179.577 57.2085C179.648 56.9225 179.646 56.6229 179.762 56.2996C179.908 56.8159 180.09 57.3262 180.185 57.8509C181.085 62.7226 177.268 66.3527 174.259 67.0061Z" fill="#19453F"/>
<path d="M160.476 67.101C160.476 67.101 163.282 67.0448 166.713 67.3391L163.633 65.9118L161.159 66.3567L160.476 67.101Z" fill="#19453F"/>
<path d="M160.489 67.1106C160.302 66.5457 160.097 65.9688 159.88 65.3829C159.336 63.9039 158.75 62.5353 158.149 61.2695C158.958 62.0931 159.774 62.9155 160.582 63.739L160.97 66.2224L160.489 67.1106Z" fill="#19453F"/>
<defs>
<clipPath id="clip0_2396_3316">
<rect width="200" height="206" fill="white" transform="translate(34 40)"/>
</clipPath>
</defs>
</svg>
