<svg width="247" height="246" viewBox="0 0 247 246" fill="none" xmlns="http://www.w3.org/2000/svg">
<g clip-path="url(#clip0_2391_2311)">
<rect width="246.5" height="246" rx="123" fill="#E4EBE4"/>
<path d="M158.668 166.871C158.668 185.611 143.509 200.783 124.864 200.783C106.184 200.783 91.0601 185.576 91.0601 166.871C91.0601 148.131 106.218 132.959 124.864 132.959C143.509 132.924 158.668 148.131 158.668 166.871Z" fill="#19453F"/>
<path d="M149 110.443C149.241 109.751 149.414 109.058 149.518 108.296C150.139 104.278 152.245 100.329 152.245 96.2413C152.28 93.0199 152.522 89.5559 151.935 86.3691C151.348 83.217 149.967 80.3419 148.827 77.3975C147.55 74.1068 145.236 71.0239 142.646 68.6684C142.128 68.1835 134.221 63.9921 134.705 63.334C133.669 64.7542 133.116 66.3476 133.22 68.3913C133.358 71.0932 133.6 73.7951 132.564 76.3584C131.217 79.6837 128.455 83.3555 124.484 83.2516C120.652 83.1477 117.026 80.7229 115.265 77.3283C114.367 75.5963 113.78 73.6219 113.884 71.6474C113.987 69.5691 115.161 67.1789 114.367 65.1699C111.743 67.56 110.293 66.9018 107.876 68.0449C106.218 69.2573 105.493 71.5435 104.872 73.3794C103.767 76.4276 102.904 79.5452 101.764 82.6281C100.936 84.9143 99.3127 86.8887 98.6912 89.2788C98.1387 91.4957 98.2078 93.8512 98.2768 96.1028C98.415 100.052 98.3459 104.07 98.3459 108.019C98.3114 110.963 97.4827 113.422 98.7257 116.367C100.867 121.32 106.875 123.676 111.847 124.542C119.547 125.858 127.488 124.542 134.843 122.082C140.885 119.969 146.963 116.609 149 110.443Z" fill="#CA6C46"/>
<path d="M141.645 122.705L141.438 122.567C138.882 115.951 131.804 112.071 125.554 108.642C124.001 107.811 122.55 107.014 121.169 106.183C114.574 102.234 109.015 97.0031 106.322 92.2229L106.391 91.9111L106.702 92.015C109.36 96.726 114.885 101.887 121.411 105.801C122.792 106.633 124.242 107.43 125.762 108.261C132.08 111.725 139.228 115.674 141.852 122.428L141.714 122.705H141.645Z" fill="#8B4E35"/>
<path d="M112.054 66.6594C108.635 67.0058 105.355 68.5646 104.423 69.4306C87.5037 85.4686 77.1105 102.338 74.4518 120.004C73.554 125.893 83.3257 128.179 83.8091 123.468L104.25 91.3226C104.25 91.3226 115.783 66.2437 112.054 66.6594Z" fill="#CA6C46"/>
<path d="M101.799 156.444H114.126C113.746 155.959 113.331 155.474 113.021 155.093C110.845 152.461 114.126 153.223 116.232 155.024C116.75 155.474 117.371 155.994 117.958 156.444H120.617C119.512 154.955 117.44 152.945 115.369 151.283C112.365 148.858 106.598 149.828 104.216 148.338C101.833 146.814 94.824 127.07 91.8545 123.121C88.9196 119.172 85.0524 115.951 85.0524 115.951C85.0524 115.951 74.6592 113.283 74.6592 121.354C74.6937 129.425 94.7204 148.408 97.8971 152.599C99.6235 154.851 100.763 155.821 101.799 156.444Z" fill="#CA6C46"/>
<path d="M137.951 65.8274C139.435 66.5202 144.546 68.5639 145.478 69.4299C162.397 85.4679 172.79 102.337 175.449 120.003C176.347 125.892 166.575 128.178 166.092 123.467L145.651 91.3219C145.685 91.3219 134.532 64.234 137.951 65.8274Z" fill="#CA6C46"/>
<path d="M131.942 156.444C132.529 155.994 133.151 155.474 133.669 155.024C135.775 153.223 139.055 152.461 136.88 155.093C136.569 155.474 136.155 155.959 135.775 156.444H148.102C149.138 155.821 150.277 154.851 151.969 152.599C155.146 148.408 175.172 129.425 175.207 121.354C175.241 113.283 164.814 115.951 164.814 115.951C164.814 115.951 160.947 119.172 158.012 123.121C155.077 127.07 148.067 146.814 145.65 148.338C143.268 149.863 137.501 148.858 134.497 151.283C132.46 152.945 130.388 154.955 129.249 156.444H131.942Z" fill="#CA6C46"/>
<path d="M114.022 65.5503C113.953 65.7581 113.849 66.0006 113.746 66.2084C112.399 69.3606 111.26 72.3396 111.95 75.8035C113.055 81.4844 117.406 87.1999 123.345 88.239C129.871 89.3821 136.362 84.2555 137.812 77.9165C138.572 74.6258 138.158 70.9887 136.362 68.0443C135.637 66.8666 134.808 65.6888 134.67 64.2686C134.636 63.8876 134.601 63.4719 134.601 63.0909C134.532 62.9177 134.463 62.7445 134.463 62.5713C134.394 59.9041 134.463 51.9717 134.463 51.9717H115.161C115.161 51.9717 115.23 59.9387 115.161 62.5713C115.161 63.5412 114.851 64.5457 114.022 65.5503Z" fill="#F4DCC9"/>
<path d="M161.741 161.779H87.9869L84.7412 154.989V151.595H164.986V154.989L161.741 161.779Z" fill="#522E20"/>
<path d="M161.741 158.385H87.9869L84.7412 103.932H164.986L161.741 158.385Z" fill="#522E20"/>
<path d="M129.284 130.153C129.284 132.751 127.281 134.864 124.864 134.864C122.412 134.864 120.41 132.751 120.41 130.153C120.41 127.555 122.412 125.477 124.864 125.477C127.315 125.477 129.284 127.59 129.284 130.153Z" fill="white"/>
<path d="M154.041 156.93H95.687L95.4453 156.687L95.687 156.479H154.041L154.248 156.687L154.041 156.93Z" fill="white"/>
<path d="M169.268 200.298C167.68 199.19 166.16 198.809 164.572 198.67C162.915 198.532 161.223 198.635 159.289 198.428L158.84 198.358C158.668 203.035 157.563 207.676 156.147 212.145C157.459 212.11 158.771 212.041 160.049 211.937C166.678 211.452 171.996 209.72 177.589 205.633C177.002 206.083 170.028 200.818 169.268 200.298Z" fill="#F4DCC9"/>
<path d="M195.683 197.111C192.748 191.985 186.153 192.573 181.353 193.717C178.487 194.375 175.829 195.137 172.928 195.483C170.684 195.76 168.508 196.176 166.333 196.799C165.574 197.007 164.71 197.492 163.951 197.908C164.538 198.22 165.056 198.635 165.677 198.982C166.368 199.363 167.127 199.674 167.749 200.159C168.716 200.921 169.303 201.995 169.406 203.242C169.613 206.256 168.094 208.819 166.333 211.14H166.402C166.333 211.383 166.161 211.521 165.953 211.59L165.781 211.66C165.401 211.764 164.883 211.764 164.538 211.902C167.542 212.734 171.167 212.352 174.275 212.491C175.829 212.56 177.348 212.283 178.902 212.387C180.49 212.491 182.009 213.149 183.529 213.357C186.74 213.842 190.089 212.976 192.472 210.655C195.579 207.607 198.169 201.476 195.683 197.111Z" fill="#E7E7E7"/>
<path d="M194.889 197.492C192.023 192.712 185.6 193.231 180.904 194.305C178.108 194.929 175.483 195.621 172.687 195.968C170.511 196.21 168.37 196.626 166.23 197.215C165.228 197.492 163.951 197.734 163.122 198.15L163.675 198.496C164.503 199.57 165.09 200.159 166.402 200.679C163.778 201.129 163.675 203.242 163.502 205.84C163.329 208.126 163.571 210.62 166.299 210.655C166.126 211.313 165.125 211.694 164.538 211.936C167.473 212.699 170.96 211.798 173.999 211.902C175.518 211.936 177.003 211.694 178.522 211.798C180.076 211.902 181.56 212.491 183.045 212.699C186.187 213.149 189.433 212.317 191.781 210.17C194.785 207.329 197.34 201.579 194.889 197.492Z" fill="#0B2925"/>
<path d="M160.394 198.288C159.703 198.288 159.047 198.219 158.322 198.15C148.55 197.111 139.124 192.677 131.044 187.204C123.137 181.904 115.541 175.807 108.29 169.642C99.0361 161.778 91.1635 153.811 79.4237 149.793C73.761 147.853 65.405 148.719 62.401 154.712C58.9481 161.536 62.0212 169.434 65.2323 175.565C68.5126 181.8 72.3453 187.758 77.4901 192.642C85.5008 200.297 96.6191 206.29 107.979 205.77C108.359 205.77 109.015 205.77 109.533 205.666C110.776 206.983 114.263 207.987 115.714 208.438C121.514 210.239 128.006 211.105 134.083 211.694C141.817 212.421 149.655 212.733 157.424 212.352C158.978 207.779 160.221 203.034 160.394 198.288Z" fill="#19453F"/>
<path d="M152.832 212.283C153.454 210.724 153.972 209.131 154.317 207.502C154.939 204.662 155.387 201.51 155.733 197.907L155.802 196.938L156.769 197.076C157.494 197.18 158.115 197.284 158.737 197.319C159.462 197.388 160.152 197.422 160.739 197.457L161.637 197.492L161.603 198.392C161.464 202.653 160.463 207.225 158.495 212.733L158.288 213.287L157.701 213.322C156.354 213.391 155.008 213.46 153.695 213.495L152.28 213.564L152.832 212.283Z" fill="#0B2925"/>
<path d="M80.3908 203.45C81.9791 202.341 83.4984 201.96 85.0867 201.822C86.7441 201.683 88.436 201.787 90.3696 201.579L90.8185 201.51C90.9911 206.221 92.0961 210.828 93.5118 215.296C92.1997 215.262 90.9221 215.192 89.61 215.088C82.9805 214.603 77.6285 212.837 72.0693 208.784C72.6909 209.269 79.6312 203.969 80.3908 203.45Z" fill="#F4DCC9"/>
<path d="M54.0105 200.297C56.9455 195.171 63.5405 195.76 68.34 196.868C71.2059 197.526 73.8991 198.288 76.765 198.635C79.0094 198.912 81.1847 199.328 83.3946 199.951C84.1197 200.159 85.0174 200.644 85.777 201.025C85.1555 201.337 84.6721 201.752 84.0506 202.099C83.3946 202.48 82.6004 202.791 82.0134 203.276C81.0466 204.073 80.4596 205.112 80.356 206.359C80.1488 209.373 81.6681 211.936 83.4291 214.257H83.36C83.4291 214.5 83.6017 214.638 83.8089 214.707L83.9815 214.742C84.3614 214.846 84.8793 214.846 85.2246 215.019C82.2206 215.85 78.595 215.469 75.4875 215.573C73.9337 215.643 72.4144 215.365 70.8606 215.469C69.2723 215.573 67.753 216.231 66.2337 216.439C63.0225 216.924 59.6732 216.058 57.2907 213.737C54.1141 210.758 51.4899 204.627 54.0105 200.297Z" fill="#E7E7E7"/>
<path d="M54.7703 200.679C57.6362 195.864 64.0585 196.453 68.7544 197.492C71.5513 198.116 74.1755 198.809 76.9723 199.155C79.1476 199.397 81.2884 199.813 83.4292 200.402C84.4305 200.679 85.7081 200.922 86.5023 201.337L85.9498 201.684C85.1211 202.757 84.5341 203.346 83.222 203.866C85.8462 204.316 85.9498 206.429 86.1225 209.027C86.2951 211.348 86.0534 213.807 83.3256 213.842C83.4983 214.5 84.4996 214.881 85.0866 215.124C82.1516 215.886 78.6642 214.985 75.6257 215.089C74.1064 215.124 72.6217 214.881 71.1024 214.985C69.5486 215.089 68.0984 215.678 66.5791 215.886C63.437 216.336 60.1913 215.505 57.8433 213.357C54.9084 210.482 52.3532 204.732 54.7703 200.679Z" fill="#0B2925"/>
<path d="M89.2993 201.441C89.9554 201.407 90.6459 201.372 91.371 201.303C101.143 200.264 110.569 195.83 118.683 190.357C126.59 185.057 134.187 178.961 141.438 172.795C150.657 164.932 158.564 156.965 170.304 152.946C175.967 151.007 185.151 151.492 187.327 157.865C192.782 173.765 161.741 207.677 115.679 214.882C107.979 216.094 100.107 215.921 92.3379 215.505C90.715 210.967 89.4374 206.187 89.2993 201.441Z" fill="#19453F"/>
<path d="M97.1716 215.332C96.5155 213.807 96.0321 212.179 95.6868 210.551C95.0653 207.711 94.6164 204.559 94.2711 200.956L94.1675 199.986L93.2353 200.125C92.5102 200.229 91.8886 200.333 91.2671 200.402C90.542 200.471 89.8514 200.506 89.2645 200.541L88.3667 200.575L88.4012 201.476C88.5393 205.736 89.5062 210.309 91.5088 215.816L91.716 216.371L92.3375 216.405C93.6841 216.475 94.9962 216.544 96.3429 216.579L97.7585 216.613L97.1716 215.332Z" fill="#0B2925"/>
<path d="M124.829 22.8057C116.231 22.8057 108.462 28.3133 108.462 35.5876C108.462 42.8618 108.808 49.2355 110.81 56.3019C113.711 66.6244 123.068 67.2825 124.829 67.2825C126.59 67.2825 135.947 66.5898 138.848 56.3019C140.85 49.2355 141.196 42.8618 141.196 35.5876C141.196 28.348 133.427 22.8057 124.829 22.8057Z" fill="#F4DCC9"/>
<path d="M132.736 61.6712C131.493 62.2947 130.768 62.9528 129.214 62.8836C128.282 62.8489 127.661 62.745 127.108 62.1561C126.383 62.2947 125.623 62.3986 124.795 62.3986C123.931 62.3986 123.103 62.2947 122.343 62.1215C121.722 62.6065 121.273 62.8143 120.375 62.8836C118.821 62.9528 118.131 62.2947 116.853 61.6712C114.954 60.7013 113.4 60.1471 111.536 58.4844C112.572 61.1516 114.505 63.4724 116.749 65.3083C118.649 66.8671 120.686 67.6638 123.448 67.7677C123.862 67.7677 125.658 67.7677 126.107 67.7677C128.869 67.6638 130.941 66.8671 132.805 65.3083C135.05 63.4724 136.983 61.1516 138.019 58.4844C136.189 60.1471 134.635 60.7013 132.736 61.6712Z" fill="#0B2925"/>
<path d="M110.086 43.5897C110.086 43.5897 107.22 40.0565 105.77 43.1394C104.665 45.4949 106.978 52.4574 109.395 52.111C111.812 51.7646 111.881 46.1184 110.086 43.5897Z" fill="#F4DCC9"/>
<path d="M109.499 47.1224C109.257 46.1179 108.946 45.1133 108.325 44.3512C108.048 44.0049 107.738 43.6931 107.323 43.5545C106.115 43.1735 106.149 45.6329 106.184 46.2218C106.046 45.6675 105.908 45.0787 106.011 44.4898C106.08 43.8663 106.426 43.1735 107.082 43.0696C107.634 42.9657 108.083 43.3121 108.463 43.6238C109.015 44.1088 109.43 44.8362 109.671 45.529C110.051 46.6028 110.155 47.7805 110.293 48.9583C110.051 48.5426 109.844 48.023 109.499 47.7113C109.015 47.2609 108.601 48.3001 108.532 48.6812C108.394 49.3047 108.566 49.8935 109.015 50.2053C108.359 49.9628 108.118 49.2354 108.256 48.508C108.359 47.8845 108.808 46.9838 109.499 47.1224Z" fill="#D9B89E"/>
<path d="M139.573 43.5897C139.573 43.5897 142.439 40.0565 143.889 43.1394C145.029 45.4949 142.681 52.4574 140.264 52.111C137.847 51.7646 137.777 46.1184 139.573 43.5897Z" fill="#F4DCC9"/>
<path d="M140.126 47.1224C140.367 46.1179 140.678 45.1133 141.3 44.3512C141.576 44.0049 141.887 43.6931 142.301 43.5545C143.509 43.1735 143.475 45.6329 143.44 46.2218C143.578 45.6675 143.717 45.0787 143.613 44.4898C143.544 43.8663 143.199 43.1735 142.543 43.0696C141.99 42.9657 141.541 43.3121 141.127 43.6238C140.574 44.1088 140.16 44.8362 139.918 45.529C139.539 46.6028 139.435 47.7805 139.297 48.9583C139.539 48.5426 139.746 48.023 140.091 47.7113C140.574 47.2609 140.989 48.3001 141.058 48.6812C141.196 49.3047 141.023 49.8935 140.54 50.2053C141.196 49.9628 141.438 49.2354 141.3 48.508C141.3 47.8845 140.851 46.9838 140.126 47.1224Z" fill="#D9B89E"/>
<path d="M129.422 58.3803C129.214 58.6228 129.007 58.8307 128.766 59.0385L128.386 59.3156L127.971 59.5581L127.557 59.7659L127.453 59.8006L127.35 59.8352L127.281 59.8698L127.074 59.9738L126.659 60.1123L126.556 60.1469H126.521H126.452H126.383L126.176 60.1816L125.727 60.2855L125.278 60.3548L125.036 60.3894H124.76H124.553H124.484H124.415H124.311L123.379 60.2855C123.068 60.2509 122.792 60.1469 122.516 60.0777H122.447C121.894 59.9045 121.376 59.6966 120.893 59.4195L120.513 59.177L120.341 59.0731L120.237 59.0039L120.168 58.9346C119.961 58.7614 119.754 58.5535 119.546 58.3457L120.375 58.5535L120.479 58.5882H120.548L120.755 58.6228L121.135 58.7267C121.411 58.7614 121.687 58.8307 121.929 58.8653C122.205 58.8999 122.447 58.9346 122.689 58.9692H122.619C122.93 59.0039 123.206 59.0039 123.517 59.0385L123.897 59.0731L124.346 59.1078H124.76H124.933H125.175L125.589 59.0731L126.038 59.0385H126.245H126.314L126.418 59.0039L126.867 58.9346L127.074 58.8999H127.143L127.246 58.8653L127.661 58.796L128.524 58.5882C128.835 58.5535 129.111 58.4496 129.422 58.3803Z" fill="#D9B89E"/>
<path d="M127.385 53.738C127.316 51.5903 126.763 49.3388 125.831 47.4336C126.003 49.3041 126.314 51.1746 126.487 53.0798C126.521 53.7379 126.763 55.1582 126.245 55.7124C125.693 56.3013 124.795 56.613 124.07 56.9594C124.829 56.994 125.624 56.8555 126.314 56.5784C127.385 56.1281 127.454 54.7771 127.385 53.738Z" fill="#D9B89E"/>
<path d="M117.682 48.4046C117.682 49.1667 117.06 49.7556 116.335 49.7556C115.61 49.7556 114.989 49.1321 114.989 48.4046C114.989 47.6772 115.61 47.0537 116.335 47.0537C117.095 47.0537 117.682 47.6426 117.682 48.4046Z" fill="#0B2925"/>
<path d="M134.636 48.4046C134.636 49.1667 134.049 49.7556 133.289 49.7556C132.529 49.7556 131.942 49.1321 131.942 48.4046C131.942 47.6772 132.564 47.0537 133.289 47.0537C134.049 47.0537 134.636 47.6426 134.636 48.4046Z" fill="#0B2925"/>
<path d="M118.476 48.1614L118.304 48.0229C118.2 47.9536 118.027 47.7804 117.855 47.7111L117.544 47.5726L117.164 47.4686C116.922 47.3647 116.612 47.3994 116.37 47.3301L115.956 47.3647L115.541 47.434L115.196 47.5379L114.885 47.7111C114.678 47.815 114.54 47.9189 114.436 48.0229L114.264 48.1614L114.367 47.9536C114.436 47.8497 114.505 47.6072 114.713 47.4686C114.885 47.2954 115.092 47.0876 115.438 46.949L115.921 46.8105L116.404 46.7412L116.922 46.8105C117.095 46.8105 117.233 46.8798 117.406 46.949C117.717 47.053 117.958 47.2608 118.131 47.434C118.338 47.6072 118.373 47.815 118.476 47.9189V48.1614Z" fill="#0B2925"/>
<path d="M135.43 48.1614L135.257 48.0229C135.153 47.9536 134.981 47.7804 134.774 47.7111L134.463 47.5726L134.083 47.4686C133.841 47.3647 133.565 47.3994 133.289 47.3301L132.875 47.3647L132.46 47.434L132.115 47.5379L131.804 47.7111C131.597 47.815 131.459 47.9189 131.355 48.0229L131.183 48.1614L131.286 47.9536C131.355 47.8497 131.424 47.6072 131.631 47.4686C131.804 47.2954 132.046 47.0876 132.357 46.949L132.805 46.8105L133.323 46.7412L133.841 46.8105C134.014 46.8105 134.152 46.8798 134.325 46.949C134.636 47.053 134.843 47.2608 135.05 47.434C135.257 47.6072 135.292 47.815 135.395 47.9189L135.43 48.1614Z" fill="#0B2925"/>
<path d="M119.892 44.5601C119.305 43.6248 118.027 43.417 116.991 43.5555C115.23 43.8326 113.711 44.9065 112.675 46.3267C112.537 46.5345 112.71 46.8463 112.951 46.6731C113.124 46.6731 113.745 46.1188 113.918 46.0149C114.643 45.5646 115.817 44.8372 116.715 44.9065C117.475 44.8718 118.165 44.8718 118.856 45.2182C119.615 45.6685 120.41 45.4261 119.892 44.5601Z" fill="#5F4E41"/>
<path d="M129.767 44.5601C130.354 43.6248 131.631 43.417 132.667 43.5555C134.428 43.8326 135.948 44.9065 136.983 46.3267C137.122 46.5345 136.949 46.8463 136.707 46.6731C136.535 46.6731 135.913 46.1188 135.74 46.0149C135.015 45.5646 133.876 44.8372 132.944 44.9065C132.184 44.8718 131.493 44.8718 130.837 45.2182C130.043 45.6685 129.249 45.4261 129.767 44.5601Z" fill="#5F4E41"/>
<path d="M96.4121 200.158L96.1704 199.951L96.3776 199.708C100.003 199.604 104.078 197.491 107.669 195.655C108.325 195.309 108.946 194.997 109.568 194.685C115.334 191.81 120.962 188.381 126.245 184.467C132.184 180.068 137.985 175.461 143.544 170.715C147.549 167.286 153.972 162.159 158.53 159.007L158.84 159.076L158.771 159.388C154.248 162.54 147.826 167.632 143.82 171.061C138.261 175.807 132.46 180.414 126.521 184.813C121.204 188.762 115.576 192.191 109.775 195.066C109.153 195.378 108.532 195.69 107.91 196.036C104.25 197.907 100.141 200.02 96.4121 200.158Z" fill="#0B2925"/>
<path d="M122.551 181.211L122.412 181.176C117.993 178.197 113.78 174.56 109.74 171.061C107.703 169.295 105.597 167.493 103.491 165.796C97.5172 160.947 92.1997 156.755 83.1877 151.074L83.1187 150.763L83.4294 150.693C92.4414 156.409 97.7589 160.566 103.767 165.45C105.873 167.147 107.979 168.983 110.017 170.75C114.057 174.248 118.234 177.851 122.654 180.83L122.723 181.141L122.551 181.211Z" fill="#0B2925"/>
<path d="M136.673 31.9154C135.154 33.4395 132.978 34.5826 131.425 35.4486C128.731 36.9727 125.727 37.908 122.792 38.7393C120.859 39.2936 118.718 39.7092 116.75 39.2936C114.333 38.774 112.088 38.774 110.189 37.0074C108.532 35.4486 106.909 33.7513 106.875 31.2919C106.771 25.0914 114.954 22.2857 119.65 20.7615C123.621 19.4799 127.143 19.9995 131.045 21.0386C132.426 21.385 133.669 22.0085 134.912 22.632C136.535 23.4634 137.536 24.7797 138.227 26.5116C139.055 28.6593 138.158 30.4605 136.673 31.9154Z" fill="#0B2925"/>
<path d="M120.41 35.1721C119.374 36.2806 117.993 37.0773 116.473 37.3544C114.989 37.6315 113.607 37.3198 112.641 38.74C111.985 39.7099 111.743 41.0954 111.501 42.2385C111.363 42.8967 111.398 45.3907 110.534 45.1829C109.499 44.9058 108.428 41.9268 108.117 41.0262C107.703 39.9177 107.254 38.8092 107.151 37.5969C107.012 36.4191 106.805 35.1028 106.909 33.8905C107.151 30.9808 109.464 28.9717 111.57 27.2051L120.41 35.1721Z" fill="#0B2925"/>
<path d="M129.249 35.1721C130.285 36.2806 131.666 37.0773 133.151 37.3544C134.636 37.6315 136.017 37.3198 136.983 38.74C137.64 39.7099 137.881 41.0954 138.123 42.2385C138.261 42.8967 138.227 45.3907 139.09 45.1829C140.126 44.9058 141.196 41.9268 141.541 41.0262C141.956 39.9177 142.37 38.8092 142.508 37.5969C142.646 36.4191 142.853 35.1028 142.75 33.8905C142.508 30.9808 140.195 28.9717 138.054 27.2051L129.249 35.1721Z" fill="#0B2925"/>
<path d="M98.311 101.992L98.0693 101.784C98.0693 98.4929 98.2074 95.2715 98.3801 92.535L98.6218 92.3271L98.829 92.5696C98.6909 95.2715 98.5182 98.4929 98.5182 101.784L98.311 101.992Z" fill="#8B4E35"/>
<path d="M150.312 101.818L150.07 101.575C150.139 99.4624 150.104 97.4187 150.07 95.2711C150.07 94.1973 150.07 93.1235 150.07 92.0496L150.312 91.8418L150.519 92.0496C150.519 93.1581 150.519 94.1973 150.553 95.2711C150.588 97.4187 150.588 99.4624 150.519 101.575L150.312 101.818Z" fill="#8B4E35"/>
<path d="M84.1543 121.632L83.8091 121.598C82.497 121.424 81.1158 121.251 79.8037 121.321L79.562 121.113L79.7692 120.87C81.1158 120.801 82.497 120.974 83.8436 121.113L84.1543 121.147L84.3615 121.39L84.1543 121.632Z" fill="#8B4E35"/>
<path d="M80.5289 124.507L80.3218 124.369L80.4254 124.057C81.3231 123.607 82.2554 123.434 83.533 123.434L83.7747 123.676L83.533 123.884H83.4639C82.2899 123.884 81.3922 124.057 80.598 124.473L80.5289 124.507Z" fill="#8B4E35"/>
<path d="M167.507 124.056L167.369 124.021C167.127 123.814 166.851 123.64 166.575 123.467C165.953 123.086 165.332 122.671 164.883 121.978L164.952 121.666L165.263 121.735C165.642 122.359 166.229 122.705 166.816 123.086C167.093 123.259 167.369 123.433 167.645 123.64L167.68 123.952L167.507 124.056Z" fill="#8B4E35"/>
<path d="M169.82 121.632L169.751 121.598C168.301 121.043 166.264 120.385 164.641 120.489L164.399 120.281L164.607 120.039C166.299 119.935 168.439 120.628 169.924 121.182L170.062 121.459L169.82 121.632Z" fill="#8B4E35"/>
<path d="M91.3711 195.414L91.233 195.345C89.8864 194.133 88.4707 192.92 87.0896 191.742C83.9474 189.11 80.7017 186.373 77.9739 183.048C74.7282 179.064 72.3457 175.878 70.2395 172.725C69.6525 171.825 68.9274 170.89 68.2023 169.92C66.1651 167.218 63.8862 164.17 63.2646 161.017L63.4373 160.74L63.7135 160.913C64.3005 163.962 66.4758 166.837 68.5476 169.643C69.3072 170.612 69.9978 171.548 70.5848 172.483C72.691 175.601 75.039 178.787 78.2847 182.771C80.9779 186.062 84.1891 188.763 87.3313 191.396C88.7124 192.574 90.1281 193.752 91.5093 194.999L91.5438 195.31L91.3711 195.414Z" fill="#0B2925"/>
<path d="M156.631 195.586L156.458 195.482L156.527 195.171C163.433 190.356 179.903 177.262 184.012 159.146L184.288 158.973L184.461 159.25C180.317 177.505 163.744 190.702 156.803 195.517L156.631 195.586Z" fill="#0B2925"/>
</g>
<rect x="0.210616" y="0.210616" width="246.079" height="245.579" rx="122.789" stroke="#DFDFDF" stroke-width="0.421233"/>
<defs>
<clipPath id="clip0_2391_2311">
<rect width="246.5" height="246" rx="123" fill="white"/>
</clipPath>
</defs>
</svg>
