<svg width="343" height="69" fill="none" xmlns="http://www.w3.org/2000/svg"><g clip-path="url(#clip0_193_2792)" fill="#fff"><path d="M0 40.168h12.029c.435 4.328 3.18 8.592 10.603 8.592 6.738 0 9.542-3.157 9.542-6.315 0-3.158-1.665-5.37-7.682-6.385l-6.663-1.1C6.452 33.052 1.882 27.977 1.882 19.32c0-8.656 7.682-15.632 20.076-15.632 13.842 0 20.676 7.706 21.593 16.588H31.522c-.72-4.183-3.403-7.706-9.638-7.706-5.869 0-8.185 3.083-8.185 5.8 0 3.303 1.808 4.833 7.825 5.87l6.086.955c11.133 1.837 17.32 7.046 17.32 16.148 0 9.838-8.191 16.298-22.176 16.298C8.482 57.637.652 50.372 0 40.168zm52.393-20.413h11.303v4.92c1.521-2.149 5.582-5.87 12.246-5.87 10.513 0 17.468 7.63 17.468 19.375 0 11.454-7.03 19.456-17.611 19.456-5.943 0-9.781-2.573-11.663-5.064v16.443H52.393v-49.26zm20.071 28.999c5.44 0 8.986-4.039 8.986-10.644s-3.478-10.643-8.986-10.643c-5.36 0-9.054 4.038-9.129 10.643-.074 6.605 3.77 10.644 9.13 10.644zm33.988-47.053c4.13 0 6.812 2.932 6.812 6.385 0 3.598-2.682 6.606-6.812 6.606-4.13 0-6.595-3.008-6.595-6.606 0-3.453 2.46-6.385 6.595-6.385zm-5.795 18.055h11.663V56.53h-11.663V19.756zm18.985 18.425c0-11.67 8.483-19.525 20.363-19.525 12.389 0 19.202 7.27 19.928 15.573h-11.494c-.8-4.259-3.483-6.75-8.333-6.75-5.148 0-8.551 3.963-8.551 10.713 0 6.75 3.477 10.574 8.551 10.574 4.925 0 7.681-2.863 8.402-7.046h11.377c-.578 7.776-7.029 15.928-19.854 15.928-12.198-.011-20.389-8.099-20.389-19.467zm58.406 16.002l-15.867-34.428h12.607l8.843 21.201 8.28-21.2h11.716l-20.288 49.259h-11.663l6.372-14.832zM228.65.01h14.844v5.37h-8.901v58.276h8.911v5.37H228.66L228.65.01zm37.681 4.774h15.289l20.22 51.746h-13.408l-3.986-11.524h-21.497l-4.082 11.524H246.26l20.071-51.746zm15.072 30.905l-7.825-20.847-7.539 20.847h15.364zM308.01 4.784h12.194V56.53H308.01V4.784zM343 69.016h-14.844v-5.37h8.912V5.37h-8.912V0H343v69.016z"/></g><defs><clipPath id="clip0_193_2792"><path fill="#fff" d="M0 0h343v69H0z"/></clipPath></defs></svg>