<svg width="1920" height="1338" viewBox="0 0 1920 1338" fill="none" xmlns="http://www.w3.org/2000/svg">
<rect width="1920" height="1338" fill="#F7FAF7"/>
<path opacity="0.1" fill-rule="evenodd" clip-rule="evenodd" d="M889.987 434.332L891.766 439.408L893.44 444.533L895.006 449.703L896.46 454.917L897.798 460.171L899.016 465.463L900.11 470.788L901.076 476.145L901.911 481.528L902.611 486.935L903.173 492.361L903.594 497.802L903.87 503.254L904 508.712L903.981 514.173L903.811 519.631L903.488 525.083L903.011 530.522L902.379 535.945L901.591 541.347L900.647 546.723L899.546 552.068L898.288 557.377L896.875 562.647L895.307 567.872L893.586 573.049L891.713 578.172L889.69 583.238L887.52 588.242L885.204 593.181L882.746 598.052L880.15 602.85L877.418 607.572L874.554 612.216L871.562 616.779L868.447 621.258L865.213 625.651L861.864 629.956L858.405 634.171L854.841 638.296L851.177 642.328L847.419 646.268L843.571 650.114L839.639 653.867L835.628 657.527L831.544 661.093L827.393 664.568L823.178 667.952L818.907 671.246L814.585 674.452L810.215 677.571L805.805 680.607L801.359 683.561L796.881 686.436L792.376 689.236L787.85 691.962L783.305 694.618L778.747 697.208L774.18 699.735L769.606 702.204L765.029 704.616L760.453 706.977L755.88 709.291L751.313 711.561L746.754 713.791L742.205 715.985L737.668 718.147L733.143 720.281L728.633 722.391L724.137 724.48L719.657 726.552L715.193 728.61L710.744 730.658L706.31 732.698L701.891 734.733L697.486 736.766L693.094 738.8L688.713 740.837L684.344 742.88L679.983 744.932L675.631 746.994L671.284 749.068L666.942 751.156L662.602 753.261L658.262 755.383L653.92 757.524L649.574 759.684L645.22 761.865L640.857 764.065L636.482 766.287L632.092 768.529L627.683 770.79L623.255 773.07L618.803 775.368L614.324 777.683L609.817 780.011L605.278 782.352L600.705 784.703L596.095 787.06L591.445 789.422L586.754 791.784L582.018 794.143L577.236 796.496L572.406 798.837L567.526 801.164L562.595 803.471L557.611 805.754L552.574 808.008L547.481 810.229L542.333 812.411L537.13 814.549L531.87 816.639L526.554 818.676L521.182 820.655L515.755 822.57L510.273 824.419L504.738 826.194L499.149 827.893L493.51 829.51L487.821 831.041L482.084 832.48L476.301 833.823L470.474 835.066L464.606 836.204L458.7 837.231L452.759 838.145L446.785 838.94L440.782 839.612L434.753 840.158L428.703 840.573L422.635 840.854L416.553 840.998L410.461 841L404.364 840.859L398.266 840.57L392.171 840.133L386.085 839.545L380.012 838.803L373.957 837.906L367.924 836.853L361.919 835.643L355.947 834.275L350.011 832.748L344.118 831.063L338.272 829.219L332.477 827.218L326.738 825.06L321.06 822.745L315.447 820.276L309.904 817.655L304.434 814.883L299.042 811.963L293.731 808.898L288.503 805.692L283.363 802.349L278.311 798.872L273.352 795.266L268.485 791.536L263.713 787.687L259.037 783.724L254.458 779.652L249.975 775.477L245.59 771.203L241.301 766.838L237.108 762.385L233.011 757.851L229.007 753.241L225.096 748.56L221.276 743.813L217.544 739.006L213.899 734.144L210.339 729.231L206.861 724.272L203.462 719.271L200.139 714.232L196.891 709.159L193.713 704.055L190.603 698.924L187.559 693.769L184.577 688.593L181.654 683.397L178.789 678.185L175.977 672.957L173.218 667.715L170.508 662.461L167.846 657.196L165.23 651.92L162.658 646.633L160.129 641.336L157.642 636.03L155.197 630.713L152.792 625.385L150.428 620.046L148.104 614.695L145.822 609.331L143.581 603.954L141.383 598.563L139.228 593.157L137.118 587.735L135.054 582.296L133.038 576.84L131.072 571.365L129.158 565.871L127.298 560.358L125.495 554.824L123.752 549.269L122.07 543.693L120.453 538.096L118.905 532.477L117.427 526.837L116.024 521.176L114.699 515.493L113.454 509.79L112.294 504.067L111.221 498.326L110.238 492.566L109.35 486.79L108.559 480.998L107.869 475.193L107.282 469.375L106.801 463.547L106.43 457.711L106.171 451.87L106.027 446.024L106 440.177L106.092 434.332L106.307 428.492L106.646 422.658L107.111 416.834L107.707 411.024L108.434 405.231L109.295 399.458L110.293 393.709L111.43 387.987L112.708 382.297L114.128 376.643L115.692 371.028L117.402 365.457L119.258 359.935L121.263 354.465L123.416 349.053L125.718 343.702L128.168 338.418L130.767 333.204L133.515 328.066L136.41 323.007L139.451 318.033L142.636 313.148L145.964 308.356L149.433 303.661L153.039 299.068L156.781 294.58L160.654 290.201L164.656 285.935L168.783 281.785L173.03 277.754L177.393 273.845L181.867 270.061L186.448 266.404L191.131 262.877L195.909 259.482L200.778 256.219L205.732 253.091L210.765 250.097L215.87 247.24L221.042 244.519L226.274 241.934L231.56 239.485L236.893 237.171L242.267 234.991L247.676 232.944L253.112 231.028L258.57 229.241L264.043 227.581L269.525 226.045L275.009 224.63L280.488 223.332L285.958 222.149L291.413 221.076L296.846 220.109L302.252 219.244L307.626 218.476L312.963 217.801L318.258 217.214L323.507 216.709L328.706 216.281L333.85 215.926L338.937 215.636L343.962 215.408L348.924 215.236L353.819 215.113L358.646 215.035L363.401 214.995L368.085 214.989L372.695 215.011L377.232 215.055L381.693 215.117L386.079 215.192L390.391 215.274L394.629 215.359L398.792 215.442L402.883 215.52L406.903 215.587L410.852 215.64L414.733 215.674L418.547 215.685L422.296 215.67L425.982 215.625L429.607 215.547L433.175 215.431L436.688 215.276L440.148 215.079L443.56 214.837L446.925 214.548L450.248 214.211L453.531 213.823L456.779 213.384L459.995 212.893L463.183 212.349L466.347 211.752L469.49 211.102L472.616 210.4L475.729 209.648L478.832 208.845L481.931 207.993L485.027 207.095L488.125 206.153L491.229 205.169L494.341 204.146L497.465 203.086L500.603 201.994L503.76 200.873L506.936 199.725L510.136 198.556L513.361 197.369L516.614 196.169L519.896 194.958L523.208 193.743L526.554 192.526L529.933 191.312L533.347 190.106L536.797 188.911L540.283 187.731L543.806 186.572L547.366 185.436L550.963 184.329L554.597 183.255L558.268 182.218L561.975 181.223L565.716 180.275L569.492 179.376L573.3 178.533L577.14 177.749L581.009 177.028L584.906 176.375L588.828 175.793L592.774 175.286L596.74 174.858L600.726 174.513L604.727 174.252L608.74 174.08L612.764 174L616.795 174.014L620.829 174.123L624.864 174.332L628.896 174.64L632.922 175.051L636.939 175.565L640.943 176.184L644.93 176.907L648.899 177.737L652.845 178.672L656.765 179.714L660.656 180.861L664.514 182.113L668.338 183.47L672.124 184.93L675.87 186.492L679.574 188.154L683.233 189.912L686.846 191.765L690.412 193.71L693.929 195.742L697.398 197.86L700.817 200.058L704.187 202.333L707.508 204.682L710.78 207.1L714.005 209.582L717.183 212.126L720.316 214.726L723.406 217.379L726.454 220.081L729.464 222.828L732.436 225.616L735.375 228.441L738.282 231.301L741.161 234.192L744.015 237.11L746.846 240.054L749.658 243.021L752.454 246.009L755.237 249.015L758.011 252.039L760.778 255.078L763.542 258.131L766.305 261.199L769.07 264.28L771.841 267.374L774.619 270.482L777.407 273.604L780.206 276.739L783.018 279.891L785.846 283.059L788.689 286.245L791.548 289.45L794.425 292.677L797.319 295.928L800.23 299.204L803.157 302.508L806.099 305.843L809.057 309.21L812.027 312.611L815.009 316.05L818.001 319.529L821 323.049L824.004 326.614L827.01 330.226L830.016 333.886L833.018 337.597L836.013 341.36L838.998 345.179L841.968 349.053L844.92 352.986L847.85 356.978L850.753 361.03L853.626 365.144L856.463 369.32L859.261 373.559L862.015 377.862L864.72 382.229L867.372 386.659L869.966 391.153L872.498 395.71L874.964 400.33L877.358 405.012L879.676 409.755L881.914 414.557L884.069 419.418L886.135 424.335L888.109 429.307L889.987 434.332Z" fill="#CA6C46"/>
<path opacity="0.1" d="M1177.91 449.407C1192.55 541.224 1276.43 575.442 1328.26 560.662C1380.15 546 1437.21 535.389 1487.97 588.721C1538.73 642.054 1655.3 664.071 1705.51 561.797C1755.72 459.523 1692.96 342.665 1628.75 315.08C1564.54 287.495 1529.56 204.808 1424.62 204.686C1388.33 204.649 1321.69 208.693 1246.34 271.728C1188.58 319.97 1170.07 400.18 1177.91 449.407Z" fill="#CA6C46"/>
</svg>
