<svg width="1920" height="1128" viewBox="0 0 1920 1128" fill="none" xmlns="http://www.w3.org/2000/svg">
<g clip-path="url(#clip0_1_6145)">
<rect width="1920" height="1128" fill="#F7FAF7"/>
<path opacity="0.1" fill-rule="evenodd" clip-rule="evenodd" d="M1639.65 92.3118L1641.6 97.8748L1643.43 103.491L1645.15 109.157L1646.74 114.871L1648.21 120.63L1649.54 126.429L1650.74 132.266L1651.8 138.136L1652.71 144.036L1653.48 149.962L1654.09 155.908L1654.55 161.871L1654.86 167.846L1655 173.829L1654.98 179.814L1654.79 185.796L1654.44 191.77L1653.92 197.731L1653.23 203.674L1652.36 209.594L1651.33 215.486L1650.12 221.344L1648.74 227.163L1647.2 232.939L1645.48 238.665L1643.59 244.338L1641.54 249.953L1639.33 255.505L1636.95 260.99L1634.41 266.403L1631.72 271.74L1628.88 276.999L1625.89 282.174L1622.75 287.264L1619.47 292.265L1616.06 297.173L1612.52 301.988L1608.85 306.706L1605.06 311.326L1601.16 315.846L1597.15 320.265L1593.03 324.583L1588.82 328.798L1584.51 332.911L1580.12 336.922L1575.64 340.831L1571.1 344.639L1566.48 348.347L1561.8 351.957L1557.07 355.471L1552.28 358.89L1547.45 362.217L1542.58 365.455L1537.68 368.606L1532.75 371.674L1527.79 374.661L1522.81 377.573L1517.82 380.411L1512.82 383.181L1507.81 385.886L1502.79 388.53L1497.78 391.118L1492.77 393.653L1487.77 396.141L1482.78 398.585L1477.8 400.99L1472.83 403.359L1467.87 405.698L1462.93 408.01L1458.01 410.3L1453.1 412.571L1448.21 414.826L1443.34 417.07L1438.48 419.306L1433.64 421.536L1428.82 423.765L1424.01 425.994L1419.21 428.226L1414.42 430.466L1409.65 432.714L1404.88 434.973L1400.12 437.247L1395.37 439.536L1390.61 441.843L1385.86 444.168L1381.1 446.514L1376.34 448.882L1371.57 451.271L1366.8 453.683L1362 456.118L1357.2 458.575L1352.37 461.053L1347.52 463.552L1342.64 466.071L1337.74 468.607L1332.8 471.159L1327.83 473.725L1322.82 476.301L1317.77 478.885L1312.68 481.473L1307.54 484.062L1302.35 486.647L1297.12 489.226L1291.83 491.792L1286.48 494.342L1281.08 496.87L1275.62 499.372L1270.1 501.843L1264.53 504.276L1258.89 506.667L1253.19 509.011L1247.43 511.302L1241.61 513.534L1235.72 515.703L1229.78 517.802L1223.78 519.827L1217.71 521.774L1211.59 523.635L1205.42 525.408L1199.18 527.085L1192.9 528.662L1186.57 530.135L1180.19 531.497L1173.76 532.743L1167.29 533.87L1160.78 534.871L1154.24 535.742L1147.67 536.479L1141.06 537.077L1134.44 537.532L1127.79 537.84L1121.13 537.997L1114.46 538L1107.78 537.845L1101.1 537.529L1094.43 537.05L1087.76 536.405L1081.11 535.592L1074.48 534.609L1067.87 533.455L1061.29 532.129L1054.75 530.63L1048.25 528.956L1041.8 527.11L1035.39 525.089L1029.05 522.896L1022.76 520.53L1016.54 517.994L1010.39 515.288L1004.32 512.415L998.333 509.377L992.427 506.177L986.61 502.818L980.885 499.305L975.254 495.64L969.722 491.83L964.29 487.878L958.96 483.79L953.734 479.572L948.612 475.228L943.597 470.766L938.687 466.19L933.884 461.506L929.187 456.722L924.595 451.842L920.107 446.872L915.722 441.82L911.438 436.69L907.254 431.488L903.167 426.22L899.176 420.891L895.276 415.507L891.467 410.071L887.744 404.59L884.105 399.068L880.547 393.508L877.067 387.915L873.661 382.292L870.326 376.642L867.06 370.969L863.859 365.275L860.721 359.562L857.642 353.833L854.62 348.088L851.652 342.33L848.737 336.56L845.871 330.777L843.054 324.983L840.285 319.178L837.561 313.362L834.882 307.535L832.248 301.696L829.659 295.845L827.114 289.98L824.614 284.102L822.16 278.209L819.753 272.301L817.393 266.376L815.082 260.434L812.821 254.473L810.613 248.493L808.46 242.493L806.364 236.472L804.327 230.43L802.352 224.365L800.442 218.277L798.6 212.166L796.83 206.032L795.134 199.874L793.516 193.693L791.979 187.488L790.527 181.26L789.164 175.01L787.893 168.738L786.718 162.445L785.642 156.133L784.669 149.803L783.803 143.455L783.047 137.093L782.404 130.717L781.878 124.33L781.471 117.934L781.188 111.532L781.03 105.125L781 98.7178L781.101 92.3118L781.336 85.9105L781.707 79.5171L782.217 73.1349L782.869 66.7673L783.666 60.4182L784.609 54.0911L785.702 47.7903L786.947 41.5197L788.346 35.2837L789.902 29.0867L791.615 22.9332L793.488 16.828L795.521 10.7757L797.717 4.78117L800.074 -1.15062L802.595 -7.01477L805.279 -12.8063L808.126 -18.5201L811.135 -24.1514L814.306 -29.695L817.636 -35.1462L821.125 -40.5001L824.77 -45.752L828.569 -50.8972L832.519 -55.9314L836.617 -60.8501L840.859 -65.6492L845.242 -70.3249L849.762 -74.8733L854.413 -79.291L859.192 -83.5748L864.093 -87.7218L869.11 -91.7292L874.239 -95.5946L879.472 -99.3161L884.805 -102.892L890.23 -106.32L895.742 -109.601L901.334 -112.732L906.998 -115.715L912.728 -118.548L918.518 -121.232L924.359 -123.768L930.245 -126.157L936.169 -128.4L942.123 -130.5L948.101 -132.458L954.095 -134.278L960.099 -135.961L966.105 -137.512L972.106 -138.934L978.097 -140.231L984.071 -141.407L990.021 -142.467L995.942 -143.415L1001.83 -144.256L1007.67 -144.996L1013.47 -145.64L1019.22 -146.193L1024.92 -146.662L1030.55 -147.052L1036.12 -147.369L1041.63 -147.618L1047.06 -147.808L1052.42 -147.942L1057.71 -148.028L1062.92 -148.071L1068.05 -148.078L1073.09 -148.054L1078.06 -148.005L1082.95 -147.938L1087.75 -147.856L1092.48 -147.766L1097.12 -147.673L1101.68 -147.581L1106.16 -147.496L1110.56 -147.423L1114.89 -147.365L1119.14 -147.328L1123.31 -147.315L1127.42 -147.331L1131.46 -147.381L1135.43 -147.467L1139.33 -147.593L1143.18 -147.763L1146.97 -147.979L1150.71 -148.244L1154.39 -148.561L1158.03 -148.931L1161.63 -149.356L1165.19 -149.837L1168.71 -150.376L1172.2 -150.972L1175.67 -151.626L1179.11 -152.338L1182.53 -153.107L1185.94 -153.932L1189.34 -154.812L1192.73 -155.745L1196.12 -156.729L1199.52 -157.762L1202.92 -158.84L1206.33 -159.962L1209.75 -161.123L1213.18 -162.32L1216.64 -163.549L1220.12 -164.806L1223.63 -166.087L1227.16 -167.388L1230.72 -168.704L1234.31 -170.031L1237.94 -171.363L1241.61 -172.697L1245.31 -174.027L1249.05 -175.349L1252.83 -176.659L1256.64 -177.951L1260.5 -179.222L1264.4 -180.467L1268.34 -181.68L1272.32 -182.857L1276.34 -183.993L1280.4 -185.084L1284.5 -186.123L1288.63 -187.108L1292.8 -188.032L1297.01 -188.891L1301.25 -189.681L1305.52 -190.397L1309.81 -191.035L1314.13 -191.59L1318.48 -192.059L1322.84 -192.438L1327.22 -192.723L1331.62 -192.912L1336.03 -193L1340.44 -192.985L1344.86 -192.865L1349.28 -192.636L1353.7 -192.298L1358.1 -191.848L1362.5 -191.285L1366.89 -190.607L1371.26 -189.814L1375.6 -188.905L1379.93 -187.88L1384.22 -186.738L1388.48 -185.481L1392.71 -184.108L1396.89 -182.621L1401.04 -181.021L1405.14 -179.309L1409.2 -177.488L1413.21 -175.561L1417.16 -173.53L1421.07 -171.399L1424.92 -169.171L1428.72 -166.851L1432.47 -164.442L1436.16 -161.948L1439.79 -159.374L1443.38 -156.724L1446.91 -154.004L1450.39 -151.216L1453.82 -148.366L1457.21 -145.459L1460.55 -142.497L1463.84 -139.487L1467.1 -136.432L1470.32 -133.335L1473.5 -130.201L1476.65 -127.033L1479.78 -123.834L1482.88 -120.608L1485.96 -117.356L1489.02 -114.082L1492.07 -110.787L1495.11 -107.473L1498.14 -104.143L1501.16 -100.796L1504.19 -97.434L1507.22 -94.0573L1510.25 -90.6661L1513.3 -87.2603L1516.35 -83.8393L1519.42 -80.4025L1522.5 -76.9488L1525.59 -73.4769L1528.71 -69.9853L1531.84 -66.4721L1534.99 -62.9353L1538.16 -59.3728L1541.35 -55.7821L1544.55 -52.1609L1547.78 -48.5066L1551.01 -44.8168L1554.27 -41.0887L1557.53 -37.3198L1560.81 -33.5074L1564.09 -29.6491L1567.38 -25.7422L1570.68 -21.7843L1573.97 -17.7729L1577.26 -13.706L1580.54 -9.58115L1583.81 -5.39647L1587.06 -1.15007L1590.29 3.15979L1593.5 7.53462L1596.68 11.9758L1599.83 16.4843L1602.94 21.0613L1606 25.7074L1609.02 30.4231L1611.98 35.2087L1614.88 40.0642L1617.73 44.9895L1620.5 49.984L1623.2 55.0473L1625.82 60.1783L1628.36 65.3761L1630.81 70.6392L1633.17 75.9662L1635.43 81.3553L1637.6 86.8045L1639.65 92.3118Z" fill="#CA6C46"/>
</g>
<defs>
<clipPath id="clip0_1_6145">
<rect width="1920" height="1128" fill="white"/>
</clipPath>
</defs>
</svg>
