<svg width="125" height="24" fill="none" xmlns="http://www.w3.org/2000/svg"><g clip-path="url(#clip0_193_2890)" fill="#fff"><path d="M0 13.968h4.384c.158 1.505 1.159 2.988 3.864 2.988 2.455 0 3.477-1.098 3.477-2.196s-.606-1.868-2.8-2.221l-2.428-.383C2.351 11.493.686 9.728.686 6.716c0-3.01 2.8-5.436 7.316-5.436 5.045 0 7.535 2.68 7.87 5.77h-4.384c-.263-1.456-1.24-2.681-3.513-2.681-2.138 0-2.983 1.072-2.983 2.017 0 1.149.66 1.681 2.852 2.042l2.218.332c4.057.64 6.312 2.45 6.312 5.617 0 3.422-2.985 5.669-8.082 5.669-5.2-.002-8.054-2.53-8.292-6.078zm19.094-7.1h4.119v1.71c.554-.746 2.034-2.04 4.463-2.04 3.83 0 6.366 2.654 6.366 6.739 0 3.984-2.562 6.767-6.418 6.767-2.166 0-3.565-.895-4.25-1.762v5.72h-4.28V6.868zm7.314 10.086c1.983 0 3.275-1.404 3.275-3.702 0-2.297-1.267-3.702-3.275-3.702-1.953 0-3.3 1.405-3.327 3.702-.027 2.298 1.374 3.702 3.327 3.702zM38.794.588c1.505 0 2.483 1.02 2.483 2.221 0 1.252-.978 2.298-2.483 2.298-1.505 0-2.403-1.046-2.403-2.298 0-1.2.896-2.22 2.403-2.22zm-2.111 6.28h4.25V19.66h-4.25V6.87zm6.918 6.409c0-4.06 3.091-6.792 7.421-6.792 4.515 0 6.998 2.53 7.262 5.417h-4.188c-.292-1.481-1.27-2.348-3.037-2.348-1.876 0-3.117 1.378-3.117 3.726s1.268 3.678 3.117 3.678c1.795 0 2.8-.995 3.062-2.45h4.146c-.21 2.704-2.562 5.54-7.235 5.54-4.446-.004-7.43-2.817-7.43-6.771zm21.285 5.566L59.104 6.868h4.594l3.222 7.374 3.018-7.374h4.27l-7.394 17.134h-4.25l2.322-5.159zM83.327 0h5.41v1.868h-3.244v20.27h3.247v1.868h-5.41L83.328 0zM97.06 1.66h5.571l7.369 18h-4.886l-1.453-4.008h-7.834l-1.488 4.008h-4.594l7.314-18zm5.492 10.75L99.7 5.159l-2.747 7.25h5.599zm9.697-10.75h4.443v18h-4.443v-18zM125 24.002h-5.41v-1.868h3.248V1.864h-3.248V-.004H125v24.006z"/></g><defs><clipPath id="clip0_193_2890"><path fill="#fff" d="M0 0h125v24H0z"/></clipPath></defs></svg>