<svg width="38" height="38" viewBox="0 0 38 38" fill="none" xmlns="http://www.w3.org/2000/svg">
<path d="M1.628 33.58H7.92C2.85867 30.668 0.328 25.78 0.328 18.916C0.328 15.484 1.14267 12.3813 2.772 9.608C4.436 6.8 6.68933 4.59866 9.532 3.004C12.4093 1.37467 15.5987 0.559999 19.1 0.559999C22.6013 0.559999 25.7733 1.35733 28.616 2.952C31.4587 4.54667 33.6947 6.748 35.324 9.556C36.9533 12.364 37.768 15.484 37.768 18.916C37.768 25.7453 35.2547 30.6333 30.228 33.58H36.468V38H22.064V34.152C24.1093 33.7013 25.9293 32.8347 27.524 31.552C29.1533 30.2347 30.4187 28.588 31.32 26.612C32.256 24.6013 32.724 22.348 32.724 19.852C32.724 16.9747 32.1173 14.4267 30.904 12.208C29.7253 9.98933 28.096 8.27333 26.016 7.06C23.936 5.84666 21.6307 5.24 19.1 5.24C16.5693 5.24 14.2467 5.84666 12.132 7.06C10.052 8.27333 8.40533 9.98933 7.192 12.208C5.97867 14.4267 5.372 16.9747 5.372 19.852C5.372 22.348 5.84 24.6013 6.776 26.612C7.712 28.588 8.99467 30.2347 10.624 31.552C12.2533 32.8347 14.0907 33.7013 16.136 34.152V38H1.628V33.58Z" fill="black"/>
</svg>
