<svg width="31" height="40" viewBox="0 0 31 40" fill="none" xmlns="http://www.w3.org/2000/svg">
<path d="M15.316 39.52C12.5427 39.52 10.0293 38.896 7.776 37.648C5.52267 36.3653 3.75467 34.632 2.472 32.448C1.18933 30.264 0.548 27.8893 0.548 25.324C0.548 22.5853 1.172 20.1413 2.42 17.992C3.668 15.8427 5.50533 14.1613 7.932 12.948C10.3933 11.7 13.3573 11.076 16.824 11.076H21.088L13.444 3.484L16.304 0.727997L28.888 13.26L16.512 25.584L13.704 22.724L21.088 15.444H16.824C12.976 15.444 10.0987 16.3627 8.192 18.2C6.28533 20.0027 5.332 22.3773 5.332 25.324C5.332 27.092 5.748 28.7213 6.58 30.212C7.412 31.7027 8.59067 32.8987 10.116 33.8C11.6413 34.6667 13.3747 35.1 15.316 35.1C17.292 35.1 19.0253 34.6667 20.516 33.8C22.0067 32.9333 23.168 31.772 24 30.316C24.832 28.8253 25.2827 27.1787 25.352 25.376H30.136C30.136 27.976 29.4947 30.368 28.212 32.552C26.964 34.7013 25.196 36.4 22.908 37.648C20.6547 38.896 18.124 39.52 15.316 39.52Z" fill="black"/>
</svg>
