<svg width="57" height="58" viewBox="0 0 57 58" fill="none" xmlns="http://www.w3.org/2000/svg">
<path d="M28.08 43.76C25.52 43.72 23.14 43.06 20.94 41.78C18.78 40.46 17.04 38.72 15.72 36.56C14.44 34.36 13.78 31.96 13.74 29.36H4.47035e-08V28.64H13.74C13.78 26.08 14.44 23.72 15.72 21.56C17.04 19.36 18.78 17.6 20.94 16.28C23.14 14.96 25.52 14.28 28.08 14.24V0.499997H28.8V14.24C31.44 14.32 33.84 15.02 36 16.34C38.16 17.66 39.88 19.4 41.16 21.56C42.44 23.72 43.1 26.08 43.14 28.64H56.88V29.36H43.14C43.1 31.96 42.42 34.36 41.1 36.56C39.82 38.72 38.1 40.46 35.94 41.78C33.78 43.06 31.4 43.72 28.8 43.76V57.5H28.08V43.76ZM14.52 29C14.56 31.64 15.18 34.02 16.38 36.14C17.62 38.22 19.28 39.88 21.36 41.12C23.44 42.32 25.8 42.94 28.44 42.98V29H42.36C42.32 26.4 41.7 24.04 40.5 21.92C39.3 19.8 37.64 18.14 35.52 16.94C33.44 15.7 31.08 15.06 28.44 15.02V29H14.52Z" fill="black"/>
</svg>
