<svg width="37" height="37" viewBox="0 0 37 37" fill="none" xmlns="http://www.w3.org/2000/svg">
<path d="M0.252 0.339998H36.652V37H0.252V0.339998ZM32.232 32.84V4.5H4.672V32.84H32.232ZM14.864 18.8C14.864 17.7253 15.1933 16.8587 15.852 16.2C16.5453 15.5067 17.4293 15.16 18.504 15.16C19.5787 15.16 20.4453 15.5067 21.104 16.2C21.7627 16.8587 22.092 17.7253 22.092 18.8C22.092 19.84 21.7453 20.7067 21.052 21.4C20.3933 22.0933 19.544 22.44 18.504 22.44C17.4293 22.44 16.5453 22.0933 15.852 21.4C15.1933 20.7067 14.864 19.84 14.864 18.8Z" fill="black"/>
</svg>
