<svg width="71" height="70" viewBox="0 0 71 70" fill="none" xmlns="http://www.w3.org/2000/svg">
<g clip-path="url(#clip0_2204_653)">
<path d="M50.353 67.5888V57.736C56.0183 57.7681 58.9017 57.3586 60.8909 55.3665C63.4345 52.8229 63.1936 42.0846 63.1936 42.0846C63.1936 42.0846 65.6124 42.1747 67.4391 42.1021C67.7585 42.089 68.0712 42.0038 68.3532 41.853C68.6352 41.7022 68.8797 41.4896 69.0681 41.2309C69.3274 40.675 69.428 40.0578 69.3583 39.4479C69.6893 34.895 63.2779 27.0837 63.2779 24.8158C63.2779 10.5582 49.816 2.41016 37.5938 2.41016" stroke="#19453F" stroke-width="3" stroke-linecap="round" stroke-linejoin="round"/>
<path d="M22.0156 57.6699V67.5895" stroke="#19453F" stroke-width="3" stroke-linecap="round" stroke-linejoin="round"/>
<path d="M24.0366 50.584C29.5149 50.584 33.956 39.8 33.956 26.4971C33.956 13.1942 29.5149 2.41016 24.0366 2.41016C18.5582 2.41016 14.1172 13.1942 14.1172 26.4971C14.1172 39.8 18.5582 50.584 24.0366 50.584Z" stroke="#19453F" stroke-width="3" stroke-linecap="round" stroke-linejoin="round"/>
<path d="M28.9958 35.087C40.5164 28.4355 47.6351 19.1974 44.8961 14.4531C42.1568 9.70874 30.5971 11.2547 19.0765 17.9061C7.55585 24.5576 0.437069 33.7958 3.17622 38.5401C5.91537 43.2843 17.4752 41.7385 28.9958 35.087Z" stroke="#19453F" stroke-width="3" stroke-linecap="round" stroke-linejoin="round"/>
<path d="M44.8951 38.5419C47.6342 33.7976 40.5154 24.5595 28.9948 17.9081C17.4742 11.2567 5.91441 9.71068 3.17525 14.455C0.436093 19.1994 7.55486 28.4375 19.0755 35.0888C30.5962 41.7403 42.1558 43.2864 44.8951 38.5419Z" stroke="#19453F" stroke-width="3" stroke-linecap="round" stroke-linejoin="round"/>
<path d="M24.0346 27.2253C23.6336 27.2253 23.3086 26.9003 23.3086 26.4994C23.3086 26.0985 23.6336 25.7734 24.0346 25.7734" stroke="#19453F" stroke-width="3"/>
<path d="M24.0342 27.2253C24.4351 27.2253 24.7601 26.9003 24.7601 26.4994C24.7601 26.0985 24.4351 25.7734 24.0342 25.7734" stroke="#19453F" stroke-width="3"/>
</g>
<defs>
<clipPath id="clip0_2204_653">
<rect width="70" height="70" fill="white" transform="translate(0.984375)"/>
</clipPath>
</defs>
</svg>
