<svg width="17" height="20" viewBox="0 0 17 20" fill="none" xmlns="http://www.w3.org/2000/svg">
<path d="M13.7646 1.71217L8.75267 0.040992C8.58858 -0.013664 8.41118 -0.013664 8.24708 0.040992L3.23516 1.71217C2.4383 1.97687 1.74511 2.48596 1.2541 3.16711C0.763095 3.84826 0.499231 4.66683 0.500002 5.50651V9.60005C0.500002 15.6504 7.85989 18.9919 8.17508 19.1311C8.27734 19.1765 8.38799 19.2 8.49988 19.2C8.61177 19.2 8.72242 19.1765 8.82467 19.1311C9.13987 18.9919 16.4998 15.6504 16.4998 9.60005V5.50651C16.5005 4.66683 16.2367 3.84826 15.7457 3.16711C15.2546 2.48596 14.5615 1.97687 13.7646 1.71217Z" fill="#CA6C46" style="fill:#CA6C46;fill:color(display-p3 0.7922 0.4235 0.2745);fill-opacity:1;"/>
<path d="M11.3956 6.87062L7.55296 10.7243L5.49401 8.57724C5.41138 8.48689 5.31151 8.414 5.20027 8.36285C5.08903 8.3117 4.96869 8.28333 4.84632 8.27942C4.72395 8.2755 4.60203 8.29611 4.48775 8.34004C4.37347 8.38396 4.26914 8.45032 4.1809 8.53519C4.09266 8.62006 4.0223 8.72174 3.97396 8.83422C3.92562 8.94671 3.90028 9.06773 3.89944 9.19016C3.89859 9.31259 3.92226 9.43395 3.96904 9.54709C4.01583 9.66023 4.08478 9.76286 4.17184 9.84894L6.28768 12.051C6.44547 12.2215 6.63619 12.3581 6.84831 12.4528C7.06043 12.5474 7.28953 12.598 7.52177 12.6016H7.55204C7.77964 12.6023 8.00513 12.5578 8.2154 12.4707C8.42568 12.3836 8.61655 12.2556 8.77696 12.0942L12.6967 8.17444C12.7823 8.08901 12.8502 7.98756 12.8966 7.87587C12.943 7.76418 12.967 7.64445 12.9671 7.5235C12.9672 7.40256 12.9435 7.28278 12.8974 7.17099C12.8512 7.0592 12.7835 6.95761 12.698 6.872C12.6126 6.78639 12.5112 6.71844 12.3995 6.67204C12.2878 6.62564 12.1681 6.60169 12.0471 6.60156C11.9262 6.60144 11.8064 6.62513 11.6946 6.6713C11.5828 6.71746 11.4812 6.78519 11.3956 6.87062Z" fill="white" style="fill:white;fill-opacity:1;"/>
</svg>
