<svg width="14" height="15" viewBox="0 0 14 15" fill="none" xmlns="http://www.w3.org/2000/svg">
<path d="M7 3.625C7.31106 3.625 7.5625 3.87644 7.5625 4.1875V7.49275C7.5625 7.68906 7.46069 7.87019 7.29306 7.97312L4.81356 9.48962C4.72244 9.54587 4.62063 9.57175 4.5205 9.57175C4.33094 9.57175 4.14644 9.47612 4.04012 9.30231C3.87812 9.03738 3.96137 8.69144 4.22688 8.52888L6.4375 7.17719V4.1875C6.4375 3.87644 6.68894 3.625 7 3.625ZM12.625 8.125H10.375C10.0639 8.125 9.8125 8.37644 9.8125 8.6875C9.8125 8.99856 10.0639 9.25 10.375 9.25H11.8195L9.38444 11.6845C9.27588 11.7931 9.08406 11.7936 8.97437 11.6845L8.35338 11.0635C7.81844 10.5274 6.88637 10.5274 6.34975 11.0635L4.06994 13.3529C3.85056 13.5734 3.85169 13.9294 4.07162 14.1488C4.18131 14.2579 4.32531 14.3125 4.46875 14.3125C4.61331 14.3125 4.75787 14.2568 4.86756 14.1471L7.14681 11.8577C7.25537 11.7492 7.44719 11.7486 7.55687 11.8577L8.17788 12.4788C8.71281 13.0148 9.646 13.0142 10.1804 12.4788L12.625 10.0347V11.4994C12.625 11.8105 12.8764 12.0619 13.1875 12.0619C13.4986 12.0619 13.75 11.8105 13.75 11.4994V9.24944C13.75 8.629 13.2454 8.12444 12.625 8.12444V8.125ZM1.375 7.5625C1.375 4.46088 3.89838 1.9375 7 1.9375C9.71575 1.9375 12.0422 3.8725 12.5322 6.53931C12.589 6.84475 12.8787 7.05063 13.1869 6.991C13.4924 6.93475 13.6943 6.64169 13.6386 6.33625C13.0508 3.13562 10.2586 0.8125 7 0.8125C3.27794 0.8125 0.25 3.84044 0.25 7.5625C0.25 9.42775 1.033 11.2277 2.39762 12.5001C2.50563 12.6014 2.644 12.6514 2.78125 12.6514C2.932 12.6514 3.08162 12.5918 3.19244 12.4726C3.4045 12.2459 3.39156 11.8898 3.16431 11.6777C2.0275 10.6169 1.37444 9.11725 1.37444 7.56306L1.375 7.5625Z" fill="black"/>
</svg>
