<svg width="25" height="31" viewBox="0 0 25 31" fill="none" xmlns="http://www.w3.org/2000/svg">
<path d="M5.75 15.5H12V18H5.75V15.5ZM18.25 10.5H5.75V13H18.25V10.5ZM18.25 5.5H5.75V8H18.25V5.5ZM22 24.805V30.5L19.5 28L17 30.5V24.805C16.0467 24.2573 15.3012 23.4097 14.8798 22.3942C14.4583 21.3787 14.3845 20.2524 14.6697 19.1906C14.955 18.1288 15.5834 17.1911 16.4571 16.5236C17.3307 15.8561 18.4005 15.4962 19.5 15.5C19.9226 15.5053 20.3427 15.5649 20.75 15.6775V4.25C20.75 3.91848 20.6183 3.60054 20.3839 3.36612C20.1495 3.1317 19.8315 3 19.5 3H4.5C4.16848 3 3.85054 3.1317 3.61612 3.36612C3.3817 3.60054 3.25 3.91848 3.25 4.25V25.5H14.5V28H0.75V4.25C0.75 3.25544 1.14509 2.30161 1.84835 1.59835C2.55161 0.895088 3.50544 0.5 4.5 0.5L19.5 0.5C20.4946 0.5 21.4484 0.895088 22.1517 1.59835C22.8549 2.30161 23.25 3.25544 23.25 4.25V17.2275C23.7396 17.7774 24.1001 18.4298 24.305 19.137C24.5099 19.8442 24.5541 20.5882 24.4342 21.3147C24.3144 22.0412 24.0336 22.7316 23.6124 23.3355C23.1912 23.9395 22.6403 24.4415 22 24.805ZM22 20.5C22 20.0055 21.8534 19.5222 21.5787 19.1111C21.304 18.7 20.9135 18.3795 20.4567 18.1903C19.9999 18.0011 19.4972 17.9516 19.0123 18.048C18.5273 18.1445 18.0819 18.3826 17.7322 18.7322C17.3826 19.0819 17.1445 19.5273 17.048 20.0123C16.9516 20.4972 17.0011 20.9999 17.1903 21.4567C17.3795 21.9135 17.7 22.304 18.1111 22.5787C18.5222 22.8534 19.0055 23 19.5 23C20.163 23 20.7989 22.7366 21.2678 22.2678C21.7366 21.7989 22 21.163 22 20.5Z" fill="#19453F" style="fill:#19453F;fill:color(display-p3 0.0980 0.2706 0.2471);fill-opacity:1;"/>
</svg>
