<svg width="24" height="24" viewBox="0 0 24 24" fill="none" xmlns="http://www.w3.org/2000/svg">
<g clip-path="url(#clip0_1_7371)">
<path d="M18.316 5.68429L12.6318 5.05273L5.68441 5.68429L5.05273 12.0001L5.68429 18.316L12.0001 19.1055L18.316 18.316L18.9475 11.8423L18.316 5.68429Z" fill="white" style="fill:white;fill-opacity:1;"/>
<path d="M8.27525 15.4828C7.80317 15.1638 7.47629 14.6981 7.29785 14.0823L8.39369 13.6307C8.49317 14.0097 8.66681 14.3033 8.91473 14.5118C9.16109 14.7202 9.46109 14.8228 9.81161 14.8228C10.1701 14.8228 10.478 14.7138 10.7353 14.4959C10.9925 14.278 11.1221 14.0001 11.1221 13.6638C11.1221 13.3197 10.9863 13.0385 10.7147 12.8207C10.4432 12.6029 10.1021 12.4938 9.69473 12.4938H9.06161V11.4092H9.62993C9.98045 11.4092 10.2758 11.3145 10.5158 11.125C10.7558 10.9355 10.8758 10.6766 10.8758 10.3466C10.8758 10.0529 10.7684 9.81916 10.5537 9.64396C10.339 9.46876 10.0673 9.38032 9.73733 9.38032C9.41525 9.38032 9.15941 9.46564 8.96993 9.63772C8.78045 9.8098 8.64305 10.0214 8.55629 10.2708L7.47161 9.81928C7.61525 9.41188 7.87901 9.05188 8.26577 8.74084C8.65265 8.4298 9.14681 8.27344 9.74681 8.27344C10.1905 8.27344 10.5899 8.35876 10.9437 8.53084C11.2973 8.70292 11.5753 8.94136 11.7758 9.24448C11.9763 9.54916 12.0758 9.89032 12.0758 10.2692C12.0758 10.656 11.9827 10.9828 11.7963 11.2512C11.6099 11.5197 11.381 11.7249 11.1094 11.8686V11.9333C11.4679 12.0833 11.7599 12.3123 11.9905 12.6202C12.2194 12.9281 12.3346 13.296 12.3346 13.7255C12.3346 14.155 12.2257 14.5386 12.0077 14.875C11.7898 15.2114 11.4883 15.4766 11.1062 15.6692C10.7225 15.8618 10.2915 15.9597 9.81305 15.9597C9.25889 15.9612 8.74733 15.8018 8.27525 15.4828Z" fill="#1A73E8" style="fill:#1A73E8;fill:color(display-p3 0.1020 0.4510 0.9098);fill-opacity:1;"/>
<path d="M15.0001 10.0458L13.8032 10.9158L13.2017 10.0032L15.3601 8.44629H16.1875V15.7899H15.0001V10.0458Z" fill="#1A73E8" style="fill:#1A73E8;fill:color(display-p3 0.1020 0.4510 0.9098);fill-opacity:1;"/>
<path d="M18.3159 24L24 18.3159L21.1579 17.0527L18.3159 18.3159L17.0527 21.1579L18.3159 24Z" fill="#EA4335" style="fill:#EA4335;fill:color(display-p3 0.9176 0.2627 0.2078);fill-opacity:1;"/>
<path d="M4.4209 21.1575L5.68402 23.9996H18.3156V18.3154H5.68402L4.4209 21.1575Z" fill="#34A853" style="fill:#34A853;fill:color(display-p3 0.2039 0.6588 0.3255);fill-opacity:1;"/>
<path d="M1.89468 0C0.84792 0 0 0.84792 0 1.89468V18.3157L2.84208 19.5788L5.68416 18.3157V5.68416H18.3157L19.5788 2.84208L18.3158 0H1.89468Z" fill="#4285F4" style="fill:#4285F4;fill:color(display-p3 0.2588 0.5216 0.9569);fill-opacity:1;"/>
<path d="M0 18.3154V22.1049C0 23.1518 0.84792 23.9996 1.89468 23.9996H5.68416V18.3154H0Z" fill="#188038" style="fill:#188038;fill:color(display-p3 0.0941 0.5020 0.2196);fill-opacity:1;"/>
<path d="M18.3159 5.68402V18.3156H24.0001V5.68402L21.158 4.4209L18.3159 5.68402Z" fill="#FBBC04" style="fill:#FBBC04;fill:color(display-p3 0.9843 0.7373 0.0157);fill-opacity:1;"/>
<path d="M24.0001 5.68416V1.89468C24.0001 0.8478 23.1522 0 22.1054 0H18.3159V5.68416H24.0001Z" fill="#1967D2" style="fill:#1967D2;fill:color(display-p3 0.0980 0.4039 0.8235);fill-opacity:1;"/>
</g>
<defs>
<clipPath id="clip0_1_7371">
<rect width="24" height="24" fill="white" style="fill:white;fill-opacity:1;"/>
</clipPath>
</defs>
</svg>
