<svg width="71" height="70" viewBox="0 0 71 70" fill="none" xmlns="http://www.w3.org/2000/svg">
<g clip-path="url(#clip0_2191_56)">
<path d="M28.0313 55.6354L22.4167 61.25V49.5833H4.91667C4.14311 49.5833 3.40125 49.2759 2.85427 48.729C2.30729 48.1822 2 47.4402 2 46.6667V2.91667C2 2.14311 2.30729 1.40125 2.85427 0.854271C3.40125 0.307291 4.14311 0 4.91667 0H57.4167C58.1902 0 58.9322 0.307291 59.479 0.854271C60.0259 1.40125 60.3333 2.14311 60.3333 2.91667V23.3333" stroke="#19453F" stroke-width="3" stroke-linecap="round" stroke-linejoin="round"/>
<path d="M34.5254 53.9583C34.5254 54.7318 34.8328 55.4738 35.3797 56.0207C35.9266 56.5676 36.6686 56.875 37.4421 56.875H49.1087L60.7754 68.5417V56.875H66.6087C67.3822 56.875 68.1242 56.5676 68.6711 56.0207C69.218 55.4738 69.5254 54.7318 69.5254 53.9583V33.5417C69.5254 32.7682 69.218 32.0262 68.6711 31.4793C68.1242 30.9324 67.3822 30.625 66.6087 30.625H37.4421C36.6686 30.625 35.9266 30.9324 35.3797 31.4793C34.8328 32.0262 34.5254 32.7682 34.5254 33.5417V53.9583Z" stroke="#19453F" stroke-width="3" stroke-linecap="round" stroke-linejoin="round"/>
<path d="M22.8594 13.125V18.9583" stroke="#19453F" stroke-width="3" stroke-linecap="round" stroke-linejoin="round"/>
<path d="M40.3594 13.125V18.9583" stroke="#19453F" stroke-width="3" stroke-linecap="round" stroke-linejoin="round"/>
<path d="M28.6144 39.3757C25.0595 38.7621 21.7824 37.0614 19.2344 34.5078" stroke="#19453F" stroke-width="3" stroke-linecap="round" stroke-linejoin="round"/>
<path d="M43.276 44.4788C42.8732 44.4788 42.5469 44.1525 42.5469 43.7497C42.5469 43.3469 42.8732 43.0205 43.276 43.0205" stroke="#19453F" stroke-width="3"/>
<path d="M43.2754 44.4788C43.6782 44.4788 44.0046 44.1525 44.0046 43.7497C44.0046 43.3469 43.6782 43.0205 43.2754 43.0205" stroke="#19453F" stroke-width="3"/>
<path d="M52.026 44.4788C51.6232 44.4788 51.2969 44.1525 51.2969 43.7497C51.2969 43.3469 51.6232 43.0205 52.026 43.0205" stroke="#19453F" stroke-width="3"/>
<path d="M52.0254 44.4788C52.4282 44.4788 52.7546 44.1525 52.7546 43.7497C52.7546 43.3469 52.4282 43.0205 52.0254 43.0205" stroke="#19453F" stroke-width="3"/>
<path d="M60.776 44.4788C60.3732 44.4788 60.0469 44.1525 60.0469 43.7497C60.0469 43.3469 60.3732 43.0205 60.776 43.0205" stroke="#19453F" stroke-width="3"/>
<path d="M60.7754 44.4788C61.1782 44.4788 61.5046 44.1525 61.5046 43.7497C61.5046 43.3469 61.1782 43.0205 60.7754 43.0205" stroke="#19453F" stroke-width="3"/>
</g>
<defs>
<clipPath id="clip0_2191_56">
<rect width="70" height="70" fill="white" transform="translate(0.984375)"/>
</clipPath>
</defs>
</svg>
