<svg width="71" height="70" viewBox="0 0 71 70" fill="none" xmlns="http://www.w3.org/2000/svg">
<g clip-path="url(#clip0_2191_33)">
<path d="M43.8587 18.9376L27.7149 12.0222C27.4518 11.9101 27.2275 11.7232 27.0699 11.4846C26.9122 11.2461 26.8281 10.9665 26.8281 10.6805C26.8281 10.3946 26.9122 10.1149 27.0699 9.87639C27.2275 9.63784 27.4518 9.45091 27.7149 9.33884L43.8587 2.42343C44.2218 2.26777 44.6127 2.1875 45.0078 2.1875C45.4029 2.1875 45.7939 2.26777 46.157 2.42343L65.4245 10.6805L46.1541 18.9376C45.7914 19.0928 45.4009 19.1729 45.0064 19.1729C44.6118 19.1729 44.2214 19.0928 43.8587 18.9376Z" stroke="#19453F" stroke-width="3" stroke-linecap="round" stroke-linejoin="round"/>
<path d="M56.6722 14.4326V24.3493C56.6722 24.6199 56.5969 24.8852 56.4547 25.1154C56.3126 25.3457 56.1091 25.5318 55.8672 25.653L46.3093 30.4451C45.9044 30.6474 45.4581 30.7527 45.0055 30.7527C44.553 30.7527 44.1066 30.6474 43.7018 30.4451L34.1468 25.6676C33.9043 25.5468 33.7003 25.3608 33.5576 25.1305C33.4149 24.9003 33.3391 24.6348 33.3389 24.3639V14.4472" stroke="#19453F" stroke-width="3" stroke-linecap="round" stroke-linejoin="round"/>
<path d="M65.4229 10.6816V20.89" stroke="#19453F" stroke-width="3" stroke-linecap="round" stroke-linejoin="round"/>
<path d="M65.4217 20.8906L69.4263 31.5715C69.4685 31.6818 69.4832 31.8007 69.469 31.918C69.4549 32.0353 69.4124 32.1473 69.3451 32.2444C69.2779 32.3416 69.188 32.4208 69.0832 32.4753C68.9784 32.5298 68.8619 32.558 68.7438 32.5573H62.0996C61.9815 32.558 61.865 32.5298 61.7602 32.4753C61.6554 32.4208 61.5655 32.3416 61.4983 32.2444C61.431 32.1473 61.3885 32.0353 61.3744 31.918C61.3602 31.8007 61.3749 31.6818 61.4171 31.5715L65.4217 20.8906Z" stroke="#19453F" stroke-width="3" stroke-linecap="round" stroke-linejoin="round"/>
<path d="M54.3213 39.6309C53.2145 45.6438 49.845 51.0038 44.9062 54.6079V67.8117" stroke="#19453F" stroke-width="3" stroke-linecap="round" stroke-linejoin="round"/>
<path d="M20.4035 67.8119V60.4619H17.9535C16.0051 60.4603 14.1371 59.6853 12.76 58.307C11.3829 56.9288 10.6093 55.0602 10.6093 53.1119V45.7589H3.72014C3.52674 45.7597 3.33591 45.7146 3.16335 45.6272C2.99079 45.5399 2.84142 45.4128 2.72753 45.2565C2.61364 45.1002 2.53847 44.9191 2.50821 44.7281C2.47795 44.537 2.49347 44.3416 2.55348 44.1577C6.65431 31.4585 9.73431 17.9223 21.1647 13.2002" stroke="#19453F" stroke-width="3" stroke-linecap="round" stroke-linejoin="round"/>
</g>
<defs>
<clipPath id="clip0_2191_33">
<rect width="70" height="70" fill="white" transform="translate(0.984375)"/>
</clipPath>
</defs>
</svg>
