<svg width="17" height="18" viewBox="0 0 17 18" fill="none" xmlns="http://www.w3.org/2000/svg">
<path d="M12.3759 12.5123C11.6788 12.2522 10.6618 11.4904 10.6618 11.0167V9.77306C11.0652 9.32388 11.3712 8.41407 11.5536 7.38234C11.9791 7.23097 12.2213 6.98797 12.524 5.92597C12.8464 4.79525 12.0388 4.8337 12.0388 4.8337C12.6925 2.67043 11.8326 0.638066 10.3926 0.786975C9.39853 -0.951662 6.07017 1.18379 5.02781 1.03488C5.02781 1.63216 5.27571 2.07807 5.27571 2.07807C4.91326 2.76697 5.05317 4.13988 5.15544 4.8337C5.09653 4.83207 4.3659 4.84025 4.67517 5.92597C4.97871 6.98797 5.22171 7.23097 5.64635 7.38234C5.82799 8.41325 6.1348 9.32388 6.53817 9.77225V11.0159C6.53817 11.4904 5.45817 12.289 4.82408 12.5132C3.51417 12.9738 0.295442 14.3001 0.50326 16.7841C0.552351 17.3813 3.83162 17.9999 8.59999 17.9999C13.3692 17.9999 16.6476 17.3805 16.6975 16.7849C16.9054 14.2976 13.6784 12.9992 12.3775 12.5123H12.3759Z" fill="white" style="fill:white;fill-opacity:1;"/>
</svg>
