<svg width="78" height="16" fill="none" xmlns="http://www.w3.org/2000/svg"><g clip-path="url(#clip0_193_2278)" fill="#000"><path d="M0 9.312h2.735c.1 1.004.724 1.992 2.412 1.992 1.532 0 2.17-.732 2.17-1.464S6.938 8.595 5.57 8.36l-1.516-.256C1.467 7.662.428 6.485.428 4.478.428 2.47 2.175.853 4.993.853c3.148 0 4.702 1.787 4.91 3.846H7.169c-.164-.97-.774-1.786-2.191-1.786-1.335 0-1.862.714-1.862 1.344 0 .766.411 1.121 1.78 1.361l1.384.222c2.531.426 3.938 1.634 3.938 3.745 0 2.28-1.862 3.779-5.043 3.779C1.93 13.363.148 11.678 0 9.312zm11.915-4.733h2.57v1.14c.346-.498 1.27-1.36 2.785-1.36 2.39 0 3.972 1.769 3.972 4.492 0 2.656-1.599 4.512-4.005 4.512-1.351 0-2.224-.597-2.652-1.175v3.813h-2.67V4.58zm4.564 6.724c1.237 0 2.043-.936 2.043-2.468s-.79-2.468-2.043-2.468c-1.219 0-2.06.936-2.076 2.468-.017 1.532.857 2.468 2.076 2.468zM24.208.392c.939 0 1.549.68 1.549 1.48 0 .835-.61 1.532-1.55 1.532-.938 0-1.499-.697-1.499-1.531 0-.8.56-1.48 1.5-1.48zM22.89 4.58h2.652v8.527H22.89V4.58zm4.317 4.271c0-2.706 1.93-4.528 4.63-4.528 2.818 0 4.367 1.686 4.533 3.612h-2.614c-.182-.988-.792-1.566-1.895-1.566-1.17 0-1.945.92-1.945 2.485s.791 2.451 1.945 2.451c1.12 0 1.747-.663 1.91-1.633h2.588c-.132 1.803-1.599 3.693-4.515 3.693-2.774-.002-4.637-1.878-4.637-4.514zm13.282 3.711L36.88 4.579h2.866l2.011 4.916 1.883-4.916h2.665L41.692 16H39.04l1.449-3.44zM51.996 0h3.376v1.245h-2.025V14.76h2.027v1.245h-3.376L51.996 0zm8.569 1.107h3.477l4.598 12h-3.05l-.907-2.673h-4.888l-.928 2.672H56l4.564-11.999zm3.427 7.166L62.213 3.44l-1.714 4.834h3.493zm6.051-7.166h2.773v12h-2.773v-12zM78 16.001h-3.376v-1.245h2.027V1.243h-2.026V-.003H78v16.004z"/></g><defs><clipPath id="clip0_193_2278"><path fill="#fff" d="M0 0h78v16H0z"/></clipPath></defs></svg>