<svg width="1553" height="78" fill="none" xmlns="http://www.w3.org/2000/svg"><path fill="#C7FFE0" d="M0 0h1553v78H0z"/><path d="M72.342 47.362c-1.768 0-3.367-.378-4.797-1.133-1.415-.756-2.523-1.8-3.327-3.134-.804-1.35-1.206-2.877-1.206-4.58 0-1.705.402-3.231 1.206-4.581a8.395 8.395 0 013.327-3.158c1.43-.756 3.03-1.134 4.797-1.134 1.768 0 3.36.378 4.773 1.134 1.43.755 2.548 1.808 3.351 3.158.82 1.35 1.23 2.877 1.23 4.58 0 1.704-.41 3.23-1.23 4.58-.803 1.334-1.92 2.38-3.35 3.135-1.415.755-3.006 1.133-4.774 1.133zm-5.087-8.848c0 1.11.217 2.073.651 2.893a4.697 4.697 0 001.808 1.905c.772.434 1.648.65 2.628.65.98 0 1.856-.217 2.628-.65a4.65 4.65 0 001.832-1.905c.434-.82.651-1.784.651-2.893 0-1.109-.217-2.073-.65-2.893-.435-.836-1.038-1.47-1.809-1.904-.771-.45-1.655-.675-2.652-.675-.98 0-1.856.225-2.628.675-.771.434-1.374 1.069-1.808 1.904-.434.82-.65 1.784-.65 2.893zm17.343-8.51h5.135l6.413 11.307-.072-11.307h3.881V47h-4.629l-6.798-12.15V47h-3.93V30.004zm19.188 0h4.05v13.62h7.762V47h-11.812V30.004zm16.332 10.077l-6.412-10.077h4.58l3.978 6.461 3.905-6.46h4.388l-6.389 10.076V47h-4.05v-6.919zm12.601-10.077h11.765v3.207h-7.763v3.833h6.967v3.11h-6.967V47h-4.002V30.004zm18.08 0h5.087L162.612 47h-4.46l-1.326-3.785h-7.16L148.316 47h-4.195l6.678-16.996zm5.014 10.15l-2.603-6.847-2.508 6.846h5.111zm8.854-10.15h5.135l6.412 11.307-.072-11.307h3.881V47h-4.628l-6.799-12.15V47h-3.929V30.004zm25.648 17.358c-1.543 0-2.869-.242-3.978-.724s-1.969-1.157-2.579-2.025c-.595-.867-.933-1.864-1.013-2.989h4.002c.08.804.402 1.479.964 2.025.563.53 1.414.796 2.556.796 1.044 0 1.832-.201 2.362-.603.547-.402.82-.892.82-1.47 0-.563-.193-1.013-.579-1.35-.369-.338-1.028-.587-1.977-.748l-2.218-.362c-1.864-.305-3.214-.876-4.05-1.711-.835-.836-1.253-1.977-1.253-3.424a4.4 4.4 0 01.819-2.603c.547-.788 1.326-1.407 2.339-1.857 1.012-.45 2.186-.675 3.52-.675 1.478 0 2.732.25 3.76.748 1.045.482 1.849 1.133 2.411 1.953.563.82.9 1.735 1.013 2.748h-4.002c-.129-.755-.458-1.366-.989-1.832-.514-.466-1.253-.7-2.218-.7-.9 0-1.583.193-2.049.58-.45.369-.675.81-.675 1.325 0 .547.185.964.555 1.254.386.289 1.069.514 2.049.675l2.025.313c3.841.627 5.762 2.395 5.762 5.304 0 1.077-.298 2.017-.892 2.82-.579.804-1.423 1.43-2.532 1.88-1.109.435-2.426.652-3.953.652zm758.027 0c-1.768 0-3.367-.378-4.797-1.133-1.415-.756-2.524-1.8-3.327-3.134-.804-1.35-1.205-2.877-1.205-4.58 0-1.705.401-3.231 1.205-4.581a8.387 8.387 0 013.327-3.158c1.43-.756 3.029-1.134 4.797-1.134 1.768 0 3.359.378 4.773 1.134 1.431.755 2.548 1.808 3.351 3.158.82 1.35 1.23 2.877 1.23 4.58 0 1.704-.41 3.23-1.23 4.58-.803 1.334-1.92 2.38-3.351 3.135-1.414.755-3.005 1.133-4.773 1.133zm-5.087-8.848c0 1.11.217 2.073.651 2.893a4.7 4.7 0 001.808 1.905c.772.434 1.648.65 2.628.65.981 0 1.856-.217 2.628-.65a4.654 4.654 0 001.832-1.905c.434-.82.651-1.784.651-2.893 0-1.109-.217-2.073-.651-2.893-.434-.836-1.037-1.47-1.808-1.904-.771-.45-1.655-.675-2.652-.675-.98 0-1.856.225-2.628.675-.771.434-1.374 1.069-1.808 1.904-.434.82-.651 1.784-.651 2.893zm17.343-8.51h5.135l6.413 11.307-.072-11.307h3.881V47h-4.629l-6.798-12.15V47h-3.93V30.004zm19.188 0h4.05v13.62h7.762V47h-11.812V30.004zm16.332 10.077l-6.412-10.077h4.58l3.978 6.461 3.906-6.46h4.39l-6.39 10.076V47h-4.052v-6.919zm12.602-10.077h11.76v3.207h-7.76v3.833h6.97v3.11h-6.97V47h-4V30.004zm18.08 0h5.09L1038.61 47h-4.46l-1.32-3.785h-7.16L1024.32 47h-4.2l6.68-16.996zm5.01 10.15l-2.6-6.847-2.51 6.846h5.11zm8.86-10.15h5.13l6.41 11.307-.07-11.307h3.88V47h-4.63l-6.79-12.15V47h-3.93V30.004zm25.64 17.358c-1.54 0-2.86-.242-3.97-.724-1.11-.482-1.97-1.157-2.58-2.025-.6-.867-.93-1.864-1.02-2.989h4.01c.08.804.4 1.479.96 2.025.56.53 1.42.796 2.56.796 1.04 0 1.83-.201 2.36-.603.55-.402.82-.892.82-1.47 0-.563-.19-1.013-.58-1.35-.37-.338-1.03-.587-1.98-.748l-2.21-.362c-1.87-.305-3.22-.876-4.05-1.711-.84-.836-1.26-1.977-1.26-3.424 0-.964.28-1.832.82-2.603.55-.788 1.33-1.407 2.34-1.857 1.01-.45 2.19-.675 3.52-.675 1.48 0 2.73.25 3.76.748 1.05.482 1.85 1.133 2.41 1.953.56.82.9 1.735 1.01 2.748h-4c-.13-.755-.46-1.366-.99-1.832-.51-.466-1.25-.7-2.21-.7-.9 0-1.59.193-2.05.58-.45.369-.68.81-.68 1.325 0 .547.19.964.56 1.254.38.289 1.06.514 2.04.675l2.03.313c3.84.627 5.76 2.395 5.76 5.304 0 1.077-.3 2.017-.89 2.82-.58.804-1.42 1.43-2.53 1.88-1.11.435-2.43.652-3.96.652zm-555.968 0c-1.768 0-3.367-.378-4.797-1.133-1.415-.756-2.524-1.8-3.327-3.134-.804-1.35-1.205-2.877-1.205-4.58 0-1.705.401-3.231 1.205-4.581a8.387 8.387 0 013.327-3.158c1.43-.756 3.029-1.134 4.797-1.134 1.768 0 3.359.378 4.773 1.134 1.431.755 2.548 1.808 3.351 3.158.82 1.35 1.23 2.877 1.23 4.58 0 1.704-.41 3.23-1.23 4.58-.803 1.334-1.92 2.38-3.351 3.135-1.414.755-3.005 1.133-4.773 1.133zm-5.087-8.848c0 1.11.217 2.073.651 2.893a4.7 4.7 0 001.808 1.905c.772.434 1.648.65 2.628.65.981 0 1.856-.217 2.628-.65a4.654 4.654 0 001.832-1.905c.434-.82.651-1.784.651-2.893 0-1.109-.217-2.073-.651-2.893-.434-.836-1.037-1.47-1.808-1.904-.771-.45-1.655-.675-2.652-.675-.98 0-1.856.225-2.628.675-.771.434-1.374 1.069-1.808 1.904-.434.82-.651 1.784-.651 2.893zm17.343-8.51h5.135l6.413 11.307-.072-11.307h3.881V47h-4.629l-6.798-12.15V47h-3.93V30.004zm19.188 0h4.05v13.62h7.762V47h-11.812V30.004zm16.332 10.077l-6.412-10.077h4.58l3.978 6.461 3.905-6.46h4.388l-6.389 10.076V47h-4.05v-6.919zm12.601-10.077h11.765v3.207h-7.763v3.833h6.967v3.11h-6.967V47h-4.002V30.004zm18.08 0h5.087L600.612 47h-4.46l-1.326-3.785h-7.16L586.316 47h-4.195l6.678-16.996zm5.014 10.15l-2.603-6.847-2.508 6.846h5.111zm8.854-10.15h5.135l6.412 11.307-.072-11.307h3.881V47h-4.628l-6.799-12.15V47h-3.929V30.004zm25.648 17.358c-1.543 0-2.869-.242-3.978-.724s-1.969-1.157-2.579-2.025c-.595-.867-.933-1.864-1.013-2.989h4.002c.08.804.402 1.479.964 2.025.563.53 1.414.796 2.556.796 1.044 0 1.832-.201 2.362-.603.547-.402.82-.892.82-1.47 0-.563-.193-1.013-.579-1.35-.369-.338-1.028-.587-1.977-.748l-2.218-.362c-1.864-.305-3.214-.876-4.05-1.711-.835-.836-1.253-1.977-1.253-3.424a4.4 4.4 0 01.819-2.603c.547-.788 1.326-1.407 2.339-1.857 1.012-.45 2.186-.675 3.52-.675 1.478 0 2.732.25 3.76.748 1.045.482 1.849 1.133 2.411 1.953.563.82.9 1.735 1.013 2.748h-4.002c-.129-.755-.458-1.366-.989-1.832-.514-.466-1.253-.7-2.218-.7-.9 0-1.583.193-2.049.58-.45.369-.675.81-.675 1.325 0 .547.185.964.555 1.254.386.289 1.069.514 2.049.675l2.025.313c3.841.627 5.762 2.395 5.762 5.304 0 1.077-.298 2.017-.892 2.82-.579.804-1.423 1.43-2.532 1.88-1.109.435-2.426.652-3.953.652zm758.025 0c-1.77 0-3.36-.378-4.8-1.133-1.41-.756-2.52-1.8-3.32-3.134-.81-1.35-1.21-2.877-1.21-4.58 0-1.705.4-3.231 1.21-4.581.8-1.35 1.91-2.403 3.32-3.158 1.44-.756 3.03-1.134 4.8-1.134s3.36.378 4.78 1.134a8.396 8.396 0 013.35 3.158c.82 1.35 1.23 2.877 1.23 4.58 0 1.704-.41 3.23-1.23 4.58-.81 1.334-1.92 2.38-3.35 3.135-1.42.755-3.01 1.133-4.78 1.133zm-5.08-8.848c0 1.11.21 2.073.65 2.893.43.82 1.03 1.455 1.8 1.905.78.434 1.65.65 2.63.65s1.86-.217 2.63-.65c.79-.45 1.4-1.085 1.83-1.905.44-.82.65-1.784.65-2.893 0-1.109-.21-2.073-.65-2.893-.43-.836-1.03-1.47-1.81-1.904-.77-.45-1.65-.675-2.65-.675-.98 0-1.85.225-2.63.675-.77.434-1.37 1.069-1.8 1.904-.44.82-.65 1.784-.65 2.893zm17.34-8.51h5.13l6.42 11.307-.08-11.307h3.88V47h-4.62l-6.8-12.15V47h-3.93V30.004zm19.19 0h4.05v13.62h7.76V47h-11.81V30.004zm16.33 10.077l-6.41-10.077h4.58l3.97 6.461 3.91-6.46h4.39l-6.39 10.076V47h-4.05v-6.919zm12.6-10.077h11.76v3.207h-7.76v3.833h6.97v3.11h-6.97V47h-4V30.004zm18.08 0h5.09L1476.61 47h-4.46l-1.32-3.785h-7.16L1462.32 47h-4.2l6.68-16.996zm5.01 10.15l-2.6-6.847-2.51 6.846h5.11zm8.86-10.15h5.13l6.41 11.307-.07-11.307h3.88V47h-4.63l-6.79-12.15V47h-3.93V30.004zm25.64 17.358c-1.54 0-2.86-.242-3.97-.724-1.11-.482-1.97-1.157-2.58-2.025-.6-.867-.93-1.864-1.02-2.989h4.01c.08.804.4 1.479.96 2.025.56.53 1.42.796 2.56.796 1.04 0 1.83-.201 2.36-.603.55-.402.82-.892.82-1.47 0-.563-.19-1.013-.58-1.35-.37-.338-1.03-.587-1.98-.748l-2.21-.362c-1.87-.305-3.22-.876-4.05-1.711-.84-.836-1.26-1.977-1.26-3.424 0-.964.28-1.832.82-2.603.55-.788 1.33-1.407 2.34-1.857 1.01-.45 2.19-.675 3.52-.675 1.48 0 2.73.25 3.76.748 1.05.482 1.85 1.133 2.41 1.953.56.82.9 1.735 1.01 2.748h-4c-.13-.755-.46-1.366-.99-1.832-.51-.466-1.25-.7-2.21-.7-.9 0-1.59.193-2.05.58-.45.369-.68.81-.68 1.325 0 .547.19.964.56 1.254.38.289 1.06.514 2.04.675l2.03.313c3.84.627 5.76 2.395 5.76 5.304 0 1.077-.3 2.017-.89 2.82-.58.804-1.42 1.43-2.53 1.88-1.11.435-2.43.652-3.96.652zm-1212.968 0c-1.768 0-3.367-.378-4.797-1.133-1.415-.756-2.524-1.8-3.327-3.134-.804-1.35-1.205-2.877-1.205-4.58 0-1.705.401-3.231 1.205-4.581a8.387 8.387 0 013.327-3.158c1.43-.756 3.029-1.134 4.797-1.134 1.768 0 3.359.378 4.773 1.134 1.431.755 2.548 1.808 3.351 3.158.82 1.35 1.23 2.877 1.23 4.58 0 1.704-.41 3.23-1.23 4.58-.803 1.334-1.92 2.38-3.351 3.135-1.414.755-3.005 1.133-4.773 1.133zm-5.087-8.848c0 1.11.217 2.073.651 2.893a4.7 4.7 0 001.808 1.905c.772.434 1.648.65 2.628.65.981 0 1.856-.217 2.628-.65a4.654 4.654 0 001.832-1.905c.434-.82.651-1.784.651-2.893 0-1.109-.217-2.073-.651-2.893-.434-.836-1.037-1.47-1.808-1.904-.771-.45-1.655-.675-2.652-.675-.98 0-1.856.225-2.628.675-.771.434-1.374 1.069-1.808 1.904-.434.82-.651 1.784-.651 2.893zm17.343-8.51h5.135l6.413 11.307-.072-11.307h3.881V47h-4.629l-6.798-12.15V47h-3.93V30.004zm19.188 0h4.05v13.62h7.762V47h-11.812V30.004zm16.332 10.077l-6.412-10.077h4.58l3.978 6.461 3.905-6.46h4.388l-6.389 10.076V47h-4.05v-6.919zm12.601-10.077h11.765v3.207h-7.763v3.833h6.967v3.11h-6.967V47h-4.002V30.004zm18.08 0h5.087L381.612 47h-4.46l-1.326-3.785h-7.16L367.316 47h-4.195l6.678-16.996zm5.014 10.15l-2.603-6.847-2.508 6.846h5.111zm8.854-10.15h5.135l6.412 11.307-.072-11.307h3.881V47h-4.628l-6.799-12.15V47h-3.929V30.004zm25.648 17.358c-1.543 0-2.869-.242-3.978-.724s-1.969-1.157-2.579-2.025c-.595-.867-.933-1.864-1.013-2.989h4.002c.08.804.402 1.479.964 2.025.563.53 1.414.796 2.556.796 1.044 0 1.832-.201 2.362-.603.547-.402.82-.892.82-1.47 0-.563-.193-1.013-.579-1.35-.369-.338-1.028-.587-1.977-.748l-2.218-.362c-1.864-.305-3.214-.876-4.05-1.711-.835-.836-1.253-1.977-1.253-3.424a4.4 4.4 0 01.819-2.603c.547-.788 1.326-1.407 2.339-1.857 1.012-.45 2.186-.675 3.52-.675 1.478 0 2.732.25 3.76.748 1.045.482 1.849 1.133 2.411 1.953.563.82.9 1.735 1.013 2.748h-4.002c-.129-.755-.458-1.366-.989-1.832-.514-.466-1.253-.7-2.218-.7-.9 0-1.583.193-2.049.58-.45.369-.675.81-.675 1.325 0 .547.185.964.555 1.254.386.289 1.069.514 2.049.675l2.025.313c3.841.627 5.762 2.395 5.762 5.304 0 1.077-.298 2.017-.892 2.82-.579.804-1.423 1.43-2.532 1.88-1.109.435-2.426.652-3.953.652zm758.025 0c-1.77 0-3.36-.378-4.8-1.133-1.41-.756-2.52-1.8-3.32-3.134-.81-1.35-1.21-2.877-1.21-4.58 0-1.705.4-3.231 1.21-4.581.8-1.35 1.91-2.403 3.32-3.158 1.44-.756 3.03-1.134 4.8-1.134s3.36.378 4.78 1.134a8.396 8.396 0 013.35 3.158c.82 1.35 1.23 2.877 1.23 4.58 0 1.704-.41 3.23-1.23 4.58-.81 1.334-1.92 2.38-3.35 3.135-1.42.755-3.01 1.133-4.78 1.133zm-5.08-8.848c0 1.11.21 2.073.65 2.893.43.82 1.03 1.455 1.8 1.905.78.434 1.65.65 2.63.65s1.86-.217 2.63-.65c.79-.45 1.4-1.085 1.83-1.905.44-.82.65-1.784.65-2.893 0-1.109-.21-2.073-.65-2.893-.43-.836-1.03-1.47-1.81-1.904-.77-.45-1.65-.675-2.65-.675-.98 0-1.85.225-2.63.675-.77.434-1.37 1.069-1.8 1.904-.44.82-.65 1.784-.65 2.893zm17.34-8.51h5.13l6.42 11.307-.08-11.307h3.88V47h-4.62l-6.8-12.15V47h-3.93V30.004zm19.19 0h4.05v13.62h7.76V47h-11.81V30.004zm16.33 10.077l-6.41-10.077h4.58l3.97 6.461 3.91-6.46h4.39l-6.39 10.076V47h-4.05v-6.919zm12.6-10.077h11.76v3.207h-7.76v3.833h6.97v3.11h-6.97V47h-4V30.004zm18.08 0h5.09L1257.61 47h-4.46l-1.32-3.785h-7.16L1243.32 47h-4.2l6.68-16.996zm5.01 10.15l-2.6-6.847-2.51 6.846h5.11zm8.86-10.15h5.13l6.41 11.307-.07-11.307h3.88V47h-4.63l-6.79-12.15V47h-3.93V30.004zm25.64 17.358c-1.54 0-2.86-.242-3.97-.724-1.11-.482-1.97-1.157-2.58-2.025-.6-.867-.93-1.864-1.02-2.989h4.01c.08.804.4 1.479.96 2.025.56.53 1.42.796 2.56.796 1.04 0 1.83-.201 2.36-.603.55-.402.82-.892.82-1.47 0-.563-.19-1.013-.58-1.35-.37-.338-1.03-.587-1.98-.748l-2.21-.362c-1.87-.305-3.22-.876-4.05-1.711-.84-.836-1.26-1.977-1.26-3.424 0-.964.28-1.832.82-2.603.55-.788 1.33-1.407 2.34-1.857 1.01-.45 2.19-.675 3.52-.675 1.48 0 2.73.25 3.76.748 1.05.482 1.85 1.133 2.41 1.953.56.82.9 1.735 1.01 2.748h-4c-.13-.755-.46-1.366-.99-1.832-.51-.466-1.25-.7-2.21-.7-.9 0-1.59.193-2.05.58-.45.369-.68.81-.68 1.325 0 .547.19.964.56 1.254.38.289 1.06.514 2.04.675l2.03.313c3.84.627 5.76 2.395 5.76 5.304 0 1.077-.3 2.017-.89 2.82-.58.804-1.42 1.43-2.53 1.88-1.11.435-2.43.652-3.96.652zm-555.968 0c-1.768 0-3.367-.378-4.797-1.133-1.415-.756-2.524-1.8-3.327-3.134-.804-1.35-1.205-2.877-1.205-4.58 0-1.705.401-3.231 1.205-4.581a8.387 8.387 0 013.327-3.158c1.43-.756 3.029-1.134 4.797-1.134 1.768 0 3.359.378 4.773 1.134 1.431.755 2.548 1.808 3.351 3.158.82 1.35 1.23 2.877 1.23 4.58 0 1.704-.41 3.23-1.23 4.58-.803 1.334-1.92 2.38-3.351 3.135-1.414.755-3.005 1.133-4.773 1.133zm-5.087-8.848c0 1.11.217 2.073.651 2.893a4.7 4.7 0 001.808 1.905c.772.434 1.648.65 2.628.65.981 0 1.856-.217 2.628-.65a4.654 4.654 0 001.832-1.905c.434-.82.651-1.784.651-2.893 0-1.109-.217-2.073-.651-2.893-.434-.836-1.037-1.47-1.808-1.904-.771-.45-1.655-.675-2.652-.675-.98 0-1.856.225-2.628.675-.771.434-1.374 1.069-1.808 1.904-.434.82-.651 1.784-.651 2.893zm17.343-8.51h5.135l6.413 11.307-.072-11.307h3.881V47h-4.629l-6.798-12.15V47h-3.93V30.004zm19.188 0h4.05v13.62h7.762V47h-11.812V30.004zm16.332 10.077l-6.412-10.077h4.58l3.978 6.461 3.905-6.46h4.388l-6.389 10.076V47h-4.05v-6.919zm12.601-10.077h11.765v3.207h-7.763v3.833h6.967v3.11h-6.967V47h-4.002V30.004zm18.08 0h5.087L819.612 47h-4.46l-1.326-3.785h-7.16L805.316 47h-4.195l6.678-16.996zm5.014 10.15l-2.603-6.847-2.508 6.846h5.111zm8.854-10.15h5.135l6.412 11.307-.072-11.307h3.881V47h-4.628l-6.799-12.15V47h-3.929V30.004zm25.648 17.358c-1.543 0-2.869-.242-3.978-.724s-1.969-1.157-2.579-2.025c-.595-.867-.933-1.864-1.013-2.989h4.002c.08.804.402 1.479.964 2.025.563.53 1.414.796 2.556.796 1.044 0 1.832-.201 2.362-.603.547-.402.82-.892.82-1.47 0-.563-.193-1.013-.579-1.35-.369-.338-1.028-.587-1.977-.748l-2.218-.362c-1.864-.305-3.214-.876-4.05-1.711-.835-.836-1.253-1.977-1.253-3.424a4.4 4.4 0 01.819-2.603c.547-.788 1.326-1.407 2.339-1.857 1.012-.45 2.186-.675 3.52-.675 1.478 0 2.732.25 3.76.748 1.045.482 1.849 1.133 2.411 1.953.563.82.9 1.735 1.013 2.748h-4.002c-.129-.755-.458-1.366-.989-1.832-.514-.466-1.253-.7-2.218-.7-.9 0-1.583.193-2.049.58-.45.369-.675.81-.675 1.325 0 .547.185.964.555 1.254.386.289 1.069.514 2.049.675l2.025.313c3.841.627 5.762 2.395 5.762 5.304 0 1.077-.298 2.017-.892 2.82-.579.804-1.423 1.43-2.532 1.88-1.109.435-2.426.652-3.953.652zM671 25c-7.728 0-14 6.272-14 14s6.272 14 14 14 14-6.272 14-14-6.272-14-14-14zm0 18.2a4.195 4.195 0 01-4.2-4.2c0-2.324 1.876-4.2 4.2-4.2 2.324 0 4.2 1.876 4.2 4.2 0 2.324-1.876 4.2-4.2 4.2z" fill="#000"/><path d="M686.736 35.5c3.557 1.023 7.756 0 7.756 0-1.218 5.32-5.082 8.652-10.654 9.058A13.97 13.97 0 01671 53l4.2-13.349C679.517 25.93 681.73 25 691.97 25H699c-1.176 5.18-5.229 9.137-12.264 10.5zM452 25c-7.728 0-14 6.272-14 14s6.272 14 14 14 14-6.272 14-14-6.272-14-14-14zm0 18.2a4.195 4.195 0 01-4.2-4.2c0-2.324 1.876-4.2 4.2-4.2 2.324 0 4.2 1.876 4.2 4.2 0 2.324-1.876 4.2-4.2 4.2z" fill="#000"/><path d="M467.736 35.5c3.557 1.023 7.756 0 7.756 0-1.218 5.32-5.082 8.652-10.654 9.058A13.97 13.97 0 01452 53l4.2-13.349C460.517 25.93 462.73 25 472.97 25H480c-1.176 5.18-5.229 9.137-12.264 10.5zM233 25c-7.728 0-14 6.272-14 14s6.272 14 14 14 14-6.272 14-14-6.272-14-14-14zm0 18.2a4.195 4.195 0 01-4.2-4.2c0-2.324 1.876-4.2 4.2-4.2 2.324 0 4.2 1.876 4.2 4.2 0 2.324-1.876 4.2-4.2 4.2z" fill="#000"/><path d="M248.736 35.5c3.557 1.023 7.756 0 7.756 0-1.218 5.32-5.082 8.652-10.654 9.058A13.97 13.97 0 01233 53l4.2-13.349C241.517 25.93 243.73 25 253.97 25H261c-1.176 5.18-5.229 9.137-12.264 10.5zM14 25C6.272 25 0 31.272 0 39s6.272 14 14 14 14-6.272 14-14-6.272-14-14-14zm0 18.2A4.194 4.194 0 019.8 39c0-2.324 1.876-4.2 4.2-4.2 2.324 0 4.2 1.876 4.2 4.2 0 2.324-1.876 4.2-4.2 4.2z" fill="#000"/><path d="M29.736 35.5c3.557 1.023 7.756 0 7.756 0-1.218 5.32-5.082 8.652-10.654 9.058A13.97 13.97 0 0114 53l4.2-13.349C22.517 25.93 24.73 25 34.97 25H42c-1.176 5.18-5.229 9.137-12.264 10.5zM890 25c-7.728 0-14 6.272-14 14s6.272 14 14 14 14-6.272 14-14-6.272-14-14-14zm0 18.2a4.195 4.195 0 01-4.2-4.2c0-2.324 1.876-4.2 4.2-4.2 2.324 0 4.2 1.876 4.2 4.2 0 2.324-1.876 4.2-4.2 4.2z" fill="#000"/><path d="M905.736 35.5c3.557 1.023 7.756 0 7.756 0-1.218 5.32-5.082 8.652-10.654 9.058A13.97 13.97 0 01890 53l4.2-13.349C898.517 25.93 900.73 25 910.97 25H918c-1.176 5.18-5.229 9.137-12.264 10.5zM1109 25c-7.73 0-14 6.272-14 14s6.27 14 14 14 14-6.272 14-14-6.27-14-14-14zm0 18.2c-2.32 0-4.2-1.876-4.2-4.2 0-2.324 1.88-4.2 4.2-4.2 2.32 0 4.2 1.876 4.2 4.2 0 2.324-1.88 4.2-4.2 4.2z" fill="#000"/><path d="M1124.74 35.5c3.55 1.023 7.75 0 7.75 0-1.22 5.32-5.08 8.652-10.65 9.058A13.976 13.976 0 011109 53l4.2-13.349C1117.52 25.93 1119.73 25 1129.97 25h7.03c-1.18 5.18-5.23 9.137-12.26 10.5zM1328 25c-7.73 0-14 6.272-14 14s6.27 14 14 14 14-6.272 14-14-6.27-14-14-14zm0 18.2c-2.32 0-4.2-1.876-4.2-4.2 0-2.324 1.88-4.2 4.2-4.2 2.32 0 4.2 1.876 4.2 4.2 0 2.324-1.88 4.2-4.2 4.2z" fill="#000"/><path d="M1343.74 35.5c3.55 1.023 7.75 0 7.75 0-1.22 5.32-5.08 8.652-10.65 9.058A13.976 13.976 0 011328 53l4.2-13.349C1336.52 25.93 1338.73 25 1348.97 25h7.03c-1.18 5.18-5.23 9.137-12.26 10.5z" fill="#000"/></svg>