<svg width="684" height="522" viewBox="0 0 684 522" fill="none" xmlns="http://www.w3.org/2000/svg">
<path d="M675 316.994C675 203.772 581.549 112 466.286 112C433.667 112.01 401.503 119.521 372.37 133.933C343.238 148.344 317.945 169.255 298.519 194.991C288.681 208.016 280.873 222.034 270.285 234.553C246.591 262.572 214.899 282.983 179.291 293.157C166.082 296.911 152.485 299.196 138.757 299.969C123.428 300.807 108.939 300.482 94.1568 304.725C46.5661 318.387 13 362.505 13 411.141C13 440.543 24.8918 468.74 46.0592 489.53C67.2267 510.32 95.9359 522 125.871 522C126.508 522 127.144 522 127.742 522H483.88C590.922 513.213 675 424.384 675 316.994Z" fill="#E4EBE4"/>
<mask id="mask0_2195_314" style="mask-type:luminance" maskUnits="userSpaceOnUse" x="17" y="0" width="651" height="522">
<path d="M17 423.502C17 449.564 28.6825 474.559 49.4774 492.987C70.2724 511.416 98.4764 521.769 127.885 521.769C128.51 521.769 129.135 521.769 129.723 521.769H479.593C584.74 513.98 667.337 435.241 667.337 340.061V138C667.337 61.7847 605.553 0 529.337 0H155C78.7846 0 17 61.7847 17 138V423.502Z" fill="white"/>
</mask>
<g mask="url(#mask0_2195_314)">
<path d="M317.186 142.342C313.835 142.042 310.309 145.599 307.69 147.262C304.315 149.4 300.981 151.608 297.688 153.888C291.02 158.514 284.561 163.413 278.309 168.585C265.747 178.839 254.264 190.349 244.04 202.935C239.22 208.943 234.663 215.157 229.662 221.002C227.244 223.896 224.656 226.643 221.91 229.228C220.816 230.235 218.16 232.798 216.641 232.979C212.265 233.554 219.347 223.946 219.966 222.977C223.261 217.826 226.455 212.487 230.225 207.674C237.526 198.335 243.752 188.026 251.085 178.618C257.711 170.129 265.944 163.559 274.333 156.895C285.777 147.805 296.318 137.633 305.809 126.52C311.197 120.2 316.536 112.636 315.573 104.391C315.556 103.455 315.183 102.56 314.529 101.89C313.673 101.171 312.422 101.265 311.322 101.44C296.532 103.84 284.135 115.512 272.452 124.032C259.649 133.378 246.822 142.742 235.126 153.45C218.028 169.079 204.832 187.782 189.573 205.03C188.179 202.135 191.298 199.01 192.398 196.44C193.892 192.958 195.286 189.433 196.874 185.995C201.15 176.755 204.101 166.616 209.645 157.983C214.428 150.562 221.054 144.524 227.905 138.96C240.177 128.958 253.536 120.112 263.988 108.26C269.301 102.246 274.884 93.3446 273.708 84.8741C272.458 75.8285 255.23 86.3432 251.398 88.8687C244.746 93.2445 237.582 96.6765 231.187 101.259C223.836 106.526 216.578 111.923 209.414 117.449C201.062 123.894 191.829 130.102 184.628 137.847C180.458 142.323 176.995 147.399 173.669 152.538C161.392 171.535 152.365 192.771 139.544 211.3C138.919 229.116 140.131 245.907 149.758 261.672C150.595 263 151.057 264.529 151.096 266.098C155.685 271.649 161.142 277.663 167.724 284.189C214.415 330.499 219.135 368.581 171.513 426.437C180.052 421.492 189.604 419.248 198.324 414.647C213.096 406.845 223.192 398.556 230.287 383.209C236.645 369.457 239.826 354.454 242.79 339.688C248.191 312.808 255.723 287.309 272.927 265.517L303.933 226.278C310.303 218.207 317.061 208.505 314.56 198.522C313.935 196.022 311.872 193.24 309.384 193.94C308.654 194.206 307.984 194.616 307.415 195.146C296.019 204.561 285.054 214.494 274.64 224.99C269.476 230.203 264.446 235.55 259.549 241.031C257.18 243.694 249.041 256.352 245.565 255.565C247.097 250.564 250.822 245.725 253.467 241.187C256.374 236.186 259.368 231.185 262.55 226.34C268.764 216.869 275.709 207.774 284.104 200.116C297.857 187.576 309.859 174.217 318.136 157.301C319.455 154.588 321.218 150.525 321.18 147.518C321.168 145.111 319.561 142.561 317.186 142.342Z" fill="#D9B89E"/>
<path d="M196.017 267.699C144.25 227.153 149.758 204.955 149.758 204.955C148.782 203.198 149.414 199.247 149.533 197.303C149.826 192.34 150.864 187.445 151.877 182.588C153.821 173.255 156.134 163.746 154.821 154.307C153.508 144.868 147.595 135.347 138.355 132.99C136.186 132.434 133.729 132.365 131.867 133.584C129.747 135.003 128.991 137.704 128.385 140.179C124.075 157.733 119.772 175.288 115.476 192.846C114.107 198.422 112.731 204.055 112.606 209.793C112.5 214.95 113.407 220.076 114.451 225.128C118.776 245.957 125.578 266.173 129.972 286.977C133.673 304.481 138.93 323.679 130.941 340.52C122.515 358.286 111.194 374.764 98.9349 390.08C84.6758 407.883 68.8351 424.324 52.9819 440.715C45.5304 448.41 31.8151 458.218 28.6645 468.489C25.3013 479.429 32.8653 491.794 39.5979 499.745C58.198 521.516 84.6352 535.07 113.169 537.466C126.828 538.541 137.818 530.589 144.925 519.337C155.553 502.615 162.366 483.473 172.912 466.589C180.608 454.268 187.434 441.584 196.423 430.094C207.119 416.435 218.422 403.176 227.498 388.335C256.173 341.488 235.863 298.917 196.017 267.699Z" fill="#F4DCC9"/>
<path d="M407.079 312.646C410.423 312.339 413.955 315.903 416.568 317.565C419.944 319.703 423.278 321.912 426.57 324.192C433.238 328.818 439.698 333.717 445.949 338.888C458.508 349.144 469.991 360.651 480.219 373.233C485.032 379.247 489.596 385.46 494.597 391.305C497.014 394.198 499.603 396.943 502.348 399.526C503.442 400.538 506.099 403.101 507.618 403.276C511.994 403.852 504.911 394.243 504.292 393.274C500.998 388.117 497.797 382.785 494.034 377.965C486.732 368.632 480.506 358.317 473.173 348.915C466.541 340.42 458.314 333.856 449.925 327.192C438.482 318.105 427.941 307.935 418.45 296.824C413.055 290.504 407.723 282.94 408.679 274.694C408.701 273.758 409.076 272.865 409.729 272.194C410.586 271.475 411.836 271.569 412.936 271.744C427.727 274.144 440.123 285.809 451.807 294.336C464.609 303.675 477.437 313.046 489.133 323.754C506.23 339.382 519.42 358.08 534.686 375.327C536.08 372.439 532.961 369.307 531.86 366.744C530.366 363.262 528.972 359.736 527.378 356.298C523.102 347.059 520.158 336.919 514.613 328.286C509.831 320.866 503.205 314.827 496.353 309.257C484.082 299.255 470.723 290.41 460.271 278.564C454.957 272.544 449.375 263.642 450.55 255.178C451.8 246.126 469.023 256.647 472.861 259.166C479.512 263.542 486.676 266.98 493.071 271.562C500.423 276.83 507.678 282.227 514.838 287.753C523.19 294.198 532.423 300.406 539.631 308.151C543.794 312.627 547.263 317.703 550.589 322.841C562.867 341.839 571.893 363.075 584.715 381.603C585.34 399.426 584.127 416.217 574.5 431.976C573.662 433.306 573.198 434.837 573.156 436.408C568.574 441.959 563.117 447.973 556.534 454.499C509.843 500.802 505.117 538.86 552.746 596.747C544.207 591.796 534.655 589.558 525.934 584.951C511.162 577.155 501.067 568.86 493.971 553.519C487.614 539.766 484.432 524.763 481.469 509.998C476.068 483.118 468.535 457.619 451.332 435.827L420.363 396.594C413.987 388.523 407.235 378.828 409.736 368.844C410.361 366.344 412.424 363.562 414.906 364.256C415.639 364.52 416.309 364.933 416.875 365.469C428.271 374.877 439.242 384.81 449.656 395.312C454.82 400.526 459.846 405.873 464.734 411.353C467.097 414.016 475.236 426.675 478.718 425.887C477.181 420.886 473.455 416.048 470.817 411.509C467.91 406.508 464.916 401.507 461.734 396.663C455.52 387.198 448.569 378.103 440.179 370.445C426.427 357.899 414.418 344.54 406.147 327.624C404.828 324.917 403.066 320.847 403.103 317.847C403.103 315.409 404.71 312.858 407.079 312.646Z" fill="#D9B89E"/>
<path d="M528.253 437.995C580.014 397.45 574.513 375.258 574.513 375.258C575.482 373.495 574.85 369.544 574.738 367.606C574.438 362.643 573.406 357.748 572.393 352.884C570.449 343.558 568.136 334.049 569.449 324.61C570.762 315.171 576.675 305.65 585.909 303.287C588.084 302.737 590.541 302.662 592.404 303.912C594.523 305.325 595.279 308.032 595.886 310.501C600.187 328.054 604.489 345.604 608.794 363.149C610.163 368.719 611.539 374.358 611.658 380.096C611.77 385.253 610.864 390.379 609.782 395.431C605.463 416.253 598.661 436.47 594.267 457.28C590.566 474.784 585.308 493.982 593.291 510.823C601.718 528.582 613.045 545.067 625.304 560.376C639.557 578.186 655.398 594.627 671.251 611.011C678.709 618.707 692.418 628.515 695.574 638.786C698.938 649.726 691.374 662.091 684.641 670.042C666.044 691.816 639.605 705.371 611.07 707.762C597.411 708.844 586.421 700.886 579.314 689.634C568.686 672.911 561.866 653.77 551.327 636.879C543.631 624.564 536.805 611.874 527.816 600.391C517.12 586.732 505.817 573.466 496.734 558.632C468.091 511.791 488.401 469.22 528.253 437.995Z" fill="#F4DCC9"/>
</g>
<path d="M455.539 48.3533C452.936 51.8444 450.651 54.5738 448.747 57.4936C445.319 62.889 445.51 68.5382 449.255 73.1718C450.017 74.1239 451.603 75.1395 452.746 75.0761C460.109 74.8222 465.504 66.6974 462.775 59.8422C461.442 56.478 459.284 53.4947 458.141 49.4323C463.283 53.5582 468.742 57.3667 473.439 61.9368C517.046 104.465 504.668 168.003 479.278 195.995C466.393 210.213 450.334 219.1 432.371 225.13C417.01 230.271 401.522 235.032 386.288 240.554C378.037 243.538 370.293 247.663 361.597 251.662C359.375 242.141 357.027 232.556 354.995 222.908C350.108 199.804 350.489 177.016 359.185 154.8C370.356 126.364 401.141 108.273 432.752 119.064C448.811 124.523 459.347 118.429 466.583 100.72C465.25 102.434 463.917 104.211 462.521 105.925C455.158 114.748 448.366 116.715 437.829 112.336C424.944 106.94 411.868 104.02 397.968 107.004C394.603 107.702 391.239 108.718 387.177 109.733C390.731 99.4503 392.445 89.4213 386.923 80.0906C384.194 75.4569 379.814 71.8389 375.371 68.2843C383.749 77.4246 386.098 87.771 381.464 98.9425C378.925 105.036 375.815 111.637 371.054 116.017C356.9 129.156 346.172 143.946 341.539 163.242C341.031 161.211 340.523 159.18 339.888 157.212C335.699 143.438 328.844 131.315 317.926 121.666C310.69 115.319 304.914 107.892 301.931 98.6251C298.503 88.1518 299.963 78.6941 308.024 70.6963C308.532 70.1885 308.976 69.6173 309.802 68.6017C295.52 73.9335 291.013 88.0884 296.408 109.416C295.774 109.416 295.139 109.67 294.631 109.479C279.588 104.147 264.671 104.909 250.009 110.876C248.676 111.447 247.343 111.955 246.01 112.526C235.537 116.715 228.491 114.811 221.382 105.988C219.985 104.274 218.779 102.434 217.192 100.212C224.238 119.445 236.108 124.142 251.342 119.254C275.779 111.32 296.535 118.048 313.61 136.71C322.37 146.295 326.813 158.164 329.542 170.732C334.239 192.123 331.51 213.133 326.432 234.08C324.972 239.983 323.449 245.823 321.798 252.234C298.694 238.333 272.986 232.747 248.422 224.051C228.554 217.005 210.718 206.405 198.975 188.251C171.364 145.66 176.823 84.6607 221.699 52.86C223.096 51.8444 224.555 50.9557 226.587 50.5749C225.19 52.7965 223.667 54.9546 222.461 57.2397C218.398 64.9201 221.318 72.3467 229.633 74.7587C231.22 75.203 234.077 74.124 235.156 72.791C239.028 67.9669 238.901 63.3333 235.156 57.684C233.188 54.7642 230.839 52.0983 228.237 48.7341C248.993 37.6261 270.511 35.1506 292.663 42.831C332.145 56.5415 342.174 88.4057 342.11 125.792C343.443 114.684 344.078 103.386 346.236 92.4681C351.949 63.8411 374.926 43.5292 405.013 39.4034C422.786 36.7374 439.162 40.2285 455.539 48.3533ZM441.448 125.665C443.415 133.663 445.51 140.518 446.652 147.564C448.43 158.418 450.461 169.399 450.715 180.38C451.032 194.027 442.209 205.389 431.038 208.055C420.818 210.467 410.155 204.882 406.473 195.106C402.728 185.141 405.838 178.349 416.819 172.573C419.485 171.177 422.088 169.717 424.69 168.257C420.882 169.018 417.454 170.605 414.217 172.51C406.41 177.016 400.824 183.046 400.951 192.694C401.141 202.787 406.092 210.086 414.725 214.847C433.132 225.003 455.92 212.752 459.538 190.79C461.886 176.572 458.713 163.052 453.952 149.786C451.096 141.534 448.112 133.219 441.448 125.665ZM242.582 126.681C234.013 138.487 228.618 151.626 225.571 165.654C223.286 175.937 222.461 186.284 225.888 196.503C233.188 218.656 261.751 225.765 276.731 209.134C282.825 202.343 285.237 194.281 282.254 185.522C279.207 176.699 271.78 172.636 263.656 169.59C265.814 171.43 268.353 172.827 270.828 174.287C279.08 179.174 281.619 187.426 277.62 196.186C272.669 207.103 259.403 211.864 248.739 206.468C241.757 202.977 237.441 197.201 235.029 189.838C231.918 180.38 232.807 170.732 234.711 161.275C236.996 149.722 239.916 138.233 242.582 126.681ZM414.407 46.7664C398.983 52.4157 393.588 68.0939 399.681 87.0093C405.077 84.2164 410.472 81.4235 415.867 78.5672C416.883 78.0594 417.835 77.4246 418.724 76.7899C425.833 71.5215 426.404 65.9992 420.184 60.0961C416.439 56.478 413.138 52.9235 414.407 46.7664ZM284.221 86.6284C291.204 69.6173 284.602 51.3366 270.13 47.3377C269.368 54.3199 269.368 54.3199 264.1 60.35C258.451 66.8244 258.959 72.0928 266.195 76.7264C272.034 80.281 278.191 83.3278 284.221 86.6284ZM435.544 100.275C450.397 101.989 462.458 93.6741 464.425 80.5349C447.985 74.1239 436.306 81.9948 435.544 100.275ZM219.414 80.4714C221.699 93.928 234.394 102.624 248.104 100.149C246.264 81.2331 235.41 73.7431 219.414 80.4714ZM313.229 173.208C313.927 174.604 314.181 175.112 314.372 175.556C317.99 183.808 314.308 189.902 305.422 190.6C297.614 191.235 291.457 188.378 287.903 181.396C284.094 174.033 284.158 166.416 289.363 159.688C295.71 151.499 304.025 150.293 313.42 154.292C301.677 145.787 284.92 152.388 281.238 166.924C278.826 176.445 281.873 184.887 288.728 191.425C294.822 197.201 302.756 196.503 310.055 193.837C319.196 190.536 321.037 180.38 313.229 173.208ZM370.483 174.096C365.405 179.428 365.088 185.014 369.277 189.965C375.498 197.328 391.366 197.455 397.396 189.965C402.157 183.998 404.632 177.08 403.617 169.336C402.538 161.211 398.031 155.435 390.541 152.198C383.368 149.087 376.196 149.976 370.547 154.737C372.514 154.038 373.847 153.467 375.18 153.086C383.686 150.547 392.191 153.975 396.444 161.782C400.38 169.018 399.999 176.381 395.556 183.173C391.557 189.33 385.527 191.361 378.417 190.409C370.674 189.394 367.309 184.189 369.594 176.762C369.848 176.128 370.102 175.429 370.483 174.096ZM205.069 188.061C215.542 180.952 221.064 172.446 221.318 159.751C215.923 160.767 210.908 161.338 206.084 162.671C201.451 163.94 199.229 167.876 200.118 172.383C201.07 177.587 203.228 182.538 205.069 188.061ZM478.644 187.616C481.881 180.571 486.705 173.842 482.135 166.606C477.882 159.878 470.074 161.084 463.156 160.132C463.029 172.573 469.059 180.698 478.644 187.616ZM421.961 187.616C426.214 188.569 430.149 189.838 434.211 190.219C441.384 190.917 444.558 187.997 445.066 180.698C445.319 177.397 445.129 174.033 445.129 170.097C435.671 173.716 425.833 175.556 421.961 187.616ZM262.386 187.553C257.943 176.255 249.057 173.271 239.535 170.478C239.535 174.985 239.091 178.984 239.662 182.856C240.424 188.505 243.153 190.727 248.866 190.219C253.246 189.902 257.499 188.569 262.386 187.553ZM426.277 146.612C425.96 140.645 426.087 135.567 425.388 130.553C424.69 125.665 422.024 123.951 417.137 124.967C412.947 125.856 408.949 127.316 404.759 128.585C407.362 139.82 416.883 142.169 426.277 146.612ZM279.397 128.776C275.018 127.443 270.955 126.046 266.766 124.967C262.83 124.015 259.974 125.792 259.339 129.728C258.578 134.996 258.451 140.328 257.943 146.421C267.337 142.359 276.351 139.693 279.397 128.776ZM478.517 140.836C478.961 137.979 479.469 135.694 479.659 133.346C480.484 121.413 477.628 118.937 465.949 121.412C465.314 121.539 464.743 121.857 464.108 121.857C460.49 122.047 460.49 124.078 461.378 126.808C464.044 134.996 471.217 137.472 478.517 140.836ZM205.132 139.566C205.704 140.011 206.338 140.455 206.91 140.899C211.607 137.535 216.875 134.742 220.937 130.743C225.317 126.364 223.794 122.745 217.827 121.286C216.431 120.968 215.034 120.651 213.574 120.397C208.179 119.445 205.64 121.159 205.196 126.681C204.878 130.934 205.132 135.25 205.132 139.566ZM318.815 95.3879C323.576 92.4681 327.067 89.1674 326.876 83.5182C326.686 76.7899 322.369 72.7275 316.72 68.4747C315.07 71.9023 313.42 74.5683 312.531 77.4881C310.309 84.6607 316.276 89.1674 318.815 95.3879ZM365.532 94.7532C367.055 92.4046 368.579 89.9926 370.102 87.5806C373.022 82.82 372.705 76.409 369.531 71.7754C368.135 69.7442 366.929 69.4268 364.834 70.8233C354.932 77.4881 355.186 88.5961 365.532 94.7532ZM213.194 105.163C207.989 93.8646 198.34 92.5316 188.692 101.608C195.675 111.32 204.751 112.716 213.194 105.163ZM431.165 57.811C435.798 63.0794 437.258 68.2843 435.862 74.3779C433.64 83.8356 427.356 89.1674 418.66 92.0873C413.963 93.6741 409.139 94.8167 404.378 96.4035C399.999 97.8634 396.127 100.022 394.159 103.64C400.76 101.799 407.552 99.5138 414.471 98.0539C425.135 95.7688 432.815 90.0561 437.385 80.154C441.384 71.585 439.162 62.762 431.165 57.811ZM292.029 103.894C287.966 101.228 284.983 98.4982 281.492 97.0383C276.351 94.9436 270.828 93.8011 265.496 92.0873C256.293 89.104 249.628 83.2643 248.358 73.4257C247.724 68.8556 249.31 63.968 249.818 59.7152C245.502 63.6507 243.788 69.2999 245.502 75.6474C248.803 87.8345 256.864 95.261 269.305 97.9269C276.414 99.4503 283.396 101.608 292.029 103.894ZM294.123 227.098C299.836 214.276 295.583 207.357 281.746 206.595C278.191 213.324 282.508 222.591 294.123 227.098ZM402.347 206.278C388.002 208.309 383.305 216.624 390.541 226.907C401.205 222.337 405.013 215.863 402.347 206.278ZM495.972 102.37C491.338 97.7365 486.514 95.3879 480.484 96.0227C477.12 96.4035 470.519 103.386 471.979 105.036C474.137 107.385 477.628 109.289 480.738 109.67C486.768 110.368 490.958 106.052 495.972 102.37ZM201.514 118.683C201.006 118.493 200.562 118.239 200.054 118.048C198.277 121.159 195.675 124.142 194.849 127.506C192.501 136.71 197.96 148.326 206.148 153.15C212.051 156.577 219.731 155.752 223.857 151.246C228.047 146.739 230.078 138.805 228.618 132.14C227.92 135.06 227.475 137.725 226.587 140.264C224.682 145.787 221.826 150.547 215.161 151.055C208.496 151.563 203.609 148.389 200.562 142.803C196.119 134.806 195.23 126.617 201.514 118.683ZM456.11 133.98C455.666 134.044 455.221 134.171 454.777 134.234C455.602 138.233 455.92 142.359 457.38 146.104C460.299 153.721 466.076 156.45 473.883 154.673C484.928 152.134 493.56 136.139 489.244 125.538C488.292 123.19 486.387 121.222 484.927 119.127C489.625 129.537 487.911 140.772 479.786 147.501C471.915 153.975 462.585 151.88 458.586 142.55C457.507 139.884 456.935 136.9 456.11 133.98ZM336.778 109.479C334.747 104.909 331.256 102.688 326.305 102.941C321.735 103.132 319.005 105.734 317.419 109.797C314.499 117.604 322.687 119.191 325.162 125.221C327.194 120.968 329.923 117.731 329.796 114.621C329.669 111.637 326.686 108.718 324.845 105.671C329.733 103.386 333.224 106.496 336.778 109.479ZM360.581 106.179C353.282 113.605 353.155 116.461 360.137 124.078C361.851 118.81 370.927 117.921 367.436 109.86C365.469 105.226 362.168 102.751 357.09 102.814C353.345 102.878 350.679 104.655 349.219 108.019C352.774 105.734 356.138 103.513 360.581 106.179ZM403.871 144.581C401.205 141.344 399.301 137.472 396.254 135.821C392.255 133.727 388.066 136.012 384.511 138.614C389.462 147.12 393.588 148.58 403.871 144.581ZM282.127 145.025C291.331 148.453 295.202 147.12 299.9 139.185C290.823 132.33 284.221 134.425 282.127 145.025ZM410.662 150.42C416.692 157.212 426.595 158.291 432.307 152.896C438.083 147.437 438.591 135.504 433.259 130.235C436.116 138.995 434.719 147.12 429.705 151.055C424.817 154.8 417.645 154.546 410.662 150.42ZM271.78 151.753C264.354 153.975 257.181 155.498 252.357 148.326C248.041 141.978 248.93 135.06 252.294 128.331C245.946 135.631 246.137 147.691 252.421 153.15C257.499 157.593 266.766 157.149 271.78 151.753ZM360.898 171.875C368.579 166.479 373.911 165.527 378.481 168.891C383.178 172.383 383.622 176.128 380.131 184.506C384.447 181.65 386.225 178.095 385.4 173.398C384.511 168.574 381.147 166.035 376.704 164.893C369.658 163.115 364.897 166.797 360.898 171.875ZM323.829 172.319C318.942 165.718 313.229 163.306 307.77 164.766C302.756 166.099 299.138 169.844 299.011 174.414C298.947 178.73 300.407 182.348 304.977 184.697C300.788 176.699 300.915 172.954 305.168 169.336C309.675 165.591 315.133 166.226 323.829 172.319ZM313.991 144.708C306.31 136.075 296.408 128.077 285.745 124.777C294.441 130.934 304.787 138.233 313.991 144.708ZM379.433 136.9C379.116 136.583 378.735 136.329 378.417 136.012C373.974 140.899 369.531 145.787 365.151 150.674C365.405 150.865 365.659 151.119 365.849 151.309C370.42 146.485 374.926 141.661 379.433 136.9Z" fill="#F5F7FA"/>
<path d="M441.445 125.661C448.11 133.215 451.093 141.53 454.076 149.781C458.837 163.048 462.01 176.568 459.662 190.786C456.044 212.748 433.193 224.999 414.849 214.843C406.216 210.082 401.265 202.783 401.075 192.69C400.885 182.979 406.534 176.949 414.341 172.505C417.578 170.665 421.006 169.014 424.814 168.253C422.212 169.712 419.546 171.172 416.944 172.569C405.899 178.345 402.789 185.137 406.597 195.102C410.279 204.877 420.879 210.463 431.162 208.051C442.333 205.385 451.22 194.023 450.839 180.376C450.585 169.395 448.554 158.477 446.777 147.56C445.507 140.514 443.349 133.659 441.445 125.661Z" fill="#19453F"/>
<path d="M242.586 126.682C239.921 138.234 237.001 149.659 234.652 161.275C232.811 170.733 231.923 180.381 234.97 189.839C237.382 197.138 241.698 202.915 248.68 206.469C259.344 211.864 272.61 207.104 277.561 196.186C281.56 187.427 278.957 179.175 270.769 174.288C268.294 172.828 265.755 171.431 263.597 169.59C271.721 172.637 279.148 176.7 282.195 185.523C285.241 194.346 282.829 202.343 276.672 209.135C261.692 225.765 233.129 218.656 225.829 196.504C222.465 186.284 223.227 175.938 225.512 165.655C228.686 151.627 234.017 138.551 242.586 126.682Z" fill="#19453F"/>
<path d="M414.409 46.7656C413.14 52.9227 416.44 56.5407 420.185 60.0953C426.406 66.0619 425.834 71.5207 418.725 76.7891C417.837 77.4238 416.885 78.0586 415.869 78.5664C410.474 81.4227 405.142 84.2156 399.683 87.0085C393.653 68.0296 399.048 52.4149 414.409 46.7656Z" fill="#CA6C46"/>
<path d="M284.223 86.6228C278.193 83.3221 272.036 80.3388 266.26 76.6573C258.96 72.0871 258.453 66.7552 264.165 60.2808C269.434 54.2508 269.434 54.2508 270.195 47.2686C284.604 51.2675 291.205 69.5481 284.223 86.6228Z" fill="#CA6C46"/>
<path d="M435.544 100.276C436.306 82.0587 448.048 74.1244 464.425 80.5353C462.394 93.611 450.397 101.926 435.544 100.276Z" fill="#CA6C46"/>
<path d="M219.416 80.4709C235.412 73.7426 246.266 81.1691 248.106 100.148C234.396 102.687 221.701 93.9275 219.416 80.4709Z" fill="#CA6C46"/>
<path d="M313.227 173.209C321.098 180.318 319.194 190.538 310.053 193.775C302.754 196.377 294.82 197.139 288.726 191.363C281.871 184.888 278.824 176.383 281.236 166.862C284.918 152.326 301.675 145.725 313.418 154.23C304.023 150.295 295.708 151.437 289.361 159.626C284.156 166.354 284.092 173.971 287.901 181.334C291.455 188.316 297.612 191.172 305.42 190.538C314.306 189.839 317.988 183.682 314.37 175.494C314.116 175.113 313.862 174.669 313.227 173.209Z" fill="#19453F"/>
<path d="M370.486 174.096C370.042 175.429 369.788 176.127 369.598 176.825C367.313 184.315 370.613 189.456 378.421 190.472C385.53 191.424 391.56 189.329 395.559 183.236C400.002 176.381 400.383 169.081 396.447 161.845C392.195 153.974 383.689 150.61 375.183 153.149C373.85 153.53 372.518 154.101 370.55 154.799C376.199 150.039 383.372 149.15 390.544 152.26C398.034 155.498 402.541 161.274 403.62 169.398C404.636 177.142 402.16 184.061 397.399 190.028C391.369 197.518 375.501 197.391 369.28 190.028C365.154 185.013 365.408 179.364 370.486 174.096Z" fill="#19453F"/>
<path d="M205.067 188.068C203.227 182.546 201.132 177.595 200.116 172.39C199.228 167.884 201.449 164.012 206.083 162.679C210.907 161.346 215.921 160.711 221.317 159.759C221.063 172.454 215.541 180.959 205.067 188.068Z" fill="#CA6C46"/>
<path d="M478.64 187.616C469.118 180.698 463.025 172.573 463.215 160.068C470.134 161.02 477.941 159.814 482.194 166.543C486.701 173.842 481.877 180.571 478.64 187.616Z" fill="#CA6C46"/>
<path d="M421.96 187.615C425.832 175.555 435.607 173.65 445.065 170.032C445.065 173.968 445.255 177.332 445.001 180.632C444.493 187.932 441.383 190.852 434.147 190.154C430.148 189.836 426.213 188.567 421.96 187.615Z" fill="#CA6C46"/>
<path d="M262.392 187.555C257.505 188.571 253.188 189.904 248.872 190.285C243.159 190.792 240.43 188.571 239.668 182.921C239.161 179.05 239.541 174.987 239.541 170.544C249.063 173.273 257.949 176.257 262.392 187.555Z" fill="#CA6C46"/>
<path d="M426.281 146.614C416.823 142.17 407.365 139.822 404.763 128.523C408.952 127.254 412.951 125.794 417.14 124.905C422.028 123.89 424.694 125.667 425.392 130.491C426.09 135.569 426.027 140.711 426.281 146.614Z" fill="#CA6C46"/>
<path d="M279.402 128.774C276.355 139.755 267.341 142.358 258.011 146.484C258.455 140.39 258.582 135.058 259.407 129.79C259.978 125.854 262.835 124.014 266.834 125.029C270.96 125.981 275.022 127.441 279.402 128.774Z" fill="#CA6C46"/>
<path d="M478.523 140.838C471.16 137.474 463.987 134.998 461.321 126.81C460.433 124.081 460.433 122.049 464.051 121.859C464.686 121.859 465.257 121.542 465.892 121.415C477.571 118.939 480.427 121.415 479.602 133.348C479.539 135.633 478.967 137.981 478.523 140.838Z" fill="#CA6C46"/>
<path d="M206.91 140.901C204.752 134.49 204.879 129.539 205.196 126.682C205.577 123.382 206.339 121.985 207.481 121.16C208.878 120.081 210.846 119.891 213.639 120.398C215.035 120.652 216.495 120.97 217.891 121.287C221.065 122.049 222.969 123.445 223.414 125.286C223.794 126.809 222.906 128.523 221.002 130.745C218.716 133.347 214.464 137.41 206.91 140.901Z" fill="#CA6C46"/>
<path d="M318.812 95.3878C316.273 89.2308 310.307 84.6606 312.528 77.488C313.417 74.5682 315.131 71.9022 316.718 68.4746C322.43 72.7274 326.683 76.7898 326.874 83.5181C327.127 89.1673 323.573 92.468 318.812 95.3878Z" fill="#CA6C46"/>
<path d="M365.54 94.7569C355.194 88.6634 354.876 77.5553 364.842 70.8905C366.937 69.494 368.143 69.8114 369.539 71.8426C372.713 76.4128 373.03 82.8872 370.11 87.6478C368.65 89.9963 367.064 92.3449 365.54 94.7569Z" fill="#CA6C46"/>
<path d="M213.196 105.162C204.754 112.652 195.678 111.255 188.695 101.607C198.343 92.5938 207.992 93.8633 213.196 105.162Z" fill="#CA6C46"/>
<path d="M431.166 57.8086C439.1 62.8231 441.322 71.646 437.386 80.1516C432.816 89.9902 425.136 95.7664 414.472 98.0515C407.553 99.5114 400.761 101.796 394.16 103.637C396.128 100.019 400.063 97.861 404.38 96.4011C409.077 94.8143 413.964 93.6717 418.661 92.0849C427.357 89.165 433.641 83.8332 435.863 74.3755C437.323 68.2819 435.799 63.077 431.166 57.8086Z" fill="#19453F"/>
<path d="M292.032 103.891C283.336 101.606 276.418 99.448 269.308 97.9246C256.804 95.1952 248.806 87.8321 245.506 75.645C243.792 69.361 245.442 63.6483 249.822 59.7129C249.314 63.9657 247.727 68.8532 248.362 73.4234C249.695 83.262 256.296 89.1651 265.5 92.0849C270.832 93.7987 276.354 94.9413 281.496 97.0359C284.987 98.4958 287.97 101.225 292.032 103.891Z" fill="#19453F"/>
<path d="M294.122 227.096C282.506 222.589 278.19 213.322 281.745 206.594C295.582 207.355 299.835 214.274 294.122 227.096Z" fill="#CA6C46"/>
<path d="M402.353 206.277C405.019 215.799 401.211 222.273 390.547 226.907C383.311 216.624 388.008 208.309 402.353 206.277Z" fill="#CA6C46"/>
<path d="M495.979 102.367C491.028 106.048 486.775 110.364 480.745 109.603C477.635 109.222 474.081 107.318 471.986 104.969C470.526 103.382 477.127 96.3364 480.491 95.9556C486.522 95.3209 491.346 97.7329 495.979 102.367Z" fill="#CA6C46"/>
<path d="M201.514 118.685C195.167 126.555 196.119 134.744 200.562 142.868C203.609 148.454 208.496 151.628 215.161 151.12C221.826 150.612 224.682 145.852 226.587 140.329C227.475 137.79 227.92 135.124 228.618 132.205C230.078 138.869 228.047 146.74 223.857 151.31C219.731 155.817 211.988 156.642 206.148 153.215C197.896 148.391 192.501 136.838 194.849 127.571C195.738 124.207 198.277 121.287 200.054 118.113C200.562 118.304 201.07 118.494 201.514 118.685Z" fill="#19453F"/>
<path d="M456.108 133.981C456.934 136.837 457.505 139.821 458.647 142.55C462.646 151.881 471.977 153.975 479.848 147.501C487.972 140.836 489.686 129.538 484.989 119.128C486.449 121.286 488.353 123.19 489.305 125.539C493.558 136.076 484.989 152.071 473.945 154.674C466.137 156.451 460.298 153.722 457.441 146.105C456.045 142.36 455.664 138.17 454.839 134.235C455.22 134.171 455.664 134.108 456.108 133.981Z" fill="#19453F"/>
<path d="M336.782 109.482C333.228 106.562 329.737 103.388 324.849 105.737C326.69 108.784 329.673 111.703 329.8 114.687C329.927 117.797 327.198 120.971 325.167 125.287C322.691 119.257 314.503 117.607 317.423 109.863C318.946 105.737 321.739 103.198 326.309 103.007C331.26 102.69 334.751 104.912 336.782 109.482Z" fill="#CA6C46"/>
<path d="M360.584 106.179C356.14 103.449 352.713 105.735 349.158 108.02C350.618 104.592 353.284 102.815 357.029 102.815C362.107 102.751 365.408 105.227 367.375 109.86C370.803 117.922 361.726 118.747 360.076 124.079C353.157 116.462 353.284 113.605 360.584 106.179Z" fill="#CA6C46"/>
<path d="M403.872 144.581C393.59 148.58 389.464 147.12 384.449 138.615C388.004 136.012 392.193 133.727 396.192 135.822C399.302 137.472 401.143 141.344 403.872 144.581Z" fill="#CA6C46"/>
<path d="M282.13 145.026C284.225 134.426 290.826 132.331 299.903 139.186C295.206 147.12 291.334 148.453 282.13 145.026Z" fill="#CA6C46"/>
<path d="M410.665 150.42C417.647 154.546 424.883 154.8 429.707 151.055C434.722 147.12 436.118 138.995 433.262 130.235C438.594 135.504 438.086 147.437 432.31 152.896C426.597 158.291 416.632 157.276 410.665 150.42Z" fill="#19453F"/>
<path d="M271.779 151.751C266.764 157.083 257.497 157.527 252.419 153.148C246.135 147.689 245.945 135.692 252.292 128.329C248.928 135.057 248.039 141.976 252.356 148.324C257.18 155.56 264.352 153.973 271.779 151.751Z" fill="#19453F"/>
<path d="M360.902 171.872C364.838 166.731 369.662 163.049 376.707 164.89C381.151 166.033 384.515 168.572 385.403 173.396C386.292 178.093 384.451 181.584 380.135 184.504C383.69 176.125 383.245 172.444 378.485 168.889C373.978 165.525 368.583 166.54 360.902 171.872Z" fill="#19453F"/>
<path d="M323.835 172.319C315.139 166.225 309.616 165.59 305.173 169.335C300.92 172.89 300.793 176.698 304.983 184.696C300.412 182.284 298.889 178.666 299.016 174.413C299.143 169.907 302.761 166.098 307.775 164.765C313.234 163.305 318.947 165.717 323.835 172.319Z" fill="#19453F"/>
<path d="M313.996 144.706C304.792 138.169 294.446 130.869 285.75 124.775C296.414 128.076 306.316 136.074 313.996 144.706Z" fill="#19453F"/>
<path d="M379.438 136.898C374.931 141.722 370.361 146.547 365.854 151.307C365.601 151.117 365.347 150.863 365.156 150.672C369.599 145.785 374.043 140.897 378.422 136.01C378.803 136.327 379.121 136.581 379.438 136.898Z" fill="#19453F"/>
<path d="M511.468 101.35C499.472 55.7117 456.627 19.9755 406.99 25.6882C371 29.8141 347.514 54.5692 343.007 80.7842C342.88 81.3555 342.563 81.8633 341.928 83.3867C336.787 63.3287 330.757 52.6015 318.062 42.6994C292.482 22.7684 264.045 20.2929 234.403 31.2105C182.481 50.2529 155.123 114.68 175.879 167.808C187.432 197.324 208.251 218.08 236.18 232.362C253.889 241.375 271.789 250.071 288.927 260.1C288.927 260.1 341.801 281.427 342.055 295.201C342.055 295.201 357.543 268.288 394.549 260.1C393.533 260.354 392.517 260.544 391.565 260.798C392.137 260.735 392.708 260.671 393.279 260.608C393.47 260.608 393.596 260.608 393.787 260.608C400.325 256.228 407.18 252.42 414.226 248.801C430.348 240.486 447.042 233.187 462.403 223.729C504.677 197.704 523.973 148.892 511.468 101.35ZM479.287 195.991C466.402 210.209 450.343 219.095 432.379 225.125C417.019 230.267 401.531 235.027 386.297 240.55C378.045 243.533 370.301 247.659 361.605 251.658C359.384 242.137 357.035 232.552 355.004 222.904C350.116 199.799 350.497 177.012 359.193 154.796C370.365 126.359 401.15 108.269 432.76 119.059C448.819 124.518 459.356 118.425 466.592 100.715C465.259 102.429 463.926 104.206 462.53 105.92C455.167 114.743 448.375 116.711 437.838 112.331C424.953 106.936 411.877 104.016 397.976 106.999C394.612 107.697 391.248 108.713 387.186 109.729C390.74 99.4457 392.454 89.4167 386.932 80.086C384.202 75.4523 379.823 71.8343 375.379 68.2797C383.758 77.42 386.106 87.7664 381.473 98.9379C378.934 105.031 375.824 111.633 371.063 116.013C356.908 129.152 346.181 143.941 341.547 163.238C341.04 161.207 340.532 159.175 339.897 157.208C335.708 143.434 328.853 131.31 317.935 121.662C310.699 115.314 304.923 107.888 301.939 98.6206C298.512 88.1472 299.972 78.6895 308.033 70.6917C308.541 70.1839 308.985 69.6127 309.81 68.5971C295.528 73.9289 291.022 88.0838 296.417 109.411C295.782 109.411 295.148 109.665 294.64 109.475C279.596 104.143 264.68 104.905 250.017 110.871C248.684 111.442 247.351 111.95 246.018 112.521C235.545 116.711 228.499 114.807 221.39 105.984C219.994 104.27 218.788 102.429 217.201 100.207C224.247 119.44 236.116 124.137 251.35 119.25C275.788 111.315 296.544 118.044 313.619 136.705C322.378 146.29 326.821 158.16 329.551 170.728C334.248 192.119 331.518 213.129 326.441 234.075C324.981 239.979 323.457 245.818 321.807 252.229C298.702 238.328 272.995 232.742 248.43 224.046C228.563 217.001 210.727 206.4 198.984 188.247C171.372 145.655 176.831 84.6561 221.708 52.8554C223.104 51.8398 224.564 50.9511 226.595 50.5703C225.199 52.7919 223.675 54.95 222.469 57.2351C218.407 64.9156 221.327 72.3421 229.642 74.7541C231.229 75.1984 234.085 74.1194 235.164 72.7864C239.036 67.9623 238.909 63.3287 235.164 57.6794C233.197 54.7596 230.848 52.0937 228.246 48.7295C249.002 37.6215 270.52 35.146 292.672 42.8264C332.153 56.5369 342.182 88.4012 342.119 125.788C343.452 114.68 344.086 103.381 346.245 92.4635C351.957 63.8365 374.935 43.5246 405.022 39.3988C422.668 36.9867 439.044 40.4143 455.421 48.5391C452.818 52.0302 450.533 54.7596 448.629 57.6794C445.201 63.0748 445.392 68.724 449.137 73.3577C449.898 74.3098 451.485 75.3254 452.628 75.2619C459.991 75.008 465.386 66.8833 462.657 60.028C461.324 56.6639 459.166 53.6805 458.023 49.6182C463.164 53.744 468.623 57.5525 473.32 62.1227C517.054 104.46 504.74 167.998 479.287 195.991Z" fill="#19453F"/>
<path d="M342.049 295.202C342.049 295.202 369.724 274.636 406.158 253.118L365.154 260.799L343.572 282.888L342.049 295.202Z" fill="#19453F"/>
<path d="M342.24 295.206C336.337 290.889 330.18 286.573 323.832 282.257C307.837 271.339 292.222 261.818 277.179 253.439C291.143 255.915 305.171 258.327 319.135 260.803L340.717 282.892L342.24 295.206Z" fill="#19453F"/>
</svg>
