<svg width="63" height="47" viewBox="0 0 63 47" fill="none" xmlns="http://www.w3.org/2000/svg">
<path d="M42.4108 2.26566C42.1606 2.60131 41.9409 2.86373 41.7578 3.14446C41.4282 3.66319 41.4465 4.20633 41.8066 4.65183C41.8798 4.74337 42.0324 4.84102 42.1423 4.83491C42.8502 4.8105 43.3689 4.02935 43.1065 3.37026C42.9783 3.04681 42.7708 2.75998 42.661 2.36941C43.1553 2.76609 43.6801 3.13225 44.1318 3.57165C48.3243 7.66048 47.1343 13.7693 44.6932 16.4606C43.4543 17.8276 41.9104 18.682 40.1833 19.2618C38.7064 19.7561 37.2173 20.2138 35.7527 20.7448C34.9593 21.0316 34.2148 21.4283 33.3787 21.8127C33.1651 20.8973 32.9393 19.9758 32.744 19.0482C32.2741 16.8268 32.3107 14.6359 33.1468 12.5C34.2209 9.76593 37.1807 8.02665 40.2199 9.06411C41.7639 9.58895 42.7769 9.00309 43.4727 7.30042C43.3445 7.4652 43.2163 7.63607 43.0821 7.80085C42.3742 8.64913 41.7212 8.83831 40.7081 8.41722C39.4693 7.89849 38.2121 7.61776 36.8756 7.90459C36.5521 7.97172 36.2287 8.06937 35.8381 8.16701C36.1799 7.17837 36.3447 6.21413 35.8137 5.31703C35.5513 4.87153 35.1302 4.52368 34.703 4.18192C35.5086 5.06072 35.7344 6.05546 35.2889 7.12954C35.0448 7.71541 34.7457 8.35009 34.288 8.77118C32.9271 10.0344 31.8958 11.4564 31.4503 13.3116C31.4014 13.1163 31.3526 12.921 31.2916 12.7319C30.8888 11.4076 30.2297 10.2419 29.18 9.31433C28.4843 8.70405 27.929 7.99003 27.6421 7.09903C27.3126 6.09208 27.453 5.18277 28.228 4.41383C28.2768 4.365 28.3195 4.31008 28.3989 4.21244C27.0258 4.72507 26.5925 6.08598 27.1112 8.1365C27.0502 8.1365 26.9891 8.16091 26.9403 8.1426C25.494 7.62997 24.0598 7.7032 22.6501 8.27686C22.5219 8.33179 22.3938 8.38061 22.2656 8.43553C21.2587 8.83831 20.5813 8.65523 19.8978 7.80695C19.7635 7.64218 19.6475 7.4652 19.495 7.2516C20.1724 9.10073 21.3136 9.55233 22.7783 9.08242C25.1278 8.31958 27.1234 8.96647 28.765 10.7607C29.6072 11.6822 30.0344 12.8234 30.2968 14.0317C30.7484 16.0884 30.486 18.1084 29.9978 20.1223C29.8574 20.6898 29.711 21.2513 29.5523 21.8677C27.3309 20.5312 24.8593 19.9941 22.4975 19.158C20.5874 18.4806 18.8725 17.4615 17.7435 15.7161C15.0888 11.6212 15.6136 5.75643 19.9283 2.69895C20.0625 2.60131 20.2029 2.51587 20.3982 2.47926C20.2639 2.69285 20.1175 2.90035 20.0015 3.12005C19.6109 3.85848 19.8917 4.5725 20.6911 4.8044C20.8437 4.84712 21.1183 4.74337 21.2221 4.61522C21.5943 4.15141 21.5821 3.70591 21.2221 3.16276C21.0329 2.88204 20.8071 2.62572 20.5569 2.30228C22.5525 1.2343 24.6213 0.996291 26.7511 1.73472C30.547 3.05291 31.5113 6.11649 31.5052 9.71101C31.6333 8.64303 31.6944 7.55674 31.9019 6.50707C32.4511 3.75473 34.6603 1.80185 37.553 1.40517C39.2618 1.14886 40.8363 1.48451 42.4108 2.26566ZM41.056 9.6988C41.2452 10.4677 41.4465 11.1268 41.5564 11.8042C41.7273 12.8478 41.9226 13.9036 41.947 14.9594C41.9775 16.2715 41.1292 17.3638 40.0551 17.6202C39.0726 17.8521 38.0473 17.315 37.6934 16.3752C37.3333 15.4171 37.6323 14.7641 38.6881 14.2087C38.9444 14.0745 39.1946 13.9341 39.4448 13.7937C39.0787 13.867 38.7491 14.0195 38.4379 14.2026C37.6873 14.6359 37.1502 15.2157 37.1624 16.1433C37.1807 17.1136 37.6567 17.8154 38.4867 18.2732C40.2565 19.2496 42.4474 18.0718 42.7952 15.9602C43.0211 14.5932 42.7159 13.2933 42.2582 12.0178C41.9836 11.2245 41.6968 10.425 41.056 9.6988ZM21.9361 9.79644C21.1122 10.9316 20.5935 12.1948 20.3005 13.5435C20.0808 14.5322 20.0015 15.5269 20.3311 16.5095C21.0329 18.6393 23.7791 19.3228 25.2193 17.7239C25.8052 17.0709 26.0371 16.2959 25.7503 15.4537C25.4574 14.6054 24.7433 14.2148 23.9622 13.9219C24.1697 14.0989 24.4138 14.2331 24.6518 14.3735C25.4451 14.8434 25.6893 15.6368 25.3048 16.4789C24.8288 17.5286 23.5533 17.9863 22.528 17.4676C21.8567 17.1319 21.4417 16.5766 21.2098 15.8687C20.9108 14.9594 20.9962 14.0317 21.1793 13.1224C21.399 12.0117 21.6798 10.9071 21.9361 9.79644ZM38.4562 2.11309C36.9732 2.65624 36.4545 4.16361 37.0404 5.98223C37.5591 5.71371 38.0778 5.44519 38.5966 5.17056C38.6942 5.12174 38.7857 5.06072 38.8712 4.99969C39.5547 4.49316 39.6096 3.96222 39.0115 3.39467C38.6515 3.04681 38.3341 2.70506 38.4562 2.11309ZM25.9395 5.94561C26.6108 4.31008 25.9761 2.55249 24.5847 2.16802C24.5114 2.83932 24.5114 2.83932 24.0049 3.41908C23.4618 4.04156 23.5106 4.54809 24.2063 4.99359C24.7677 5.33534 25.3597 5.62827 25.9395 5.94561ZM40.4884 7.2577C41.9165 7.42248 43.076 6.62302 43.2652 5.35975C41.6846 4.74337 40.5616 5.50011 40.4884 7.2577ZM19.7086 5.35365C19.9283 6.64743 21.1488 7.4835 22.467 7.2455C22.29 5.42688 21.2465 4.70676 19.7086 5.35365ZM28.7284 14.2698C28.7956 14.404 28.82 14.4528 28.8383 14.4956C29.1861 15.2889 28.8322 15.8748 27.9778 15.9419C27.2271 16.0029 26.6352 15.7283 26.2934 15.057C25.9273 14.3491 25.9334 13.6168 26.4338 12.9699C27.0441 12.1826 27.8435 12.0667 28.7467 12.4511C27.6177 11.6334 26.0066 12.2681 25.6526 13.6656C25.4207 14.581 25.7137 15.3927 26.3728 16.0212C26.9586 16.5766 27.7215 16.5095 28.4233 16.2531C29.3021 15.9358 29.4791 14.9594 28.7284 14.2698ZM34.2331 14.3552C33.7449 14.8678 33.7144 15.4049 34.1172 15.8809C34.7152 16.5888 36.2409 16.601 36.8207 15.8809C37.2784 15.3072 37.5164 14.642 37.4187 13.8975C37.315 13.1163 36.8817 12.561 36.1616 12.2497C35.472 11.9507 34.7823 12.0361 34.2392 12.4939C34.4284 12.4267 34.5565 12.3718 34.6847 12.3352C35.5025 12.0911 36.3202 12.4206 36.7291 13.1713C37.1075 13.867 37.0709 14.5749 36.6437 15.2279C36.2592 15.8198 35.6795 16.0151 34.9959 15.9236C34.2514 15.826 33.928 15.3255 34.1477 14.6115C34.1721 14.5505 34.1965 14.4833 34.2331 14.3552ZM18.3294 15.6978C19.3363 15.0143 19.8672 14.1965 19.8917 12.976C19.3729 13.0736 18.8908 13.1285 18.427 13.2567C17.9815 13.3788 17.7679 13.7571 17.8533 14.1904C17.9449 14.6908 18.1524 15.1669 18.3294 15.6978ZM44.6322 15.6551C44.9434 14.9777 45.4072 14.3308 44.9678 13.6351C44.5589 12.9882 43.8083 13.1041 43.1431 13.0126C43.1309 14.2087 43.7107 14.9899 44.6322 15.6551ZM39.1824 15.6551C39.5913 15.7466 39.9697 15.8687 40.3603 15.9053C41.0499 15.9724 41.355 15.6917 41.4038 14.9899C41.4282 14.6725 41.4099 14.3491 41.4099 13.9707C40.5006 14.3186 39.5547 14.4956 39.1824 15.6551ZM23.8401 15.649C23.4129 14.5627 22.5586 14.2759 21.6431 14.0073C21.6431 14.4406 21.6004 14.8251 21.6553 15.1974C21.7286 15.7405 21.991 15.9541 22.5402 15.9053C22.9613 15.8748 23.3702 15.7466 23.8401 15.649ZM39.5974 11.7127C39.5669 11.139 39.5791 10.6508 39.512 10.1687C39.4448 9.6988 39.1885 9.53403 38.7186 9.63167C38.3158 9.71711 37.9314 9.85747 37.5286 9.97953C37.7788 11.0597 38.6942 11.2855 39.5974 11.7127ZM25.4757 9.99783C25.0546 9.86968 24.664 9.73542 24.2612 9.63167C23.8828 9.54013 23.6082 9.711 23.5472 10.0894C23.474 10.5959 23.4618 11.1085 23.4129 11.6944C24.3161 11.3038 25.1827 11.0475 25.4757 9.99783ZM44.62 11.1574C44.6627 10.8827 44.7115 10.663 44.7298 10.4372C44.8092 9.28992 44.5345 9.05191 43.4116 9.28991C43.3506 9.30212 43.2957 9.33263 43.2346 9.33263C42.8868 9.35094 42.8868 9.54623 42.9722 9.80865C43.2285 10.5959 43.9182 10.8339 44.62 11.1574ZM18.3355 11.0353C18.3904 11.078 18.4514 11.1207 18.5063 11.1635C18.9579 10.84 19.4645 10.5715 19.855 10.187C20.2761 9.76593 20.1297 9.41807 19.556 9.27771C19.4217 9.2472 19.2875 9.21668 19.1471 9.19227C18.6284 9.10073 18.3843 9.2655 18.3416 9.79644C18.311 10.2053 18.3355 10.6203 18.3355 11.0353ZM29.2655 6.78779C29.7232 6.50706 30.0588 6.18972 30.0405 5.64658C30.0222 4.99969 29.6072 4.60911 29.0641 4.20023C28.9054 4.52978 28.7467 4.78609 28.6613 5.06682C28.4477 5.75643 29.0214 6.18972 29.2655 6.78779ZM33.7571 6.72676C33.9036 6.50096 34.05 6.26906 34.1965 6.03715C34.4772 5.57945 34.4467 4.96307 34.1416 4.51757C34.0073 4.32228 33.8913 4.29177 33.69 4.42603C32.7379 5.06682 32.7623 6.1348 33.7571 6.72676ZM19.1105 7.72761C18.6101 6.64133 17.6825 6.51317 16.7548 7.38586C17.4261 8.31958 18.2988 8.45384 19.1105 7.72761ZM40.0673 3.17497C40.5128 3.6815 40.6532 4.18192 40.5189 4.76779C40.3053 5.67709 39.7012 6.18972 38.8651 6.47045C38.4135 6.62302 37.9497 6.73287 37.492 6.88544C37.0709 7.0258 36.6986 7.23329 36.5094 7.58115C37.1441 7.40417 37.7971 7.18447 38.4623 7.04411C39.4876 6.82441 40.226 6.27516 40.6654 5.32313C41.0499 4.49926 40.8363 3.65098 40.0673 3.17497ZM26.6901 7.60556C26.2995 7.34924 26.0127 7.08683 25.6771 6.94646C25.1827 6.74507 24.6518 6.63522 24.1392 6.47045C23.2543 6.18362 22.6135 5.62217 22.4914 4.67624C22.4304 4.23685 22.583 3.76694 22.6318 3.35805C22.2168 3.73642 22.052 4.27957 22.2168 4.88984C22.5341 6.06157 23.3092 6.77559 24.5053 7.0319C25.1888 7.17837 25.8601 7.38586 26.6901 7.60556ZM26.8915 19.451C27.4407 18.2182 27.0319 17.553 25.7015 17.4798C25.3597 18.1267 25.7747 19.0177 26.8915 19.451ZM37.2967 17.4493C35.9175 17.6446 35.4659 18.444 36.1616 19.4327C37.1868 18.9933 37.553 18.3708 37.2967 17.4493ZM46.2982 7.45909C45.8527 7.01359 45.3889 6.78779 44.8092 6.84882C44.4857 6.88544 43.851 7.55674 43.9914 7.71541C44.1989 7.94121 44.5345 8.12429 44.8336 8.16091C45.4133 8.22804 45.8161 7.81305 46.2982 7.45909ZM17.9876 9.0275C17.9388 9.00919 17.8961 8.98478 17.8472 8.96647C17.6764 9.2655 17.4261 9.55233 17.3468 9.87578C17.121 10.7607 17.6458 11.8775 18.4331 12.3413C19.0007 12.6708 19.7391 12.5915 20.1358 12.1582C20.5385 11.7249 20.7338 10.9621 20.5935 10.3213C20.5263 10.602 20.4836 10.8583 20.3982 11.1024C20.2151 11.6334 19.9405 12.0911 19.2997 12.1399C18.6589 12.1887 18.189 11.8836 17.8961 11.3465C17.4689 10.5776 17.3834 9.79034 17.9876 9.0275ZM42.4657 10.4983C42.423 10.5044 42.3803 10.5166 42.3375 10.5227C42.4169 10.9071 42.4474 11.3038 42.5878 11.6639C42.8685 12.3962 43.4238 12.6586 44.1745 12.4878C45.2363 12.2436 46.0663 10.7058 45.6513 9.68659C45.5598 9.46079 45.3767 9.27161 45.2363 9.07022C45.688 10.0711 45.5232 11.1513 44.742 11.7981C43.9853 12.4206 43.0882 12.2192 42.7037 11.3221C42.6 11.0658 42.545 10.779 42.4657 10.4983ZM30.9925 8.1426C30.7973 7.7032 30.4616 7.48961 29.9856 7.51402C29.5462 7.53233 29.2838 7.78254 29.1312 8.17311C28.8505 8.92375 29.6377 9.07632 29.8757 9.65608C30.071 9.2472 30.3334 8.93596 30.3212 8.63692C30.309 8.35009 30.0222 8.06937 29.8452 7.77644C30.3151 7.55674 30.6508 7.85577 30.9925 8.1426ZM33.2811 7.82526C32.5793 8.53928 32.5671 8.8139 33.2384 9.54623C33.4031 9.0397 34.2758 8.95427 33.9402 8.17922C33.751 7.73372 33.4336 7.49571 32.9454 7.50181C32.5854 7.50792 32.329 7.67879 32.1887 8.00224C32.5304 7.78254 32.8539 7.56894 33.2811 7.82526ZM37.4431 11.5174C37.1868 11.2062 37.0037 10.8339 36.7108 10.6752C36.3263 10.4738 35.9236 10.6935 35.5818 10.9438C36.0578 11.7615 36.4545 11.9019 37.4431 11.5174ZM25.7381 11.5601C26.623 11.8897 26.9952 11.7615 27.4468 10.9987C26.5742 10.3396 25.9395 10.541 25.7381 11.5601ZM38.0961 12.0789C38.6759 12.7319 39.6279 12.8356 40.1772 12.3169C40.7325 11.792 40.7813 10.6447 40.2687 10.1382C40.5433 10.9804 40.4091 11.7615 39.927 12.1399C39.457 12.5 38.7674 12.4755 38.0961 12.0789ZM24.7433 12.207C24.0293 12.4206 23.3397 12.5671 22.8759 11.8775C22.4609 11.2672 22.5463 10.602 22.8698 9.95512C22.2595 10.6569 22.2778 11.8164 22.882 12.3413C23.3702 12.7685 24.2612 12.7258 24.7433 12.207ZM33.3116 14.1416C34.05 13.6229 34.5627 13.5313 35.002 13.8548C35.4537 14.1904 35.4964 14.5505 35.1607 15.356C35.5757 15.0814 35.7466 14.7397 35.6672 14.2881C35.5818 13.8243 35.2584 13.5801 34.8312 13.4703C34.1538 13.2994 33.6961 13.6534 33.3116 14.1416ZM29.7476 14.1843C29.2777 13.5496 28.7284 13.3177 28.2036 13.4581C27.7215 13.5862 27.3736 13.9463 27.3614 14.3857C27.3553 14.8007 27.4957 15.1485 27.9351 15.3743C27.5323 14.6054 27.5445 14.2453 27.9534 13.8975C28.3867 13.5374 28.9115 13.5985 29.7476 14.1843ZM28.8017 11.5296C28.0632 10.6996 27.1112 9.9307 26.0859 9.61336C26.922 10.2053 27.9168 10.9071 28.8017 11.5296ZM35.0936 10.779C35.0631 10.7485 35.0265 10.7241 34.9959 10.6935C34.5688 11.1635 34.1416 11.6334 33.7205 12.1033C33.7449 12.1216 33.7693 12.146 33.7876 12.1643C34.227 11.7005 34.6603 11.2367 35.0936 10.779Z" fill="white" style="fill:white;fill-opacity:1;"/>
<path d="M41.0556 9.69824C41.6964 10.4245 41.9832 11.2239 42.2701 12.0173C42.7278 13.2928 43.0329 14.5926 42.8071 15.9597C42.4593 18.0712 40.2623 19.249 38.4986 18.2726C37.6686 17.8149 37.1926 17.1131 37.1743 16.1427C37.156 15.209 37.6991 14.6293 38.4498 14.2021C38.761 14.0251 39.0905 13.8664 39.4567 13.7932C39.2065 13.9335 38.9502 14.0739 38.7 14.2082C37.6381 14.7635 37.3391 15.4165 37.7052 16.3746C38.0592 17.3145 39.0783 17.8515 40.067 17.6196C41.1411 17.3633 41.9954 16.2709 41.9588 14.9588C41.9344 13.903 41.7391 12.8534 41.5683 11.8037C41.4462 11.1263 41.2387 10.4672 41.0556 9.69824Z" fill="#19453F" style="fill:#19453F;fill:color(display-p3 0.0980 0.2706 0.2471);fill-opacity:1;"/>
<path d="M21.9358 9.79785C21.6795 10.9086 21.3988 12.007 21.173 13.1238C20.996 14.0332 20.9106 14.9608 21.2035 15.8701C21.4354 16.5719 21.8504 17.1272 22.5217 17.469C23.547 17.9877 24.8224 17.53 25.2985 16.4804C25.6829 15.6382 25.4327 14.8448 24.6455 14.3749C24.4075 14.2345 24.1633 14.1003 23.9559 13.9233C24.737 14.2162 25.451 14.6068 25.744 15.4551C26.0369 16.3034 25.805 17.0723 25.213 17.7253C23.7728 19.3242 21.0265 18.6407 20.3247 16.5109C20.0013 15.5283 20.0745 14.5336 20.2942 13.5449C20.5993 12.1962 21.112 10.9391 21.9358 9.79785Z" fill="#19453F" style="fill:#19453F;fill:color(display-p3 0.0980 0.2706 0.2471);fill-opacity:1;"/>
<path d="M38.4566 2.11328C38.3345 2.70525 38.6519 3.0531 39.0119 3.39486C39.61 3.96852 39.5551 4.49335 38.8716 4.99988C38.7861 5.06091 38.6946 5.12193 38.5969 5.17075C38.0782 5.44538 37.5656 5.7139 37.0407 5.98242C36.461 4.1577 36.9797 2.65643 38.4566 2.11328Z" fill="#CA6C46" style="fill:#CA6C46;fill:color(display-p3 0.7922 0.4235 0.2745);fill-opacity:1;"/>
<path d="M25.9403 5.94483C25.3605 5.62749 24.7686 5.34066 24.2132 4.9867C23.5114 4.5473 23.4626 4.03467 24.0118 3.41219C24.5184 2.83243 24.5184 2.83243 24.5916 2.16113C25.9769 2.54561 26.6116 4.30319 25.9403 5.94483Z" fill="#CA6C46" style="fill:#CA6C46;fill:color(display-p3 0.7922 0.4235 0.2745);fill-opacity:1;"/>
<path d="M40.4883 7.25659C40.5615 5.5051 41.6905 4.74226 43.265 5.35863C43.0697 6.6158 41.9163 7.41526 40.4883 7.25659Z" fill="#CA6C46" style="fill:#CA6C46;fill:color(display-p3 0.7922 0.4235 0.2745);fill-opacity:1;"/>
<path d="M19.709 5.35323C21.2469 4.70634 22.2904 5.42036 22.4674 7.24508C21.1492 7.48919 19.9287 6.64701 19.709 5.35323Z" fill="#CA6C46" style="fill:#CA6C46;fill:color(display-p3 0.7922 0.4235 0.2745);fill-opacity:1;"/>
<path d="M28.7287 14.2712C29.4854 14.9547 29.3023 15.9372 28.4235 16.2485C27.7217 16.4987 26.9589 16.5719 26.373 16.0166C25.7139 15.3941 25.421 14.5763 25.6529 13.6609C26.0068 12.2634 27.618 11.6287 28.747 12.4465C27.8438 12.0681 27.0443 12.178 26.434 12.9652C25.9336 13.6121 25.9275 14.3444 26.2937 15.0523C26.6354 15.7236 27.2274 15.9983 27.978 15.9372C28.8324 15.8701 29.1864 15.2781 28.8385 14.4909C28.8141 14.4543 28.7897 14.4116 28.7287 14.2712Z" fill="#19453F" style="fill:#19453F;fill:color(display-p3 0.0980 0.2706 0.2471);fill-opacity:1;"/>
<path d="M34.2317 14.3546C34.189 14.4827 34.1646 14.5499 34.1463 14.617C33.9266 15.3371 34.244 15.8314 34.9946 15.9291C35.6781 16.0206 36.2579 15.8192 36.6423 15.2334C37.0695 14.5743 37.1061 13.8725 36.7278 13.1768C36.3189 12.42 35.5011 12.0966 34.6833 12.3407C34.5552 12.3773 34.427 12.4322 34.2379 12.4993C34.781 12.0416 35.4706 11.9562 36.1602 12.2552C36.8803 12.5665 37.3136 13.1218 37.4174 13.903C37.515 14.6475 37.277 15.3127 36.8193 15.8864C36.2396 16.6065 34.7139 16.5943 34.1158 15.8864C33.7191 15.4043 33.7435 14.8611 34.2317 14.3546Z" fill="#19453F" style="fill:#19453F;fill:color(display-p3 0.0980 0.2706 0.2471);fill-opacity:1;"/>
<path d="M18.3285 15.6984C18.1515 15.1674 17.9501 14.6914 17.8525 14.191C17.7671 13.7577 17.9807 13.3854 18.4262 13.2573C18.89 13.1291 19.3721 13.0681 19.8908 12.9766C19.8664 14.1971 19.3355 15.0149 18.3285 15.6984Z" fill="#CA6C46" style="fill:#CA6C46;fill:color(display-p3 0.7922 0.4235 0.2745);fill-opacity:1;"/>
<path d="M44.6318 15.6544C43.7164 14.9893 43.1305 14.2081 43.1489 13.0059C43.8141 13.0974 44.5647 12.9814 44.9736 13.6283C45.4069 14.3302 44.9431 14.977 44.6318 15.6544Z" fill="#CA6C46" style="fill:#CA6C46;fill:color(display-p3 0.7922 0.4235 0.2745);fill-opacity:1;"/>
<path d="M39.1816 15.6553C39.5539 14.4958 40.4937 14.3127 41.403 13.9648C41.403 14.3432 41.4213 14.6667 41.3969 14.984C41.3481 15.6858 41.0491 15.9665 40.3534 15.8994C39.9689 15.8689 39.5905 15.7468 39.1816 15.6553Z" fill="#CA6C46" style="fill:#CA6C46;fill:color(display-p3 0.7922 0.4235 0.2745);fill-opacity:1;"/>
<path d="M23.841 15.6492C23.3711 15.7468 22.9561 15.875 22.5411 15.9116C21.9919 15.9604 21.7295 15.7469 21.6562 15.2037C21.6074 14.8314 21.644 14.4409 21.644 14.0137C22.5595 14.2761 23.4138 14.5629 23.841 15.6492Z" fill="#CA6C46" style="fill:#CA6C46;fill:color(display-p3 0.7922 0.4235 0.2745);fill-opacity:1;"/>
<path d="M39.5981 11.7132C38.6888 11.286 37.7795 11.0602 37.5293 9.97395C37.9321 9.8519 38.3166 9.71153 38.7193 9.62609C39.1892 9.52845 39.4456 9.69933 39.5127 10.1631C39.5798 10.6514 39.5737 11.1457 39.5981 11.7132Z" fill="#CA6C46" style="fill:#CA6C46;fill:color(display-p3 0.7922 0.4235 0.2745);fill-opacity:1;"/>
<path d="M25.4765 9.99785C25.1836 11.0536 24.317 11.3038 23.4199 11.7005C23.4626 11.1147 23.4748 10.602 23.5542 10.0955C23.6091 9.71713 23.8837 9.54015 24.2682 9.63779C24.6649 9.72933 25.0555 9.8697 25.4765 9.99785Z" fill="#CA6C46" style="fill:#CA6C46;fill:color(display-p3 0.7922 0.4235 0.2745);fill-opacity:1;"/>
<path d="M44.621 11.1579C43.9131 10.8345 43.2235 10.5964 42.9672 9.80919C42.8817 9.54678 42.8817 9.35149 43.2296 9.33318C43.2906 9.33318 43.3455 9.30267 43.4066 9.29046C44.5295 9.05245 44.8041 9.29046 44.7248 10.4378C44.7187 10.6575 44.6637 10.8833 44.621 11.1579Z" fill="#CA6C46" style="fill:#CA6C46;fill:color(display-p3 0.7922 0.4235 0.2745);fill-opacity:1;"/>
<path d="M18.5061 11.164C18.2986 10.5476 18.3108 10.0716 18.3413 9.79697C18.3779 9.47963 18.4512 9.34537 18.561 9.26603C18.6953 9.16229 18.8845 9.14398 19.153 9.1928C19.2872 9.21721 19.4276 9.24773 19.5619 9.27824C19.867 9.35147 20.0501 9.48573 20.0928 9.66271C20.1294 9.80918 20.044 9.97395 19.8609 10.1875C19.6412 10.4378 19.2323 10.8283 18.5061 11.164Z" fill="#CA6C46" style="fill:#CA6C46;fill:color(display-p3 0.7922 0.4235 0.2745);fill-opacity:1;"/>
<path d="M29.2662 6.78776C29.0221 6.19579 28.4484 5.7564 28.662 5.06679C28.7474 4.78606 28.9122 4.52974 29.0648 4.2002C29.614 4.60908 30.0229 4.99966 30.0412 5.64655C30.0656 6.18969 29.7239 6.50703 29.2662 6.78776Z" fill="#CA6C46" style="fill:#CA6C46;fill:color(display-p3 0.7922 0.4235 0.2745);fill-opacity:1;"/>
<path d="M33.7566 6.72726C32.7618 6.1414 32.7313 5.07342 33.6895 4.43263C33.8908 4.29837 34.0068 4.32889 34.1411 4.52418C34.4462 4.96357 34.4767 5.58605 34.196 6.04376C34.0556 6.26956 33.9031 6.49536 33.7566 6.72726Z" fill="#CA6C46" style="fill:#CA6C46;fill:color(display-p3 0.7922 0.4235 0.2745);fill-opacity:1;"/>
<path d="M19.1115 7.72798C18.2999 8.4481 17.4272 8.31384 16.7559 7.38623C17.6835 6.51964 18.6111 6.64169 19.1115 7.72798Z" fill="#CA6C46" style="fill:#CA6C46;fill:color(display-p3 0.7922 0.4235 0.2745);fill-opacity:1;"/>
<path d="M40.0677 3.17578C40.8305 3.6579 41.0441 4.50618 40.6657 5.32395C40.2263 6.26987 39.4879 6.82522 38.4626 7.04492C37.7974 7.18528 37.1445 7.40498 36.5098 7.58196C36.699 7.2341 37.0773 7.02661 37.4923 6.88625C37.9439 6.73368 38.4138 6.62383 38.8654 6.47126C39.7015 6.19054 40.3057 5.67791 40.5193 4.7686C40.6596 4.18273 40.5132 3.68231 40.0677 3.17578Z" fill="#19453F" style="fill:#19453F;fill:color(display-p3 0.0980 0.2706 0.2471);fill-opacity:1;"/>
<path d="M26.6897 7.60493C25.8536 7.38523 25.1884 7.17774 24.5049 7.03127C23.3026 6.76885 22.5337 6.06094 22.2163 4.88921C22.0516 4.28504 22.2102 3.73579 22.6313 3.35742C22.5825 3.76631 22.4299 4.23622 22.491 4.67561C22.6191 5.62154 23.2538 6.18909 24.1387 6.46982C24.6513 6.63459 25.1823 6.74444 25.6766 6.94583C26.0123 7.0862 26.2991 7.34862 26.6897 7.60493Z" fill="#19453F" style="fill:#19453F;fill:color(display-p3 0.0980 0.2706 0.2471);fill-opacity:1;"/>
<path d="M26.8924 19.4497C25.7756 19.0164 25.3606 18.1254 25.7023 17.4785C27.0327 17.5517 27.4416 18.2169 26.8924 19.4497Z" fill="#CA6C46" style="fill:#CA6C46;fill:color(display-p3 0.7922 0.4235 0.2745);fill-opacity:1;"/>
<path d="M37.2978 17.4492C37.5541 18.3646 37.1879 18.9871 36.1627 19.4326C35.4669 18.444 35.9185 17.6445 37.2978 17.4492Z" fill="#CA6C46" style="fill:#CA6C46;fill:color(display-p3 0.7922 0.4235 0.2745);fill-opacity:1;"/>
<path d="M46.2975 7.45901C45.8215 7.81297 45.4126 8.22796 44.8328 8.15472C44.5338 8.11811 44.1921 7.93502 43.9907 7.70922C43.8503 7.55665 44.485 6.87925 44.8084 6.84264C45.3882 6.78161 45.852 7.01351 46.2975 7.45901Z" fill="#CA6C46" style="fill:#CA6C46;fill:color(display-p3 0.7922 0.4235 0.2745);fill-opacity:1;"/>
<path d="M17.9869 9.02856C17.3766 9.7853 17.4682 10.5726 17.8953 11.3537C18.1883 11.8907 18.6582 12.1959 19.299 12.1471C19.9398 12.0982 20.2144 11.6405 20.3975 11.1096C20.4829 10.8655 20.5256 10.6092 20.5928 10.3284C20.7331 10.9692 20.5378 11.726 20.1351 12.1654C19.7384 12.5987 18.9938 12.678 18.4324 12.3484C17.639 11.8846 17.1203 10.7739 17.3461 9.88294C17.4315 9.5595 17.6756 9.27877 17.8465 8.97363C17.8953 8.99194 17.9442 9.01025 17.9869 9.02856Z" fill="#19453F" style="fill:#19453F;fill:color(display-p3 0.0980 0.2706 0.2471);fill-opacity:1;"/>
<path d="M42.4658 10.4984C42.5451 10.773 42.6001 11.0598 42.7099 11.3222C43.0944 12.2193 43.9915 12.4207 44.7482 11.7982C45.5294 11.1574 45.6942 10.0712 45.2426 9.07031C45.3829 9.27781 45.566 9.46089 45.6575 9.68669C46.0664 10.6997 45.2426 12.2376 44.1807 12.4878C43.43 12.6587 42.8686 12.3963 42.594 11.664C42.4597 11.3039 42.4231 10.9011 42.3438 10.5228C42.3804 10.5167 42.4231 10.5106 42.4658 10.4984Z" fill="#19453F" style="fill:#19453F;fill:color(display-p3 0.0980 0.2706 0.2471);fill-opacity:1;"/>
<path d="M30.9933 8.14292C30.6516 7.8622 30.3159 7.55706 29.846 7.78286C30.023 8.07579 30.3098 8.35652 30.322 8.64335C30.3342 8.94238 30.0718 9.24752 29.8765 9.66251C29.6385 9.08275 28.8512 8.92407 29.132 8.17954C29.2784 7.78286 29.547 7.53875 29.9864 7.52044C30.4624 7.48993 30.798 7.70353 30.9933 8.14292Z" fill="#CA6C46" style="fill:#CA6C46;fill:color(display-p3 0.7922 0.4235 0.2745);fill-opacity:1;"/>
<path d="M33.2821 7.82454C32.8549 7.56212 32.5253 7.78182 32.1836 8.00152C32.324 7.67197 32.5803 7.50109 32.9403 7.50109C33.4286 7.49499 33.7459 7.733 33.9351 8.1785C34.2646 8.95354 33.3919 9.03288 33.2333 9.54551C32.5681 8.81318 32.5803 8.53856 33.2821 7.82454Z" fill="#CA6C46" style="fill:#CA6C46;fill:color(display-p3 0.7922 0.4235 0.2745);fill-opacity:1;"/>
<path d="M37.4436 11.5166C36.455 11.9011 36.0583 11.7607 35.5762 10.943C35.9179 10.6927 36.3207 10.473 36.7052 10.6744C37.0042 10.8331 37.1812 11.2054 37.4436 11.5166Z" fill="#CA6C46" style="fill:#CA6C46;fill:color(display-p3 0.7922 0.4235 0.2745);fill-opacity:1;"/>
<path d="M25.7383 11.5607C25.9397 10.5415 26.5744 10.3401 27.447 10.9992C26.9954 11.7621 26.6232 11.8902 25.7383 11.5607Z" fill="#CA6C46" style="fill:#CA6C46;fill:color(display-p3 0.7922 0.4235 0.2745);fill-opacity:1;"/>
<path d="M38.0977 12.0784C38.769 12.475 39.4647 12.4995 39.9285 12.1394C40.4106 11.761 40.5449 10.9799 40.2702 10.1377C40.7829 10.6442 40.734 11.7915 40.1787 12.3164C39.6294 12.8351 38.6713 12.7375 38.0977 12.0784Z" fill="#19453F" style="fill:#19453F;fill:color(display-p3 0.0980 0.2706 0.2471);fill-opacity:1;"/>
<path d="M24.7428 12.207C24.2607 12.7196 23.3697 12.7623 22.8815 12.3412C22.2773 11.8164 22.259 10.663 22.8693 9.95508C22.5459 10.602 22.4604 11.2672 22.8754 11.8774C23.3392 12.5732 24.0288 12.4206 24.7428 12.207Z" fill="#19453F" style="fill:#19453F;fill:color(display-p3 0.0980 0.2706 0.2471);fill-opacity:1;"/>
<path d="M33.3125 14.1414C33.6909 13.6471 34.1547 13.2931 34.8321 13.4701C35.2593 13.5799 35.5827 13.824 35.6682 14.2878C35.7536 14.7394 35.5766 15.0751 35.1616 15.3558C35.5034 14.5503 35.4607 14.1963 35.003 13.8545C34.5697 13.5311 34.0509 13.6287 33.3125 14.1414Z" fill="#19453F" style="fill:#19453F;fill:color(display-p3 0.0980 0.2706 0.2471);fill-opacity:1;"/>
<path d="M29.7482 14.1847C28.9121 13.5988 28.3812 13.5378 27.954 13.8978C27.5451 14.2396 27.5329 14.6058 27.9357 15.3747C27.4963 15.1428 27.3498 14.7949 27.362 14.3861C27.3742 13.9528 27.7221 13.5866 28.2042 13.4584C28.729 13.3181 29.2783 13.55 29.7482 14.1847Z" fill="#19453F" style="fill:#19453F;fill:color(display-p3 0.0980 0.2706 0.2471);fill-opacity:1;"/>
<path d="M28.8017 11.5295C27.9168 10.901 26.922 10.1991 26.0859 9.61328C27.1112 9.93062 28.0632 10.6996 28.8017 11.5295Z" fill="#19453F" style="fill:#19453F;fill:color(display-p3 0.0980 0.2706 0.2471);fill-opacity:1;"/>
<path d="M35.0938 10.7788C34.6605 11.2426 34.2211 11.7064 33.7878 12.1641C33.7634 12.1458 33.739 12.1214 33.7207 12.1031C34.1479 11.6332 34.5751 11.1633 34.9962 10.6934C35.0328 10.7239 35.0633 10.7483 35.0938 10.7788Z" fill="#19453F" style="fill:#19453F;fill:color(display-p3 0.0980 0.2706 0.2471);fill-opacity:1;"/>
<path d="M47.7872 7.36102C46.6338 2.97314 42.5144 -0.462702 37.7421 0.0865453C34.2818 0.483224 32.0238 2.86329 31.5905 5.38373C31.5783 5.43865 31.5478 5.48747 31.4868 5.63394C30.9924 3.70547 30.4127 2.67411 29.1921 1.72208C26.7327 -0.194182 23.9987 -0.432188 21.1487 0.617484C16.1567 2.44831 13.5264 8.64259 15.522 13.7506C16.6327 16.5884 18.6344 18.584 21.3196 19.9571C23.0222 20.8237 24.7432 21.6597 26.391 22.624C26.391 22.624 31.4745 24.6745 31.499 25.9988C31.499 25.9988 32.988 23.4112 36.5459 22.624C36.4483 22.6484 36.3506 22.6667 36.2591 22.6911C36.314 22.685 36.3689 22.6789 36.4239 22.6728C36.4422 22.6728 36.4544 22.6728 36.4727 22.6728C37.1013 22.2517 37.7604 21.8855 38.4378 21.5377C39.9879 20.7382 41.5929 20.0364 43.0698 19.1271C47.1342 16.625 48.9894 11.932 47.7872 7.36102ZM44.6931 16.4602C43.4542 17.8272 41.9102 18.6816 40.1832 19.2614C38.7063 19.7557 37.2172 20.2134 35.7526 20.7443C34.9592 21.0312 34.2147 21.4278 33.3786 21.8123C33.165 20.8969 32.9392 19.9754 32.7439 19.0478C32.274 16.8264 32.3106 14.6355 33.1467 12.4995C34.2208 9.7655 37.1806 8.02621 40.2198 9.06368C41.7638 9.58852 42.7768 9.00265 43.4725 7.29999C43.3444 7.46476 43.2162 7.63564 43.082 7.80041C42.3741 8.64869 41.7211 8.83788 40.708 8.41679C39.4691 7.89806 38.212 7.61733 36.8755 7.90416C36.552 7.97129 36.2286 8.06893 35.838 8.16658C36.1798 7.17793 36.3445 6.2137 35.8136 5.3166C35.5512 4.8711 35.1301 4.52324 34.7029 4.18149C35.5085 5.06028 35.7343 6.05503 35.2888 7.12911C35.0447 7.71497 34.7456 8.34966 34.2879 8.77075C32.927 10.034 31.8956 11.456 31.4501 13.3112C31.4013 13.1159 31.3525 12.9206 31.2915 12.7314C30.8887 11.4071 30.2296 10.2415 29.1799 9.31389C28.4842 8.70362 27.9289 7.9896 27.642 7.0986C27.3125 6.09164 27.4528 5.18234 28.2279 4.41339C28.2767 4.36457 28.3194 4.30964 28.3988 4.212C27.0256 4.72463 26.5924 6.08554 27.1111 8.13606C27.0501 8.13606 26.989 8.16047 26.9402 8.14217C25.4939 7.62954 24.0597 7.70277 22.65 8.27643C22.5218 8.33135 22.3937 8.38017 22.2655 8.4351C21.2586 8.83788 20.5811 8.6548 19.8976 7.80652C19.7634 7.64174 19.6474 7.46476 19.4949 7.25117C20.1723 9.1003 21.3135 9.5519 22.7781 9.08199C25.1277 8.31915 27.1233 8.96604 28.7649 10.7602C29.6071 11.6818 30.0343 12.823 30.2967 14.0313C30.7483 16.0879 30.4859 18.1079 29.9977 20.1219C29.8573 20.6894 29.7109 21.2509 29.5522 21.8672C27.3308 20.5307 24.8592 19.9937 22.4974 19.1576C20.5873 18.4802 18.8724 17.4611 17.7434 15.7157C15.0887 11.6207 15.6135 5.75599 19.9282 2.69852C20.0624 2.60087 20.2028 2.51544 20.3981 2.47882C20.2638 2.69242 20.1173 2.89991 20.0014 3.11961C19.6108 3.85804 19.8915 4.57206 20.691 4.80397C20.8436 4.84668 21.1182 4.74294 21.2219 4.61478C21.5942 4.15097 21.582 3.70547 21.2219 3.16233C21.0328 2.8816 20.807 2.62529 20.5567 2.30184C22.5523 1.23386 24.6212 0.995854 26.751 1.73429C30.5469 3.05248 31.5112 6.11606 31.5051 9.71057C31.6332 8.64259 31.6942 7.5563 31.9017 6.50663C32.451 3.75429 34.6602 1.80142 37.5529 1.40474C39.2494 1.17283 40.824 1.50238 42.3985 2.28353C42.1482 2.61918 41.9286 2.8816 41.7455 3.16233C41.4159 3.68106 41.4342 4.22421 41.7943 4.66971C41.8675 4.76125 42.0201 4.85889 42.1299 4.85279C42.8379 4.82838 43.3566 4.04723 43.0942 3.38813C42.966 3.06468 42.7585 2.77786 42.6487 2.38728C43.143 2.78396 43.6678 3.15012 44.1194 3.58952C48.3242 7.66005 47.1403 13.7689 44.6931 16.4602Z" fill="#19453F" style="fill:#19453F;fill:color(display-p3 0.0980 0.2706 0.2471);fill-opacity:1;"/>
<path d="M31.498 25.9992C31.498 25.9992 34.1588 24.022 37.6618 21.9531L33.7194 22.6916L31.6445 24.8153L31.498 25.9992Z" fill="#19453F" style="fill:#19453F;fill:color(display-p3 0.0980 0.2706 0.2471);fill-opacity:1;"/>
<path d="M31.517 26C30.9495 25.585 30.3575 25.17 29.7472 24.755C28.2093 23.7053 26.7081 22.7899 25.2617 21.9844C26.6043 22.2224 27.953 22.4543 29.2956 22.6923L31.3706 24.816L31.517 26Z" fill="#19453F" style="fill:#19453F;fill:color(display-p3 0.0980 0.2706 0.2471);fill-opacity:1;"/>
<path d="M0.414062 32.6816H1.67301L5.36202 41.7505L9.03639 32.6816H10.2953V43.2875H9.14618V35.4704L5.99149 43.2949H4.74719L1.5925 35.485V43.2949H0.428701V32.6816H0.414062Z" fill="#19453F" style="fill:#19453F;fill:color(display-p3 0.0980 0.2706 0.2471);fill-opacity:1;"/>
<path d="M17.4473 36.0107H18.5965L14.3805 46.4044H13.246L14.4903 43.3082L11.5332 36.0107H12.6824L15.0612 41.9249L17.4473 36.0107Z" fill="#19453F" style="fill:#19453F;fill:color(display-p3 0.0980 0.2706 0.2471);fill-opacity:1;"/>
<path d="M19.8398 32.6807H21.0988L24.7878 41.7495L28.4622 32.6807H29.7138V43.2866H28.5646V35.4694L25.41 43.2939H24.1656L21.0036 35.484V43.2939H19.8398V32.6807Z" fill="#19453F" style="fill:#19453F;fill:color(display-p3 0.0980 0.2706 0.2471);fill-opacity:1;"/>
<path d="M35.087 42.5766C36.7046 42.5766 37.1584 42.0496 37.6195 41.2518L38.4613 41.8154C37.7733 42.8548 36.9828 43.5428 35.1163 43.5428C33.3303 43.5428 31.4785 41.8008 31.4785 39.6562C31.4785 37.5116 33.3011 35.7695 35.087 35.7695C36.873 35.7695 38.6955 37.5116 38.6955 39.6562H32.5325C32.5325 41.2664 33.7476 42.5766 35.087 42.5766ZM37.4805 38.6827C37.1218 37.5482 36.141 36.7211 35.087 36.7211C34.033 36.7211 33.0522 37.5482 32.6935 38.6827H37.4805Z" fill="#19453F" style="fill:#19453F;fill:color(display-p3 0.0980 0.2706 0.2471);fill-opacity:1;"/>
<path d="M46.5485 43.2876H45.4872V38.6836C45.4872 37.6223 44.6601 36.722 43.328 36.722C41.9958 36.722 41.1687 38.0322 41.1687 39.6498V43.2876H40.1074V36.0047H41.1687V36.6562C41.747 36.0633 42.4936 35.7559 43.328 35.7559C45.1139 35.7559 46.5485 36.8172 46.5485 38.6836V43.2876Z" fill="#19453F" style="fill:#19453F;fill:color(display-p3 0.0980 0.2706 0.2471);fill-opacity:1;"/>
<path d="M47.8882 36.0106H48.8177V33.6025H49.8791V36.0106H51.5625V36.9768H49.8791V43.2935H48.8177V36.9768H47.8809V36.0106H47.8882Z" fill="#19453F" style="fill:#19453F;fill:color(display-p3 0.0980 0.2706 0.2471);fill-opacity:1;"/>
<path d="M55.8824 35.7617C56.8193 35.7617 57.7489 36.2302 58.4369 36.9767V36.0106H59.4983V43.2934H58.4369V42.3419C57.7489 43.0885 56.834 43.5423 55.919 43.5423C54.1331 43.5423 52.2813 41.8003 52.2813 39.6557C52.274 37.5037 54.0892 35.7617 55.8824 35.7617ZM55.8824 42.5761C57.2219 42.5761 58.4369 41.266 58.4369 39.6484C58.4369 38.0307 57.2219 36.7206 55.8824 36.7206C54.543 36.7206 53.328 38.0307 53.328 39.6484C53.328 41.266 54.543 42.5761 55.8824 42.5761Z" fill="#19453F" style="fill:#19453F;fill:color(display-p3 0.0980 0.2706 0.2471);fill-opacity:1;"/>
<path d="M61.5254 32H62.5867V43.2939H61.5254V32Z" fill="#19453F" style="fill:#19453F;fill:color(display-p3 0.0980 0.2706 0.2471);fill-opacity:1;"/>
</svg>
