<svg width="51" height="50" viewBox="0 0 51 50" fill="none" xmlns="http://www.w3.org/2000/svg">
<path d="M47.725 5.895H18.41C16.4167 5.895 14.5533 6.415 12.82 7.455C11.13 8.495 9.78667 9.90333 8.79 11.68C7.79333 13.4133 7.295 15.2983 7.295 17.335C7.295 19.3283 7.79333 21.1917 8.79 22.925C9.78667 24.6583 11.13 26.045 12.82 27.085C14.5533 28.125 16.4167 28.645 18.41 28.645H39.275L26.47 15.125H34.985L50.195 31.505L31.8 49.64L27.38 45.35L39.275 34.3H17.825C14.7917 34.3 11.975 33.5417 9.375 32.025C6.775 30.5083 4.71667 28.45 3.2 25.85C1.68333 23.25 0.925 20.4117 0.925 17.335C0.925 14.215 1.68333 11.355 3.2 8.755C4.71667 6.155 6.775 4.09667 9.375 2.58C11.975 1.02 14.7917 0.239996 17.825 0.239996H47.725V5.895Z" fill="#F5FF92"/>
</svg>
