<svg width="157" height="40" viewBox="0 0 157 40" fill="none" xmlns="http://www.w3.org/2000/svg">
<path d="M42.9563 3.48567C42.5713 4.00206 42.2333 4.40579 41.9516 4.83769C41.4446 5.63576 41.4728 6.47138 42.0268 7.15678C42.1394 7.29762 42.3742 7.44784 42.5432 7.43845C43.6323 7.4009 44.4304 6.1991 44.0266 5.18508C43.8295 4.68746 43.5102 4.24618 43.3412 3.64528C44.1017 4.25557 44.9092 4.81891 45.604 5.49492C52.0543 11.7856 50.2234 21.184 46.4678 25.3246C44.5618 27.4277 42.1864 28.7422 39.5293 29.6342C37.2571 30.3947 34.9662 31.0988 32.7128 31.9157C31.4923 32.357 30.3468 32.9673 29.0605 33.5588C28.7319 32.1504 28.3845 30.7327 28.084 29.3055C27.3611 25.8879 27.4174 22.5173 28.7037 19.2311C30.3562 15.0248 34.9099 12.3489 39.5856 13.9451C41.961 14.7525 43.5196 13.8512 44.59 11.2316C44.3928 11.4851 44.1956 11.748 43.9891 12.0015C42.8999 13.3066 41.8953 13.5977 40.3367 12.9498C38.4308 12.1518 36.4966 11.7199 34.4404 12.1611C33.9428 12.2644 33.4452 12.4146 32.8443 12.5649C33.3701 11.0438 33.6236 9.56038 32.8067 8.18019C32.403 7.49479 31.7551 6.95961 31.0979 6.43383C32.3373 7.78585 32.6847 9.31626 31.9993 10.9687C31.6237 11.8701 31.1636 12.8465 30.4595 13.4944C28.3657 15.4379 26.7789 17.6256 26.0935 20.4798C26.0184 20.1794 25.9433 19.8789 25.8494 19.5879C25.2297 17.5505 24.2157 15.7571 22.6008 14.33C21.5305 13.3911 20.6761 12.2926 20.2348 10.9218C19.7278 9.3726 19.9437 7.97363 21.1361 6.79061C21.2112 6.7155 21.277 6.631 21.399 6.48077C19.2865 7.26945 18.6199 9.36321 19.4179 12.5179C19.324 12.5179 19.2301 12.5555 19.155 12.5273C16.9298 11.7386 14.7234 11.8513 12.5545 12.7339C12.3574 12.8184 12.1602 12.8935 11.963 12.978C10.4138 13.5977 9.37164 13.316 8.32007 12.0109C8.11351 11.7574 7.93512 11.4851 7.70039 11.1565C8.74258 14.0014 10.4983 14.6962 12.7517 13.9732C16.3665 12.7996 19.4367 13.7948 21.9624 16.5552C23.2581 17.973 23.9153 19.7287 24.319 21.5877C25.0138 24.7519 24.6101 27.8596 23.859 30.958C23.643 31.8312 23.4177 32.695 23.1735 33.6433C19.7559 31.5871 15.9534 30.7608 12.3198 29.4745C9.38103 28.4324 6.74271 26.8644 5.00574 24.1791C0.9215 17.8791 1.72896 8.8562 8.36702 4.15229C8.57358 4.00206 8.78952 3.87062 9.08997 3.81428C8.88342 4.1429 8.65808 4.46213 8.47969 4.80013C7.87879 5.93621 8.31068 7.03472 9.54065 7.39151C9.77537 7.45723 10.1979 7.29762 10.3575 7.10045C10.9302 6.38688 10.9115 5.70148 10.3575 4.86585C10.0664 4.43396 9.71904 4.03962 9.33409 3.542C12.4043 1.89892 15.5872 1.53274 18.864 2.66882C24.704 4.69685 26.1874 9.41015 26.178 14.9403C26.3752 13.2972 26.4691 11.626 26.7883 10.0111C27.6333 5.77659 31.0322 2.7721 35.4826 2.16181C38.1115 1.76747 40.5339 2.28387 42.9563 3.48567ZM40.8719 14.9215C41.163 16.1045 41.4728 17.1186 41.6418 18.1607C41.9047 19.7663 42.2052 21.3906 42.2427 23.0149C42.2897 25.0335 40.9846 26.7142 39.3321 27.1085C37.8205 27.4653 36.2431 26.639 35.6985 25.1931C35.1446 23.7191 35.6047 22.7144 37.229 21.86C37.6233 21.6535 38.0083 21.4375 38.3932 21.2216C37.8299 21.3342 37.3228 21.569 36.844 21.8506C35.6892 22.5173 34.8629 23.4092 34.8817 24.8364C34.9099 26.3292 35.6422 27.409 36.9191 28.1131C39.6419 29.6154 43.0126 27.8033 43.5478 24.5547C43.8952 22.4515 43.4257 20.4517 42.7216 18.4894C42.299 17.2688 41.8578 16.0388 40.8719 14.9215ZM11.456 15.0717C10.1885 16.8181 9.39042 18.7616 8.93975 20.8366C8.60174 22.3576 8.47969 23.8881 8.98669 25.3997C10.0664 28.6765 14.2915 29.728 16.5073 27.2681C17.4087 26.2635 17.7655 25.0711 17.3242 23.7754C16.8735 22.4703 15.775 21.8694 14.5732 21.4187C14.8924 21.691 15.268 21.8976 15.6341 22.1135C16.8547 22.8365 17.2303 24.0571 16.6388 25.3528C15.9064 26.9677 13.9441 27.6718 12.3668 26.8738C11.334 26.3574 10.6955 25.503 10.3387 24.4138C9.87865 23.0149 10.0101 21.5877 10.2918 20.1888C10.6298 18.48 11.0617 16.7806 11.456 15.0717ZM36.8722 3.25094C34.5906 4.08657 33.7926 6.40566 34.6939 9.20359C35.492 8.79048 36.2901 8.37736 37.0881 7.95485C37.2383 7.87974 37.3792 7.78585 37.5106 7.69196C38.5622 6.91267 38.6467 6.09582 37.7266 5.22264C37.1726 4.68746 36.6844 4.16168 36.8722 3.25094ZM17.6152 9.14726C18.648 6.631 17.6716 3.92695 15.5309 3.33544C15.4182 4.36824 15.4182 4.36824 14.6389 5.2602C13.8033 6.21788 13.8784 6.99717 14.9487 7.68257C15.8125 8.20835 16.7233 8.65903 17.6152 9.14726ZM39.9987 11.1659C42.1958 11.4194 43.9797 10.1894 44.2707 8.24591C41.839 7.29762 40.1114 8.46186 39.9987 11.1659ZM8.02901 8.23652C8.36702 10.227 10.2448 11.5133 12.2729 11.1471C12.0006 8.34919 10.3951 7.24128 8.02901 8.23652ZM21.906 21.9539C22.0093 22.1605 22.0469 22.2356 22.075 22.3013C22.6102 23.5219 22.0656 24.4232 20.7512 24.5265C19.5963 24.6204 18.6856 24.1979 18.1598 23.1651C17.5965 22.076 17.6058 20.9493 18.3757 19.9541C19.3146 18.7429 20.5446 18.5645 21.9342 19.156C20.1972 17.8979 17.7185 18.8743 17.1739 21.0244C16.8172 22.4328 17.2678 23.6815 18.2819 24.6486C19.1832 25.503 20.3568 25.3997 21.4366 25.0054C22.7886 24.5171 23.0609 23.0149 21.906 21.9539ZM30.375 22.0854C29.6238 22.874 29.5769 23.7003 30.1966 24.4326C31.1167 25.5218 33.464 25.5405 34.3559 24.4326C35.0601 23.5501 35.4263 22.5266 35.276 21.3812C35.1164 20.1794 34.4498 19.325 33.3419 18.8461C32.2809 18.3861 31.22 18.5175 30.3843 19.2217C30.6754 19.1184 30.8726 19.0339 31.0697 18.9776C32.3279 18.602 33.586 19.109 34.2151 20.2639C34.7972 21.3342 34.7409 22.4234 34.0836 23.428C33.4921 24.3387 32.6002 24.6392 31.5486 24.4983C30.4031 24.3481 29.9055 23.5782 30.2435 22.4797C30.2811 22.3858 30.3186 22.2825 30.375 22.0854ZM5.90709 24.151C7.45628 23.0994 8.27313 21.8412 8.31068 19.9634C7.51261 20.1137 6.77088 20.1982 6.05731 20.3953C5.37191 20.5831 5.04329 21.1652 5.17474 21.8319C5.31557 22.6018 5.6348 23.3341 5.90709 24.151ZM46.3739 24.0852C46.8527 23.043 47.5663 22.0478 46.8903 20.9775C46.2612 19.9822 45.1064 20.1606 44.083 20.0198C44.0642 21.86 44.9562 23.0618 46.3739 24.0852ZM37.9895 24.0852C38.6185 24.2261 39.2007 24.4138 39.8016 24.4702C40.8625 24.5735 41.332 24.1416 41.4071 23.0618C41.4446 22.5736 41.4165 22.076 41.4165 21.4939C40.0175 22.029 38.5622 22.3013 37.9895 24.0852ZM14.3854 24.0758C13.7282 22.4046 12.4137 21.9633 11.0053 21.5502C11.0053 22.2168 10.9396 22.8083 11.0241 23.3811C11.1368 24.2167 11.5405 24.5453 12.3855 24.4702C13.0334 24.4232 13.6624 24.2261 14.3854 24.0758ZM38.6279 18.0199C38.581 17.1373 38.5998 16.3862 38.4965 15.6445C38.3932 14.9215 37.9989 14.668 37.2759 14.8182C36.6562 14.9497 36.0647 15.1656 35.445 15.3534C35.83 17.0153 37.2383 17.3627 38.6279 18.0199ZM16.9017 15.3816C16.2538 15.1844 15.6529 14.9779 15.0332 14.8182C14.4511 14.6774 14.0286 14.9403 13.9347 15.5224C13.8221 16.3017 13.8033 17.0904 13.7282 17.9917C15.1177 17.3908 16.451 16.9965 16.9017 15.3816ZM46.3551 17.1655C46.4208 16.743 46.496 16.405 46.5241 16.0576C46.6462 14.2925 46.2237 13.9263 44.4961 14.2925C44.4022 14.3112 44.3177 14.3582 44.2238 14.3582C43.6886 14.3863 43.6886 14.6868 43.8201 15.0905C44.2144 16.3017 45.2754 16.6679 46.3551 17.1655ZM5.91647 16.9777C6.00097 17.0434 6.09487 17.1092 6.17937 17.1749C6.87416 16.6773 7.65345 16.2642 8.25435 15.6726C8.90219 15.0248 8.67685 14.4896 7.79428 14.2737C7.58772 14.2267 7.38117 14.1798 7.16522 14.1422C6.36715 14.0014 5.99159 14.2549 5.92586 15.0717C5.87892 15.7008 5.91647 16.3393 5.91647 16.9777ZM22.7323 10.4429C23.4364 10.0111 23.9528 9.52282 23.9247 8.6872C23.8965 7.69196 23.258 7.09106 22.4224 6.46199C22.1783 6.969 21.9342 7.36334 21.8027 7.79524C21.4741 8.8562 22.3567 9.52282 22.7323 10.4429ZM29.6426 10.3491C29.8679 10.0017 30.0933 9.64488 30.3186 9.2881C30.7505 8.58392 30.7036 7.63562 30.2341 6.95022C30.0276 6.64977 29.8492 6.60283 29.5393 6.80939C28.0746 7.79524 28.1122 9.43832 29.6426 10.3491ZM7.10888 11.8889C6.33898 10.2176 4.91185 10.0204 3.48471 11.3631C4.51751 12.7996 5.86014 13.0062 7.10888 11.8889ZM39.3509 4.88463C40.0363 5.66392 40.2522 6.43383 40.0457 7.33518C39.7171 8.73414 38.7875 9.52282 37.5012 9.95472C36.8065 10.1894 36.0929 10.3584 35.3887 10.5932C34.7409 10.8091 34.1681 11.1283 33.8771 11.6635C34.8535 11.3912 35.8582 11.0532 36.8816 10.8373C38.4589 10.4993 39.595 9.65427 40.271 8.18958C40.8625 6.92205 40.5339 5.61698 39.3509 4.88463ZM18.7701 11.7011C18.1692 11.3067 17.7279 10.903 17.2115 10.6871C16.451 10.3772 15.6341 10.2082 14.8455 9.95472C13.484 9.51343 12.4982 8.64964 12.3104 7.19434C12.2165 6.51833 12.4513 5.79537 12.5264 5.16631C11.8879 5.74843 11.6344 6.58405 11.8879 7.52296C12.3761 9.32565 13.5686 10.4242 15.4088 10.8185C16.4604 11.0438 17.4932 11.3631 18.7701 11.7011ZM19.0799 29.9252C19.9249 28.0286 19.2959 27.0052 17.2491 26.8926C16.7233 27.8878 17.3617 29.2586 19.0799 29.9252ZM35.0883 26.8456C32.9663 27.1461 32.2715 28.376 33.3419 29.8971C34.9193 29.221 35.4826 28.2634 35.0883 26.8456ZM48.9371 11.4757C48.2517 10.7903 47.5381 10.4429 46.6462 10.5368C46.1486 10.5932 45.1721 11.626 45.388 11.8701C45.7073 12.2175 46.2237 12.4991 46.6837 12.5555C47.5757 12.6588 48.1954 12.0203 48.9371 11.4757ZM5.3813 13.8887C5.30619 13.8606 5.24046 13.823 5.16535 13.7948C4.90246 14.2549 4.51751 14.6962 4.39545 15.1938C4.04805 16.5552 4.85551 18.2734 6.0667 18.987C6.93988 19.494 8.07596 19.3719 8.68624 18.7053C9.30592 18.0387 9.60637 16.8651 9.39042 15.8792C9.28714 16.3111 9.22142 16.7054 9.08997 17.081C8.8083 17.8979 8.3858 18.602 7.39995 18.6771C6.41409 18.7523 5.69114 18.2828 5.24046 17.4566C4.58323 16.2735 4.45178 15.0624 5.3813 13.8887ZM43.0408 16.1515C42.9751 16.1609 42.9093 16.1797 42.8436 16.189C42.9657 16.7806 43.0126 17.3908 43.2286 17.9448C43.6605 19.0715 44.5149 19.4752 45.6697 19.2123C47.3034 18.8368 48.5803 16.4707 47.9419 14.9027C47.801 14.5553 47.5194 14.2643 47.3034 13.9545C47.9982 15.4943 47.7447 17.1561 46.5429 18.1514C45.3787 19.109 43.9985 18.7992 43.407 17.419C43.2473 17.0247 43.1628 16.5834 43.0408 16.1515ZM25.3894 12.5273C25.0889 11.8513 24.5725 11.5227 23.8402 11.5602C23.1642 11.5884 22.7604 11.9734 22.5257 12.5743C22.0938 13.7291 23.305 13.9638 23.6712 14.8558C23.9716 14.2267 24.3753 13.7479 24.3566 13.2878C24.3378 12.8465 23.8965 12.4146 23.6242 11.964C24.3472 11.626 24.8636 12.086 25.3894 12.5273ZM28.9103 12.0391C27.8305 13.1376 27.8117 13.5601 28.8445 14.6868C29.098 13.9075 30.4407 13.7761 29.9243 12.5837C29.6332 11.8983 29.145 11.5321 28.3939 11.5415C27.8399 11.5509 27.4456 11.8137 27.2296 12.3114C27.7554 11.9734 28.253 11.6447 28.9103 12.0391ZM35.3136 17.7195C34.9193 17.2406 34.6376 16.6679 34.1869 16.4238C33.5954 16.1139 32.9757 16.4519 32.4499 16.8369C33.1823 18.095 33.7926 18.311 35.3136 17.7195ZM17.3054 17.7852C18.6668 18.2922 19.2395 18.095 19.9343 16.9214C18.5917 15.9074 17.6152 16.2172 17.3054 17.7852ZM36.3182 18.5833C37.2102 19.5879 38.6749 19.7475 39.5199 18.9494C40.3743 18.142 40.4494 16.3768 39.6607 15.5975C40.0832 16.8932 39.8767 18.095 39.1349 18.6771C38.412 19.2311 37.351 19.1935 36.3182 18.5833ZM15.775 18.7804C14.6765 19.109 13.6155 19.3344 12.9019 18.2734C12.2635 17.3345 12.3949 16.3111 12.8925 15.3159C11.9536 16.3956 11.9818 18.1795 12.9113 18.987C13.6624 19.6442 15.0332 19.5785 15.775 18.7804ZM28.9572 21.7567C30.0933 20.9587 30.882 20.8178 31.558 21.3155C32.2528 21.8319 32.3185 22.3858 31.8021 23.6252C32.4405 23.2027 32.7034 22.6769 32.5814 21.9821C32.4499 21.2685 31.9523 20.893 31.2951 20.724C30.2529 20.4611 29.5487 21.0056 28.9572 21.7567ZM23.474 21.8225C22.751 20.846 21.906 20.4892 21.0986 20.7052C20.3568 20.9023 19.8217 21.4563 19.8029 22.1323C19.7935 22.7708 20.0094 23.3059 20.6854 23.6533C20.0658 22.4703 20.0846 21.9164 20.7136 21.3812C21.3802 20.8272 22.1877 20.9211 23.474 21.8225ZM22.0187 17.7382C20.8826 16.4613 19.4179 15.2783 17.8406 14.7901C19.1269 15.7008 20.6573 16.7806 22.0187 17.7382ZM31.6988 16.5834C31.6519 16.5364 31.5955 16.4989 31.5486 16.4519C30.8913 17.1749 30.2341 17.8978 29.5863 18.6208C29.6238 18.649 29.6614 18.6865 29.6896 18.7147C30.3656 18.0011 31.0322 17.2876 31.6988 16.5834Z" fill="white"/>
<path d="M40.8706 14.9209C41.8564 16.0382 42.2977 17.2682 42.739 18.4887C43.4432 20.451 43.9126 22.4509 43.5652 24.5541C43.03 27.8027 39.65 29.6148 36.9366 28.1125C35.6596 27.4083 34.9273 26.3286 34.8991 24.8357C34.871 23.3992 35.7066 22.5072 36.8614 21.85C37.3403 21.5777 37.8473 21.3336 38.4106 21.221C38.0257 21.4369 37.6313 21.6528 37.2464 21.8594C35.6127 22.7138 35.1526 23.7184 35.716 25.1925C36.2605 26.6384 37.8285 27.4647 39.3495 27.1079C41.002 26.7135 42.3165 25.0329 42.2601 23.0143C42.2226 21.39 41.9221 19.775 41.6592 18.1601C41.4715 17.1179 41.1522 16.1039 40.8706 14.9209Z" fill="#19453F"/>
<path d="M11.4566 15.0723C11.0623 16.7811 10.6304 18.4711 10.283 20.1893C10.0107 21.5883 9.87929 23.0154 10.33 24.4144C10.6867 25.4941 11.3252 26.3485 12.358 26.8743C13.9354 27.6724 15.8977 26.9682 16.63 25.3533C17.2215 24.0576 16.8366 22.837 15.6254 22.1141C15.2592 21.8981 14.8837 21.6915 14.5644 21.4193C15.7662 21.8699 16.8647 22.4708 17.3154 23.7759C17.7661 25.081 17.4093 26.264 16.4986 27.2686C14.2828 29.7286 10.0577 28.677 8.97794 25.4002C8.48032 23.8886 8.59299 22.3582 8.93099 20.8371C9.40045 18.7622 10.1891 16.828 11.4566 15.0723Z" fill="#19453F"/>
<path d="M36.8723 3.25098C36.6845 4.16171 37.1728 4.69689 37.7267 5.22268C38.6468 6.10525 38.5623 6.9127 37.5108 7.692C37.3793 7.78589 37.2385 7.87978 37.0883 7.95489C36.2902 8.3774 35.5015 8.79051 34.6941 9.20363C33.8021 6.39631 34.6002 4.0866 36.8723 3.25098Z" fill="#CA6C46"/>
<path d="M17.6153 9.1464C16.7233 8.65817 15.8126 8.21689 14.9582 7.67232C13.8784 6.99631 13.8033 6.20763 14.6483 5.24995C15.4276 4.35799 15.4276 4.35799 15.5403 3.3252C17.6716 3.91671 18.648 6.62075 17.6153 9.1464Z" fill="#CA6C46"/>
<path d="M39.998 11.1658C40.1107 8.47113 41.8477 7.2975 44.2701 8.24579C43.9696 10.1799 42.1951 11.4099 39.998 11.1658Z" fill="#CA6C46"/>
<path d="M8.0293 8.23613C10.3953 7.24089 12.0009 8.33941 12.2731 11.1467C10.2451 11.5223 8.3673 10.2266 8.0293 8.23613Z" fill="#CA6C46"/>
<path d="M21.9058 21.9549C23.0701 23.0064 22.7884 24.5181 21.4364 24.9969C20.3566 25.3819 19.183 25.4945 18.2817 24.6401C17.2676 23.6824 16.817 22.4243 17.1737 21.016C17.7183 18.8659 20.197 17.8894 21.934 19.1475C20.5444 18.5654 19.3144 18.7344 18.3755 19.9456C17.6056 20.9408 17.5963 22.0675 18.1596 23.1567C18.6854 24.1895 19.5961 24.612 20.751 24.5181C22.0654 24.4148 22.61 23.5041 22.0748 22.2929C22.0373 22.2365 21.9997 22.1708 21.9058 21.9549Z" fill="#19453F"/>
<path d="M30.3744 22.0853C30.3087 22.2824 30.2711 22.3857 30.243 22.489C29.905 23.5969 30.3932 24.3574 31.5481 24.5076C32.5996 24.6485 33.4916 24.3386 34.0831 23.4373C34.7403 22.4233 34.7967 21.3435 34.2145 20.2732C33.5855 19.1089 32.3273 18.6113 31.0692 18.9869C30.872 19.0432 30.6749 19.1277 30.3838 19.231C31.2194 18.5268 32.2804 18.3954 33.3414 18.8554C34.4493 19.3343 35.1159 20.1887 35.2755 21.3905C35.4257 22.5359 35.0596 23.5593 34.3554 24.4419C33.4634 25.5498 31.1162 25.531 30.196 24.4419C29.5857 23.7002 29.6233 22.8645 30.3744 22.0853Z" fill="#19453F"/>
<path d="M5.90731 24.1524C5.63503 23.3355 5.32518 22.6032 5.17496 21.8333C5.04351 21.1666 5.37213 20.5939 6.05753 20.3967C6.7711 20.1996 7.51283 20.1057 8.3109 19.9648C8.27335 21.8427 7.4565 23.1008 5.90731 24.1524Z" fill="#CA6C46"/>
<path d="M46.374 24.0856C44.9656 23.0622 44.0643 21.8604 44.0924 20.0107C45.1158 20.1516 46.2707 19.9732 46.8998 20.9684C47.5664 22.0482 46.8528 23.0434 46.374 24.0856Z" fill="#CA6C46"/>
<path d="M37.9893 24.0851C38.562 22.3012 40.0079 22.0196 41.4069 21.4844C41.4069 22.0665 41.435 22.5641 41.3975 23.0523C41.3224 24.1321 40.8623 24.564 39.792 24.4607C39.2004 24.4138 38.6183 24.226 37.9893 24.0851Z" fill="#CA6C46"/>
<path d="M14.3867 24.0758C13.6637 24.2261 13.0253 24.4232 12.3868 24.4796C11.5418 24.5547 11.1381 24.2261 11.0254 23.3904C10.9503 22.8177 11.0066 22.2168 11.0066 21.5596C12.415 21.9633 13.7294 22.4046 14.3867 24.0758Z" fill="#CA6C46"/>
<path d="M38.6282 18.0204C37.2292 17.3631 35.8303 17.0157 35.4453 15.3445C36.065 15.1567 36.6565 14.9407 37.2762 14.8093C37.9991 14.6591 38.3935 14.922 38.4968 15.6355C38.6 16.3867 38.5906 17.1472 38.6282 18.0204Z" fill="#CA6C46"/>
<path d="M16.9024 15.3818C16.4517 17.0061 15.1185 17.391 13.7383 18.0013C13.804 17.1 13.8228 16.3113 13.9448 15.532C14.0293 14.9499 14.4518 14.6776 15.0434 14.8278C15.6536 14.9687 16.2545 15.1846 16.9024 15.3818Z" fill="#CA6C46"/>
<path d="M46.3564 17.1664C45.2672 16.6688 44.2063 16.3027 43.8119 15.0915C43.6805 14.6877 43.6805 14.3873 44.2157 14.3591C44.3096 14.3591 44.3941 14.3122 44.4879 14.2934C46.2155 13.9272 46.638 14.2934 46.516 16.0585C46.5066 16.3965 46.4221 16.7439 46.3564 17.1664Z" fill="#CA6C46"/>
<path d="M6.17923 17.1749C5.86 16.2266 5.87878 15.4943 5.92572 15.0718C5.98206 14.5835 6.09473 14.377 6.26373 14.2549C6.47029 14.0953 6.76135 14.0671 7.17447 14.1422C7.38103 14.1798 7.59697 14.2267 7.80353 14.2737C8.27299 14.3864 8.55466 14.5929 8.62038 14.8652C8.67672 15.0905 8.54527 15.344 8.2636 15.6727C7.92559 16.0576 7.29653 16.6585 6.17923 17.1749Z" fill="#CA6C46"/>
<path d="M22.7319 10.4429C22.3564 9.53213 21.4738 8.85612 21.8024 7.79516C21.9338 7.36326 22.1874 6.96892 22.4221 6.46191C23.2671 7.09098 23.8962 7.69188 23.9243 8.68712C23.9619 9.52274 23.4361 10.011 22.7319 10.4429Z" fill="#CA6C46"/>
<path d="M29.6429 10.3499C28.1125 9.44852 28.0655 7.80544 29.5396 6.81959C29.8495 6.61303 30.0278 6.65998 30.2344 6.96043C30.7039 7.63644 30.7508 8.59412 30.3189 9.2983C30.103 9.64569 29.8682 9.99309 29.6429 10.3499Z" fill="#CA6C46"/>
<path d="M7.10953 11.8889C5.86078 12.9968 4.51815 12.7902 3.48535 11.3631C4.91249 10.0298 6.33962 10.2176 7.10953 11.8889Z" fill="#CA6C46"/>
<path d="M39.3508 4.88477C40.5244 5.6265 40.853 6.93158 40.2709 8.18971C39.5949 9.64501 38.4588 10.4994 36.8814 10.8374C35.858 11.0534 34.8534 11.3914 33.877 11.6637C34.168 11.1285 34.7501 10.8093 35.3886 10.5933C36.0834 10.3586 36.8063 10.1896 37.5011 9.95485C38.7874 9.52296 39.7169 8.73428 40.0456 7.33531C40.2615 6.43396 40.0362 5.66406 39.3508 4.88477Z" fill="#19453F"/>
<path d="M18.7707 11.7008C17.4844 11.3628 16.461 11.0436 15.4094 10.8182C13.5598 10.4145 12.3767 9.32536 11.8885 7.52267C11.635 6.59315 11.8791 5.74814 12.527 5.16602C12.4519 5.79508 12.2171 6.51804 12.311 7.19405C12.5082 8.64935 13.4846 9.52253 14.8461 9.95443C15.6347 10.2079 16.4516 10.3769 17.2121 10.6868C17.7285 10.9027 18.1698 11.3065 18.7707 11.7008Z" fill="#19453F"/>
<path d="M19.0803 29.9243C17.3621 29.2576 16.7236 27.8868 17.2494 26.8916C19.2962 27.0043 19.9253 28.0277 19.0803 29.9243Z" fill="#CA6C46"/>
<path d="M35.0887 26.8457C35.483 28.2541 34.9197 29.2117 33.3423 29.8971C32.272 28.3761 32.9668 27.1462 35.0887 26.8457Z" fill="#CA6C46"/>
<path d="M48.9372 11.4758C48.2048 12.0204 47.5758 12.6588 46.6838 12.5462C46.2238 12.4898 45.698 12.2081 45.3881 11.8607C45.1722 11.626 46.1486 10.5838 46.6463 10.5275C47.5382 10.4336 48.2518 10.7904 48.9372 11.4758Z" fill="#CA6C46"/>
<path d="M5.38009 13.8892C4.44118 15.0534 4.58202 16.2646 5.23925 17.4664C5.68993 18.2927 6.41289 18.7621 7.39874 18.687C8.38459 18.6119 8.80709 17.9077 9.08877 17.0909C9.22021 16.7153 9.28593 16.321 9.38921 15.8891C9.60516 16.8749 9.30471 18.0391 8.68503 18.7152C8.07475 19.3818 6.92928 19.5038 6.06549 18.9968C4.84491 18.2833 4.04684 16.5745 4.39424 15.2037C4.52569 14.706 4.90125 14.2741 5.16414 13.8047C5.23925 13.8329 5.31437 13.861 5.38009 13.8892Z" fill="#19453F"/>
<path d="M43.0403 16.1521C43.1624 16.5746 43.2469 17.0159 43.4159 17.4196C44.0074 18.7998 45.3876 19.1097 46.5518 18.152C47.7536 17.1661 48.0071 15.4949 47.3123 13.9551C47.5283 14.2743 47.81 14.556 47.9508 14.9034C48.5799 16.462 47.3123 18.828 45.6786 19.2129C44.5238 19.4758 43.66 19.0721 43.2375 17.9454C43.0309 17.3915 42.9746 16.7718 42.8525 16.1897C42.9089 16.1803 42.9746 16.1709 43.0403 16.1521Z" fill="#19453F"/>
<path d="M25.3901 12.5275C24.8643 12.0956 24.3479 11.6262 23.6249 11.9736C23.8972 12.4242 24.3385 12.8561 24.3573 13.2974C24.3761 13.7575 23.9723 14.2269 23.6719 14.8654C23.3057 13.9734 22.0945 13.7293 22.5264 12.5839C22.7518 11.9736 23.1649 11.598 23.8409 11.5698C24.5732 11.5229 25.0896 11.8515 25.3901 12.5275Z" fill="#CA6C46"/>
<path d="M28.9107 12.0378C28.2535 11.6341 27.7465 11.9721 27.2207 12.3101C27.4367 11.8031 27.831 11.5402 28.3849 11.5402C29.1361 11.5308 29.6243 11.897 29.9154 12.5824C30.4224 13.7748 29.0797 13.8969 28.8356 14.6855C27.8122 13.5589 27.831 13.1364 28.9107 12.0378Z" fill="#CA6C46"/>
<path d="M35.3135 17.7196C33.7925 18.3111 33.1822 18.0951 32.4404 16.837C32.9662 16.452 33.5859 16.114 34.1774 16.4239C34.6375 16.668 34.9098 17.2407 35.3135 17.7196Z" fill="#CA6C46"/>
<path d="M17.3057 17.786C17.6155 16.218 18.592 15.9082 19.9346 16.9222C19.2398 18.0958 18.6671 18.293 17.3057 17.786Z" fill="#CA6C46"/>
<path d="M36.3184 18.5834C37.3512 19.1937 38.4215 19.2312 39.1351 18.6773C39.8768 18.0951 40.0834 16.8933 39.6609 15.5977C40.4495 16.3769 40.3744 18.1421 39.52 18.9495C38.675 19.7476 37.2009 19.5974 36.3184 18.5834Z" fill="#19453F"/>
<path d="M15.774 18.78C15.0323 19.5687 13.6615 19.6344 12.9104 18.9865C11.9808 18.1791 11.9527 16.4046 12.8916 15.3154C12.394 16.3107 12.2625 17.3341 12.901 18.273C13.6145 19.3433 14.6755 19.1086 15.774 18.78Z" fill="#19453F"/>
<path d="M28.958 21.7563C29.5401 20.9958 30.2537 20.4512 31.2959 20.7235C31.9531 20.8925 32.4507 21.2681 32.5822 21.9816C32.7136 22.6764 32.4413 23.1928 31.8029 23.6247C32.3287 22.3854 32.263 21.8408 31.5588 21.315C30.8922 20.8174 30.0941 20.9676 28.958 21.7563Z" fill="#19453F"/>
<path d="M23.4739 21.8226C22.1876 20.9212 21.3708 20.8273 20.7136 21.3813C20.0845 21.9071 20.0657 22.4704 20.6854 23.6534C20.0094 23.2967 19.7841 22.7615 19.8028 22.1324C19.8216 21.4658 20.3568 20.9025 21.0985 20.7053C21.906 20.4893 22.751 20.8461 23.4739 21.8226Z" fill="#19453F"/>
<path d="M22.0199 17.7382C20.6585 16.7711 19.1281 15.6914 17.8418 14.79C19.4192 15.2783 20.8838 16.4613 22.0199 17.7382Z" fill="#19453F"/>
<path d="M31.6985 16.5836C31.0319 17.2972 30.3558 18.0107 29.6892 18.7149C29.6517 18.6867 29.6141 18.6492 29.5859 18.621C30.2432 17.8981 30.9004 17.1751 31.5482 16.4521C31.6046 16.4991 31.6515 16.5367 31.6985 16.5836Z" fill="#19453F"/>
<path d="M51.229 11.3249C49.4544 4.57417 43.1168 -0.711865 35.7746 0.13315C30.451 0.743438 26.977 4.40517 26.3104 8.28284C26.2916 8.36734 26.2447 8.44246 26.1508 8.6678C25.3903 5.70086 24.4983 4.11411 22.6205 2.64941C18.8367 -0.298748 14.6304 -0.66492 10.2457 0.949997C2.5655 3.76671 -1.48118 13.2966 1.58904 21.1552C3.29785 25.5211 6.37746 28.5914 10.5086 30.7039C13.1282 32.0371 15.7759 33.3234 18.3109 34.8069C18.3109 34.8069 26.132 37.9616 26.1696 39.9991C26.1696 39.9991 28.4605 36.0181 33.9343 34.8069C33.7841 34.8445 33.6339 34.8726 33.493 34.9102C33.5775 34.9008 33.662 34.8914 33.7465 34.882C33.7747 34.882 33.7935 34.882 33.8217 34.882C34.7887 34.2342 35.8027 33.6708 36.8449 33.1357C39.2298 31.9057 41.6991 30.826 43.9712 29.427C50.2243 25.5775 53.0786 18.3573 51.229 11.3249ZM46.4687 25.324C44.5627 27.4271 42.1873 28.7416 39.5302 29.6335C37.258 30.3941 34.9671 31.0982 32.7137 31.9151C31.4932 32.3564 30.3477 32.9667 29.0614 33.5582C28.7328 32.1498 28.3854 30.7321 28.0849 29.3049C27.362 25.8873 27.4183 22.5166 28.7046 19.2305C30.3571 15.0242 34.9108 12.3483 39.5865 13.9444C41.962 14.7519 43.5205 13.8506 44.5909 11.231C44.3937 11.4845 44.1966 11.7474 43.99 12.0009C42.9009 13.306 41.8962 13.597 40.3377 12.9492C38.4317 12.1511 36.4975 11.7192 34.4413 12.1605C33.9437 12.2638 33.4461 12.414 32.8452 12.5643C33.371 11.0432 33.6245 9.55976 32.8076 8.17957C32.4039 7.49417 31.7561 6.95899 31.0988 6.4332C32.3382 7.78523 32.6856 9.31564 32.0002 10.9681C31.6246 11.8695 31.1646 12.8459 30.4604 13.4938C28.3666 15.4373 26.7799 17.625 26.0945 20.4792C26.0194 20.1788 25.9442 19.8783 25.8503 19.5873C25.2307 17.5498 24.2167 15.7565 22.6017 14.3294C21.5314 13.3905 20.677 12.292 20.2357 10.9212C19.7287 9.37197 19.9446 7.97301 21.1371 6.78999C21.2122 6.71487 21.2779 6.63037 21.3999 6.48015C19.2874 7.26883 18.6208 9.36259 19.4188 12.5173C19.325 12.5173 19.2311 12.5549 19.156 12.5267C16.9308 11.738 14.7243 11.8507 12.5555 12.7333C12.3583 12.8178 12.1611 12.8929 11.9639 12.9774C10.4148 13.597 9.37257 13.3154 8.32099 12.0103C8.11443 11.7568 7.93604 11.4845 7.70131 11.1559C8.7435 14.0008 10.4993 14.6956 12.7526 13.9726C16.3674 12.799 19.4376 13.7942 21.9633 16.5546C23.259 17.9723 23.9162 19.7281 24.3199 21.5871C25.0147 24.7512 24.611 27.859 23.8599 30.9574C23.6439 31.8306 23.4186 32.6944 23.1745 33.6427C19.7569 31.5865 15.9543 30.7602 12.3207 29.4739C9.38196 28.4317 6.74363 26.8638 5.00666 24.1785C0.92242 17.8785 1.72988 8.85558 8.36794 4.15166C8.5745 4.00144 8.79045 3.86999 9.09089 3.81366C8.88434 4.14227 8.659 4.4615 8.48061 4.79951C7.87971 5.93558 8.3116 7.0341 9.54157 7.39088C9.77629 7.45661 10.1988 7.297 10.3584 7.09983C10.9311 6.38626 10.9124 5.70086 10.3584 4.86523C10.0674 4.43333 9.71996 4.03899 9.33501 3.54137C12.4052 1.89829 15.5881 1.53212 18.8649 2.66819C24.7049 4.69623 26.1884 9.40953 26.179 14.9397C26.3761 13.2966 26.47 11.6253 26.7893 10.0104C27.6343 5.77597 31.0331 2.77147 35.4835 2.16119C38.0937 1.8044 40.516 2.31141 42.9384 3.51321C42.5535 4.0296 42.2155 4.43333 41.9338 4.86523C41.4268 5.6633 41.455 6.49893 42.0089 7.18433C42.1216 7.32516 42.3563 7.47539 42.5253 7.466C43.6144 7.42844 44.4125 6.22664 44.0088 5.21263C43.8116 4.71501 43.4924 4.27372 43.3234 3.67282C44.0839 4.28311 44.8913 4.84645 45.5861 5.52246C52.0552 11.785 50.2337 21.1834 46.4687 25.324Z" fill="#19453F"/>
<path d="M26.168 39.9994C26.168 39.9994 30.2616 36.9573 35.6509 33.7744L29.5856 34.9105L26.3933 38.1779L26.168 39.9994Z" fill="#19453F"/>
<path d="M26.197 40.0003C25.3238 39.3618 24.4131 38.7234 23.4742 38.0849C21.1082 36.47 18.7984 35.0616 16.5732 33.8223C18.6388 34.1884 20.7138 34.5452 22.7794 34.9114L25.9717 38.1788L26.197 40.0003Z" fill="#19453F"/>
<path d="M60.4795 9.96582H62.4164L68.0919 23.9182L73.7449 9.96582H75.6818V26.283H73.9138V14.2563L69.0604 26.2942H67.146L62.2925 14.2788V26.2942H60.502V9.96582H60.4795Z" fill="#19453F"/>
<path d="M86.6848 15.0889H88.4528L81.9665 31.0794H80.221L82.1354 26.3161L77.5859 15.0889H79.3539L83.0137 24.1877L86.6848 15.0889Z" fill="#19453F"/>
<path d="M90.3672 9.96484H92.3041L97.9796 23.9172L103.633 9.96484H105.558V26.282H103.79V14.2553L98.9368 26.2932H97.0224L92.1577 14.2778V26.2932H90.3672V9.96484Z" fill="#19453F"/>
<path d="M113.823 25.1905C116.312 25.1905 117.01 24.3797 117.719 23.1522L119.014 24.0193C117.956 25.6184 116.74 26.6769 113.868 26.6769C111.121 26.6769 108.271 23.9968 108.271 20.6973C108.271 17.3979 111.075 14.7178 113.823 14.7178C116.571 14.7178 119.375 17.3979 119.375 20.6973H109.893C109.893 23.1748 111.762 25.1905 113.823 25.1905ZM117.505 19.1996C116.954 17.4542 115.445 16.1817 113.823 16.1817C112.202 16.1817 110.693 17.4542 110.141 19.1996H117.505Z" fill="#19453F"/>
<path d="M131.458 26.2828H129.826V19.1997C129.826 17.5669 128.553 16.1818 126.504 16.1818C124.454 16.1818 123.182 18.1975 123.182 20.6861V26.2828H121.549V15.0782H123.182V16.0804C124.071 15.1683 125.22 14.6953 126.504 14.6953C129.251 14.6953 131.458 16.3282 131.458 19.1997V26.2828Z" fill="#19453F"/>
<path d="M133.519 15.0886H134.949V11.3838H136.582V15.0886H139.172V16.5751H136.582V26.2933H134.949V16.5751H133.508V15.0886H133.519Z" fill="#19453F"/>
<path d="M145.816 14.7061C147.257 14.7061 148.687 15.4268 149.746 16.5754V15.0889H151.379V26.2936H149.746V24.8297C148.687 25.9783 147.28 26.6765 145.872 26.6765C143.124 26.6765 140.275 23.9963 140.275 20.6969C140.264 17.3862 143.057 14.7061 145.816 14.7061ZM145.816 25.19C147.877 25.19 149.746 23.1743 149.746 20.6856C149.746 18.197 147.877 16.1812 145.816 16.1812C143.755 16.1812 141.886 18.197 141.886 20.6856C141.886 23.1743 143.755 25.19 145.816 25.19Z" fill="#19453F"/>
<path d="M154.498 8.91797H156.131V26.2936H154.498V8.91797Z" fill="#19453F"/>
</svg>
