<svg width="434" height="353" viewBox="0 0 434 353" fill="none" xmlns="http://www.w3.org/2000/svg">
<path d="M428.289 223.005C428.289 151.212 368.994 93.019 295.859 93.019C275.162 93.0253 254.754 97.7883 236.27 106.927C217.785 116.065 201.737 129.324 189.411 145.644C183.169 153.903 178.215 162.792 171.496 170.73C156.462 188.497 136.354 201.439 113.76 207.891C105.379 210.271 96.7517 211.72 88.0411 212.21C78.3148 212.741 69.1214 212.535 59.7423 215.226C29.5458 223.889 8.24805 251.864 8.24805 282.704C8.24805 301.348 15.7934 319.228 29.2242 332.411C42.655 345.594 60.8711 353 79.8652 353C80.2689 353 80.6727 353 81.0522 353H307.023C374.942 347.428 428.289 291.102 428.289 223.005Z" fill="#E4EBE4" style="fill:#E4EBE4;fill:color(display-p3 0.8941 0.9216 0.8941);fill-opacity:1;"/>
<mask id="mask0_54_5893" style="mask-type:luminance" maskUnits="userSpaceOnUse" x="10" y="22" width="414" height="331">
<path d="M10.7852 290.543C10.7852 307.068 18.1977 322.917 31.3922 334.603C44.5866 346.289 62.4822 352.853 81.1419 352.853C81.5386 352.853 81.9352 352.853 82.3081 352.853H304.302C371.018 347.914 423.426 297.986 423.426 237.632V160C423.426 83.7846 361.642 22 285.426 22H148.785C72.57 22 10.7852 83.7847 10.7852 160V290.543Z" fill="white" style="fill:white;fill-opacity:1;"/>
</mask>
<g mask="url(#mask0_54_5893)">
<path d="M201.254 112.259C199.128 112.069 196.891 114.324 195.229 115.379C193.087 116.734 190.972 118.135 188.883 119.58C184.652 122.514 180.553 125.62 176.587 128.9C168.616 135.402 161.33 142.7 154.843 150.681C151.785 154.491 148.893 158.431 145.72 162.137C144.186 163.972 142.544 165.714 140.802 167.354C140.107 167.992 138.422 169.617 137.458 169.732C134.681 170.097 139.175 164.004 139.568 163.39C141.658 160.123 143.685 156.738 146.077 153.686C150.71 147.764 154.66 141.227 159.313 135.262C163.517 129.879 168.741 125.713 174.064 121.487C181.325 115.723 188.013 109.273 194.035 102.226C197.454 98.2188 200.842 93.4224 200.231 88.194C200.22 87.6005 199.983 87.0334 199.568 86.6084C199.025 86.1526 198.232 86.2121 197.534 86.323C188.149 87.8452 180.284 95.2458 172.87 100.649C164.747 106.575 156.608 112.513 149.187 119.303C138.338 129.213 129.965 141.073 120.283 152.009C119.399 150.174 121.378 148.192 122.076 146.563C123.024 144.355 123.909 142.119 124.916 139.939C127.629 134.08 129.501 127.651 133.019 122.177C136.054 117.472 140.258 113.642 144.605 110.114C152.392 103.772 160.868 98.1633 167.5 90.6477C170.871 86.8344 174.413 81.1898 173.668 75.8186C172.874 70.0828 161.943 76.7502 159.511 78.3516C155.291 81.1263 150.745 83.3025 146.688 86.2081C142.023 89.5483 137.418 92.9705 132.873 96.4746C127.574 100.561 121.715 104.498 117.146 109.409C114.5 112.247 112.303 115.466 110.193 118.724C102.402 130.771 96.6749 144.236 88.5398 155.985C88.1431 167.282 88.9126 177.929 95.0209 187.926C95.5516 188.768 95.8448 189.738 95.8697 190.733C98.7811 194.253 102.244 198.066 106.42 202.204C136.046 231.569 139.041 255.717 108.824 292.403C114.242 289.268 120.303 287.845 125.836 284.927C135.209 279.98 141.615 274.724 146.117 264.993C150.151 256.272 152.169 246.759 154.05 237.396C157.477 220.351 162.256 204.182 173.172 190.364L192.845 165.483C196.887 160.365 201.175 154.213 199.588 147.883C199.192 146.297 197.883 144.533 196.304 144.977C195.84 145.146 195.416 145.406 195.055 145.742C187.824 151.712 180.867 158.011 174.259 164.666C170.982 167.972 167.791 171.362 164.684 174.837C163.18 176.526 158.016 184.553 155.811 184.054C156.782 180.882 159.146 177.814 160.824 174.937C162.669 171.765 164.569 168.594 166.587 165.522C170.53 159.517 174.937 153.749 180.264 148.894C188.99 140.942 196.606 132.471 201.857 121.745C202.694 120.024 203.813 117.448 203.789 115.541C203.781 114.015 202.761 112.398 201.254 112.259Z" fill="#D9B89E" style="fill:#D9B89E;fill:color(display-p3 0.8510 0.7216 0.6196);fill-opacity:1;"/>
<path d="M124.372 191.748C91.5255 166.038 95.02 151.962 95.02 151.962C94.4012 150.848 94.8018 148.343 94.8772 147.11C95.0636 143.963 95.722 140.859 96.3646 137.779C97.5981 131.861 99.0657 125.832 98.2328 119.846C97.3998 113.861 93.6476 107.824 87.7852 106.329C86.4088 105.976 84.85 105.933 83.668 106.706C82.3234 107.606 81.8434 109.318 81.4587 110.888C78.7245 122.018 75.9942 133.15 73.268 144.284C72.3993 147.82 71.5267 151.391 71.4474 155.03C71.3799 158.3 71.9551 161.551 72.6175 164.754C75.3623 177.961 79.6777 190.781 82.4662 203.973C84.8143 215.072 88.1501 227.245 83.081 237.924C77.7342 249.189 70.551 259.638 62.7728 269.35C53.7253 280.639 43.6743 291.064 33.6154 301.457C28.8874 306.337 20.1851 312.556 18.186 319.069C16.052 326.006 20.8514 333.847 25.1233 338.889C36.9251 352.693 53.6995 361.288 71.8044 362.807C80.471 363.489 87.444 358.447 91.9539 351.312C98.6968 340.708 103.02 328.571 109.712 317.864C114.594 310.051 118.926 302.008 124.629 294.723C131.416 286.061 138.587 277.654 144.347 268.244C162.541 238.538 149.654 211.544 124.372 191.748Z" fill="#F4DCC9" style="fill:#F4DCC9;fill:color(display-p3 0.9569 0.8627 0.7882);fill-opacity:1;"/>
<path d="M258.291 220.249C260.413 220.054 262.654 222.314 264.312 223.368C266.454 224.724 268.569 226.124 270.658 227.57C274.889 230.503 278.988 233.61 282.954 236.889C290.923 243.392 298.208 250.689 304.698 258.667C307.752 262.48 310.648 266.42 313.821 270.127C315.355 271.961 316.997 273.701 318.739 275.339C319.433 275.981 321.119 277.607 322.083 277.718C324.859 278.082 320.365 271.99 319.973 271.375C317.882 268.105 315.852 264.724 313.464 261.668C308.831 255.749 304.88 249.209 300.228 243.247C296.019 237.86 290.8 233.698 285.477 229.473C278.216 223.71 271.528 217.261 265.506 210.216C262.083 206.208 258.699 201.412 259.306 196.184C259.32 195.59 259.558 195.023 259.972 194.598C260.516 194.142 261.309 194.202 262.007 194.313C271.392 195.835 279.257 203.231 286.671 208.638C294.794 214.56 302.933 220.502 310.354 227.293C321.202 237.202 329.572 249.058 339.258 259.995C340.142 258.164 338.163 256.178 337.465 254.552C336.517 252.344 335.632 250.109 334.621 247.929C331.908 242.07 330.04 235.641 326.521 230.166C323.487 225.461 319.283 221.632 314.935 218.1C307.149 211.758 298.673 206.149 292.041 198.637C288.67 194.82 285.128 189.175 285.873 183.808C286.667 178.069 297.594 184.74 300.029 186.337C304.25 189.112 308.795 191.292 312.853 194.198C317.518 197.538 322.121 200.96 326.664 204.464C331.963 208.551 337.822 212.487 342.395 217.399C345.037 220.237 347.238 223.455 349.348 226.714C357.138 238.76 362.866 252.226 371.001 263.975C371.398 275.276 370.628 285.923 364.52 295.916C363.988 296.759 363.694 297.73 363.667 298.726C360.76 302.246 357.297 306.06 353.12 310.198C323.495 339.559 320.496 363.691 350.717 400.397C345.299 397.258 339.238 395.839 333.705 392.917C324.332 387.974 317.926 382.714 313.424 372.986C309.39 364.266 307.371 354.752 305.491 345.39C302.064 328.345 297.285 312.176 286.369 298.358L266.719 273.48C262.674 268.363 258.39 262.215 259.976 255.884C260.373 254.299 261.682 252.535 263.257 252.975C263.722 253.142 264.147 253.404 264.506 253.744C271.737 259.709 278.698 266.008 285.306 272.668C288.582 275.973 291.771 279.364 294.873 282.839C296.372 284.528 301.537 292.555 303.746 292.055C302.77 288.884 300.406 285.816 298.732 282.938C296.888 279.767 294.988 276.596 292.969 273.524C289.027 267.522 284.616 261.755 279.293 256.899C270.567 248.943 262.947 240.473 257.7 229.746C256.863 228.03 255.744 225.449 255.768 223.547C255.768 222.001 256.787 220.383 258.291 220.249Z" fill="#D9B89E" style="fill:#D9B89E;fill:color(display-p3 0.8510 0.7216 0.6196);fill-opacity:1;"/>
<path d="M335.177 299.733C368.019 274.023 364.529 259.951 364.529 259.951C365.144 258.833 364.743 256.328 364.672 255.099C364.481 251.952 363.827 248.848 363.184 245.764C361.951 239.85 360.483 233.821 361.316 227.835C362.149 221.85 365.901 215.813 371.76 214.314C373.14 213.966 374.699 213.918 375.881 214.711C377.225 215.607 377.705 217.323 378.09 218.889C380.819 230.019 383.549 241.147 386.281 252.273C387.149 255.805 388.022 259.38 388.097 263.019C388.169 266.289 387.594 269.54 386.907 272.743C384.167 285.946 379.851 298.766 377.063 311.962C374.715 323.061 371.379 335.234 376.444 345.913C381.791 357.174 388.978 367.627 396.756 377.335C405.8 388.628 415.851 399.053 425.909 409.442C430.641 414.322 439.34 420.541 441.343 427.054C443.477 433.991 438.677 441.832 434.406 446.874C422.605 460.68 405.83 469.276 387.724 470.792C379.058 471.478 372.085 466.432 367.575 459.297C360.832 448.693 356.505 436.556 349.817 425.845C344.934 418.036 340.603 409.989 334.899 402.708C328.113 394.047 320.941 385.635 315.178 376.229C297.004 346.527 309.891 319.533 335.177 299.733Z" fill="#F4DCC9" style="fill:#F4DCC9;fill:color(display-p3 0.9569 0.8627 0.7882);fill-opacity:1;"/>
</g>
<path d="M289.041 52.6608C287.39 54.8745 285.94 56.6053 284.732 58.4567C282.557 61.8779 282.678 65.4601 285.054 68.3983C285.537 69.002 286.544 69.646 287.269 69.6057C291.941 69.4447 295.364 64.2929 293.632 59.9459C292.787 57.8127 291.417 55.921 290.692 53.3451C293.955 55.9613 297.418 58.3762 300.398 61.2742C328.067 88.2411 320.214 128.531 304.104 146.28C295.928 155.296 285.738 160.931 274.341 164.755C264.594 168.015 254.767 171.034 245.101 174.535C239.866 176.427 234.952 179.043 229.434 181.579C228.025 175.542 226.535 169.464 225.246 163.346C222.145 148.695 222.386 134.246 227.904 120.159C234.992 102.127 254.526 90.6561 274.582 97.4984C284.772 100.96 291.457 97.096 296.049 85.8664C295.203 86.9532 294.357 88.0801 293.471 89.1669C288.799 94.7615 284.49 96.0092 277.804 93.232C269.629 89.8108 261.332 87.9594 252.512 89.8511C250.377 90.2938 248.243 90.9378 245.665 91.5818C247.921 85.0614 249.008 78.7021 245.504 72.7854C243.772 69.8472 240.993 67.553 238.174 65.2991C243.49 71.095 244.98 77.6556 242.04 84.7394C240.429 88.6034 238.456 92.7893 235.435 95.5665C226.454 103.898 219.648 113.276 216.708 125.512C216.385 124.224 216.063 122.936 215.66 121.688C213.002 112.954 208.653 105.267 201.725 99.1487C197.134 95.1237 193.469 90.4146 191.576 84.5382C189.401 77.8971 190.328 71.9 195.443 66.8286C195.765 66.5066 196.047 66.1443 196.57 65.5003C187.508 68.8813 184.649 77.8568 188.072 91.3806C187.67 91.3806 187.267 91.5416 186.945 91.4208C177.4 88.0399 167.935 88.5229 158.632 92.3063C157.786 92.6685 156.94 92.9905 156.094 93.3528C149.449 96.0092 144.978 94.8018 140.468 89.2071C139.582 88.1204 138.816 86.9532 137.809 85.5444C142.28 97.7399 149.811 100.718 159.477 97.6192C174.983 92.588 188.153 96.8545 198.987 108.688C204.545 114.765 207.364 122.292 209.096 130.261C212.076 143.825 210.344 157.148 207.122 170.43C206.196 174.173 205.229 177.876 204.182 181.941C189.522 173.127 173.211 169.585 157.625 164.071C145.019 159.603 133.701 152.881 126.251 141.37C108.731 114.363 112.195 75.6834 140.669 55.5185C141.555 54.8745 142.481 54.3111 143.77 54.0696C142.884 55.4783 141.918 56.8468 141.152 58.2957C138.575 63.1659 140.427 67.875 145.703 69.4045C146.71 69.6862 148.523 69.002 149.207 68.1568C151.664 65.0978 151.583 62.1596 149.207 58.5775C147.959 56.726 146.469 55.0355 144.817 52.9023C157.987 45.8587 171.64 44.289 185.696 49.1592C210.747 57.853 217.11 78.0581 217.07 101.765C217.916 94.7213 218.319 87.5569 219.688 80.634C223.313 62.4816 237.892 49.6019 256.982 46.9857C268.259 45.2952 278.65 47.5089 289.041 52.6608ZM280.1 101.684C281.349 106.756 282.678 111.103 283.403 115.57C284.53 122.453 285.819 129.416 285.98 136.379C286.182 145.033 280.583 152.237 273.495 153.928C267.011 155.457 260.245 151.915 257.909 145.717C255.532 139.398 257.506 135.091 264.473 131.429C266.165 130.543 267.816 129.617 269.467 128.692C267.051 129.175 264.876 130.181 262.822 131.388C257.868 134.246 254.324 138.07 254.405 144.188C254.526 150.587 257.667 155.216 263.144 158.234C274.824 164.674 289.283 156.906 291.578 142.98C293.068 133.964 291.055 125.391 288.034 116.979C286.222 111.747 284.329 106.474 280.1 101.684ZM153.919 102.328C148.482 109.815 145.059 118.146 143.126 127.041C141.676 133.562 141.152 140.122 143.327 146.602C147.959 160.649 166.082 165.157 175.587 154.612C179.454 150.305 180.984 145.194 179.091 139.639C177.158 134.045 172.446 131.469 167.291 129.537C168.66 130.704 170.271 131.59 171.842 132.515C177.077 135.614 178.688 140.847 176.151 146.401C173.01 153.324 164.592 156.343 157.826 152.922C153.396 150.708 150.657 147.045 149.127 142.376C147.153 136.379 147.717 130.261 148.925 124.264C150.375 116.939 152.228 109.654 153.919 102.328ZM262.943 51.6546C253.156 55.2368 249.733 65.1783 253.599 77.1726C257.023 75.4016 260.446 73.6307 263.869 71.8195C264.514 71.4975 265.118 71.095 265.682 70.6925C270.192 67.3518 270.555 63.8501 266.608 60.1069C264.232 57.8127 262.137 55.5588 262.943 51.6546ZM180.34 76.9311C184.77 66.1443 180.581 54.5526 171.399 52.0169C170.915 56.4443 170.915 56.4443 167.572 60.2679C163.988 64.3734 164.31 67.714 168.902 70.6522C172.607 72.9062 176.513 74.8381 180.34 76.9311ZM276.354 85.5847C285.779 86.6714 293.431 81.3988 294.679 73.0672C284.248 69.002 276.838 73.9929 276.354 85.5847ZM139.219 73.0269C140.669 81.5598 148.724 87.0739 157.423 85.5042C156.255 73.5099 149.368 68.7605 139.219 73.0269ZM198.745 131.831C199.188 132.716 199.349 133.038 199.47 133.32C201.766 138.553 199.43 142.417 193.791 142.859C188.838 143.262 184.931 141.451 182.676 137.023C180.259 132.354 180.299 127.524 183.602 123.258C187.629 118.066 192.905 117.301 198.866 119.837C191.415 114.443 180.783 118.629 178.447 127.846C176.916 133.884 178.849 139.237 183.199 143.383C187.065 147.045 192.1 146.602 196.731 144.912C202.531 142.819 203.699 136.379 198.745 131.831ZM235.073 132.394C231.851 135.775 231.65 139.317 234.308 142.457C238.255 147.126 248.323 147.206 252.149 142.457C255.17 138.673 256.741 134.286 256.096 129.376C255.412 124.224 252.552 120.561 247.8 118.509C243.249 116.536 238.698 117.1 235.113 120.118C236.362 119.676 237.207 119.314 238.053 119.072C243.45 117.462 248.847 119.636 251.545 124.586C254.042 129.175 253.801 133.843 250.981 138.15C248.444 142.054 244.618 143.342 240.107 142.739C235.194 142.095 233.059 138.794 234.509 134.085C234.67 133.682 234.831 133.24 235.073 132.394ZM130.117 141.249C136.762 136.741 140.266 131.348 140.427 123.298C137.004 123.942 133.822 124.304 130.761 125.15C127.821 125.955 126.412 128.45 126.976 131.308C127.58 134.608 128.949 137.748 130.117 141.249ZM303.701 140.968C305.755 136.5 308.816 132.234 305.916 127.645C303.218 123.379 298.264 124.143 293.874 123.54C293.793 131.429 297.62 136.58 303.701 140.968ZM267.736 140.968C270.434 141.571 272.931 142.376 275.509 142.618C280.06 143.061 282.073 141.209 282.396 136.58C282.557 134.487 282.436 132.354 282.436 129.859C276.435 132.153 270.192 133.32 267.736 140.968ZM166.485 140.927C163.666 133.763 158.027 131.871 151.986 130.1C151.986 132.958 151.704 135.494 152.067 137.949C152.55 141.531 154.282 142.94 157.907 142.618C160.686 142.417 163.384 141.571 166.485 140.927ZM270.474 114.967C270.273 111.183 270.354 107.963 269.911 104.784C269.467 101.684 267.776 100.598 264.675 101.242C262.017 101.805 259.479 102.731 256.821 103.536C258.472 110.66 264.514 112.149 270.474 114.967ZM177.279 103.657C174.5 102.811 171.922 101.926 169.264 101.242C166.767 100.638 164.955 101.765 164.552 104.26C164.069 107.601 163.988 110.982 163.666 114.846C169.626 112.27 175.346 110.579 177.279 103.657ZM303.62 111.304C303.902 109.493 304.225 108.044 304.345 106.555C304.869 98.9877 303.057 97.4179 295.646 98.9877C295.243 99.0682 294.881 99.2694 294.478 99.2694C292.182 99.3902 292.182 100.678 292.746 102.409C294.438 107.601 298.989 109.171 303.62 111.304ZM130.157 110.499C130.52 110.781 130.923 111.062 131.285 111.344C134.265 109.211 137.608 107.44 140.186 104.904C142.965 102.127 141.998 99.8329 138.212 98.9072C137.326 98.7059 136.44 98.5047 135.514 98.3437C132.09 97.7399 130.479 98.8267 130.198 102.328C129.996 105.025 130.157 107.762 130.157 110.499ZM202.289 82.4855C205.31 80.634 207.525 78.5411 207.404 74.9589C207.283 70.6925 204.545 68.1165 200.96 65.4198C199.913 67.5933 198.866 69.2838 198.302 71.1352C196.892 75.6834 200.678 78.5411 202.289 82.4855ZM231.931 82.083C232.898 80.5938 233.865 79.0643 234.831 77.5348C236.684 74.5162 236.483 70.451 234.469 67.5128C233.583 66.2248 232.818 66.0236 231.488 66.9091C225.206 71.1352 225.367 78.1788 231.931 82.083ZM135.272 88.6839C131.97 81.5195 125.848 80.6743 119.726 86.4299C124.156 92.588 129.916 93.4735 135.272 88.6839ZM273.576 58.658C276.516 61.9987 277.442 65.2991 276.556 69.163C275.146 75.1601 271.159 78.5411 265.641 80.3925C262.661 81.3988 259.6 82.1232 256.58 83.1295C253.801 84.0552 251.344 85.4237 250.095 87.7179C254.284 86.5507 258.593 85.1017 262.983 84.176C269.749 82.727 274.623 79.1046 277.522 72.8257C280.06 67.392 278.65 61.7974 273.576 58.658ZM185.293 87.8789C182.716 86.1884 180.823 84.4577 178.608 83.532C175.346 82.2037 171.842 81.4793 168.459 80.3925C162.619 78.5008 158.39 74.7979 157.584 68.5593C157.182 65.6613 158.188 62.5621 158.511 59.8654C155.772 62.3609 154.685 65.9431 155.772 69.968C157.866 77.6958 162.981 82.405 170.875 84.0955C175.386 85.0614 179.816 86.4299 185.293 87.8789ZM186.622 166.003C190.247 157.872 187.549 153.485 178.769 153.002C176.513 157.269 179.252 163.145 186.622 166.003ZM255.291 152.801C246.189 154.089 243.208 159.361 247.8 165.882C254.566 162.984 256.982 158.878 255.291 152.801ZM314.696 86.9129C311.756 83.9747 308.695 82.4855 304.869 82.888C302.734 83.1295 298.546 87.5569 299.472 88.6034C300.841 90.0926 303.057 91.3001 305.03 91.5416C308.856 91.9843 311.514 89.2474 314.696 86.9129ZM127.862 97.257C127.539 97.1362 127.258 96.9752 126.935 96.8545C125.808 98.8267 124.156 100.718 123.633 102.852C122.143 108.688 125.606 116.053 130.802 119.112C134.547 121.286 139.42 120.762 142.038 117.905C144.696 115.047 145.985 110.016 145.059 105.79C144.616 107.641 144.334 109.332 143.77 110.942C142.562 114.443 140.75 117.462 136.521 117.784C132.292 118.106 129.191 116.094 127.258 112.552C124.438 107.48 123.874 102.288 127.862 97.257ZM289.403 106.957C289.122 106.997 288.84 107.078 288.558 107.118C289.081 109.654 289.283 112.27 290.209 114.645C292.062 119.475 295.727 121.205 300.68 120.078C307.688 118.468 313.166 108.325 310.427 101.604C309.823 100.115 308.615 98.8669 307.688 97.5387C310.669 104.14 309.581 111.264 304.426 115.53C299.432 119.636 293.511 118.307 290.974 112.391C290.29 110.7 289.927 108.808 289.403 106.957ZM213.687 91.4208C212.398 88.5229 210.183 87.1142 207.042 87.2752C204.142 87.3959 202.41 89.0461 201.403 91.6221C199.551 96.5727 204.746 97.5789 206.317 101.403C207.606 98.7059 209.337 96.6532 209.257 94.681C209.176 92.7893 207.283 90.9378 206.115 89.0059C209.217 87.5569 211.432 89.5291 213.687 91.4208ZM228.79 89.3279C224.158 94.037 224.078 95.8482 228.508 100.678C229.596 97.3374 235.355 96.774 233.14 91.6623C231.891 88.7241 229.797 87.1544 226.575 87.1946C224.199 87.2349 222.507 88.3619 221.581 90.4951C223.836 89.0461 225.971 87.6374 228.79 89.3279ZM256.257 113.679C254.566 111.626 253.358 109.171 251.424 108.124C248.887 106.796 246.229 108.245 243.974 109.895C247.115 115.289 249.733 116.214 256.257 113.679ZM179.011 113.96C184.85 116.134 187.307 115.289 190.287 110.257C184.528 105.911 180.34 107.239 179.011 113.96ZM260.567 117.382C264.393 121.688 270.676 122.372 274.3 118.951C277.965 115.49 278.288 107.923 274.905 104.582C276.717 110.137 275.831 115.289 272.649 117.784C269.548 120.159 264.997 119.998 260.567 117.382ZM172.446 118.227C167.734 119.636 163.183 120.601 160.122 116.053C157.383 112.028 157.947 107.641 160.081 103.375C156.054 108.003 156.175 115.651 160.162 119.112C163.384 121.93 169.264 121.648 172.446 118.227ZM228.991 130.986C233.865 127.565 237.248 126.961 240.148 129.094C243.128 131.308 243.41 133.682 241.195 138.995C243.933 137.184 245.061 134.93 244.537 131.952C243.974 128.893 241.839 127.283 239.02 126.558C234.549 125.431 231.529 127.766 228.991 130.986ZM205.471 131.268C202.37 127.082 198.745 125.552 195.281 126.478C192.1 127.323 189.804 129.698 189.724 132.596C189.683 135.333 190.61 137.627 193.509 139.116C190.851 134.045 190.932 131.67 193.63 129.376C196.49 127.001 199.953 127.404 205.471 131.268ZM199.228 113.759C194.355 108.285 188.072 103.214 181.306 101.121C186.824 105.025 193.389 109.654 199.228 113.759ZM240.752 108.808C240.55 108.607 240.309 108.446 240.107 108.245C237.288 111.344 234.469 114.443 231.69 117.543C231.851 117.663 232.012 117.824 232.133 117.945C235.033 114.886 237.892 111.827 240.752 108.808Z" fill="#F5F7FA" style="fill:#F5F7FA;fill:color(display-p3 0.9608 0.9686 0.9804);fill-opacity:1;"/>
<path d="M280.098 101.682C284.327 106.471 286.22 111.744 288.113 116.976C291.133 125.388 293.147 133.962 291.657 142.977C289.361 156.904 274.862 164.672 263.223 158.232C257.746 155.213 254.604 150.584 254.483 144.185C254.363 138.027 257.947 134.203 262.901 131.386C264.955 130.218 267.13 129.172 269.546 128.689C267.895 129.615 266.203 130.54 264.552 131.426C257.544 135.088 255.571 139.395 257.987 145.714C260.323 151.913 267.049 155.455 273.574 153.925C280.662 152.235 286.3 145.03 286.059 136.376C285.898 129.413 284.609 122.49 283.481 115.568C282.676 111.1 281.306 106.753 280.098 101.682Z" fill="#19453F" style="fill:#19453F;fill:color(display-p3 0.0980 0.2706 0.2471);fill-opacity:1;"/>
<path d="M153.921 102.329C152.23 109.654 150.377 116.899 148.887 124.264C147.719 130.262 147.155 136.379 149.088 142.377C150.619 147.005 153.357 150.668 157.788 152.922C164.554 156.343 172.971 153.324 176.113 146.401C178.65 140.847 176.999 135.615 171.803 132.516C170.233 131.59 168.622 130.704 167.252 129.537C172.407 131.469 177.119 134.045 179.053 139.64C180.986 145.234 179.455 150.306 175.549 154.612C166.044 165.158 147.92 160.65 143.289 146.603C141.154 140.123 141.637 133.562 143.087 127.042C145.101 118.147 148.484 109.855 153.921 102.329Z" fill="#19453F" style="fill:#19453F;fill:color(display-p3 0.0980 0.2706 0.2471);fill-opacity:1;"/>
<path d="M262.944 51.6543C262.139 55.5585 264.233 57.8527 266.609 60.1066C270.556 63.8901 270.194 67.3515 265.683 70.6922C265.119 71.0947 264.515 71.4971 263.87 71.8191C260.447 73.6304 257.064 75.4013 253.6 77.1723C249.774 65.1378 253.198 55.2365 262.944 51.6543Z" fill="#CA6C46" style="fill:#CA6C46;fill:color(display-p3 0.7922 0.4235 0.2745);fill-opacity:1;"/>
<path d="M180.34 76.9276C176.514 74.8347 172.607 72.943 168.942 70.6085C164.31 67.7106 163.988 64.3296 167.613 60.2242C170.956 56.4006 170.956 56.4006 171.439 51.9731C180.581 54.5088 184.77 66.1006 180.34 76.9276Z" fill="#CA6C46" style="fill:#CA6C46;fill:color(display-p3 0.7922 0.4235 0.2745);fill-opacity:1;"/>
<path d="M276.354 85.5851C276.837 74.0335 284.288 69.0024 294.679 73.0676C293.39 81.3589 285.778 86.6315 276.354 85.5851Z" fill="#CA6C46" style="fill:#CA6C46;fill:color(display-p3 0.7922 0.4235 0.2745);fill-opacity:1;"/>
<path d="M139.221 73.0268C149.37 68.7604 156.257 73.4696 157.425 85.5041C148.726 87.114 140.671 81.5596 139.221 73.0268Z" fill="#CA6C46" style="fill:#CA6C46;fill:color(display-p3 0.7922 0.4235 0.2745);fill-opacity:1;"/>
<path d="M198.743 131.832C203.737 136.34 202.529 142.82 196.73 144.873C192.098 146.523 187.064 147.006 183.197 143.343C178.848 139.238 176.914 133.844 178.445 127.807C180.781 118.59 191.413 114.404 198.864 119.797C192.903 117.302 187.627 118.026 183.6 123.219C180.297 127.485 180.257 132.315 182.674 136.984C184.929 141.411 188.836 143.222 193.79 142.82C199.428 142.377 201.764 138.473 199.468 133.281C199.307 133.039 199.146 132.758 198.743 131.832Z" fill="#19453F" style="fill:#19453F;fill:color(display-p3 0.0980 0.2706 0.2471);fill-opacity:1;"/>
<path d="M235.075 132.394C234.793 133.239 234.632 133.682 234.511 134.125C233.061 138.874 235.155 142.134 240.109 142.778C244.62 143.382 248.446 142.054 250.983 138.19C253.802 133.843 254.044 129.214 251.547 124.626C248.849 119.635 243.452 117.502 238.055 119.112C237.209 119.353 236.363 119.716 235.115 120.158C238.699 117.14 243.25 116.576 247.801 118.548C252.554 120.601 255.413 124.264 256.098 129.416C256.742 134.326 255.172 138.713 252.151 142.497C248.325 147.246 238.256 147.165 234.309 142.497C231.692 139.317 231.853 135.735 235.075 132.394Z" fill="#19453F" style="fill:#19453F;fill:color(display-p3 0.0980 0.2706 0.2471);fill-opacity:1;"/>
<path d="M130.115 141.254C128.947 137.753 127.618 134.613 126.974 131.313C126.41 128.455 127.819 126 130.76 125.155C133.82 124.309 137.002 123.907 140.425 123.303C140.264 131.353 136.76 136.746 130.115 141.254Z" fill="#CA6C46" style="fill:#CA6C46;fill:color(display-p3 0.7922 0.4235 0.2745);fill-opacity:1;"/>
<path d="M303.698 140.968C297.656 136.58 293.79 131.429 293.911 123.5C298.301 124.103 303.255 123.339 305.953 127.605C308.813 132.234 305.752 136.5 303.698 140.968Z" fill="#CA6C46" style="fill:#CA6C46;fill:color(display-p3 0.7922 0.4235 0.2745);fill-opacity:1;"/>
<path d="M267.734 140.966C270.191 133.319 276.393 132.112 282.394 129.817C282.394 132.313 282.515 134.446 282.354 136.539C282.032 141.168 280.058 143.019 275.467 142.576C272.93 142.375 270.433 141.57 267.734 140.966Z" fill="#CA6C46" style="fill:#CA6C46;fill:color(display-p3 0.7922 0.4235 0.2745);fill-opacity:1;"/>
<path d="M166.488 140.929C163.387 141.573 160.648 142.418 157.91 142.66C154.285 142.982 152.553 141.573 152.07 137.991C151.748 135.535 151.989 132.96 151.989 130.142C158.031 131.873 163.669 133.765 166.488 140.929Z" fill="#CA6C46" style="fill:#CA6C46;fill:color(display-p3 0.7922 0.4235 0.2745);fill-opacity:1;"/>
<path d="M270.477 114.968C264.476 112.15 258.475 110.661 256.824 103.497C259.482 102.692 262.02 101.766 264.678 101.203C267.779 100.559 269.47 101.686 269.913 104.744C270.357 107.964 270.316 111.225 270.477 114.968Z" fill="#CA6C46" style="fill:#CA6C46;fill:color(display-p3 0.7922 0.4235 0.2745);fill-opacity:1;"/>
<path d="M177.282 103.656C175.348 110.619 169.629 112.269 163.709 114.885C163.991 111.021 164.071 107.64 164.595 104.3C164.957 101.804 166.77 100.637 169.307 101.281C171.925 101.885 174.503 102.81 177.282 103.656Z" fill="#CA6C46" style="fill:#CA6C46;fill:color(display-p3 0.7922 0.4235 0.2745);fill-opacity:1;"/>
<path d="M303.625 111.305C298.953 109.172 294.402 107.603 292.71 102.41C292.146 100.68 292.146 99.3917 294.442 99.271C294.845 99.271 295.207 99.0697 295.61 98.9892C303.021 97.4195 304.833 98.9892 304.309 106.556C304.269 108.005 303.907 109.494 303.625 111.305Z" fill="#CA6C46" style="fill:#CA6C46;fill:color(display-p3 0.7922 0.4235 0.2745);fill-opacity:1;"/>
<path d="M131.286 111.345C129.917 107.28 129.997 104.14 130.199 102.329C130.44 100.236 130.924 99.3508 131.649 98.8275C132.535 98.1433 133.783 98.0225 135.555 98.3445C136.441 98.5055 137.368 98.7068 138.254 98.908C140.267 99.391 141.476 100.276 141.758 101.444C141.999 102.41 141.435 103.496 140.227 104.905C138.777 106.555 136.079 109.131 131.286 111.345Z" fill="#CA6C46" style="fill:#CA6C46;fill:color(display-p3 0.7922 0.4235 0.2745);fill-opacity:1;"/>
<path d="M202.288 82.4856C200.677 78.5814 196.891 75.6835 198.301 71.1353C198.865 69.2839 199.952 67.5934 200.959 65.4199C204.584 68.1166 207.282 70.6926 207.403 74.959C207.564 78.5412 205.309 80.6341 202.288 82.4856Z" fill="#CA6C46" style="fill:#CA6C46;fill:color(display-p3 0.7922 0.4235 0.2745);fill-opacity:1;"/>
<path d="M231.936 82.0855C225.372 78.2215 225.17 71.1779 231.493 66.9518C232.822 66.0663 233.588 66.2675 234.474 67.5555C236.487 70.4535 236.689 74.5589 234.836 77.5776C233.91 79.0668 232.903 80.556 231.936 82.0855Z" fill="#CA6C46" style="fill:#CA6C46;fill:color(display-p3 0.7922 0.4235 0.2745);fill-opacity:1;"/>
<path d="M135.275 88.6832C129.918 93.4326 124.159 92.5471 119.729 86.4292C125.85 80.7138 131.972 81.5188 135.275 88.6832Z" fill="#CA6C46" style="fill:#CA6C46;fill:color(display-p3 0.7922 0.4235 0.2745);fill-opacity:1;"/>
<path d="M273.576 58.6567C278.61 61.8364 280.02 67.4311 277.523 72.8245C274.623 79.0631 269.75 82.7258 262.984 84.1747C258.594 85.1005 254.284 86.5494 250.096 87.7167C251.344 85.4225 253.841 84.054 256.58 83.1283C259.56 82.122 262.661 81.3975 265.642 80.3913C271.159 78.5398 275.147 75.1589 276.556 69.1618C277.483 65.2979 276.516 61.9974 273.576 58.6567Z" fill="#19453F" style="fill:#19453F;fill:color(display-p3 0.0980 0.2706 0.2471);fill-opacity:1;"/>
<path d="M185.295 87.8772C179.778 86.4282 175.388 85.0598 170.877 84.0938C162.943 82.3631 157.868 77.6942 155.774 69.9663C154.687 65.9817 155.734 62.3592 158.513 59.8638C158.19 62.5605 157.184 65.6597 157.586 68.5576C158.432 74.7962 162.621 78.5394 168.46 80.3909C171.844 81.4776 175.347 82.2021 178.61 83.5303C180.825 84.456 182.718 86.1867 185.295 87.8772Z" fill="#19453F" style="fill:#19453F;fill:color(display-p3 0.0980 0.2706 0.2471);fill-opacity:1;"/>
<path d="M186.622 166.001C179.251 163.144 176.513 157.267 178.768 153.001C187.548 153.484 190.246 157.871 186.622 166.001Z" fill="#CA6C46" style="fill:#CA6C46;fill:color(display-p3 0.7922 0.4235 0.2745);fill-opacity:1;"/>
<path d="M255.295 152.8C256.987 158.838 254.57 162.943 247.804 165.881C243.213 159.361 246.193 154.088 255.295 152.8Z" fill="#CA6C46" style="fill:#CA6C46;fill:color(display-p3 0.7922 0.4235 0.2745);fill-opacity:1;"/>
<path d="M314.701 86.9104C311.56 89.2448 308.861 91.9818 305.035 91.4988C303.062 91.2573 300.806 90.0498 299.477 88.5606C298.551 87.5544 302.74 83.0867 304.874 82.8452C308.7 82.4427 311.761 83.9722 314.701 86.9104Z" fill="#CA6C46" style="fill:#CA6C46;fill:color(display-p3 0.7922 0.4235 0.2745);fill-opacity:1;"/>
<path d="M127.863 97.2577C123.835 102.249 124.439 107.441 127.259 112.593C129.192 116.135 132.293 118.147 136.522 117.825C140.751 117.503 142.563 114.484 143.771 110.983C144.335 109.373 144.617 107.682 145.06 105.831C145.986 110.057 144.697 115.048 142.039 117.946C139.422 120.804 134.508 121.327 130.803 119.153C125.567 116.094 122.144 108.769 123.634 102.893C124.198 100.759 125.809 98.908 126.936 96.8955C127.259 97.0163 127.581 97.137 127.863 97.2577Z" fill="#19453F" style="fill:#19453F;fill:color(display-p3 0.0980 0.2706 0.2471);fill-opacity:1;"/>
<path d="M289.403 106.957C289.927 108.769 290.289 110.66 291.014 112.391C293.551 118.308 299.472 119.636 304.466 115.53C309.621 111.304 310.708 104.14 307.728 97.5391C308.654 98.9075 309.863 100.115 310.467 101.604C313.165 108.286 307.728 118.428 300.72 120.079C295.767 121.206 292.061 119.475 290.249 114.645C289.363 112.27 289.121 109.614 288.598 107.118C288.839 107.078 289.121 107.038 289.403 106.957Z" fill="#19453F" style="fill:#19453F;fill:color(display-p3 0.0980 0.2706 0.2471);fill-opacity:1;"/>
<path d="M213.69 91.4222C211.434 89.5707 209.219 87.5583 206.118 89.0475C207.286 90.9794 209.179 92.8309 209.259 94.7226C209.34 96.6948 207.608 98.7073 206.319 101.444C204.749 97.6205 199.553 96.5741 201.406 91.6637C202.372 89.0475 204.144 87.4375 207.044 87.3167C210.186 87.1155 212.401 88.5242 213.69 91.4222Z" fill="#CA6C46" style="fill:#CA6C46;fill:color(display-p3 0.7922 0.4235 0.2745);fill-opacity:1;"/>
<path d="M228.792 89.3278C225.973 87.5971 223.798 89.0461 221.543 90.495C222.469 88.3216 224.161 87.1946 226.537 87.1946C229.759 87.1544 231.853 88.7241 233.102 91.6623C235.277 96.7739 229.517 97.2972 228.47 100.678C224.08 95.8482 224.161 94.037 228.792 89.3278Z" fill="#CA6C46" style="fill:#CA6C46;fill:color(display-p3 0.7922 0.4235 0.2745);fill-opacity:1;"/>
<path d="M256.258 113.679C249.733 116.215 247.115 115.289 243.934 109.896C246.189 108.246 248.847 106.797 251.384 108.125C253.358 109.171 254.526 111.626 256.258 113.679Z" fill="#CA6C46" style="fill:#CA6C46;fill:color(display-p3 0.7922 0.4235 0.2745);fill-opacity:1;"/>
<path d="M179.012 113.961C180.341 107.239 184.529 105.911 190.289 110.258C187.308 115.289 184.852 116.134 179.012 113.961Z" fill="#CA6C46" style="fill:#CA6C46;fill:color(display-p3 0.7922 0.4235 0.2745);fill-opacity:1;"/>
<path d="M260.568 117.381C264.999 119.997 269.59 120.158 272.651 117.784C275.832 115.288 276.719 110.136 274.906 104.582C278.289 107.923 277.967 115.49 274.302 118.951C270.677 122.372 264.354 121.728 260.568 117.381Z" fill="#19453F" style="fill:#19453F;fill:color(display-p3 0.0980 0.2706 0.2471);fill-opacity:1;"/>
<path d="M172.445 118.225C169.264 121.606 163.383 121.888 160.161 119.111C156.174 115.65 156.053 108.042 160.081 103.374C157.946 107.64 157.383 112.027 160.121 116.052C163.182 120.64 167.733 119.634 172.445 118.225Z" fill="#19453F" style="fill:#19453F;fill:color(display-p3 0.0980 0.2706 0.2471);fill-opacity:1;"/>
<path d="M228.994 130.984C231.491 127.724 234.552 125.39 239.023 126.557C241.842 127.281 243.976 128.891 244.54 131.95C245.104 134.929 243.936 137.142 241.197 138.994C243.453 133.681 243.171 131.347 240.15 129.093C237.291 126.959 233.867 127.603 228.994 130.984Z" fill="#19453F" style="fill:#19453F;fill:color(display-p3 0.0980 0.2706 0.2471);fill-opacity:1;"/>
<path d="M205.475 131.267C199.957 127.403 196.453 127.001 193.634 129.376C190.935 131.63 190.855 134.045 193.513 139.116C190.613 137.587 189.647 135.292 189.727 132.596C189.808 129.738 192.103 127.323 195.285 126.478C198.749 125.552 202.373 127.081 205.475 131.267Z" fill="#19453F" style="fill:#19453F;fill:color(display-p3 0.0980 0.2706 0.2471);fill-opacity:1;"/>
<path d="M199.231 113.758C193.391 109.613 186.826 104.984 181.309 101.12C188.075 103.213 194.358 108.284 199.231 113.758Z" fill="#19453F" style="fill:#19453F;fill:color(display-p3 0.0980 0.2706 0.2471);fill-opacity:1;"/>
<path d="M240.755 108.808C237.896 111.867 234.996 114.926 232.136 117.944C231.975 117.823 231.814 117.662 231.693 117.542C234.513 114.443 237.332 111.343 240.111 108.244C240.352 108.445 240.554 108.606 240.755 108.808Z" fill="#19453F" style="fill:#19453F;fill:color(display-p3 0.0980 0.2706 0.2471);fill-opacity:1;"/>
<path d="M324.529 86.2661C316.917 57.3269 289.731 34.6666 258.236 38.2891C235.401 40.9053 220.499 56.6024 217.64 73.2254C217.559 73.5876 217.358 73.9096 216.955 74.8756C213.693 62.1568 209.867 55.3547 201.812 49.0758C185.581 36.4376 167.538 34.8679 148.729 41.7907C115.785 53.8655 98.4264 94.7185 111.596 128.407C118.926 147.123 132.136 160.284 149.857 169.34C161.094 175.056 172.451 180.57 183.325 186.929C183.325 186.929 216.874 200.453 217.035 209.187C217.035 209.187 226.862 192.122 250.343 186.929C249.698 187.09 249.054 187.211 248.45 187.372C248.812 187.332 249.175 187.292 249.537 187.251C249.658 187.251 249.738 187.251 249.859 187.251C254.008 184.474 258.357 182.059 262.828 179.765C273.058 174.492 283.65 169.864 293.396 163.867C320.219 147.364 332.463 116.413 324.529 86.2661ZM304.109 146.278C295.934 155.294 285.744 160.928 274.346 164.752C264.6 168.012 254.773 171.031 245.107 174.533C239.871 176.424 234.958 179.041 229.44 181.576C228.03 175.539 226.54 169.461 225.251 163.343C222.15 148.693 222.392 134.243 227.91 120.156C234.998 102.124 254.531 90.6533 274.588 97.4957C284.777 100.957 291.463 97.0932 296.054 85.8636C295.209 86.9504 294.363 88.0773 293.477 89.1641C288.805 94.7587 284.496 96.0064 277.81 93.2292C269.634 89.808 261.338 87.9566 252.517 89.8483C250.383 90.291 248.248 90.935 245.671 91.579C247.926 85.0586 249.014 78.6993 245.51 72.7826C243.778 69.8444 240.999 67.5502 238.18 65.2963C243.496 71.0922 244.986 77.6528 242.046 84.7366C240.435 88.6006 238.462 92.7865 235.441 95.5637C226.46 103.895 219.653 113.273 216.713 125.509C216.391 124.221 216.069 122.933 215.666 121.685C213.008 112.951 208.658 105.264 201.731 99.1459C197.14 95.1209 193.475 90.4118 191.582 84.5354C189.407 77.8943 190.333 71.8971 195.448 66.8257C195.77 66.5037 196.052 66.1415 196.576 65.4975C187.514 68.8785 184.655 77.854 188.078 91.3778C187.675 91.3778 187.272 91.5388 186.95 91.418C177.405 88.0371 167.941 88.5201 158.637 92.3035C157.791 92.6657 156.946 92.9877 156.1 93.35C149.454 96.0064 144.984 94.799 140.473 89.2043C139.587 88.1176 138.822 86.9504 137.815 85.5416C142.286 97.7371 149.817 100.716 159.483 97.6164C174.989 92.5852 188.158 96.8517 198.992 108.685C204.55 114.763 207.369 122.289 209.101 130.259C212.082 143.822 210.35 157.145 207.128 170.427C206.202 174.17 205.235 177.873 204.188 181.939C189.528 173.124 173.217 169.582 157.63 164.068C145.024 159.6 133.707 152.879 126.256 141.367C108.737 114.36 112.2 75.6806 140.675 55.5157C141.561 54.8717 142.487 54.3082 143.776 54.0667C142.89 55.4755 141.923 56.8439 141.158 58.2929C138.58 63.1631 140.433 67.8722 145.709 69.4017C146.716 69.6834 148.528 68.9992 149.213 68.154C151.67 65.095 151.589 62.1568 149.213 58.5747C147.964 56.7232 146.474 55.0327 144.823 52.8995C157.993 45.8559 171.646 44.2862 185.702 49.1563C210.753 57.8502 217.116 78.0553 217.076 101.762C217.921 94.7185 218.324 87.5541 219.694 80.6312C223.318 62.4788 237.898 49.5991 256.988 46.9829C268.184 45.4534 278.575 47.6269 288.966 52.7788C287.315 54.9925 285.865 56.7232 284.657 58.5747C282.482 61.9958 282.603 65.578 284.979 68.5162C285.462 69.12 286.469 69.7639 287.194 69.7237C291.866 69.5627 295.289 64.4108 293.557 60.0639C292.712 57.9307 291.342 56.039 290.617 53.463C293.88 56.0792 297.343 58.4942 300.324 61.3921C328.073 88.2383 320.26 128.528 304.109 146.278Z" fill="#19453F" style="fill:#19453F;fill:color(display-p3 0.0980 0.2706 0.2471);fill-opacity:1;"/>
<path d="M217.031 209.188C217.031 209.188 234.591 196.147 257.709 182.502L231.691 187.373L217.998 201.379L217.031 209.188Z" fill="#19453F" style="fill:#19453F;fill:color(display-p3 0.0980 0.2706 0.2471);fill-opacity:1;"/>
<path d="M217.153 209.19C213.407 206.453 209.5 203.716 205.473 200.979C195.324 194.056 185.416 188.019 175.871 182.706C184.732 184.276 193.632 185.805 202.493 187.375L216.186 201.382L217.153 209.19Z" fill="#19453F" style="fill:#19453F;fill:color(display-p3 0.0980 0.2706 0.2471);fill-opacity:1;"/>
<path d="M74.8625 74.2543L71.5414 60.8599L40.9672 68.4408L38.8012 59.7054L59.837 5.34511L69.9313 2.84221L81.2184 48.3638L91.0216 45.9331L93.3801 55.445L83.5769 57.8757L86.8981 71.2701L74.8625 74.2543ZM69.1829 51.348L61.5538 20.5797L63.8833 20.0021L48.6485 59.5303L47.9265 56.6185L69.1829 51.348Z" fill="#19453F" style="fill:#19453F;fill:color(display-p3 0.0980 0.2706 0.2471);fill-opacity:1;"/>
<path d="M370.621 172.015L374.556 158.788L344.364 149.805L346.931 141.178L392.643 105.013L402.611 107.978L389.236 152.931L398.917 155.811L396.122 165.204L386.442 162.324L382.506 175.551L370.621 172.015ZM377.351 149.395L386.391 119.011L388.692 119.696L355.505 146.025L356.361 143.149L377.351 149.395Z" fill="#19453F" style="fill:#19453F;fill:color(display-p3 0.0980 0.2706 0.2471);fill-opacity:1;"/>
</svg>
