<svg width="316" height="274" viewBox="0 0 316 274" fill="none" xmlns="http://www.w3.org/2000/svg">
<path d="M303.657 190.603C278.819 236.754 227.64 239.449 202.672 221.998C177.652 204.6 149.119 188.401 112.105 207.394C75.0905 226.386 8.69907 216.543 0.8077 152.834C-7.08367 89.1243 48.114 38.5468 87.5469 35.7427C126.98 32.9386 160.997 -4.59268 217.115 14.7504C236.52 21.442 271.397 35.9203 299.995 83.398C321.929 119.751 316.966 165.857 303.657 190.603Z" fill="#E4EBE4"/>
<path d="M210.544 3.33054C210.175 3.82406 209.851 4.2099 209.581 4.62267C209.095 5.38539 209.122 6.184 209.653 6.83904C209.761 6.97364 209.986 7.11721 210.148 7.10823C211.192 7.07234 211.957 5.92378 211.57 4.95467C211.381 4.4791 211.075 4.05736 210.913 3.48308C211.642 4.06633 212.416 4.60472 213.082 5.25079C219.266 11.2628 217.511 20.2449 213.91 24.2021C212.083 26.2121 209.806 27.4683 207.258 28.3208C205.08 29.0476 202.884 29.7206 200.724 30.5013C199.553 30.923 198.455 31.5063 197.222 32.0716C196.907 30.7256 196.574 29.3706 196.286 28.0067C195.593 24.7405 195.647 21.5191 196.88 18.3785C198.464 14.3585 202.83 11.8012 207.312 13.3266C209.59 14.0983 211.084 13.2369 212.11 10.7334C211.921 10.9757 211.732 11.2269 211.534 11.4692C210.49 12.7165 209.527 12.9946 208.032 12.3755C206.205 11.6128 204.351 11.2 202.38 11.6217C201.903 11.7204 201.426 11.864 200.85 12.0076C201.354 10.5539 201.597 9.13617 200.814 7.81712C200.427 7.16208 199.805 6.6506 199.175 6.14811C200.364 7.44024 200.697 8.90287 200.039 10.4821C199.679 11.3436 199.238 12.2768 198.563 12.8959C196.556 14.7534 195.035 16.8441 194.378 19.572C194.306 19.2848 194.234 18.9977 194.144 18.7195C193.55 16.7723 192.578 15.0585 191.029 13.6945C190.003 12.7972 189.184 11.7474 188.761 10.4373C188.275 8.95671 188.482 7.6197 189.625 6.48909C189.697 6.4173 189.76 6.33654 189.877 6.19297C187.852 6.94672 187.213 8.94773 187.978 11.9627C187.888 11.9627 187.798 11.9986 187.726 11.9717C185.593 11.2179 183.478 11.3256 181.398 12.1691C181.209 12.2499 181.02 12.3216 180.831 12.4024C179.346 12.9946 178.347 12.7254 177.339 11.4782C177.141 11.2359 176.97 10.9757 176.745 10.6616C177.744 13.3805 179.427 14.0445 181.587 13.3536C185.053 12.2319 187.996 13.1831 190.417 15.8212C191.66 17.1761 192.29 18.8541 192.677 20.6308C193.343 23.6547 192.956 26.6249 192.236 29.586C192.029 30.4205 191.813 31.246 191.579 32.1523C188.302 30.1872 184.657 29.3976 181.173 28.1682C178.356 27.1722 175.827 25.6737 174.161 23.1074C170.246 17.0864 171.02 8.46318 177.384 3.96763C177.582 3.82406 177.789 3.69843 178.077 3.6446C177.879 3.95866 177.663 4.26374 177.492 4.58678C176.916 5.67253 177.33 6.72239 178.509 7.06337C178.734 7.12618 179.139 6.97364 179.292 6.7852C179.841 6.10324 179.823 5.4482 179.292 4.64959C179.013 4.23682 178.68 3.85995 178.311 3.38437C181.254 1.81407 184.306 1.46412 187.447 2.54987C193.046 4.48807 194.468 8.9926 194.459 14.2778C194.648 12.7075 194.738 11.1103 195.044 9.56688C195.854 5.51999 199.112 2.64857 203.379 2.06532C205.899 1.68845 208.221 2.18197 210.544 3.33054ZM208.545 14.2598C208.825 15.3905 209.122 16.3596 209.284 17.3556C209.536 18.89 209.824 20.4424 209.86 21.9947C209.905 23.9239 208.653 25.5301 207.069 25.907C205.62 26.248 204.108 25.4583 203.586 24.0765C203.055 22.6677 203.496 21.7076 205.053 20.891C205.431 20.6936 205.8 20.4872 206.169 20.2808C205.629 20.3885 205.143 20.6128 204.684 20.882C203.577 21.5191 202.785 22.3716 202.803 23.7355C202.83 25.1622 203.532 26.1941 204.756 26.8671C207.366 28.3028 210.598 26.571 211.111 23.4663C211.444 21.4563 210.994 19.545 210.319 17.6696C209.914 16.5031 209.491 15.3277 208.545 14.2598ZM180.345 14.4034C179.13 16.0724 178.365 17.9299 177.933 19.9129C177.609 21.3666 177.492 22.8292 177.978 24.2739C179.013 27.4055 183.064 28.4105 185.188 26.0596C186.052 25.0994 186.394 23.9598 185.971 22.7215C185.539 21.4743 184.486 20.9 183.334 20.4693C183.64 20.7295 184 20.9269 184.351 21.1333C185.521 21.8242 185.881 22.9907 185.314 24.229C184.612 25.7724 182.73 26.4454 181.218 25.6827C180.228 25.1892 179.616 24.3726 179.274 23.3317C178.833 21.9947 178.959 20.6308 179.229 19.2938C179.553 17.6607 179.967 16.0365 180.345 14.4034ZM204.711 3.10621C202.524 3.90482 201.759 6.12119 202.623 8.79519C203.388 8.40037 204.153 8.00555 204.918 7.60176C205.062 7.52997 205.197 7.44024 205.323 7.35051C206.331 6.60574 206.412 5.82507 205.53 4.99057C204.999 4.4791 204.531 3.9766 204.711 3.10621ZM186.25 8.74135C187.24 6.33654 186.304 3.75227 184.252 3.18696C184.144 4.17401 184.144 4.17401 183.397 5.02646C182.595 5.94172 182.667 6.6865 183.694 7.34154C184.522 7.84403 185.395 8.27475 186.25 8.74135ZM207.708 10.6706C209.815 10.9129 211.525 9.73737 211.804 7.87993C209.473 6.97364 207.816 8.08631 207.708 10.6706ZM177.06 7.87095C177.384 9.77326 179.184 11.0026 181.128 10.6526C180.867 7.97863 179.328 6.9198 177.06 7.87095ZM190.363 20.9807C190.462 21.1782 190.498 21.2499 190.525 21.3127C191.038 22.4793 190.516 23.3407 189.256 23.4394C188.149 23.5291 187.276 23.1253 186.772 22.1383C186.232 21.0974 186.241 20.0206 186.979 19.0695C187.879 17.9119 189.058 17.7414 190.39 18.3067C188.725 17.1043 186.349 18.0375 185.827 20.0924C185.485 21.4384 185.917 22.6318 186.889 23.556C187.753 24.3726 188.878 24.2739 189.913 23.897C191.209 23.4304 191.471 21.9947 190.363 20.9807ZM198.482 21.1064C197.762 21.8601 197.717 22.6497 198.311 23.3497C199.193 24.3905 201.444 24.4085 202.299 23.3497C202.974 22.5062 203.325 21.5281 203.181 20.4334C203.028 19.2848 202.389 18.4683 201.327 18.0106C200.31 17.5709 199.292 17.6966 198.491 18.3696C198.77 18.2708 198.959 18.1901 199.148 18.1363C200.355 17.7773 201.561 18.2619 202.164 19.3656C202.722 20.3885 202.668 21.4294 202.038 22.3895C201.471 23.2599 200.616 23.5471 199.607 23.4125C198.509 23.2689 198.032 22.5331 198.356 21.4832C198.392 21.3935 198.428 21.2948 198.482 21.1064ZM175.026 23.0805C176.511 22.0755 177.294 20.8731 177.33 19.0784C176.565 19.222 175.854 19.3028 175.17 19.4912C174.513 19.6707 174.198 20.227 174.324 20.8641C174.459 21.5999 174.765 22.2998 175.026 23.0805ZM213.82 23.0177C214.279 22.0216 214.963 21.0705 214.315 20.0475C213.712 19.0964 212.605 19.2669 211.624 19.1323C211.606 20.891 212.461 22.0396 213.82 23.0177ZM205.782 23.0177C206.385 23.1522 206.943 23.3317 207.519 23.3855C208.536 23.4843 208.987 23.0715 209.059 22.0396C209.095 21.573 209.068 21.0974 209.068 20.5411C207.726 21.0525 206.331 21.3127 205.782 23.0177ZM183.154 23.0087C182.523 21.4115 181.263 20.9897 179.913 20.5949C179.913 21.232 179.85 21.7973 179.931 22.3447C180.039 23.1433 180.426 23.4573 181.236 23.3855C181.857 23.3407 182.46 23.1522 183.154 23.0087ZM206.394 17.221C206.349 16.3775 206.367 15.6597 206.268 14.9508C206.169 14.2598 205.791 14.0176 205.098 14.1611C204.504 14.2868 203.937 14.4931 203.343 14.6726C203.712 16.2609 205.062 16.5929 206.394 17.221ZM185.566 14.6995C184.945 14.5111 184.369 14.3137 183.775 14.1611C183.217 14.0265 182.812 14.2778 182.721 14.8341C182.613 15.5789 182.595 16.3326 182.523 17.1941C183.856 16.6198 185.134 16.2429 185.566 14.6995ZM213.802 16.4044C213.865 16.0006 213.937 15.6776 213.964 15.3456C214.081 13.6586 213.676 13.3087 212.02 13.6586C211.93 13.6766 211.849 13.7215 211.759 13.7215C211.246 13.7484 211.246 14.0355 211.372 14.4214C211.75 15.5789 212.767 15.9289 213.802 16.4044ZM175.035 16.225C175.116 16.2878 175.206 16.3506 175.287 16.4134C175.953 15.9378 176.7 15.543 177.276 14.9777C177.897 14.3585 177.681 13.8471 176.835 13.6407C176.637 13.5958 176.439 13.551 176.232 13.5151C175.467 13.3805 175.107 13.6228 175.044 14.4034C174.999 15.0046 175.035 15.6148 175.035 16.225ZM191.155 9.97965C191.831 9.56688 192.326 9.10028 192.299 8.30167C192.272 7.35051 191.66 6.77623 190.858 6.17503C190.624 6.65958 190.39 7.03645 190.264 7.44922C189.949 8.46318 190.795 9.10028 191.155 9.97965ZM197.78 9.88991C197.996 9.55791 198.212 9.21693 198.428 8.87595C198.842 8.20296 198.797 7.29667 198.347 6.64163C198.149 6.35449 197.978 6.30962 197.681 6.50703C196.277 7.44922 196.313 9.01952 197.78 9.88991ZM176.178 11.3615C175.44 9.76429 174.071 9.57585 172.703 10.859C173.693 12.2319 174.981 12.4293 176.178 11.3615ZM207.087 4.66754C207.744 5.41231 207.951 6.14811 207.753 7.00953C207.438 8.34653 206.547 9.10028 205.314 9.51304C204.648 9.73737 203.964 9.89889 203.289 10.1232C202.668 10.3296 202.119 10.6347 201.84 11.1462C202.776 10.8859 203.739 10.5629 204.72 10.3565C206.232 10.0335 207.321 9.2259 207.969 7.82609C208.536 6.61471 208.221 5.36744 207.087 4.66754ZM187.357 11.1821C186.781 10.8052 186.358 10.4193 185.863 10.2129C185.134 9.91683 184.351 9.75532 183.595 9.51304C182.289 9.0913 181.344 8.26577 181.164 6.87493C181.074 6.22887 181.299 5.53793 181.371 4.93673C180.759 5.49307 180.516 6.29168 180.759 7.18899C181.227 8.91184 182.37 9.9617 184.135 10.3386C185.143 10.5539 186.133 10.859 187.357 11.1821ZM187.654 28.599C188.464 26.7864 187.861 25.8083 185.899 25.7006C185.395 26.6518 186.007 27.9619 187.654 28.599ZM203.001 25.6558C200.967 25.9429 200.301 27.1184 201.327 28.572C202.839 27.926 203.379 27.0107 203.001 25.6558ZM216.277 10.9667C215.62 10.3117 214.936 9.97965 214.081 10.0694C213.604 10.1232 212.668 11.1103 212.875 11.3436C213.181 11.6756 213.676 11.9448 214.117 11.9986C214.972 12.0973 215.566 11.4871 216.277 10.9667ZM174.522 13.2728C174.45 13.2459 174.387 13.21 174.315 13.1831C174.062 13.6227 173.693 14.0445 173.576 14.5201C173.243 15.8212 174.017 17.4633 175.179 18.1452C176.016 18.6298 177.105 18.5131 177.69 17.876C178.284 17.2389 178.572 16.1173 178.365 15.1751C178.266 15.5879 178.203 15.9647 178.077 16.3237C177.807 17.1043 177.402 17.7773 176.457 17.8491C175.512 17.9209 174.819 17.4722 174.387 16.6826C173.756 15.552 173.63 14.3944 174.522 13.2728ZM210.625 15.4353C210.562 15.4443 210.499 15.4622 210.436 15.4712C210.553 16.0365 210.598 16.6198 210.805 17.1492C211.219 18.226 212.038 18.6118 213.145 18.3606C214.711 18.0017 215.935 15.7404 215.323 14.2419C215.188 13.9099 214.918 13.6317 214.711 13.3356C215.377 14.8072 215.134 16.3955 213.982 17.3466C212.866 18.2619 211.543 17.9658 210.976 16.6467C210.823 16.2698 210.742 15.8481 210.625 15.4353ZM193.703 11.9717C193.415 11.3256 192.92 11.0116 192.218 11.0475C191.57 11.0744 191.182 11.4423 190.957 12.0166C190.543 13.1203 191.705 13.3446 192.056 14.197C192.344 13.5958 192.731 13.1382 192.713 12.6985C192.695 12.2768 192.272 11.864 192.011 11.4333C192.704 11.1103 193.199 11.5499 193.703 11.9717ZM197.078 11.5051C196.043 12.5549 196.025 12.9587 197.015 14.0355C197.258 13.2907 198.545 13.1651 198.05 12.0255C197.771 11.3705 197.303 11.0205 196.583 11.0295C196.052 11.0385 195.674 11.2897 195.467 11.7653C195.971 11.4423 196.448 11.1282 197.078 11.5051ZM203.217 16.9338C202.839 16.4762 202.569 15.9289 202.137 15.6955C201.57 15.3994 200.976 15.7225 200.472 16.0904C201.174 17.2928 201.759 17.4992 203.217 16.9338ZM185.953 16.9967C187.258 17.4812 187.807 17.2928 188.473 16.1711C187.186 15.202 186.25 15.4981 185.953 16.9967ZM204.18 17.7594C205.035 18.7195 206.439 18.872 207.249 18.1093C208.068 17.3376 208.14 15.6507 207.384 14.9059C207.789 16.1442 207.591 17.2928 206.88 17.8491C206.187 18.3785 205.17 18.3426 204.18 17.7594ZM184.486 17.9478C183.433 18.2619 182.415 18.4772 181.731 17.4633C181.119 16.5659 181.245 15.5879 181.722 14.6367C180.822 15.6686 180.849 17.3735 181.74 18.1452C182.46 18.7733 183.775 18.7105 184.486 17.9478ZM197.123 20.7923C198.212 20.0296 198.968 19.895 199.616 20.3706C200.283 20.8641 200.346 21.3935 199.85 22.578C200.463 22.1742 200.715 21.6717 200.598 21.0077C200.472 20.3257 199.994 19.9668 199.364 19.8053C198.365 19.554 197.69 20.0745 197.123 20.7923ZM191.867 20.8551C191.173 19.9219 190.363 19.5809 189.589 19.7873C188.878 19.9757 188.365 20.5052 188.347 21.1512C188.338 21.7614 188.545 22.2729 189.193 22.6049C188.599 21.4743 188.617 20.9448 189.22 20.4334C189.859 19.904 190.633 19.9937 191.867 20.8551ZM190.471 16.9518C189.382 15.7314 187.978 14.6008 186.466 14.1342C187.699 15.0046 189.166 16.0365 190.471 16.9518ZM199.751 15.8481C199.706 15.8032 199.652 15.7673 199.607 15.7225C198.977 16.4134 198.347 17.1043 197.726 17.7953C197.762 17.8222 197.798 17.8581 197.825 17.885C198.473 17.203 199.112 16.5211 199.751 15.8481Z" fill="#F5F7FA"/>
<path d="M208.546 14.2588C209.491 15.3266 209.914 16.5021 210.337 17.6686C211.012 19.544 211.462 21.4553 211.129 23.4653C210.616 26.57 207.376 28.3018 204.774 26.8661C203.55 26.1931 202.848 25.1612 202.821 23.7345C202.794 22.3616 203.595 21.5091 204.702 20.881C205.161 20.6208 205.647 20.3875 206.187 20.2798C205.818 20.4862 205.44 20.6925 205.071 20.89C203.505 21.7065 203.064 22.6666 203.604 24.0754C204.126 25.4573 205.629 26.2469 207.087 25.906C208.672 25.5291 209.932 23.9229 209.878 21.9937C209.842 20.4413 209.554 18.8979 209.302 17.3545C209.122 16.3585 208.816 15.3894 208.546 14.2588Z" fill="#19453F"/>
<path d="M180.346 14.4043C179.968 16.0374 179.554 17.6526 179.221 19.2947C178.96 20.6317 178.834 21.9956 179.266 23.3326C179.608 24.3645 180.22 25.1811 181.21 25.6836C182.722 26.4463 184.604 25.7733 185.306 24.2299C185.873 22.9916 185.504 21.8251 184.343 21.1342C183.992 20.9278 183.632 20.7304 183.325 20.4702C184.478 20.9009 185.531 21.4751 185.963 22.7224C186.395 23.9697 186.053 25.1003 185.18 26.0604C183.055 28.4114 179.005 27.4064 177.97 24.2748C177.493 22.8301 177.601 21.3675 177.925 19.9138C178.375 17.9307 179.131 16.0823 180.346 14.4043Z" fill="#19453F"/>
<path d="M204.711 3.10645C204.531 3.97684 204.999 4.48831 205.531 4.99081C206.413 5.83429 206.332 6.60598 205.324 7.35075C205.198 7.44048 205.062 7.53021 204.918 7.602C204.153 8.00579 203.397 8.40061 202.623 8.79543C201.767 6.11245 202.533 3.90506 204.711 3.10645Z" fill="#CA6C46"/>
<path d="M186.252 8.74109C185.397 8.27449 184.523 7.85275 183.704 7.33231C182.669 6.68624 182.597 5.93249 183.407 5.01723C184.154 4.16478 184.154 4.16478 184.262 3.17773C186.306 3.74304 187.242 6.32731 186.252 8.74109Z" fill="#CA6C46"/>
<path d="M207.709 10.6705C207.817 8.09519 209.483 6.97355 211.805 7.87984C211.517 9.72831 209.816 10.9038 207.709 10.6705Z" fill="#CA6C46"/>
<path d="M177.061 7.87056C179.329 6.91941 180.869 7.96927 181.13 10.6522C179.185 11.0112 177.385 9.77288 177.061 7.87056Z" fill="#CA6C46"/>
<path d="M190.363 20.9806C191.48 21.9856 191.21 23.4303 189.913 23.8879C188.878 24.2558 187.753 24.3635 186.889 23.5469C185.917 22.6317 185.485 21.4293 185.827 20.0833C186.349 18.0284 188.725 17.0952 190.39 18.2976C189.058 17.7413 187.879 17.9028 186.979 19.0604C186.241 20.0115 186.232 21.0883 186.772 22.1292C187.276 23.1162 188.149 23.52 189.256 23.4303C190.516 23.3316 191.039 22.4612 190.525 21.3036C190.489 21.2498 190.453 21.187 190.363 20.9806Z" fill="#19453F"/>
<path d="M198.482 21.107C198.419 21.2954 198.383 21.3942 198.356 21.4929C198.032 22.5517 198.5 23.2785 199.607 23.4221C200.616 23.5567 201.471 23.2606 202.038 22.3991C202.668 21.43 202.722 20.3981 202.164 19.3752C201.561 18.2625 200.355 17.7869 199.148 18.1459C198.959 18.1997 198.77 18.2805 198.491 18.3792C199.292 17.7062 200.31 17.5806 201.327 18.0202C202.389 18.4779 203.028 19.2944 203.181 20.443C203.325 21.5377 202.974 22.5158 202.299 23.3593C201.444 24.4181 199.193 24.4002 198.311 23.3593C197.726 22.6504 197.762 21.8518 198.482 21.107Z" fill="#19453F"/>
<path d="M175.025 23.0811C174.764 22.3005 174.467 21.6006 174.323 20.8648C174.197 20.2277 174.512 19.6803 175.169 19.4919C175.854 19.3034 176.565 19.2137 177.33 19.0791C177.294 20.8737 176.511 22.0761 175.025 23.0811Z" fill="#CA6C46"/>
<path d="M213.82 23.0174C212.47 22.0393 211.605 20.8908 211.632 19.123C212.614 19.2576 213.721 19.0872 214.324 20.0383C214.963 21.0702 214.279 22.0214 213.82 23.0174Z" fill="#CA6C46"/>
<path d="M205.782 23.0178C206.331 21.3129 207.718 21.0437 209.059 20.5322C209.059 21.0886 209.086 21.5641 209.05 22.0307C208.978 23.0627 208.537 23.4754 207.511 23.3767C206.944 23.3319 206.385 23.1524 205.782 23.0178Z" fill="#CA6C46"/>
<path d="M183.154 23.0093C182.461 23.1529 181.849 23.3413 181.236 23.3951C180.426 23.4669 180.039 23.1529 179.931 22.3543C179.859 21.8069 179.913 21.2326 179.913 20.6045C181.263 20.9903 182.524 21.4121 183.154 23.0093Z" fill="#CA6C46"/>
<path d="M206.397 17.221C205.055 16.5929 203.714 16.2609 203.345 14.6637C203.939 14.4842 204.506 14.2778 205.1 14.1522C205.793 14.0087 206.172 14.2599 206.271 14.9419C206.37 15.6597 206.361 16.3865 206.397 17.221Z" fill="#CA6C46"/>
<path d="M185.567 14.7002C185.135 16.2525 183.857 16.6204 182.533 17.2037C182.596 16.3423 182.614 15.5885 182.731 14.8437C182.812 14.2874 183.217 14.0272 183.785 14.1707C184.37 14.3053 184.946 14.5117 185.567 14.7002Z" fill="#CA6C46"/>
<path d="M213.803 16.4046C212.759 15.929 211.742 15.5791 211.364 14.4215C211.238 14.0357 211.238 13.7485 211.751 13.7216C211.841 13.7216 211.922 13.6767 212.012 13.6588C213.668 13.3088 214.073 13.6588 213.956 15.3458C213.947 15.6688 213.866 16.0008 213.803 16.4046Z" fill="#CA6C46"/>
<path d="M175.286 16.4138C174.98 15.5075 174.998 14.8076 175.043 14.4038C175.097 13.9372 175.205 13.7398 175.367 13.6232C175.565 13.4706 175.844 13.4437 176.24 13.5155C176.438 13.5514 176.645 13.5962 176.843 13.6411C177.294 13.7488 177.564 13.9462 177.627 14.2064C177.681 14.4218 177.555 14.6641 177.285 14.9781C176.96 15.346 176.357 15.9203 175.286 16.4138Z" fill="#CA6C46"/>
<path d="M191.156 9.9804C190.795 9.11 189.949 8.46394 190.264 7.44997C190.39 7.03721 190.633 6.66033 190.858 6.17578C191.669 6.77698 192.272 7.35127 192.299 8.30242C192.335 9.10103 191.831 9.56764 191.156 9.9804Z" fill="#CA6C46"/>
<path d="M197.782 9.89005C196.314 9.02863 196.269 7.45833 197.683 6.51615C197.98 6.31874 198.151 6.3636 198.349 6.65074C198.799 7.29681 198.844 8.21207 198.43 8.88506C198.223 9.21707 197.998 9.54907 197.782 9.89005Z" fill="#CA6C46"/>
<path d="M176.178 11.3618C174.981 12.4206 173.693 12.2232 172.703 10.8593C174.072 9.58507 175.44 9.76454 176.178 11.3618Z" fill="#CA6C46"/>
<path d="M207.086 4.66699C208.212 5.37587 208.527 6.62314 207.969 7.82554C207.321 9.21638 206.231 10.0329 204.719 10.356C203.738 10.5624 202.775 10.8854 201.839 11.1456C202.118 10.6341 202.676 10.3291 203.288 10.1227C203.954 9.89834 204.647 9.73683 205.313 9.5125C206.546 9.09973 207.438 8.34599 207.753 7.00899C207.96 6.14756 207.744 5.41176 207.086 4.66699Z" fill="#19453F"/>
<path d="M187.357 11.1818C186.124 10.8588 185.143 10.5537 184.135 10.3384C182.362 9.95252 181.227 8.91163 180.759 7.18879C180.516 6.30044 180.75 5.49286 181.372 4.93652C181.3 5.53773 181.074 6.22866 181.164 6.87473C181.354 8.26557 182.29 9.10007 183.595 9.51284C184.351 9.75511 185.134 9.91663 185.863 10.2127C186.358 10.4191 186.781 10.805 187.357 11.1818Z" fill="#19453F"/>
<path d="M187.654 28.5985C186.006 27.9614 185.394 26.6514 185.898 25.7002C187.861 25.8079 188.464 26.7859 187.654 28.5985Z" fill="#CA6C46"/>
<path d="M203.002 25.6553C203.38 27.0012 202.84 27.9165 201.328 28.5716C200.301 27.1179 200.968 25.9424 203.002 25.6553Z" fill="#CA6C46"/>
<path d="M216.279 10.9654C215.577 11.4858 214.974 12.096 214.119 11.9883C213.677 11.9345 213.173 11.6653 212.876 11.3333C212.669 11.1089 213.605 10.1129 214.083 10.0591C214.938 9.96935 215.622 10.3103 216.279 10.9654Z" fill="#CA6C46"/>
<path d="M174.523 13.2731C173.622 14.3858 173.757 15.5434 174.388 16.6919C174.82 17.4816 175.513 17.9302 176.458 17.8584C177.404 17.7866 177.809 17.1137 178.079 16.333C178.205 15.9741 178.268 15.5972 178.367 15.1844C178.574 16.1266 178.286 17.2393 177.692 17.8853C177.107 18.5224 176.008 18.6391 175.18 18.1545C174.01 17.4726 173.244 15.8395 173.577 14.5294C173.703 14.0538 174.064 13.641 174.316 13.1924C174.388 13.2193 174.46 13.2462 174.523 13.2731Z" fill="#19453F"/>
<path d="M210.625 15.4347C210.742 15.8385 210.823 16.2602 210.985 16.6461C211.552 17.9651 212.876 18.2612 213.992 17.346C215.144 16.4038 215.387 14.8066 214.721 13.335C214.928 13.64 215.198 13.9092 215.333 14.2412C215.936 15.7308 214.721 17.992 213.155 18.3599C212.047 18.6112 211.219 18.2253 210.814 17.1486C210.616 16.6191 210.562 16.0269 210.445 15.4706C210.499 15.4616 210.562 15.4526 210.625 15.4347Z" fill="#19453F"/>
<path d="M193.704 11.9732C193.2 11.5604 192.705 11.1118 192.012 11.4438C192.273 11.8745 192.696 12.2872 192.714 12.709C192.732 13.1487 192.345 13.5973 192.057 14.2075C191.705 13.3551 190.544 13.1218 190.958 12.027C191.174 11.4438 191.57 11.0848 192.219 11.0579C192.921 11.0131 193.416 11.3271 193.704 11.9732Z" fill="#CA6C46"/>
<path d="M197.079 11.506C196.448 11.1202 195.962 11.4432 195.458 11.7662C195.665 11.2817 196.043 11.0304 196.574 11.0304C197.295 11.0215 197.763 11.3714 198.042 12.0265C198.528 13.1661 197.241 13.2827 197.006 14.0365C196.025 12.9597 196.043 12.5559 197.079 11.506Z" fill="#CA6C46"/>
<path d="M203.217 16.9351C201.758 17.5004 201.173 17.294 200.462 16.0916C200.966 15.7237 201.56 15.4007 202.127 15.6968C202.569 15.9301 202.83 16.4775 203.217 16.9351Z" fill="#CA6C46"/>
<path d="M185.953 16.9972C186.25 15.4986 187.187 15.2025 188.474 16.1716C187.808 17.2933 187.259 17.4817 185.953 16.9972Z" fill="#CA6C46"/>
<path d="M204.181 17.7597C205.171 18.343 206.197 18.3789 206.882 17.8494C207.593 17.2931 207.791 16.1445 207.386 14.9062C208.142 15.651 208.07 17.338 207.251 18.1097C206.44 18.8724 205.027 18.7288 204.181 17.7597Z" fill="#19453F"/>
<path d="M184.486 17.9468C183.775 18.7006 182.461 18.7634 181.741 18.1442C180.849 17.3726 180.822 15.6766 181.723 14.6357C181.245 15.5869 181.119 16.565 181.732 17.4623C182.416 18.4852 183.433 18.2609 184.486 17.9468Z" fill="#19453F"/>
<path d="M197.124 20.7933C197.682 20.0665 198.366 19.5461 199.366 19.8063C199.996 19.9678 200.473 20.3267 200.599 21.0087C200.725 21.6727 200.464 22.1662 199.852 22.579C200.356 21.3945 200.293 20.8741 199.618 20.3716C198.979 19.896 198.213 20.0396 197.124 20.7933Z" fill="#19453F"/>
<path d="M191.869 20.8554C190.635 19.9939 189.852 19.9042 189.222 20.4336C188.619 20.9361 188.601 21.4745 189.195 22.6051C188.547 22.2641 188.331 21.7527 188.349 21.1515C188.367 20.5144 188.88 19.976 189.591 19.7876C190.365 19.5812 191.176 19.9222 191.869 20.8554Z" fill="#19453F"/>
<path d="M190.473 16.9523C189.168 16.0281 187.7 14.9962 186.467 14.1348C187.979 14.6014 189.384 15.732 190.473 16.9523Z" fill="#19453F"/>
<path d="M199.753 15.8473C199.114 16.5293 198.466 17.2112 197.827 17.8842C197.791 17.8573 197.755 17.8214 197.728 17.7945C198.358 17.1035 198.988 16.4126 199.609 15.7217C199.663 15.7665 199.708 15.8024 199.753 15.8473Z" fill="#19453F"/>
<path d="M218.477 10.8233C216.776 4.37156 210.7 -0.680333 203.661 0.127252C198.557 0.710508 195.227 4.21004 194.588 7.91596C194.57 7.99672 194.525 8.0685 194.435 8.28386C193.706 5.44834 192.851 3.93187 191.051 2.53206C187.423 -0.285515 183.391 -0.635468 179.187 0.907917C171.824 3.59987 167.945 12.7076 170.888 20.2182C172.526 24.3907 175.479 27.3249 179.439 29.3439C181.95 30.6181 184.489 31.8474 186.919 33.2651C186.919 33.2651 194.417 36.2801 194.453 38.2273C194.453 38.2273 196.649 34.4227 201.897 33.2651C201.753 33.301 201.609 33.328 201.474 33.3639C201.555 33.3549 201.636 33.3459 201.717 33.3369C201.744 33.3369 201.762 33.3369 201.789 33.3369C202.716 32.7178 203.688 32.1794 204.687 31.6679C206.973 30.4924 209.341 29.4605 211.519 28.1235C217.514 24.4445 220.25 17.5442 218.477 10.8233ZM213.913 24.2023C212.086 26.2122 209.809 27.4685 207.261 28.3209C205.083 29.0478 202.887 29.7208 200.727 30.5014C199.557 30.9232 198.458 31.5064 197.225 32.0717C196.91 30.7257 196.577 29.3708 196.289 28.0069C195.596 24.7406 195.65 21.5193 196.883 18.3787C198.467 14.3587 202.833 11.8013 207.315 13.3268C209.593 14.0985 211.087 13.237 212.113 10.7335C211.924 10.9758 211.735 11.2271 211.537 11.4693C210.493 12.7166 209.53 12.9948 208.036 12.3756C206.208 11.6129 204.354 11.2001 202.383 11.6219C201.906 11.7206 201.429 11.8642 200.853 12.0077C201.357 10.5541 201.6 9.13631 200.817 7.81726C200.43 7.16221 199.809 6.65074 199.178 6.14825C200.367 7.44038 200.7 8.90301 200.043 10.4823C199.683 11.3437 199.242 12.2769 198.566 12.8961C196.559 14.7535 195.038 16.8443 194.381 19.5721C194.309 19.285 194.237 18.9978 194.147 18.7197C193.553 16.7725 192.581 15.0586 191.033 13.6947C190.006 12.7974 189.187 11.7475 188.764 10.4374C188.278 8.95685 188.485 7.61984 189.628 6.48922C189.7 6.41744 189.763 6.33668 189.88 6.19311C187.855 6.94686 187.216 8.94787 187.981 11.9629C187.891 11.9629 187.801 11.9987 187.729 11.9718C185.596 11.2181 183.481 11.3258 181.401 12.1692C181.212 12.25 181.023 12.3218 180.834 12.4025C179.349 12.9948 178.35 12.7256 177.342 11.4783C177.144 11.236 176.973 10.9758 176.748 10.6617C177.747 13.3806 179.43 14.0446 181.59 13.3537C185.056 12.2321 187.999 13.1832 190.42 15.8213C191.663 17.1763 192.293 18.8542 192.68 20.6309C193.346 23.6549 192.959 26.625 192.239 29.5862C192.032 30.4207 191.816 31.2462 191.582 32.1525C188.305 30.1874 184.66 29.3977 181.176 28.1684C178.359 27.1724 175.83 25.6739 174.165 23.1075C170.249 17.0865 171.023 8.46332 177.387 3.96777C177.585 3.82419 177.792 3.69857 178.08 3.64473C177.882 3.95879 177.666 4.26388 177.495 4.58692C176.919 5.67267 177.333 6.72253 178.512 7.06351C178.737 7.12632 179.142 6.97378 179.295 6.78534C179.844 6.10338 179.826 5.44834 179.295 4.64973C179.016 4.23696 178.683 3.86009 178.314 3.38451C181.257 1.81421 184.309 1.46425 187.45 2.55001C193.049 4.48821 194.471 8.99274 194.462 14.2779C194.651 12.7076 194.741 11.1104 195.047 9.56702C195.857 5.52012 199.115 2.64871 203.382 2.06546C205.884 1.72448 208.207 2.20903 210.529 3.35759C210.16 3.85112 209.836 4.23696 209.566 4.64973C209.08 5.41245 209.107 6.21106 209.638 6.8661C209.746 7.0007 209.971 7.14427 210.133 7.13529C211.177 7.0994 211.942 5.95084 211.555 4.98173C211.366 4.50616 211.06 4.08442 210.898 3.51014C211.627 4.09339 212.401 4.63178 213.067 5.27785C219.269 11.2629 217.523 20.2451 213.913 24.2023Z" fill="#19453F"/>
<path d="M194.453 38.2275C194.453 38.2275 198.378 35.3202 203.544 32.2783L197.73 33.3641L194.669 36.4867L194.453 38.2275Z" fill="#19453F"/>
<path d="M194.479 38.2266C193.642 37.6164 192.769 37.0063 191.869 36.3961C189.6 34.8527 187.386 33.5067 185.253 32.3223C187.233 32.6722 189.222 33.0132 191.203 33.3632L194.263 36.4858L194.479 38.2266Z" fill="#19453F"/>
<g clip-path="url(#clip0_2216_1630)">
<path d="M161.619 273.686C185.975 273.686 205.72 269.062 205.72 263.357C205.72 257.653 185.975 253.028 161.619 253.028C137.263 253.028 117.519 257.653 117.519 263.357C117.519 269.062 137.263 273.686 161.619 273.686Z" fill="#E4EBE4" stroke="white" stroke-width="1.05734" stroke-miterlimit="10"/>
<path d="M178.133 62.0416C177.418 57.2911 177.167 51.6677 173.064 48.6634C166.707 44.0092 157.271 47.3795 150.321 48.5992C144.106 49.6776 143.429 56.6941 142.753 61.8297C142.283 65.3027 142.444 69.3662 141.381 72.7043C140.319 76.0424 137.916 78.7836 137.072 82.3335C136.236 86.0459 136.227 89.896 137.047 93.612C137.868 97.328 139.497 100.819 141.819 103.839C147.075 110.521 155.223 114.38 163.551 115.503C168.059 116.145 171.962 116.305 176.497 117.243C181.409 118.341 186.501 118.372 191.427 117.333C198.711 115.683 205.487 110.913 208.482 104.102C211.477 97.2909 210.054 88.4641 204.334 83.6688C199.903 79.9519 193.836 79.0339 188.503 76.7871C182.287 74.1679 179.659 69.899 178.429 63.6336C178.307 63.1585 178.217 62.6001 178.133 62.0416Z" fill="#19453F"/>
<path d="M204.251 176.507C207.117 174.851 207.105 169.934 207.105 169.934C205.816 163.001 204.528 155.984 202.564 149.218C201.05 144.083 198.995 139.628 197.804 134.254C196.155 126.834 194.508 119.413 192.864 111.992C191.801 107.196 191.923 104.025 187.602 101.29C182.79 98.2476 176.163 97.3039 170.63 98.1641C177.927 105.604 178.275 117.57 180.472 127.199C181.914 133.503 183.57 139.775 185.553 145.938C187.486 151.876 190.461 157.294 192.574 163.084L196.496 173.863C196.68 174.345 196.895 174.814 197.14 175.268C197.83 176.674 201.366 178.157 204.251 176.507Z" fill="#CA6C46"/>
<path d="M188.193 35.6512L187.885 35.4521C187.976 35.5352 188.08 35.6025 188.193 35.6512Z" fill="#E2B4BD"/>
<path d="M160.459 211.364C159.055 211.204 157.658 211.031 156.253 210.909C157.419 211.011 158.315 204.072 158.263 203.205C158.115 200.946 157.033 198.583 156.582 196.304C155.39 190.309 154.418 184.268 153.316 178.253L175.602 173.464L179.859 178.599C188.799 181.642 197.713 184.764 206.602 187.965C213.687 190.533 220.772 193.101 227.779 195.823C230.278 196.792 234.536 197.627 236.075 199.976C237.724 202.506 237.486 207.808 237.299 210.613C237.086 213.952 236.011 217.341 233.692 219.755C229.467 224.158 225.074 222.733 220.076 221.501C214.279 220.076 208.051 219.671 202.164 218.747C195.448 217.686 188.73 216.616 182.01 215.537L172.349 212.507C169.773 211.698 167.119 211.923 164.459 211.75C163.145 211.673 161.805 211.525 160.459 211.364Z" fill="#19453F"/>
<path d="M157.703 210.76C158.476 210.606 159.255 210.472 160.054 210.35C160.305 207.551 160.66 204.874 161.181 202.113C161.703 199.353 162.824 196.13 162.824 193.325C163.738 188.429 164.655 183.533 165.574 178.637L143.301 173.739L139.025 178.875C130.141 181.871 121.284 184.931 112.456 188.055C100.296 192.362 80.606 195.116 81.8491 212.012C82.0874 215.267 83.4529 219.716 86.0614 221.917C88.3286 223.843 90.1836 222.9 92.9016 222.425C99.4133 221.295 106.009 220.499 112.54 219.536C120.604 218.316 128.663 217.066 136.719 215.787L146.38 212.802C148.75 212.07 151.185 212.16 153.562 211.659C154.946 211.351 156.312 211.03 157.703 210.76Z" fill="#19453F"/>
<path d="M166.025 101.124L164.653 102.819C161.858 106.362 157.124 106.086 154.612 102.247L152.789 99.4484C153.111 95.2051 153.498 91.0453 153.762 88.317C153.948 86.3912 154.077 85.165 154.077 85.165L159.391 85.807L164.067 85.165C164.067 85.165 164.75 89.4918 165.355 94.5824C165.626 96.7137 165.864 98.9862 166.025 101.124Z" fill="#F4DCC9"/>
<path d="M165.373 94.6141C162.428 94.6778 159.542 93.7757 157.161 92.0463C155.811 91.0413 154.665 89.7884 153.786 88.3551C153.973 86.4292 154.102 85.2031 154.102 85.2031L159.415 85.8451L164.092 85.2031C164.092 85.2031 164.774 89.4785 165.373 94.6141Z" fill="#D9B89E"/>
<path d="M146.759 98.5561L151.983 98.4727L172.542 98.5561C172.542 98.5561 181.598 103.518 179.395 110.349C177.192 117.179 154.495 123.887 154.495 123.887L143.661 118.643C143.661 118.643 141.459 115.715 141.085 113.398C140.711 111.081 139.984 109.739 140.718 108.153C141.452 106.568 142.818 100.392 142.818 100.392L146.759 98.5561Z" fill="#CA6C46"/>
<path d="M141.376 55.75C141.376 55.75 139.29 60.7636 141.872 63.3378C144.455 65.912 145.486 72.0812 145.486 72.0812C145.486 72.0812 151.167 57.1623 151.167 56.6744C151.167 56.1865 141.376 55.75 141.376 55.75Z" fill="#19453F"/>
<path d="M174.231 69.5785C173.756 69.4853 173.267 69.4943 172.796 69.605C172.325 69.7157 171.883 69.9256 171.5 70.2204V55.86L154.045 51.1738L143.984 53.2537L145.865 64.9308C147.076 72.3645 145.472 81.6535 152.899 86.2948C156.203 88.3619 162.218 89.3119 165.619 86.8148C168.543 84.6578 170.025 79.978 171.5 76.7619C171.633 76.6277 171.795 76.5256 171.973 76.4633C172.152 76.401 172.342 76.3802 172.53 76.4024C173.024 76.4299 173.518 76.3447 173.974 76.1533C174.43 75.962 174.836 75.6695 175.162 75.298C175.487 74.9266 175.723 74.4861 175.852 74.01C175.981 73.534 175.999 73.0348 175.905 72.5507C175.654 71.209 175.603 69.8545 174.231 69.5785Z" fill="#F4DCC9"/>
<path d="M172.948 71.2354C172.948 71.2354 171.499 73.6362 172.465 75.087C173.431 76.5378 173.908 74.1305 173.431 73.6491C172.955 73.1676 172.948 73.6491 173.908 73.1676C174.868 72.6861 172.948 71.2354 172.948 71.2354Z" fill="#D9B89E"/>
<path d="M171.641 67.9335C173.165 68.2143 174.739 68.0216 176.149 67.3814C179.434 65.5839 179.061 59.678 178.217 56.5196C177.218 52.7578 174.455 49.0217 170.81 47.3911C151.726 38.6093 138.019 56.1409 140.956 60.5318C143.893 64.9227 153.703 54.1701 155.519 52.0132C158.804 56.449 158.16 61.5076 163.557 65.0318C166.024 66.5398 168.776 67.5274 171.641 67.9335Z" fill="#19453F"/>
<path d="M170.932 63.5962C173.508 65.4579 175.801 67.005 176.658 67.9101C177.115 63.4165 179.35 56.3936 176.129 52.4199C174.841 50.9306 173.213 49.7705 171.382 49.0369C167.183 47.111 162.108 44.7551 157.335 45.0825C148.247 45.7244 145.039 54.962 144.582 62.5499C148.208 62.6379 151.784 61.6874 154.885 59.8111C157.985 57.9348 160.481 55.2115 162.075 51.9641C160.427 55.4563 166.107 60.0912 170.932 63.5962Z" fill="#19453F"/>
<path d="M197.239 175.697C197.607 176.115 198.022 176.49 198.475 176.814C199.828 177.751 242.106 197.825 242.106 197.825L244.45 193.017C244.45 193.017 210.584 170.594 208.729 169.406C207.913 168.807 206.97 168.401 205.972 168.219H205.683C205.683 168.219 201.76 166.293 199.177 168.79C196.594 171.287 196.266 174.182 196.974 175.389C197.048 175.503 197.137 175.607 197.239 175.697Z" fill="#F4DCC9"/>
<path d="M235.103 186.046C232.202 187.908 230.108 190.788 229.235 194.115C229.235 194.115 198.808 180.198 196.58 173.791C194.351 167.385 199.201 162.474 199.201 162.474H205.803L235.103 186.046Z" fill="#CA6C46"/>
<path d="M244.97 196.965C247.011 195.829 249.119 194.815 251.282 193.929C253.298 193.248 264.196 189.435 265.709 189.082C267.223 188.729 267.886 186.925 267.886 186.925C267.886 186.925 272.788 185.731 272.569 184.64C272.35 183.548 270.637 183.504 269.632 183.799C268.627 184.094 267.055 184.659 267.055 184.659C266.415 184.477 265.75 184.393 265.084 184.409C264.44 184.563 259.365 185.404 259.217 185.872C259.558 184.8 259.011 183.645 258.328 182.752C258.127 182.417 257.852 182.132 257.524 181.918C257.196 181.704 256.823 181.568 256.434 181.52C255.468 181.52 254.798 182.444 254.29 183.26C254.567 183.991 254.837 184.717 255.108 185.442C255.166 185.579 255.214 185.721 255.249 185.866C255.326 186.239 255.281 186.626 255.123 186.972C254.964 187.318 254.7 187.605 254.367 187.792C253.845 188.068 246.915 187.445 246.96 188.986C247.293 188.007 247.865 187.126 248.624 186.421C249.382 185.717 250.304 185.21 251.307 184.948C252.135 184.848 252.94 184.614 253.691 184.255C254.103 183.998 255.391 181.289 254.818 181.392L251.166 182.033C247.366 182.72 244.326 183.869 242.245 187.233C240.751 189.66 239.907 191.727 240.609 194.545C240.712 194.943 241.504 198.101 242.484 197.755L244.97 196.965Z" fill="#F4DCC9"/>
<path d="M255.642 189.848L255.5 189.437L260.337 187.755C262.147 187.338 265.612 186.516 265.947 186.407C266.425 186.206 266.83 185.863 267.106 185.425C267.084 185.196 267.007 184.976 266.881 184.783L267.255 184.552C267.43 184.821 267.532 185.13 267.551 185.45C267.551 185.932 266.559 186.67 266.089 186.824C265.619 186.978 260.672 188.108 260.459 188.185L255.642 189.848Z" fill="#D9B89E"/>
<path d="M267.807 186.714L258.474 190.316L258.632 190.723L267.965 187.121L267.807 186.714Z" fill="#D9B89E"/>
<path d="M117.828 176.507C114.961 174.851 114.968 169.933 114.968 169.933C116.256 163 117.544 155.984 119.515 149.218C121.029 144.082 123.083 139.627 124.275 134.254C125.919 126.833 127.566 119.412 129.215 111.991C130.278 107.196 130.155 104.025 134.477 101.29C139.263 98.26 143.494 98.0418 148.995 98.3435C146.222 103.09 144.556 108.397 144.119 113.872C143.952 117.191 138.09 147.587 129.505 163.058L125.582 173.837C125.4 174.319 125.185 174.789 124.938 175.242C124.249 176.674 120.687 178.157 117.828 176.507Z" fill="#CA6C46"/>
<path d="M125.467 174.472C125.119 174.906 124.723 175.3 124.288 175.647C123 176.654 81.7785 198.757 81.7785 198.757L79.2021 194.071C79.2021 194.071 111.909 169.997 113.699 168.726C114.483 168.082 115.408 167.629 116.398 167.404H116.688C116.688 167.404 120.507 165.305 123.213 167.654C125.918 170.004 126.394 172.893 125.737 174.138C125.663 174.261 125.572 174.373 125.467 174.472Z" fill="#F4DCC9"/>
<path d="M78.8531 198.07C76.7614 197.038 74.6107 196.129 72.4122 195.348C70.364 194.771 59.2922 191.497 57.7657 191.221C56.2392 190.945 55.4792 189.173 55.4792 189.173C55.4792 189.173 50.5261 188.229 50.6936 187.125C50.8611 186.021 52.5486 185.893 53.5856 186.136C54.6225 186.38 56.1619 186.875 56.1619 186.875C56.7853 186.664 57.4363 186.545 58.0942 186.522C58.7382 186.65 63.8523 187.234 64.0262 187.696C63.6269 186.644 64.1164 185.462 64.754 184.532C64.9405 184.182 65.2056 183.88 65.5285 183.65C65.8514 183.419 66.2234 183.266 66.6154 183.203C67.5816 183.164 68.2965 184.044 68.844 184.84C68.6056 185.578 68.3738 186.323 68.1355 187.061C68.0871 187.201 68.0483 187.345 68.0195 187.491C67.9577 187.868 68.0188 188.255 68.1939 188.594C68.3689 188.934 68.6487 189.209 68.9921 189.378C69.5331 189.635 76.4184 188.666 76.4571 190.206C76.0717 189.248 75.4541 188.4 74.6594 187.738C73.8648 187.076 72.9178 186.621 71.9034 186.412C71.0723 186.351 70.2566 186.156 69.488 185.835C69.0694 185.604 67.6395 182.959 68.1999 183.036L71.8776 183.504C75.7421 183.999 78.808 185 81.0494 188.255C82.6661 190.604 83.6257 192.639 83.0461 195.483C82.9623 195.881 82.3311 199.072 81.3328 198.789L78.8531 198.07Z" fill="#F4DCC9"/>
<path d="M67.8334 191.49L62.9191 190.052C62.7258 190.02 57.6955 189.108 57.2511 188.98C56.8067 188.851 55.7697 188.158 55.7246 187.696C55.7288 187.375 55.8153 187.062 55.9758 186.784L56.3623 186.996C56.2458 187.191 56.1773 187.411 56.1626 187.638C56.4622 188.06 56.8849 188.381 57.3735 188.556C57.7148 188.652 61.238 189.301 63.0221 189.628L67.9623 191.066L67.8334 191.49Z" fill="#D9B89E"/>
<path d="M55.5291 188.982L55.3916 189.396L64.8951 192.527L65.0325 192.113L55.5291 188.982Z" fill="#D9B89E"/>
<path d="M129.652 178.81C129.496 179.796 129.479 180.798 129.6 181.789C130.032 185.063 132.177 186.681 135.172 187.271C138.167 187.862 140.968 188.902 143.983 188.966C150.9 189.107 163.717 190.25 170.629 189.845C175.279 189.563 187.632 188.754 187.613 182.039C187.613 177.944 185.191 172.956 184.541 168.802C183.897 164.644 183.542 160.446 183.478 156.239C183.336 147.188 185.835 138.74 186.409 129.798C186.71 124.901 186.103 119.992 184.618 115.315C183.504 111.791 182.731 107.804 180.754 104.646C179.665 102.906 175.936 100.351 175.491 104.184C175.118 107.394 177.649 109.872 174.712 112.946C169.984 117.909 159.621 118.557 159.621 118.557C159.621 118.557 149.258 117.915 144.524 112.946C141.497 109.769 146.166 100.107 144.24 99.3307C141.381 98.1496 138.798 106.123 138.179 107.856C136.093 113.685 134.212 118.519 134.727 124.887C135.069 129.085 136.015 133.187 136.885 137.302C137.651 141.006 136.93 144.684 136.524 148.453C135.602 156.965 133.78 165.357 131.088 173.489C130.462 175.22 129.981 177 129.652 178.81Z" fill="#CA6C46"/>
<path d="M162.16 213.123C159.137 213.953 155.956 214.026 152.898 213.335C148.853 212.468 144.113 215.338 140.789 217.277C138.702 218.496 136.654 219.947 134.406 220.807C132.01 221.725 129.453 222.367 127.006 223.137C126.402 223.292 125.828 223.544 125.305 223.882C124.943 224.076 124.662 224.392 124.513 224.773C124.363 225.155 124.355 225.577 124.49 225.964C124.626 226.351 124.895 226.677 125.25 226.884C125.604 227.091 126.022 227.164 126.426 227.092C127.371 227.042 128.287 226.758 129.093 226.264C128.529 226.397 127.996 226.634 127.521 226.964C127.282 227.129 127.095 227.358 126.981 227.625C126.867 227.892 126.831 228.186 126.877 228.472C127.018 228.845 127.297 229.149 127.656 229.323C128.016 229.498 128.428 229.528 128.809 229.409C129.551 229.166 130.217 228.735 130.742 228.158C128.887 227.888 129.415 229.583 130.097 230.263C131.167 231.316 133.801 231.117 135.141 231.053C142.483 230.712 148.364 228.485 155.107 225.994C158.405 224.787 161.2 223.311 164.704 223.215C170.25 223.054 175.802 223.073 181.354 223.003L213.958 222.598C219.11 222.534 224.598 222.393 229.055 219.748C233.512 217.103 236.365 211.03 233.705 206.595C232.166 204.027 229.164 202.614 226.189 202.255C223.213 201.895 220.212 202.428 217.262 202.968L181.934 209.419C176.072 210.485 170.057 211.261 164.266 212.629C163.506 212.809 162.817 212.975 162.16 213.123Z" fill="#F4DCC9"/>
<path d="M151.011 227.761C150.245 228.063 140.996 229.995 142.954 222.761C144.912 215.526 152.531 212.49 151.829 212.669C151.127 212.849 148.731 211.584 142.954 214.165C135.528 217.477 126.491 218.826 123.329 227.344C122.82 228.718 122.903 230.413 123.915 231.478C125.203 232.82 127.341 232.692 129.183 232.461C136.861 231.504 143.972 231.087 151.011 227.761Z" fill="#CA6C46"/>
<path d="M160.317 211.058L158.275 211.308C158.799 216.174 159.319 221.04 159.834 225.906L167.531 225.79C168.864 225.79 171.151 227.363 172.6 227.671C174.598 228.087 176.65 228.187 178.68 227.967C182.293 227.575 184.928 225.835 188.522 226.111C193.385 226.484 198.228 227.459 203.097 227.896C214.279 228.885 229.743 230.207 239.166 222.76C252.357 212.284 239.778 196.441 231.508 195.709C224.101 195.067 215.541 197.359 208.759 199.92C199.742 203.335 187.89 202.597 178.268 203.451C175.556 203.695 172.8 203.945 170.281 204.972C167.763 205.999 165.47 207.931 164.703 210.538L160.317 211.058Z" fill="#19453F"/>
<path d="M160.317 211.058L158.275 211.308C158.799 216.174 159.319 221.04 159.834 225.906L167.531 225.79C168.864 225.79 171.151 227.363 172.6 227.671C174.598 228.087 176.65 228.187 178.68 227.967C182.293 227.575 184.928 225.835 188.522 226.111C193.385 226.484 198.228 227.459 203.097 227.896C214.279 228.885 229.743 230.207 239.166 222.76C252.357 212.284 239.778 196.441 231.508 195.709C224.101 195.067 215.541 197.359 208.759 199.92C199.742 203.335 187.89 202.597 178.268 203.451C175.556 203.695 172.8 203.945 170.281 204.972C167.763 205.999 165.47 207.931 164.703 210.538L160.317 211.058Z" fill="#5E7C78"/>
<path d="M150.714 214.119C152.002 212.572 154.005 211.223 155.866 211.949C157.728 212.674 158.295 214.979 158.275 216.956C158.23 220.5 155.699 230.572 150.36 228.633C145.02 226.694 148.26 217.11 150.714 214.119Z" fill="#CA6C46"/>
<path d="M157.169 214.062C160.19 214.888 163.369 214.961 166.425 214.274C170.47 213.407 175.217 216.276 178.534 218.215C182.398 220.462 187.551 222.413 190.082 226.31C191.093 227.876 191.37 230.059 190.282 231.561C189.193 233.063 187.3 233.397 185.535 233.487C181.593 233.667 178.643 232.338 175.088 231.086C171.429 229.802 167.861 228.268 164.222 226.933C160.931 225.726 158.129 224.249 154.625 224.153C149.08 223.993 143.528 224.012 137.982 223.941L105.398 223.524C100.213 223.453 94.7574 223.319 90.3003 220.674C85.8433 218.029 82.99 211.956 85.65 207.52C87.1958 204.952 90.1586 203.54 93.1665 203.181C96.1744 202.821 99.1437 203.354 102.094 203.893L137.422 210.313C143.283 211.378 149.299 212.155 155.089 213.523C155.817 213.747 156.512 213.914 157.169 214.062Z" fill="#F4DCC9"/>
<path d="M152.287 210.748C153.672 211.531 155.141 212.295 155.508 212.135C154.013 212.739 152.667 213.659 151.562 214.831C150.458 216.002 149.621 217.399 149.109 218.923C148.596 220.448 148.421 222.065 148.595 223.663C148.769 225.262 149.288 226.804 150.117 228.183C144.436 228.093 138.774 227.702 133.151 227.939C124.778 228.286 116.405 228.248 108.077 228.421C98.5897 228.613 88.6257 229.018 80.7099 222.727C67.519 212.25 80.0658 196.407 88.3681 195.675C96.0971 195.033 104.631 197.697 112.077 199.289C117.874 200.535 123.207 202.236 129.203 203.141C133.81 203.712 138.336 204.802 142.697 206.389C145.054 207.279 147.384 208.249 149.685 209.297C150.084 209.458 151.16 210.112 152.287 210.748Z" fill="#19453F"/>
<path d="M152.287 210.748C153.672 211.531 155.141 212.295 155.508 212.135C154.013 212.739 152.667 213.659 151.562 214.831C150.458 216.002 149.621 217.399 149.109 218.923C148.596 220.448 148.421 222.065 148.595 223.663C148.769 225.262 149.288 226.804 150.117 228.183C144.436 228.093 138.774 227.702 133.151 227.939C124.778 228.286 116.405 228.248 108.077 228.421C98.5897 228.613 88.6257 229.018 80.7099 222.727C67.519 212.25 80.0658 196.407 88.3681 195.675C96.0971 195.033 104.631 197.697 112.077 199.289C117.874 200.535 123.207 202.236 129.203 203.141C133.81 203.712 138.336 204.802 142.697 206.389C145.054 207.279 147.384 208.249 149.685 209.297C150.084 209.458 151.16 210.112 152.287 210.748Z" fill="#5E7C78"/>
<path d="M158.263 137.766L170.32 99.1398L148.994 98.3438L158.263 137.766Z" fill="white"/>
<path d="M158.333 162.158L156.008 178.952H161.212L158.333 162.158Z" fill="white"/>
<path d="M86.9375 186.721C89.8413 188.583 91.9359 191.466 92.8051 194.797C92.8051 194.797 123.238 180.879 125.467 174.473C127.695 168.066 122.839 163.155 122.839 163.155H116.237L86.9375 186.721Z" fill="#CA6C46"/>
<path d="M148.994 98.3448C148.994 98.3448 149.226 107.762 159.422 107.762C169.618 107.762 170.629 98.165 170.629 98.165L148.994 98.3448Z" fill="#F4DCC9"/>
<path d="M148.995 98.3438L140.409 106.227L158.263 137.766L148.995 98.3438Z" fill="#CA6C46"/>
<path d="M148.995 98.3438L140.409 106.227L158.263 137.766L148.995 98.3438Z" fill="black" fill-opacity="0.2"/>
<path d="M170.823 98.3438L179.911 105.386L158.328 137.547L170.823 98.3438Z" fill="#A25638"/>
<path d="M158.264 144.865C159.253 144.865 160.054 144.066 160.054 143.081C160.054 142.095 159.253 141.296 158.264 141.296C157.274 141.296 156.473 142.095 156.473 143.081C156.473 144.066 157.274 144.865 158.264 144.865Z" fill="#A25638"/>
<path d="M158.264 158.911C159.253 158.911 160.054 158.112 160.054 157.126C160.054 156.141 159.253 155.342 158.264 155.342C157.274 155.342 156.473 156.141 156.473 157.126C156.473 158.112 157.274 158.911 158.264 158.911Z" fill="#A25638"/>
<path d="M170.63 229.423C173.046 230.354 177.87 230.495 179.042 227.587C180.8 223.209 177.11 218.009 173.245 216.321C169.78 214.825 166.16 215.088 162.502 214.851C164.66 212.199 170.167 211.776 173.155 212.687C177.483 214.01 180.884 217.393 184.704 219.691C187.151 221.068 189.468 222.662 191.628 224.454C193.495 226.104 202.686 238.635 195.299 236.715C190.938 235.585 186.655 234.404 182.23 233.685C177.805 232.966 174.649 230.957 170.63 229.423Z" fill="#CA6C46"/>
<path d="M155.494 178.972L153.42 191.785H163.803L161.561 178.972H155.494Z" fill="#19453F"/>
<path d="M184.272 168.372L170.431 173.309L171.976 177.058L185.071 173.309L184.272 168.372Z" fill="#A25638"/>
<path d="M132.519 167.328C132.519 167.186 146.644 171.487 146.644 171.487L145.04 176.296L131.044 172.714L132.519 167.328Z" fill="#A25638"/>
<path d="M102.575 94.7412L105.493 100.05L110.826 102.958L105.493 105.866L102.575 111.181L99.6576 105.866L94.3311 102.958L99.6576 100.05L102.575 94.7412Z" fill="#CA6C46"/>
<path d="M227.637 142.822L230.143 147.387L234.722 149.884L230.143 152.381L227.637 156.952L225.125 152.381L220.546 149.884L225.125 147.387L227.637 142.822Z" fill="#CA6C46"/>
<path d="M201.577 64.2812L203.368 67.5295L206.627 69.3077L203.368 71.0859L201.577 74.3406L199.793 71.0859L196.534 69.3077L199.793 67.5295L201.577 64.2812Z" fill="#CA6C46"/>
<path d="M72.0008 231.861L73.7849 235.11L77.044 236.888L73.7849 238.666L72.0008 241.921L70.2167 238.666L66.9512 236.888L70.2167 235.11L72.0008 231.861Z" fill="#CA6C46"/>
<path d="M237.44 235.9L239.224 239.155L242.483 240.933L239.224 242.711L237.44 245.96L235.656 242.711L232.391 240.933L235.656 239.155L237.44 235.9Z" fill="#CA6C46"/>
<path d="M63.5832 85.9681L21.6621 104.672L45.1597 156.968L87.0808 138.264L63.5832 85.9681Z" fill="#19453F"/>
<path d="M79.7195 98.7158L36.1201 113.112L54.2005 167.505L97.7999 153.109L79.7195 98.7158Z" fill="#5E7C78"/>
<path d="M79.5363 119.356L61.0107 125.473L61.9182 128.203L80.4438 122.086L79.5363 119.356Z" fill="white"/>
<path d="M71.4504 112.616L52.9248 118.733L53.8323 121.463L72.3579 115.346L71.4504 112.616Z" fill="white"/>
<path d="M55.9177 127.23L48.1162 129.768L49.0107 132.5L56.8122 129.962L55.9177 127.23Z" fill="white"/>
<path d="M54.3424 134.071L50.5449 135.325L51.4524 138.055L55.2499 136.801L54.3424 134.071Z" fill="white"/>
<path d="M70.0881 128.868L58.3369 132.748L59.2444 135.478L70.9956 131.598L70.0881 128.868Z" fill="white"/>
<path d="M81.4433 125.116L75.2559 127.159L76.1633 129.889L82.3507 127.846L81.4433 125.116Z" fill="white"/>
<path d="M64.8358 136.998L52.4609 141.084L53.3684 143.814L65.7433 139.728L64.8358 136.998Z" fill="white"/>
<path d="M83.3691 130.879L68.8359 135.678L69.7434 138.408L84.2765 133.609L83.3691 130.879Z" fill="white"/>
<path d="M58.8877 145.358L54.3809 146.846L55.2883 149.576L59.7952 148.088L58.8877 145.358Z" fill="white"/>
<path d="M75.2112 139.97L62.0537 144.314L62.9612 147.044L76.1186 142.7L75.2112 139.97Z" fill="white"/>
<path d="M84.747 137.024L78.4385 139.076L79.333 141.808L85.6415 139.757L84.747 137.024Z" fill="white"/>
<path d="M68.5451 148.692L55.6895 152.873L56.584 155.605L69.4396 151.424L68.5451 148.692Z" fill="white"/>
<path d="M87.1941 142.403L73.4863 146.93L74.3938 149.66L88.1015 145.133L87.1941 142.403Z" fill="white"/>
<path d="M245.601 51.0963L251.411 49.8252L291.628 59.1655L277.761 98.1574L240.043 66.7341L245.601 51.0963Z" fill="#19453F"/>
<path d="M292.136 67.5459L245.599 51.1025L224.523 110.355L271.061 126.799L292.136 67.5459Z" fill="#19453F"/>
<path d="M292.136 67.5459L245.599 51.1025L224.523 110.355L271.061 126.799L292.136 67.5459Z" fill="white" fill-opacity="0.3"/>
<path d="M288.118 90.6204L280.351 90.8772L286.952 72.3057L292.401 78.5647L288.118 90.6204Z" fill="#19453F"/>
<path d="M288.118 90.6204L280.351 90.8772L286.952 72.3057L292.401 78.5647L288.118 90.6204Z" fill="white" fill-opacity="0.3"/>
<path d="M278.148 72.4852L252.597 63.457L246.812 79.7208L272.363 88.749L278.148 72.4852Z" fill="white"/>
<path d="M274.857 147.422L266.039 135.55C265.338 134.606 264.003 134.408 263.057 135.106L239.683 152.35C238.737 153.049 238.538 154.379 239.238 155.322L248.056 167.195C248.756 168.138 250.092 168.337 251.038 167.638L274.411 150.394C275.358 149.696 275.557 148.365 274.857 147.422Z" fill="#19453F"/>
<path d="M250.058 167.076L274.188 149.274C274.442 149.086 274.496 148.728 274.307 148.474L264.865 135.761C264.677 135.507 264.318 135.454 264.063 135.642L239.934 153.444C239.68 153.631 239.626 153.989 239.814 154.243L249.257 166.956C249.445 167.21 249.804 167.263 250.058 167.076Z" fill="#B1C9C6"/>
<path d="M264.711 152.505C263.982 153.046 263.128 153.397 262.228 153.525C261.328 153.653 260.41 153.554 259.558 153.237C258.557 152.873 257.684 152.224 257.048 151.371C256.413 150.517 256.043 149.496 255.984 148.435C255.932 147.495 256.126 146.558 256.546 145.715C256.967 144.872 257.599 144.152 258.382 143.626C259.165 143.099 260.072 142.784 261.013 142.711C261.955 142.638 262.9 142.809 263.755 143.209C264.61 143.608 265.347 144.222 265.893 144.99C266.439 145.758 266.777 146.654 266.872 147.59C266.967 148.527 266.816 149.472 266.435 150.334C266.054 151.195 265.456 151.943 264.698 152.505H264.711Z" fill="white"/>
<path d="M247.85 157.339C247.469 157.619 247.013 157.781 246.54 157.803C246.066 157.825 245.597 157.707 245.192 157.463C244.786 157.22 244.461 156.862 244.26 156.435C244.058 156.008 243.988 155.531 244.058 155.064C244.128 154.597 244.335 154.161 244.654 153.812C244.972 153.462 245.387 153.215 245.847 153.1C246.307 152.986 246.79 153.01 247.236 153.169C247.682 153.328 248.07 153.616 248.353 153.995C248.542 154.246 248.679 154.533 248.757 154.838C248.834 155.143 248.85 155.461 248.803 155.772C248.756 156.083 248.648 156.382 248.484 156.651C248.321 156.92 248.105 157.154 247.85 157.339Z" fill="white"/>
<path d="M251.643 162.441C251.262 162.724 250.805 162.888 250.33 162.912C249.855 162.936 249.383 162.819 248.975 162.576C248.567 162.333 248.24 161.974 248.036 161.546C247.833 161.118 247.761 160.639 247.831 160.17C247.9 159.702 248.108 159.264 248.427 158.913C248.746 158.561 249.163 158.313 249.624 158.198C250.086 158.083 250.571 158.107 251.019 158.266C251.466 158.426 251.856 158.715 252.139 159.096C252.517 159.606 252.678 160.244 252.585 160.871C252.492 161.497 252.153 162.062 251.643 162.441Z" fill="white"/>
<path d="M263.359 148.834C263.089 149.032 262.767 149.147 262.432 149.163C262.098 149.179 261.766 149.095 261.479 148.923C261.191 148.751 260.962 148.498 260.819 148.196C260.676 147.894 260.626 147.557 260.676 147.227C260.725 146.897 260.872 146.589 261.097 146.341C261.323 146.094 261.616 145.919 261.941 145.838C262.266 145.757 262.608 145.775 262.924 145.887C263.239 146 263.514 146.203 263.713 146.472C263.846 146.65 263.941 146.852 263.995 147.068C264.049 147.283 264.06 147.507 264.027 147.726C263.994 147.945 263.918 148.156 263.804 148.346C263.689 148.536 263.538 148.702 263.359 148.834Z" fill="#19453F"/>
<path d="M260.094 152.851L260.016 152.908C259.012 152.55 258.139 151.899 257.51 151.04C256.873 150.186 256.503 149.163 256.447 148.1L256.525 148.043C257.166 147.598 257.956 147.419 258.727 147.545C259.498 147.672 260.189 148.092 260.654 148.718C261.118 149.344 261.32 150.126 261.215 150.898C261.111 151.669 260.708 152.37 260.094 152.851Z" fill="#19453F"/>
<path d="M267.59 138.594C267.375 139.121 267.098 139.621 266.766 140.083L270.772 145.52L272.981 145.488C272.981 145.488 267.403 138.266 267.59 138.594Z" fill="#19453F"/>
<path d="M267.85 154.776L270.684 152.702L271.096 153.421L268.339 155.475L267.85 154.776Z" fill="#19453F"/>
<path d="M75.2019 18.8437L64.2461 40.9083C63.6766 42.0554 64.1478 43.4455 65.2988 44.0132L97.8681 60.0777C99.019 60.6454 100.414 60.1756 100.983 59.0285L111.939 36.9639C112.509 35.8168 112.037 34.4267 110.886 33.8591L78.3171 17.7946C77.1662 17.2269 75.7715 17.6966 75.2019 18.8437Z" fill="#19453F"/>
<path d="M68.6328 32.0811C69.7664 32.524 104.908 51.1341 104.908 51.1341L68.6328 32.0811Z" fill="#19453F"/>
<path d="M68.6328 32.0811C69.7664 32.524 104.908 51.1341 104.908 51.1341" stroke="white" stroke-width="1.05734" stroke-miterlimit="10"/>
<path d="M86.1387 36.2988L90.893 38.5649" stroke="white" stroke-width="1.05734" stroke-miterlimit="10"/>
<path d="M150.753 75.7222C153.475 75.7222 155.681 73.5235 155.681 70.8113C155.681 68.0991 153.475 65.9004 150.753 65.9004C148.032 65.9004 145.826 68.0991 145.826 70.8113C145.826 73.5235 148.032 75.7222 150.753 75.7222Z" stroke="#CA6C46" stroke-width="1.05734" stroke-miterlimit="10"/>
<path d="M163.192 75.7222C165.913 75.7222 168.119 73.5235 168.119 70.8113C168.119 68.0991 165.913 65.9004 163.192 65.9004C160.471 65.9004 158.265 68.0991 158.265 70.8113C158.265 73.5235 160.471 75.7222 163.192 75.7222Z" stroke="#CA6C46" stroke-width="1.05734" stroke-miterlimit="10"/>
<path d="M168.118 70.8098L172.138 69.3076" stroke="#CA6C46" stroke-width="1.05734" stroke-linecap="round" stroke-linejoin="round"/>
<path d="M155.681 70.8105H158.264" stroke="#CA6C46" stroke-width="1.05734" stroke-miterlimit="10"/>
</g>
<defs>
<clipPath id="clip0_2216_1630">
<rect width="270.735" height="264.765" fill="white" transform="translate(21.665 9.23535)"/>
</clipPath>
</defs>
</svg>
