<svg width="30" height="30" viewBox="0 0 30 30" fill="none" xmlns="http://www.w3.org/2000/svg">
<circle cx="15" cy="15" r="15" fill="#19453F" style="fill:#19453F;fill:color(display-p3 0.0980 0.2706 0.2471);fill-opacity:1;"/>
<path d="M15.526 20.18C14.59 20.18 13.768 19.988 13.06 19.604C12.364 19.22 11.824 18.674 11.44 17.966C11.056 17.246 10.864 16.394 10.864 15.41C10.864 14.426 11.056 13.586 11.44 12.89C11.836 12.194 12.382 11.66 13.078 11.288C13.774 10.916 14.59 10.73 15.526 10.73C16.126 10.73 16.708 10.826 17.272 11.018C17.848 11.198 18.316 11.462 18.676 11.81L17.992 13.376C17.668 13.076 17.302 12.854 16.894 12.71C16.498 12.554 16.108 12.476 15.724 12.476C14.92 12.476 14.29 12.728 13.834 13.232C13.39 13.736 13.168 14.468 13.168 15.428C13.168 16.388 13.39 17.126 13.834 17.642C14.29 18.158 14.92 18.416 15.724 18.416C16.096 18.416 16.48 18.344 16.876 18.2C17.284 18.056 17.656 17.834 17.992 17.534L18.676 19.082C18.304 19.43 17.83 19.7 17.254 19.892C16.69 20.084 16.114 20.18 15.526 20.18Z" fill="white" style="fill:white;fill-opacity:1;"/>
</svg>
