<svg width="80" height="81" viewBox="0 0 80 81" fill="none" xmlns="http://www.w3.org/2000/svg">
<path d="M3.33333 67.1759H43.3333V70.5093H0V8.84261C0 4.24594 3.74 0.509277 8.33333 0.509277H61.6667C66.26 0.509277 70 4.24594 70 8.84261V43.8426H66.6667V8.84261C66.6667 6.08594 64.4233 3.84261 61.6667 3.84261H8.33333C5.57667 3.84261 3.33333 6.08594 3.33333 8.84261V46.6393L20.4467 29.5259C23.4567 26.5193 28.36 26.5159 31.3733 29.5259L56.6667 54.8193V57.1759H54.31L29.0167 31.8793C27.3033 30.1726 24.52 30.1693 22.8033 31.8793L3.33333 51.3526V67.1759ZM48.3333 10.5093C52.9267 10.5093 56.6667 14.2459 56.6667 18.8426C56.6667 23.4393 52.9267 27.1759 48.3333 27.1759C43.74 27.1759 40 23.4393 40 18.8426C40 14.2459 43.74 10.5093 48.3333 10.5093ZM48.3333 13.8426C45.5767 13.8426 43.3333 16.0859 43.3333 18.8426C43.3333 21.5993 45.5767 23.8426 48.3333 23.8426C51.09 23.8426 53.3333 21.5993 53.3333 18.8426C53.3333 16.0859 51.09 13.8426 48.3333 13.8426ZM80 63.8426H66.6667V50.5093H63.3333V63.8426H50V67.1759H63.3333V80.5093H66.6667V67.1759H80V63.8426Z" fill="white" style="fill:white;fill-opacity:1;"/>
</svg>
