<svg width="78" height="54" viewBox="0 0 78 54" fill="none" xmlns="http://www.w3.org/2000/svg">
<path d="M77.4453 2.97634L64.6238 16.3097V8.66634C64.6238 4.07301 61.0274 0.333008 56.6104 0.333008H8.52979C4.11279 0.333008 0.516357 4.07301 0.516357 8.66634V53.6663H64.6238V37.6897L77.4453 51.023V2.97634ZM61.4185 50.333H3.72173V8.66634C3.72173 5.90967 5.87895 3.66634 8.52979 3.66634H56.6104C59.2613 3.66634 61.4185 5.90967 61.4185 8.66634V50.333ZM74.24 42.9763L64.6238 32.9763V21.023L74.24 11.023V42.9763ZM34.1728 25.333H45.3916V28.6663H34.1728V40.333H30.9674V28.6663H19.7486V25.333H30.9674V13.6663H34.1728V25.333Z" fill="white" style="fill:white;fill-opacity:1;"/>
</svg>
