<svg width="24" height="24" viewBox="0 0 24 24" fill="none" xmlns="http://www.w3.org/2000/svg">
<path d="M20.6981 15.1995L16.2713 13.2185C16.0996 13.1443 15.9122 13.1139 15.726 13.1303C15.5397 13.1467 15.3604 13.2092 15.2044 13.3123C15.1919 13.3202 15.18 13.329 15.1688 13.3385L12.8438 15.3204C12.792 15.352 12.7333 15.3703 12.6728 15.3737C12.6123 15.3771 12.5519 15.3656 12.4969 15.3401C10.9744 14.6051 9.39845 13.0413 8.66345 11.5367C8.63745 11.4821 8.62538 11.4219 8.62832 11.3616C8.63127 11.3012 8.64914 11.2425 8.68032 11.1907L10.6678 8.82729C10.6772 8.81604 10.6856 8.80385 10.6941 8.79166C10.7968 8.63585 10.8592 8.45693 10.8755 8.27101C10.8919 8.08509 10.8618 7.89803 10.7878 7.72666L8.80314 3.30729C8.70732 3.08346 8.54148 2.89675 8.33051 2.7752C8.11954 2.65366 7.87483 2.60384 7.63314 2.63322C6.45336 2.78877 5.37054 3.36847 4.58694 4.26404C3.80334 5.15961 3.37254 6.3098 3.37501 7.49979C3.37501 14.7373 9.26251 20.6248 16.5 20.6248C17.69 20.6273 18.8402 20.1965 19.7358 19.4129C20.6313 18.6293 21.211 17.5464 21.3666 16.3667C21.3957 16.1261 21.3464 15.8825 21.226 15.6722C21.1056 15.4619 20.9204 15.2961 20.6981 15.1995ZM20.625 16.2729C20.4926 17.272 20.0009 18.1888 19.2417 18.8517C18.4825 19.5146 17.5079 19.8783 16.5 19.8748C9.67689 19.8748 4.12501 14.3229 4.12501 7.49979C4.12152 6.49192 4.48523 5.51729 5.14813 4.75811C5.81103 3.99893 6.72775 3.50717 7.72689 3.37479C7.74187 3.37386 7.7569 3.37386 7.77189 3.37479C7.84587 3.37542 7.91801 3.39792 7.97923 3.43946C8.04045 3.48099 8.08802 3.53971 8.11595 3.60822L10.095 8.0276C10.1181 8.08161 10.1282 8.1403 10.1244 8.19892C10.1207 8.25754 10.1032 8.31446 10.0734 8.3651L8.08689 10.7276C8.07751 10.7398 8.06814 10.751 8.0597 10.7642C7.95386 10.926 7.89153 11.1124 7.87872 11.3054C7.86591 11.4983 7.90306 11.6913 7.98657 11.8657C8.80126 13.5335 10.4813 15.2014 12.1678 16.016C12.3434 16.099 12.5375 16.1351 12.7312 16.1208C12.9249 16.1065 13.1116 16.0423 13.2731 15.9345L13.3078 15.9082L15.6356 13.9282C15.6854 13.8978 15.7417 13.8796 15.7999 13.8752C15.8581 13.8708 15.9165 13.8803 15.9703 13.9029L20.3963 15.8867C20.471 15.9178 20.5336 15.9722 20.5748 16.0418C20.616 16.1114 20.6336 16.1925 20.625 16.2729Z" fill="#2980B9"/>
</svg>
