<svg width="48" height="24" viewBox="0 0 48 24" fill="none" xmlns="http://www.w3.org/2000/svg">
<path d="M35.88 23.34C33.32 23.34 31.02 22.76 28.98 21.6C26.98 20.4 25.3 18.8 23.94 16.8L23.88 16.68L23.76 16.8C20.68 21.16 16.74 23.34 11.94 23.34C9.74 23.34 7.78 22.84 6.06 21.84C4.34 20.84 2.98 19.48 1.98 17.76C1.02 16 0.54 14.04 0.54 11.88C0.54 9.72 1.02 7.78 1.98 6.06C2.98 4.34 4.34 3 6.06 2.04C7.78 1.04 9.74 0.539999 11.94 0.539999C16.74 0.539999 20.68 2.72 23.76 7.08L23.88 7.2L23.94 7.08C25.3 5.08 26.98 3.5 28.98 2.34C31.02 1.14 33.32 0.539999 35.88 0.539999C38.08 0.539999 40.04 1.04 41.76 2.04C43.48 3 44.82 4.36 45.78 6.12C46.78 7.84 47.28 9.78 47.28 11.94C47.28 14.1 46.78 16.06 45.78 17.82C44.82 19.54 43.48 20.9 41.76 21.9C40.04 22.86 38.08 23.34 35.88 23.34ZM5.94 11.88C5.94 13.8 6.54 15.34 7.74 16.5C8.98 17.66 10.42 18.24 12.06 18.24C13.5 18.24 14.9 17.76 16.26 16.8C17.66 15.8 19.08 14.22 20.52 12.06L20.58 11.94L20.52 11.82C19.08 9.66 17.66 8.1 16.26 7.14C14.9 6.14 13.5 5.64 12.06 5.64C10.42 5.64 8.98 6.2 7.74 7.32C6.54 8.44 5.94 9.96 5.94 11.88ZM27.24 12.06C28.72 14.22 30.14 15.8 31.5 16.8C32.9 17.76 34.32 18.24 35.76 18.24C37.4 18.24 38.82 17.68 40.02 16.56C41.26 15.4 41.88 13.86 41.88 11.94C41.88 10.02 41.26 8.5 40.02 7.38C38.82 6.22 37.4 5.64 35.76 5.64C34.32 5.64 32.9 6.14 31.5 7.14C30.14 8.1 28.72 9.66 27.24 11.82L27.18 11.94L27.24 12.06Z" fill="black"/>
</svg>
