<svg width="58" height="39" viewBox="0 0 58 39" fill="none" xmlns="http://www.w3.org/2000/svg">
<path d="M29.096 38.78C27.12 38.78 25.2133 38.52 23.376 38C21.5387 37.4453 19.8573 36.648 18.332 35.608V29.992C19.788 31.344 21.4347 32.384 23.272 33.112C25.1093 33.84 27.0507 34.204 29.096 34.204C31.9387 34.204 34.4693 33.58 36.688 32.332C38.9413 31.0493 40.692 29.2987 41.94 27.08C43.188 24.8613 43.812 22.4 43.812 19.696V17.928L37.572 24.272L34.712 21.464L45.996 10.128L57.488 21.672L54.732 24.532L48.18 17.928V19.696C48.18 23.1973 47.348 26.404 45.684 29.316C44.02 32.228 41.732 34.5333 38.82 36.232C35.908 37.9307 32.6667 38.78 29.096 38.78ZM3.408 14.808L9.96 21.412V19.644C9.96 16.1427 10.792 12.936 12.456 10.024C14.12 7.112 16.408 4.80667 19.32 3.108C22.232 1.40933 25.4733 0.559999 29.044 0.559999C31.02 0.559999 32.9267 0.837331 34.764 1.392C36.6013 1.912 38.2827 2.692 39.808 3.732V9.348C38.352 7.996 36.7053 6.956 34.868 6.228C33.0307 5.5 31.0893 5.136 29.044 5.136C26.2013 5.136 23.6533 5.77733 21.4 7.06C19.1813 8.308 17.448 10.0413 16.2 12.26C14.952 14.4787 14.328 16.94 14.328 19.644V21.412L20.568 15.068L23.428 17.876L12.144 29.212L0.652 17.668L3.408 14.808Z" fill="black"/>
</svg>
