<svg width="34" height="35" viewBox="0 0 34 35" fill="none" xmlns="http://www.w3.org/2000/svg">
<path d="M0.32 31.552L3.648 27.968C2.496 26.56 1.6 24.96 0.96 23.168C0.32 21.376 0 19.52 0 17.6C0 14.5707 0.746667 11.7973 2.24 9.28C3.776 6.72 5.824 4.71467 8.384 3.264C10.9867 1.77067 13.824 1.024 16.896 1.024C20.352 1.024 23.488 1.96266 26.304 3.84L29.888 0L33.408 3.2L29.888 6.976C31.0827 8.46933 32.0213 10.1333 32.704 11.968C33.3867 13.76 33.728 15.6373 33.728 17.6C33.728 20.5867 32.96 23.36 31.424 25.92C29.9307 28.48 27.904 30.5067 25.344 32C22.784 33.4933 19.968 34.24 16.896 34.24C13.2693 34.24 10.0267 33.2373 7.168 31.232L3.84 34.816L0.32 31.552ZM5.44 17.6C5.44 19.9467 6.08 22.1013 7.36 24.064L22.784 7.616C21.0347 6.50666 19.072 5.952 16.896 5.952C14.8053 5.952 12.8853 6.464 11.136 7.488C9.38667 8.512 8 9.92 6.976 11.712C5.952 13.504 5.44 15.4667 5.44 17.6ZM10.752 27.456C12.6293 28.6507 14.6773 29.248 16.896 29.248C18.944 29.248 20.8427 28.736 22.592 27.712C24.3413 26.6453 25.728 25.216 26.752 23.424C27.776 21.632 28.288 19.6907 28.288 17.6C28.288 15.168 27.6053 12.928 26.24 10.88L10.752 27.456Z" fill="black"/>
</svg>
