<svg width="160" height="32" fill="none" xmlns="http://www.w3.org/2000/svg"><g clip-path="url(#clip0_193_3011)" fill="#fff"><path d="M0 18.624h5.611c.203 2.007 1.484 3.985 4.946 3.985 3.143 0 4.451-1.465 4.451-2.93 0-1.464-.776-2.49-3.583-2.96l-3.108-.511C3.01 15.324.877 12.97.877 8.956c0-4.015 3.584-7.25 9.366-7.25 6.457 0 9.644 3.574 10.072 7.693h-5.61c-.337-1.94-1.588-3.574-4.497-3.574-2.737 0-3.818 1.43-3.818 2.69 0 1.532.843 2.241 3.65 2.722l2.84.443c5.192.852 8.078 3.268 8.078 7.49 0 4.562-3.82 7.558-10.344 7.558C3.957 26.725.304 23.356 0 18.624zm24.44-9.467h5.272v2.282c.71-.997 2.604-2.722 5.713-2.722 4.904 0 8.148 3.538 8.148 8.985 0 5.312-3.279 9.023-8.215 9.023-2.772 0-4.563-1.193-5.44-2.348v7.625H24.44V9.157zm9.363 13.449c2.537 0 4.191-1.873 4.191-4.936 0-3.064-1.622-4.936-4.191-4.936-2.5 0-4.224 1.873-4.259 4.936-.035 3.063 1.758 4.936 4.259 4.936zM49.657.784c1.926 0 3.178 1.36 3.178 2.962 0 1.668-1.252 3.063-3.178 3.063S46.58 5.414 46.58 3.746c0-1.602 1.147-2.962 3.076-2.962zm-2.703 8.373h5.44v17.055h-5.44V9.157zm8.856 8.545c0-5.412 3.956-9.055 9.498-9.055 5.78 0 8.957 3.372 9.296 7.222h-5.361c-.374-1.975-1.625-3.13-3.888-3.13-2.401 0-3.989 1.838-3.989 4.968s1.623 4.904 3.99 4.904c2.297 0 3.583-1.327 3.919-3.268h5.307c-.27 3.607-3.28 7.387-9.261 7.387-5.69-.005-9.511-3.755-9.511-9.028zm27.244 7.422L75.653 9.157h5.88l4.125 9.833 3.863-9.833h5.465l-9.464 22.845h-5.44l2.972-6.878zM106.658 0h6.924v2.49h-4.152v27.027h4.157v2.49h-6.924L106.658 0zm17.578 2.214h7.132l9.432 23.998h-6.254l-1.86-5.344h-10.028l-1.904 5.344h-5.88l9.362-23.998zm7.031 14.333l-3.65-9.668-3.517 9.668h7.167zm12.411-14.333h5.688v23.998h-5.688V2.214zM160 32.003h-6.924v-2.49h4.157V2.485h-4.157v-2.49H160v32.007z"/></g><defs><clipPath id="clip0_193_3011"><path fill="#fff" d="M0 0h160v32H0z"/></clipPath></defs></svg>