<svg width="737" height="492" viewBox="0 0 737 492" fill="none" xmlns="http://www.w3.org/2000/svg">
<path opacity="0.1" fill-rule="evenodd" clip-rule="evenodd" d="M721.653 46.3118L723.6 51.8748L725.434 57.4909L727.149 63.1575L728.742 68.8715L730.207 74.6299L731.541 80.4292L732.74 86.2659L733.798 92.1362L734.712 98.0361L735.479 103.962L736.094 109.908L736.555 115.871L736.858 121.846L737 127.829L736.979 133.814L736.793 139.796L736.44 145.77L735.917 151.731L735.225 157.674L734.362 163.594L733.327 169.486L732.121 175.344L730.744 181.163L729.197 186.939L727.479 192.665L725.594 198.338L723.543 203.953L721.327 209.505L718.95 214.99L716.414 220.403L713.722 225.74L710.878 230.999L707.886 236.174L704.75 241.264L701.473 246.265L698.061 251.173L694.519 255.988L690.851 260.706L687.062 265.326L683.159 269.846L679.147 274.265L675.03 278.583L670.816 282.798L666.509 286.911L662.117 290.922L657.644 294.831L653.097 298.639L648.481 302.347L643.803 305.957L639.069 309.471L634.284 312.89L629.453 316.217L624.583 319.455L619.679 322.606L614.745 325.674L609.788 328.661L604.81 331.573L599.818 334.411L594.816 337.181L589.806 339.886L584.794 342.53L579.782 345.118L574.774 347.653L569.772 350.141L564.778 352.585L559.796 354.99L554.826 357.359L549.871 359.698L544.931 362.01L540.008 364.3L535.101 366.571L530.211 368.826L525.339 371.07L520.483 373.306L515.643 375.536L510.818 377.765L506.007 379.994L501.21 382.226L496.424 384.466L491.648 386.714L486.881 388.973L482.121 391.247L477.365 393.536L472.612 395.843L467.859 398.168L463.103 400.514L458.343 402.882L453.575 405.271L448.796 407.683L444.004 410.118L439.195 412.575L434.368 415.053L429.517 417.552L424.641 420.071L419.736 422.607L414.8 425.159L409.829 427.725L404.82 430.301L399.77 432.885L394.678 435.473L389.54 438.062L384.353 440.647L379.116 443.226L373.826 445.792L368.481 448.342L363.081 450.87L357.622 453.372L352.105 455.843L346.527 458.276L340.889 460.667L335.19 463.011L329.429 465.302L323.607 467.534L317.723 469.703L311.779 471.802L305.775 473.827L299.712 475.774L293.592 477.635L287.415 479.408L281.184 481.085L274.901 482.662L268.567 484.135L262.186 485.497L255.759 486.743L249.291 487.87L242.783 488.871L236.24 489.742L229.666 490.479L223.063 491.077L216.436 491.532L209.79 491.84L203.129 491.997L196.457 492L189.779 491.845L183.1 491.529L176.426 491.05L169.76 490.405L163.108 489.592L156.477 488.609L149.87 487.455L143.293 486.129L136.751 484.63L130.25 482.956L123.796 481.11L117.393 479.089L111.046 476.896L104.761 474.53L98.5419 471.994L92.3947 469.288L86.3236 466.415L80.333 463.377L74.4272 460.177L68.6099 456.818L62.8846 453.305L57.2544 449.64L51.722 445.83L46.2899 441.878L40.9599 437.79L35.7336 433.572L30.6123 429.228L25.5967 424.766L20.6873 420.19L15.884 415.506L11.1867 410.722L6.5946 405.842L2.10674 400.872L-2.27818 395.82L-6.56177 390.69L-10.7459 385.488L-14.8326 380.22L-18.8244 374.891L-22.7237 369.507L-26.5333 364.071L-30.256 358.59L-33.8949 353.068L-37.4529 347.508L-40.9333 341.915L-44.3391 336.292L-47.6735 330.642L-50.9397 324.969L-54.1405 319.275L-57.2791 313.562L-60.3581 307.833L-63.3802 302.088L-66.3479 296.33L-69.2634 290.56L-72.1287 284.777L-74.9456 278.983L-77.7154 273.178L-80.4392 267.362L-83.1179 261.535L-85.7518 255.696L-88.3412 249.845L-90.8859 243.98L-93.3856 238.102L-95.8397 232.209L-98.2473 226.301L-100.607 220.376L-102.918 214.434L-105.179 208.473L-107.387 202.493L-109.54 196.493L-111.636 190.472L-113.673 184.43L-115.648 178.365L-117.558 172.277L-119.4 166.166L-121.17 160.032L-122.866 153.874L-124.484 147.693L-126.021 141.488L-127.473 135.26L-128.836 129.01L-130.107 122.738L-131.282 116.445L-132.358 110.133L-133.331 103.803L-134.197 97.4552L-134.953 91.0927L-135.596 84.7169L-136.122 78.33L-136.529 71.9341L-136.812 65.5317L-136.97 59.1253L-137 52.7178L-136.899 46.3118L-136.664 39.9105L-136.293 33.5171L-135.783 27.1349L-135.131 20.7673L-134.334 14.4182L-133.391 8.09113L-132.298 1.79025L-131.053 -4.48032L-129.654 -10.7163L-128.098 -16.9133L-126.385 -23.0668L-124.512 -29.172L-122.479 -35.2243L-120.283 -41.2188L-117.926 -47.1506L-115.405 -53.0148L-112.721 -58.8063L-109.874 -64.5201L-106.865 -70.1514L-103.694 -75.695L-100.364 -81.1462L-96.875 -86.5001L-93.2299 -91.752L-89.431 -96.8972L-85.4811 -101.931L-81.3831 -106.85L-77.1407 -111.649L-72.7577 -116.325L-68.2382 -120.873L-63.5867 -125.291L-58.808 -129.575L-53.9073 -133.722L-48.8899 -137.729L-43.7615 -141.595L-38.5278 -145.316L-33.1951 -148.892L-27.7696 -152.32L-22.2578 -155.601L-16.6663 -158.732L-11.002 -161.715L-5.27167 -164.548L0.51767 -167.232L6.35895 -169.768L12.2451 -172.157L18.1688 -174.4L24.1232 -176.5L30.1009 -178.458L36.095 -180.278L42.0985 -181.961L48.1046 -183.512L54.1063 -184.934L60.0973 -186.231L66.0711 -187.407L72.0215 -188.467L77.9424 -189.415L83.8283 -190.256L89.6736 -190.996L95.4732 -191.64L101.222 -192.193L106.916 -192.662L112.55 -193.052L118.121 -193.369L123.625 -193.618L129.06 -193.808L134.421 -193.942L139.707 -194.028L144.916 -194.071L150.046 -194.078L155.095 -194.054L160.063 -194.005L164.949 -193.938L169.754 -193.856L174.476 -193.766L179.117 -193.673L183.677 -193.581L188.158 -193.496L192.56 -193.423L196.886 -193.365L201.136 -193.328L205.313 -193.315L209.419 -193.331L213.456 -193.381L217.427 -193.467L221.335 -193.593L225.182 -193.763L228.972 -193.979L232.708 -194.244L236.394 -194.561L240.033 -194.931L243.629 -195.356L247.187 -195.837L250.709 -196.376L254.201 -196.972L257.665 -197.626L261.108 -198.338L264.531 -199.107L267.941 -199.932L271.34 -200.812L274.734 -201.745L278.125 -202.729L281.518 -203.762L284.917 -204.84L288.326 -205.962L291.747 -207.123L295.185 -208.32L298.641 -209.549L302.121 -210.806L305.625 -212.087L309.158 -213.388L312.72 -214.704L316.314 -216.031L319.943 -217.363L323.607 -218.697L327.308 -220.027L331.047 -221.349L334.825 -222.659L338.643 -223.951L342.502 -225.222L346.401 -226.467L350.341 -227.68L354.321 -228.857L358.341 -229.993L362.401 -231.084L366.499 -232.123L370.634 -233.108L374.805 -234.032L379.01 -234.891L383.248 -235.681L387.516 -236.397L391.812 -237.035L396.133 -237.59L400.478 -238.059L404.842 -238.438L409.224 -238.723L413.62 -238.912L418.027 -239L422.442 -238.985L426.86 -238.865L431.279 -238.636L435.695 -238.298L440.105 -237.848L444.504 -237.285L448.889 -236.607L453.257 -235.814L457.603 -234.905L461.925 -233.88L466.218 -232.738L470.48 -231.481L474.706 -230.108L478.894 -228.621L483.041 -227.021L487.144 -225.309L491.2 -223.488L495.208 -221.561L499.165 -219.53L503.07 -217.399L506.923 -215.171L510.722 -212.851L514.466 -210.442L518.157 -207.948L521.794 -205.374L525.378 -202.724L528.91 -200.004L532.391 -197.216L535.822 -194.366L539.206 -191.459L542.545 -188.497L545.841 -185.487L549.097 -182.432L552.316 -179.335L555.5 -176.201L558.653 -173.033L561.778 -169.834L564.879 -166.608L567.959 -163.356L571.021 -160.082L574.069 -156.787L577.107 -153.473L580.138 -150.143L583.165 -146.796L586.191 -143.434L589.22 -140.057L592.254 -136.666L595.297 -133.26L598.35 -129.839L601.416 -126.402L604.496 -122.949L607.593 -119.477L610.707 -115.985L613.839 -112.472L616.989 -108.935L620.159 -105.373L623.347 -101.782L626.553 -98.1609L629.776 -94.5066L633.014 -90.8168L636.268 -87.0887L639.534 -83.3198L642.81 -79.5074L646.095 -75.6491L649.385 -71.7422L652.678 -67.7843L655.97 -63.7729L659.258 -59.706L662.538 -55.5811L665.807 -51.3965L669.06 -47.1501L672.293 -42.8402L675.502 -38.4654L678.682 -34.0242L681.828 -29.5157L684.936 -24.9387L688 -20.2926L691.016 -15.5769L693.979 -10.7913L696.884 -5.93578L699.725 -1.01054L702.498 3.98404L705.198 9.04729L707.82 14.1783L710.359 19.3761L712.811 24.6392L715.171 29.9662L717.434 35.3553L719.596 40.8045L721.653 46.3118Z" fill="#CA6C46"/>
</svg>
