<svg width="18" height="18" viewBox="0 0 18 18" fill="none" xmlns="http://www.w3.org/2000/svg">
<g clip-path="url(#clip0_1_22625)">
<path d="M17.9999 8.43567C17.8914 6.68069 17.2717 4.99581 16.2173 3.58874C15.1628 2.18168 13.7196 1.11394 12.0657 0.517169C10.4117 -0.0796043 8.61925 -0.179327 6.90929 0.230294C5.19934 0.639916 3.64663 1.54097 2.44258 2.82239C1.23854 4.1038 0.4358 5.70954 0.133326 7.44167C-0.169148 9.17379 0.0418673 10.9566 0.740357 12.5702C1.43885 14.1839 2.59428 15.5578 4.0642 16.5227C5.53413 17.4876 7.25429 18.0013 9.01262 18.0004H14.2499C15.2441 17.9994 16.1974 17.604 16.9004 16.901C17.6035 16.1979 17.9989 15.2447 17.9999 14.2504V8.43567ZM16.4999 14.2504C16.4999 14.8472 16.2628 15.4195 15.8409 15.8414C15.4189 16.2634 14.8466 16.5004 14.2499 16.5004H9.01262C7.95432 16.4999 6.908 16.2764 5.94189 15.8444C4.97578 15.4124 4.11158 14.7816 3.40562 13.9932C2.69625 13.2051 2.16357 12.2745 1.84329 11.2638C1.52301 10.253 1.42254 9.18544 1.54862 8.13267C1.7477 6.47213 2.49376 4.92506 3.6692 3.73537C4.84464 2.54567 6.3826 1.78101 8.04062 1.56192C8.36405 1.52139 8.68966 1.50085 9.01562 1.50042C10.7635 1.49566 12.4572 2.10635 13.7999 3.22542C14.584 3.87713 15.2277 4.68129 15.6918 5.58915C16.1559 6.497 16.4308 7.48965 16.4999 8.50692V14.2504Z" fill="#19453F" style="fill:#19453F;fill:color(display-p3 0.0980 0.2706 0.2471);fill-opacity:1;"/>
<path d="M6 6.75H9C9.19891 6.75 9.38968 6.67098 9.53033 6.53033C9.67098 6.38968 9.75 6.19891 9.75 6C9.75 5.80109 9.67098 5.61032 9.53033 5.46967C9.38968 5.32902 9.19891 5.25 9 5.25H6C5.80109 5.25 5.61032 5.32902 5.46967 5.46967C5.32902 5.61032 5.25 5.80109 5.25 6C5.25 6.19891 5.32902 6.38968 5.46967 6.53033C5.61032 6.67098 5.80109 6.75 6 6.75Z" fill="#19453F" style="fill:#19453F;fill:color(display-p3 0.0980 0.2706 0.2471);fill-opacity:1;"/>
<path d="M12 8.25H6C5.80109 8.25 5.61032 8.32902 5.46967 8.46967C5.32902 8.61032 5.25 8.80109 5.25 9C5.25 9.19891 5.32902 9.38968 5.46967 9.53033C5.61032 9.67098 5.80109 9.75 6 9.75H12C12.1989 9.75 12.3897 9.67098 12.5303 9.53033C12.671 9.38968 12.75 9.19891 12.75 9C12.75 8.80109 12.671 8.61032 12.5303 8.46967C12.3897 8.32902 12.1989 8.25 12 8.25Z" fill="#19453F" style="fill:#19453F;fill:color(display-p3 0.0980 0.2706 0.2471);fill-opacity:1;"/>
<path d="M12 11.25H6C5.80109 11.25 5.61032 11.329 5.46967 11.4697C5.32902 11.6103 5.25 11.8011 5.25 12C5.25 12.1989 5.32902 12.3897 5.46967 12.5303C5.61032 12.671 5.80109 12.75 6 12.75H12C12.1989 12.75 12.3897 12.671 12.5303 12.5303C12.671 12.3897 12.75 12.1989 12.75 12C12.75 11.8011 12.671 11.6103 12.5303 11.4697C12.3897 11.329 12.1989 11.25 12 11.25Z" fill="#19453F" style="fill:#19453F;fill:color(display-p3 0.0980 0.2706 0.2471);fill-opacity:1;"/>
</g>
<defs>
<clipPath id="clip0_1_22625">
<rect width="18" height="18" fill="white" style="fill:white;fill-opacity:1;"/>
</clipPath>
</defs>
</svg>
