<svg width="14" height="16" viewBox="0 0 14 16" fill="none" xmlns="http://www.w3.org/2000/svg">
<path d="M10.0953 9.33335C10.0953 9.51016 10.0301 9.67973 9.91397 9.80475C9.79788 9.92978 9.64042 10 9.47624 10H4.52386C4.35967 10 4.20222 9.92978 4.08612 9.80475C3.97003 9.67973 3.90481 9.51016 3.90481 9.33335C3.90481 9.15654 3.97003 8.98697 4.08612 8.86194C4.20222 8.73692 4.35967 8.66668 4.52386 8.66668H9.47624C9.64042 8.66668 9.79788 8.73692 9.91397 8.86194C10.0301 8.98697 10.0953 9.15654 10.0953 9.33335ZM7.61909 11.3333H4.52386C4.35967 11.3333 4.20222 11.4036 4.08612 11.5286C3.97003 11.6536 3.90481 11.8232 3.90481 12C3.90481 12.1768 3.97003 12.3464 4.08612 12.4714C4.20222 12.5964 4.35967 12.6667 4.52386 12.6667H7.61909C7.78328 12.6667 7.94073 12.5964 8.05683 12.4714C8.17292 12.3464 8.23814 12.1768 8.23814 12C8.23814 11.8232 8.17292 11.6536 8.05683 11.5286C7.94073 11.4036 7.78328 11.3333 7.61909 11.3333ZM13.1905 6.99002V12.6667C13.1895 13.5504 12.8631 14.3976 12.2829 15.0225C11.7026 15.6474 10.9159 15.999 10.0953 16H3.90481C3.0842 15.999 2.29749 15.6474 1.71723 15.0225C1.13697 14.3976 0.810553 13.5504 0.80957 12.6667V3.33335C0.810553 2.44962 1.13697 1.60239 1.71723 0.977495C2.29749 0.352603 3.0842 0.00107394 3.90481 1.53658e-05H6.69981C7.2691 -0.00156258 7.83303 0.118407 8.35899 0.352988C8.88496 0.587569 9.36253 0.932107 9.76409 1.36668L11.9209 3.69068C12.3246 4.12284 12.6447 4.63699 12.8627 5.20333C13.0806 5.76968 13.1921 6.37696 13.1905 6.99002ZM8.88876 2.30935C8.69393 2.10612 8.4752 1.9313 8.23814 1.78935V4.66668C8.23814 4.84349 8.30336 5.01306 8.41946 5.13809C8.53555 5.26311 8.69301 5.33335 8.85719 5.33335H11.529C11.3971 5.07814 11.2346 4.84278 11.0455 4.63335L8.88876 2.30935ZM11.9524 6.99002C11.9524 6.88002 11.9326 6.77468 11.9233 6.66668H8.85719C8.36464 6.66668 7.89227 6.45597 7.54399 6.0809C7.19571 5.70582 7.00005 5.19711 7.00005 4.66668V1.36468C6.89976 1.35468 6.80133 1.33335 6.69981 1.33335H3.90481C3.41226 1.33335 2.93989 1.54406 2.59161 1.91914C2.24333 2.29421 2.04767 2.80292 2.04767 3.33335V12.6667C2.04767 13.1971 2.24333 13.7058 2.59161 14.0809C2.93989 14.456 3.41226 14.6667 3.90481 14.6667H10.0953C10.5878 14.6667 11.0602 14.456 11.4085 14.0809C11.7568 13.7058 11.9524 13.1971 11.9524 12.6667V6.99002Z" fill="#5E6D55" style="fill:#5E6D55;fill:color(display-p3 0.3686 0.4275 0.3333);fill-opacity:1;"/>
</svg>
