<svg aria-hidden="true" xmlns="http://www.w3.org/2000/svg" xmlns:xlink="http://www.w3.org/1999/xlink"><symbol viewBox="0 0 12 10" id="arrow-sm" xmlns="http://www.w3.org/2000/svg">
<path d="M-0.00195312 4.99962C-0.00198936 5.14414 0.0293894 5.28694 0.0900078 5.41813C0.150625 5.54931 0.239035 5.66576 0.349113 5.75939L4.44858 9.25336C4.51592 9.31034 4.60311 9.3383 4.69103 9.33112C4.77895 9.32393 4.86044 9.28219 4.91764 9.21504C4.97484 9.14789 5.00309 9.0608 4.9962 8.97285C4.98931 8.88491 4.94784 8.80328 4.88088 8.74586L0.87648 5.33296H11.6647C11.7531 5.33296 11.8379 5.29784 11.9004 5.23533C11.9629 5.17282 11.998 5.08803 11.998 4.99962C11.998 4.91122 11.9629 4.82643 11.9004 4.76392C11.8379 4.70141 11.7531 4.66629 11.6647 4.66629H0.87648L4.88085 1.25336C4.94781 1.19593 4.98928 1.11431 4.99617 1.02636C5.00306 0.938418 4.97481 0.851328 4.9176 0.784175C4.8604 0.717022 4.77891 0.675282 4.69099 0.6681C4.60307 0.660917 4.51589 0.688879 4.44855 0.745858L0.349279 4.23962C0.239151 4.33328 0.1507 4.44975 0.0900517 4.58098C0.0294046 4.71221 -0.00198936 4.85506 -0.00195312 4.99962Z"/>
</symbol><symbol viewBox="0 0 20 20" id="calendar" xmlns="http://www.w3.org/2000/svg">
<path d="M14.1667 8.36583C10.9508 8.36583 8.33333 10.9825 8.33333 14.1992C8.33333 17.3975 10.9508 20 14.1667 20C17.3825 20 20 17.3833 20 14.1667C20 10.9683 17.3825 8.36583 14.1667 8.36583ZM14.1667 18.3333C11.8692 18.3333 10 16.4783 10 14.1992C10 11.9017 11.8692 10.0325 14.1667 10.0325C16.4642 10.0325 18.3333 11.8875 18.3333 14.1667C18.3333 16.4642 16.4642 18.3333 14.1667 18.3333ZM15.5892 14.4108C15.915 14.7367 15.915 15.2633 15.5892 15.5892C15.4267 15.7517 15.2133 15.8333 15 15.8333C14.7867 15.8333 14.5733 15.7517 14.4108 15.5892L13.5775 14.7558C13.4208 14.5992 13.3333 14.3875 13.3333 14.1667V12.5C13.3333 12.04 13.7058 11.6667 14.1667 11.6667C14.6275 11.6667 15 12.04 15 12.5V13.8217L15.5892 14.4108ZM20 5.83333V7.5C20 7.96 19.6275 8.33333 19.1667 8.33333C18.7058 8.33333 18.3333 7.96 18.3333 7.5V5.83333C18.3333 4.455 17.2117 3.33333 15.8333 3.33333H4.16667C2.78833 3.33333 1.66667 4.455 1.66667 5.83333V6.66667H9.16667C9.62667 6.66667 10 7.04 10 7.5C10 7.96 9.62667 8.33333 9.16667 8.33333H1.66667V15.8333C1.66667 17.2117 2.78833 18.3333 4.16667 18.3333H7.5C7.96 18.3333 8.33333 18.7067 8.33333 19.1667C8.33333 19.6267 7.96 20 7.5 20H4.16667C1.86917 20 0 18.1308 0 15.8333V5.83333C0 3.53583 1.86917 1.66667 4.16667 1.66667H5V0.833333C5 0.373333 5.37333 0 5.83333 0C6.29333 0 6.66667 0.373333 6.66667 0.833333V1.66667H13.3333V0.833333C13.3333 0.373333 13.7058 0 14.1667 0C14.6275 0 15 0.373333 15 0.833333V1.66667H15.8333C18.1308 1.66667 20 3.53583 20 5.83333Z"/>
</symbol><symbol viewBox="0 0 14 14" id="calendar-2" xmlns="http://www.w3.org/2000/svg">
<path d="M12.25 1.16667H10.5V0H9.33333V1.16667H4.66667V0H3.5V1.16667H1.75C0.785167 1.16667 0 1.95183 0 2.91667V14H14V2.91667C14 1.95183 13.2148 1.16667 12.25 1.16667ZM1.75 2.33333H12.25C12.5714 2.33333 12.8333 2.59525 12.8333 2.91667V4.66667H1.16667V2.91667C1.16667 2.59525 1.42858 2.33333 1.75 2.33333ZM1.16667 12.8333V5.83333H12.8333V12.8333H1.16667ZM4.66667 8.75H9.33333V9.91667H4.66667V8.75Z"/>
</symbol><symbol viewBox="0 0 20 20" id="chat" xmlns="http://www.w3.org/2000/svg">
<g clip-path="url(#dclip0_1_7398)">
<path d="M20 9.37297C19.8794 7.42299 19.1909 5.5509 18.0193 3.98749C16.8477 2.42409 15.2441 1.23771 13.4064 0.574632C11.5687 -0.0884492 9.57705 -0.199252 7.6771 0.255883C5.77715 0.711018 4.05192 1.71219 2.71409 3.13599C1.37626 4.55978 0.484331 6.34394 0.148249 8.26852C-0.187833 10.1931 0.0466277 12.174 0.822727 13.9669C1.59883 15.7598 2.88264 17.2865 4.51589 18.3586C6.14914 19.4307 8.06043 20.0015 10.0141 20.0005H15.8333C16.938 19.9994 17.9972 19.56 18.7784 18.7789C19.5595 17.9977 19.9989 16.9385 20 15.8338V9.37297ZM18.3333 15.8338C18.3333 16.4968 18.0699 17.1327 17.6011 17.6016C17.1322 18.0704 16.4963 18.3338 15.8333 18.3338H10.0141C8.83824 18.3333 7.67567 18.0849 6.60221 17.6049C5.52876 17.1249 4.56853 16.424 3.78413 15.548C2.99594 14.6724 2.40407 13.6384 2.04821 12.5153C1.69235 11.3922 1.58071 10.206 1.7208 9.0363C1.94199 7.19125 2.77095 5.47229 4.077 4.15041C5.38304 2.82852 7.09188 1.97889 8.93413 1.73547C9.29349 1.69043 9.65529 1.66761 10.0175 1.66714C11.9595 1.66184 13.8415 2.34039 15.3333 3.5838C16.2046 4.30792 16.9197 5.20143 17.4354 6.21016C17.9511 7.21889 18.2566 8.32184 18.3333 9.45214V15.8338Z"/>
<path d="M6.66634 7.49967H9.99967C10.2207 7.49967 10.4326 7.41188 10.5889 7.2556C10.7452 7.09932 10.833 6.88735 10.833 6.66634C10.833 6.44533 10.7452 6.23337 10.5889 6.07709C10.4326 5.92081 10.2207 5.83301 9.99967 5.83301H6.66634C6.44533 5.83301 6.23337 5.92081 6.07709 6.07709C5.92081 6.23337 5.83301 6.44533 5.83301 6.66634C5.83301 6.88735 5.92081 7.09932 6.07709 7.2556C6.23337 7.41188 6.44533 7.49967 6.66634 7.49967Z"/>
<path d="M13.333 9.16699H6.66634C6.44533 9.16699 6.23337 9.25479 6.07709 9.41107C5.92081 9.56735 5.83301 9.77931 5.83301 10.0003C5.83301 10.2213 5.92081 10.4333 6.07709 10.5896C6.23337 10.7459 6.44533 10.8337 6.66634 10.8337H13.333C13.554 10.8337 13.766 10.7459 13.9223 10.5896C14.0785 10.4333 14.1663 10.2213 14.1663 10.0003C14.1663 9.77931 14.0785 9.56735 13.9223 9.41107C13.766 9.25479 13.554 9.16699 13.333 9.16699Z"/>
<path d="M13.3335 12.5H6.66683C6.44582 12.5 6.23385 12.5878 6.07757 12.7441C5.92129 12.9004 5.8335 13.1123 5.8335 13.3333C5.8335 13.5543 5.92129 13.7663 6.07757 13.9226C6.23385 14.0789 6.44582 14.1667 6.66683 14.1667H13.3335C13.5545 14.1667 13.7665 14.0789 13.9228 13.9226C14.079 13.7663 14.1668 13.5543 14.1668 13.3333C14.1668 13.1123 14.079 12.9004 13.9228 12.7441C13.7665 12.5878 13.5545 12.5 13.3335 12.5Z"/>
</g>
<defs>
<clipPath id="dclip0_1_7398">
<rect width="20" height="20"/>
</clipPath>
</defs>
</symbol><symbol viewBox="0 0 21 20" id="clock-mobile" xmlns="http://www.w3.org/2000/svg">
<path d="M14.6667 8.36583C11.4508 8.36583 8.83333 10.9825 8.83333 14.1992C8.83333 17.3975 11.4508 20 14.6667 20C17.8825 20 20.5 17.3833 20.5 14.1667C20.5 10.9683 17.8825 8.36583 14.6667 8.36583ZM14.6667 18.3333C12.3692 18.3333 10.5 16.4783 10.5 14.1992C10.5 11.9017 12.3692 10.0325 14.6667 10.0325C16.9642 10.0325 18.8333 11.8875 18.8333 14.1667C18.8333 16.4642 16.9642 18.3333 14.6667 18.3333ZM16.0892 14.4108C16.415 14.7367 16.415 15.2633 16.0892 15.5892C15.9267 15.7517 15.7133 15.8333 15.5 15.8333C15.2867 15.8333 15.0733 15.7517 14.9108 15.5892L14.0775 14.7558C13.9208 14.5992 13.8333 14.3875 13.8333 14.1667V12.5C13.8333 12.04 14.2058 11.6667 14.6667 11.6667C15.1275 11.6667 15.5 12.04 15.5 12.5V13.8217L16.0892 14.4108ZM20.5 5.83333V7.5C20.5 7.96 20.1275 8.33333 19.6667 8.33333C19.2058 8.33333 18.8333 7.96 18.8333 7.5V5.83333C18.8333 4.455 17.7117 3.33333 16.3333 3.33333H4.66667C3.28833 3.33333 2.16667 4.455 2.16667 5.83333V6.66667H9.66667C10.1267 6.66667 10.5 7.04 10.5 7.5C10.5 7.96 10.1267 8.33333 9.66667 8.33333H2.16667V15.8333C2.16667 17.2117 3.28833 18.3333 4.66667 18.3333H8C8.46 18.3333 8.83333 18.7067 8.83333 19.1667C8.83333 19.6267 8.46 20 8 20H4.66667C2.36917 20 0.5 18.1308 0.5 15.8333V5.83333C0.5 3.53583 2.36917 1.66667 4.66667 1.66667H5.5V0.833333C5.5 0.373333 5.87333 0 6.33333 0C6.79333 0 7.16667 0.373333 7.16667 0.833333V1.66667H13.8333V0.833333C13.8333 0.373333 14.2058 0 14.6667 0C15.1275 0 15.5 0.373333 15.5 0.833333V1.66667H16.3333C18.6308 1.66667 20.5 3.53583 20.5 5.83333Z"/>
</symbol><symbol viewBox="0 0 4 16" id="dots" xmlns="http://www.w3.org/2000/svg">
<path d="M2.00045 2.66667C2.73683 2.66667 3.33378 2.06971 3.33378 1.33333C3.33378 0.596954 2.73683 0 2.00045 0C1.26407 0 0.667114 0.596954 0.667114 1.33333C0.667114 2.06971 1.26407 2.66667 2.00045 2.66667Z"/>
<path d="M2.00045 9.33366C2.73683 9.33366 3.33378 8.73671 3.33378 8.00033C3.33378 7.26395 2.73683 6.66699 2.00045 6.66699C1.26407 6.66699 0.667114 7.26395 0.667114 8.00033C0.667114 8.73671 1.26407 9.33366 2.00045 9.33366Z"/>
<path d="M2.00045 15.9997C2.73683 15.9997 3.33378 15.4027 3.33378 14.6663C3.33378 13.93 2.73683 13.333 2.00045 13.333C1.26407 13.333 0.667114 13.93 0.667114 14.6663C0.667114 15.4027 1.26407 15.9997 2.00045 15.9997Z"/>
</symbol><symbol viewBox="0 0 20 20" id="exit" xmlns="http://www.w3.org/2000/svg">
<g clip-path="url(#gclip0_1_7405)">
<path d="M19.0244 7.64318L15.7919 4.41068C15.6347 4.25889 15.4242 4.17489 15.2057 4.17679C14.9872 4.17869 14.7782 4.26633 14.6237 4.42084C14.4692 4.57534 14.3816 4.78435 14.3797 5.00285C14.3778 5.22135 14.4617 5.43185 14.6135 5.58902L17.846 8.82152C17.9421 8.91946 18.026 9.02857 18.096 9.14652C18.0835 9.14652 18.0735 9.13985 18.061 9.13985L4.99105 9.16652C4.77003 9.16652 4.55807 9.25432 4.40179 9.4106C4.24551 9.56688 4.15771 9.77884 4.15771 9.99985C4.15771 10.2209 4.24551 10.4328 4.40179 10.5891C4.55807 10.7454 4.77003 10.8332 4.99105 10.8332L18.056 10.8065C18.0794 10.8065 18.0985 10.7949 18.121 10.7932C18.0471 10.9342 17.9534 11.0638 17.8427 11.1782L14.6102 14.4107C14.5306 14.4876 14.4671 14.5795 14.4235 14.6812C14.3798 14.7829 14.3568 14.8922 14.3558 15.0029C14.3549 15.1135 14.376 15.2232 14.4179 15.3256C14.4598 15.4281 14.5216 15.5211 14.5999 15.5993C14.6781 15.6776 14.7712 15.7395 14.8736 15.7814C14.976 15.8233 15.0857 15.8444 15.1964 15.8434C15.307 15.8424 15.4164 15.8194 15.5181 15.7758C15.6197 15.7321 15.7117 15.6686 15.7885 15.589L19.021 12.3565C19.646 11.7314 19.997 10.8837 19.997 9.99985C19.997 9.11597 19.646 8.26828 19.021 7.64318H19.0244Z"/>
<path d="M5.83333 18.3333H4.16667C3.50363 18.3333 2.86774 18.0699 2.3989 17.6011C1.93006 17.1323 1.66667 16.4964 1.66667 15.8333V4.16667C1.66667 3.50363 1.93006 2.86774 2.3989 2.3989C2.86774 1.93006 3.50363 1.66667 4.16667 1.66667H5.83333C6.05435 1.66667 6.26631 1.57887 6.42259 1.42259C6.57887 1.26631 6.66667 1.05435 6.66667 0.833333C6.66667 0.61232 6.57887 0.400358 6.42259 0.244078C6.26631 0.0877974 6.05435 0 5.83333 0L4.16667 0C3.062 0.00132321 2.00296 0.440735 1.22185 1.22185C0.440735 2.00296 0.00132321 3.062 0 4.16667L0 15.8333C0.00132321 16.938 0.440735 17.997 1.22185 18.7782C2.00296 19.5593 3.062 19.9987 4.16667 20H5.83333C6.05435 20 6.26631 19.9122 6.42259 19.7559C6.57887 19.5996 6.66667 19.3877 6.66667 19.1667C6.66667 18.9457 6.57887 18.7337 6.42259 18.5774C6.26631 18.4211 6.05435 18.3333 5.83333 18.3333Z"/>
</g>
<defs>
<clipPath id="gclip0_1_7405">
<rect width="20" height="20"/>
</clipPath>
</defs>
</symbol><symbol viewBox="0 0 14 14" id="gender-man" xmlns="http://www.w3.org/2000/svg">
<path d="M12.8316 0H9.33948V1.16402H12.0086L8.03226 5.14038C5.88025 3.44288 2.75962 3.81134 1.06212 5.96334C-0.635382 8.11535 -0.266898 11.236 1.88511 12.9335C4.03712 14.631 7.15775 14.2625 8.85525 12.1105C10.277 10.3081 10.277 7.76579 8.85525 5.96337L12.8316 1.98702V4.65615H13.9956V1.16402C13.9956 0.521145 13.4745 0 12.8316 0ZM4.97435 12.8044C2.88499 12.8044 1.19124 11.1106 1.19124 9.02128C1.19124 6.93191 2.88499 5.23816 4.97435 5.23816C7.06372 5.23816 8.75747 6.93191 8.75747 9.02128C8.7549 11.1096 7.06265 12.8018 4.97435 12.8044Z"/>
</symbol><symbol viewBox="0 0 20 19" id="heart" xmlns="http://www.w3.org/2000/svg">
<path d="M14.5835 0.597656C13.6451 0.612252 12.7272 0.874201 11.9224 1.35705C11.1177 1.8399 10.4546 2.52655 10.0001 3.34766C9.54566 2.52655 8.88257 1.8399 8.07783 1.35705C7.27308 0.874201 6.35517 0.612252 5.41679 0.597656C3.92091 0.662649 2.51155 1.31703 1.49661 2.41785C0.481678 3.51867 -0.0563308 4.97643 0.000128002 6.47266C0.000128002 10.2618 3.98846 14.4002 7.33346 17.206C8.08031 17.8336 9.02459 18.1777 10.0001 18.1777C10.9757 18.1777 11.9199 17.8336 12.6668 17.206C16.0118 14.4002 20.0001 10.2618 20.0001 6.47266C20.0566 4.97643 19.5186 3.51867 18.5036 2.41785C17.4887 1.31703 16.0793 0.662649 14.5835 0.597656ZM11.596 15.931C11.1493 16.3071 10.5841 16.5134 10.0001 16.5134C9.41617 16.5134 8.85098 16.3071 8.40429 15.931C4.12263 12.3385 1.66679 8.89182 1.66679 6.47266C1.60983 5.41825 1.9721 4.3841 2.6746 3.59574C3.37709 2.80738 4.36282 2.32878 5.41679 2.26432C6.47077 2.32878 7.45649 2.80738 8.15899 3.59574C8.86149 4.3841 9.22376 5.41825 9.16679 6.47266C9.16679 6.69367 9.25459 6.90563 9.41087 7.06191C9.56715 7.21819 9.77911 7.30599 10.0001 7.30599C10.2211 7.30599 10.4331 7.21819 10.5894 7.06191C10.7457 6.90563 10.8335 6.69367 10.8335 6.47266C10.7765 5.41825 11.1388 4.3841 11.8413 3.59574C12.5438 2.80738 13.5295 2.32878 14.5835 2.26432C15.6374 2.32878 16.6232 2.80738 17.3257 3.59574C18.0282 4.3841 18.3904 5.41825 18.3335 6.47266C18.3335 8.89182 15.8776 12.3385 11.596 15.9277V15.931Z"/>
</symbol><symbol viewBox="0 0 20 16" id="hide-pass" xmlns="http://www.w3.org/2000/svg">
<path d="M19.381 5.84977C18.9956 5.19356 18.5506 4.57428 18.0517 3.99977C17.5496 3.4491 17.0192 2.92506 16.4625 2.42977C15.752 1.82497 14.9443 1.34485 14.0737 1.00977C13.3542 0.693197 12.5991 0.464872 11.8248 0.32977C11.22 0.234467 10.6078 0.194302 9.99569 0.20977C8.0752 0.247672 6.19814 0.788321 4.55147 1.77787C2.90481 2.76741 1.546 4.17132 0.610385 5.84977C0.211354 6.49584 0 7.2403 0 7.99977C0 8.75924 0.211354 9.5037 0.610385 10.1498C0.995763 10.806 1.44076 11.4253 1.93972 11.9998C2.17015 12.2619 2.41367 12.5122 2.66936 12.7498C2.90924 12.9698 3.11913 13.2198 3.369 13.4298C4.30222 14.1906 5.36088 14.7828 6.49744 15.1798C7.22535 15.4406 7.97938 15.6216 8.74632 15.7198C9.16098 15.7683 9.5782 15.7917 9.99569 15.7898C11.9162 15.7519 13.7932 15.2112 15.4399 14.2217C17.0866 13.2321 18.4454 11.8282 19.381 10.1498C19.78 9.5037 19.9914 8.75924 19.9914 7.99977C19.9914 7.2403 19.78 6.49584 19.381 5.84977ZM17.9917 9.27977C17.1945 10.7124 16.0377 11.9123 14.6355 12.7611C13.2333 13.6099 11.634 14.0782 9.99569 14.1198C9.32239 14.1162 8.65171 14.0357 7.99669 13.8798C7.50419 13.7678 7.02505 13.6035 6.56741 13.3898C6.06596 13.1241 5.58189 12.8269 5.11813 12.4998C4.64154 12.1863 4.19338 11.8316 3.7788 11.4398C3.23328 10.8975 2.74434 10.3011 2.31953 9.65977L1.99969 9.27977C1.7582 8.89656 1.63005 8.45279 1.63005 7.99977C1.63005 7.54675 1.7582 7.10298 1.99969 6.71977C2.79688 5.28712 3.95367 4.0872 5.3559 3.23843C6.75813 2.38966 8.35733 1.92136 9.99569 1.87977C11.5692 1.89421 13.1107 2.32551 14.4635 3.12977C14.7033 3.26977 14.9432 3.41977 15.1731 3.57977C15.403 3.73977 15.5429 3.91977 15.7328 4.06977C16.3046 4.565 16.8237 5.11793 17.282 5.71977C17.5219 6.03977 17.7518 6.37977 17.9617 6.71977C18.2032 7.10298 18.3314 7.54675 18.3314 7.99977C18.3314 8.45279 18.2032 8.89656 17.9617 9.27977H17.9917Z"/>
<path d="M13.4837 5.68956C13.3673 5.52213 13.2369 5.3649 13.0939 5.21956C12.8952 5.0108 12.6814 4.81694 12.4543 4.63956C11.5693 4.03259 10.4848 3.78953 9.42561 3.96075C8.3664 4.13197 7.41363 4.70435 6.76473 5.55926C6.11583 6.41418 5.82055 7.4861 5.94008 8.55291C6.05961 9.61971 6.58478 10.5996 7.40678 11.2896C7.71373 11.5196 8.04983 11.7079 8.40628 11.8496C8.72726 11.9798 9.06289 12.0705 9.40578 12.1196C9.73849 12.144 10.0726 12.144 10.4053 12.1196C11.3612 12.023 12.2544 11.599 12.9337 10.9193C13.6131 10.2396 14.0369 9.34594 14.1334 8.38956C14.2244 7.44222 13.9957 6.49169 13.4837 5.68956ZM11.7646 9.76956C11.5629 9.96409 11.3297 10.123 11.0749 10.2396H11.015C10.7003 10.3803 10.3601 10.4551 10.0155 10.4596C9.35849 10.4572 8.72821 10.1991 8.25808 9.73998C7.78796 9.28082 7.5149 8.65662 7.49673 7.99956C7.49664 7.33628 7.75896 6.69993 8.22637 6.22956L8.43626 6.05956L8.5662 5.99956L8.7661 5.86956L8.99598 5.71956C9.35906 5.55477 9.7564 5.47966 10.1545 5.50057C10.5527 5.52147 10.94 5.63777 11.2838 5.83967C11.6277 6.04158 11.918 6.32318 12.1304 6.66077C12.3428 6.99836 12.471 7.38205 12.5042 7.77956C12.5092 7.85281 12.5092 7.92631 12.5042 7.99956C12.5017 8.66427 12.2357 9.30082 11.7646 9.76956Z"/>
</symbol><symbol viewBox="0 0 4 12" id="info" xmlns="http://www.w3.org/2000/svg">
<path d="M2.00015 0C2.66415 0 3.20015 0.536 3.20015 1.2C3.20015 1.864 2.66415 2.4 2.00015 2.4C1.33615 2.4 0.800146 1.864 0.800146 1.2C0.800146 0.536 1.33615 0 2.00015 0ZM3.60015 11.2C3.60015 11.64 3.24015 12 2.80015 12C2.36015 12 2.00015 11.64 2.00015 11.2V6.4C2.00015 5.96 1.64015 5.6 1.20015 5.6C0.760146 5.6 0.400146 5.24 0.400146 4.8C0.400146 4.36 0.760146 4 1.20015 4C2.52015 4 3.60015 5.08 3.60015 6.4V11.2Z"/>
</symbol><symbol viewBox="0 0 16 16" id="lock" xmlns="http://www.w3.org/2000/svg">
<path d="M12.6663 5.616V4.66667C12.6663 3.42899 12.1747 2.242 11.2995 1.36684C10.4243 0.491665 9.23735 0 7.99967 0C6.762 0 5.57501 0.491665 4.69984 1.36684C3.82467 2.242 3.33301 3.42899 3.33301 4.66667V5.616C2.73925 5.87514 2.23387 6.30168 1.87867 6.84347C1.52348 7.38527 1.33386 8.01882 1.33301 8.66667V12.6667C1.33407 13.5504 1.6856 14.3976 2.31049 15.0225C2.93538 15.6474 3.78261 15.9989 4.66634 16H11.333C12.2167 15.9989 13.064 15.6474 13.6889 15.0225C14.3138 14.3976 14.6653 13.5504 14.6663 12.6667V8.66667C14.6655 8.01882 14.4759 7.38527 14.1207 6.84347C13.7655 6.30168 13.2601 5.87514 12.6663 5.616ZM4.66634 4.66667C4.66634 3.78261 5.01753 2.93477 5.64265 2.30964C6.26777 1.68452 7.11562 1.33333 7.99967 1.33333C8.88373 1.33333 9.73158 1.68452 10.3567 2.30964C10.9818 2.93477 11.333 3.78261 11.333 4.66667V5.33333H4.66634V4.66667ZM13.333 12.6667C13.333 13.1971 13.1223 13.7058 12.7472 14.0809C12.3721 14.456 11.8634 14.6667 11.333 14.6667H4.66634C4.13591 14.6667 3.6272 14.456 3.25213 14.0809C2.87705 13.7058 2.66634 13.1971 2.66634 12.6667V8.66667C2.66634 8.13623 2.87705 7.62753 3.25213 7.25245C3.6272 6.87738 4.13591 6.66667 4.66634 6.66667H11.333C11.8634 6.66667 12.3721 6.87738 12.7472 7.25245C13.1223 7.62753 13.333 8.13623 13.333 8.66667V12.6667Z"/>
<path d="M7.99967 9.33301C7.82286 9.33301 7.65329 9.40325 7.52827 9.52827C7.40325 9.65329 7.33301 9.82286 7.33301 9.99967V11.333C7.33301 11.5098 7.40325 11.6794 7.52827 11.8044C7.65329 11.9294 7.82286 11.9997 7.99967 11.9997C8.17649 11.9997 8.34605 11.9294 8.47108 11.8044C8.5961 11.6794 8.66634 11.5098 8.66634 11.333V9.99967C8.66634 9.82286 8.5961 9.65329 8.47108 9.52827C8.34605 9.40325 8.17649 9.33301 7.99967 9.33301Z"/>
</symbol><symbol viewBox="0 0 14 14" id="mail" xmlns="http://www.w3.org/2000/svg">
<path d="M11.0833 0.583008H2.91667C2.1434 0.583934 1.40208 0.891522 0.855295 1.4383C0.308514 1.98508 0.00092625 2.72641 0 3.49967L0 10.4997C0.00092625 11.2729 0.308514 12.0143 0.855295 12.561C1.40208 13.1078 2.1434 13.4154 2.91667 13.4163H11.0833C11.8566 13.4154 12.5979 13.1078 13.1447 12.561C13.6915 12.0143 13.9991 11.2729 14 10.4997V3.49967C13.9991 2.72641 13.6915 1.98508 13.1447 1.4383C12.5979 0.891522 11.8566 0.583934 11.0833 0.583008ZM2.91667 1.74967H11.0833C11.4326 1.75036 11.7737 1.85556 12.0627 2.05173C12.3517 2.2479 12.5754 2.52606 12.705 2.85042L8.23783 7.31817C7.90908 7.64561 7.46399 7.82945 7 7.82945C6.53601 7.82945 6.09092 7.64561 5.76217 7.31817L1.295 2.85042C1.42459 2.52606 1.64827 2.2479 1.93728 2.05173C2.22628 1.85556 2.56738 1.75036 2.91667 1.74967ZM11.0833 12.2497H2.91667C2.45254 12.2497 2.00742 12.0653 1.67923 11.7371C1.35104 11.4089 1.16667 10.9638 1.16667 10.4997V4.37467L4.93733 8.14301C5.48487 8.68916 6.22665 8.99586 7 8.99586C7.77335 8.99586 8.51513 8.68916 9.06267 8.14301L12.8333 4.37467V10.4997C12.8333 10.9638 12.649 11.4089 12.3208 11.7371C11.9926 12.0653 11.5475 12.2497 11.0833 12.2497Z"/>
</symbol><symbol viewBox="0 0 21 18" id="pay-mobile" xmlns="http://www.w3.org/2000/svg">
<path d="M16.3333 17.3337H4.66667C2.36917 17.3337 0.5 15.4645 0.5 13.167V4.83366C0.5 2.53616 2.36917 0.666992 4.66667 0.666992H16.3333C18.6308 0.666992 20.5 2.53616 20.5 4.83366V13.167C20.5 15.4645 18.6308 17.3337 16.3333 17.3337ZM4.66667 2.33366C3.28833 2.33366 2.16667 3.45533 2.16667 4.83366V13.167C2.16667 14.5453 3.28833 15.667 4.66667 15.667H16.3333C17.7117 15.667 18.8333 14.5453 18.8333 13.167V4.83366C18.8333 3.45533 17.7117 2.33366 16.3333 2.33366H4.66667ZM15.5 9.83366H12.1667C11.2475 9.83366 10.5 9.08616 10.5 8.16699V6.50033C10.5 5.58116 11.2475 4.83366 12.1667 4.83366H15.5C16.4192 4.83366 17.1667 5.58116 17.1667 6.50033V8.16699C17.1667 9.08616 16.4192 9.83366 15.5 9.83366ZM12.1667 6.50033V8.16699H15.5008V6.50033H12.1667ZM8.83333 9.00033C8.83333 8.54033 8.46 8.16699 8 8.16699H4.66667C4.20667 8.16699 3.83333 8.54033 3.83333 9.00033C3.83333 9.46033 4.20667 9.83366 4.66667 9.83366H8C8.46 9.83366 8.83333 9.46033 8.83333 9.00033ZM17.1667 12.3337C17.1667 11.8737 16.7933 11.5003 16.3333 11.5003H4.66667C4.20667 11.5003 3.83333 11.8737 3.83333 12.3337C3.83333 12.7937 4.20667 13.167 4.66667 13.167H16.3333C16.7933 13.167 17.1667 12.7937 17.1667 12.3337Z"/>
</symbol><symbol viewBox="0 0 20 18" id="pays" xmlns="http://www.w3.org/2000/svg">
<path d="M15.8333 17.3337H4.16667C1.86917 17.3337 0 15.4645 0 13.167V4.83366C0 2.53616 1.86917 0.666992 4.16667 0.666992H15.8333C18.1308 0.666992 20 2.53616 20 4.83366V13.167C20 15.4645 18.1308 17.3337 15.8333 17.3337ZM4.16667 2.33366C2.78833 2.33366 1.66667 3.45533 1.66667 4.83366V13.167C1.66667 14.5453 2.78833 15.667 4.16667 15.667H15.8333C17.2117 15.667 18.3333 14.5453 18.3333 13.167V4.83366C18.3333 3.45533 17.2117 2.33366 15.8333 2.33366H4.16667ZM15 9.83366H11.6667C10.7475 9.83366 10 9.08616 10 8.16699V6.50033C10 5.58116 10.7475 4.83366 11.6667 4.83366H15C15.9192 4.83366 16.6667 5.58116 16.6667 6.50033V8.16699C16.6667 9.08616 15.9192 9.83366 15 9.83366ZM11.6667 6.50033V8.16699H15.0008V6.50033H11.6667ZM8.33333 9.00033C8.33333 8.54033 7.96 8.16699 7.5 8.16699H4.16667C3.70667 8.16699 3.33333 8.54033 3.33333 9.00033C3.33333 9.46033 3.70667 9.83366 4.16667 9.83366H7.5C7.96 9.83366 8.33333 9.46033 8.33333 9.00033ZM16.6667 12.3337C16.6667 11.8737 16.2933 11.5003 15.8333 11.5003H4.16667C3.70667 11.5003 3.33333 11.8737 3.33333 12.3337C3.33333 12.7937 3.70667 13.167 4.16667 13.167H15.8333C16.2933 13.167 16.6667 12.7937 16.6667 12.3337Z"/>
</symbol><symbol viewBox="0 0 12 12" id="pencil" xmlns="http://www.w3.org/2000/svg">
<g clip-path="url(#pclip0_1_8063)">
<path d="M7.302 2.84375L0 10.1453V12.0002H1.855L9.1565 4.69825L7.302 2.84375Z"/>
<path d="M11.616 0.384052C11.37 0.138141 11.0363 0 10.6885 0C10.3406 0 10.007 0.138141 9.76099 0.384052L8.01099 2.13655L9.86549 3.99105L11.6155 2.24105C11.7376 2.11923 11.8345 1.97452 11.9006 1.81522C11.9667 1.65591 12.0007 1.48513 12.0008 1.31266C12.0008 1.14018 11.9669 0.969381 11.9008 0.810041C11.8348 0.650701 11.738 0.505944 11.616 0.384052Z"/>
</g>
<defs>
<clipPath id="pclip0_1_8063">
<rect width="12" height="12"/>
</clipPath>
</defs>
</symbol><symbol viewBox="0 0 14 14" id="phone" xmlns="http://www.w3.org/2000/svg">
<path d="M7.583 0.583288C7.583 0.428579 7.64446 0.280206 7.75385 0.170809C7.86325 0.0614132 8.01162 -4.49981e-05 8.16633 -4.49981e-05C9.71291 0.00165343 11.1957 0.61678 12.2892 1.71037C13.3828 2.80397 13.998 4.28671 13.9997 5.83329C13.9997 5.988 13.9382 6.13637 13.8288 6.24577C13.7194 6.35516 13.571 6.41662 13.4163 6.41662C13.2616 6.41662 13.1132 6.35516 13.0039 6.24577C12.8945 6.13637 12.833 5.988 12.833 5.83329C12.8316 4.59604 12.3395 3.40986 11.4646 2.53499C10.5898 1.66012 9.40358 1.16801 8.16633 1.16662C8.01162 1.16662 7.86325 1.10516 7.75385 0.995767C7.64446 0.886371 7.583 0.737998 7.583 0.583288ZM8.16633 3.49995C8.78517 3.49995 9.37866 3.74579 9.81625 4.18337C10.2538 4.62096 10.4997 5.21445 10.4997 5.83329C10.4997 5.988 10.5611 6.13637 10.6705 6.24577C10.7799 6.35516 10.9283 6.41662 11.083 6.41662C11.2377 6.41662 11.3861 6.35516 11.4955 6.24577C11.6049 6.13637 11.6663 5.988 11.6663 5.83329C11.6654 4.90531 11.2964 4.01561 10.6402 3.35944C9.98401 2.70326 9.09431 2.33421 8.16633 2.33329C8.01162 2.33329 7.86325 2.39475 7.75385 2.50414C7.64446 2.61354 7.583 2.76191 7.583 2.91662C7.583 3.07133 7.64446 3.2197 7.75385 3.3291C7.86325 3.4385 8.01162 3.49995 8.16633 3.49995ZM13.4706 9.76437C13.8086 10.1034 13.9985 10.5626 13.9985 11.0413C13.9985 11.52 13.8086 11.9792 13.4706 12.3182L12.9397 12.9301C8.16225 17.504 -3.46358 5.88112 1.03975 1.08845L1.71058 0.505122C2.04995 0.176517 2.50504 -0.00526637 2.97741 -0.000899674C3.44978 0.00346702 3.90143 0.193632 4.23467 0.528455C4.25275 0.546538 5.33367 1.95062 5.33367 1.95062C5.6544 2.28757 5.83294 2.73516 5.83218 3.20036C5.83142 3.66555 5.65142 4.11256 5.32958 4.44845L4.65408 5.29779C5.02791 6.2061 5.57754 7.0316 6.27138 7.72684C6.96522 8.42209 7.78961 8.97338 8.69717 9.34904L9.55175 8.66946C9.88769 8.34787 10.3346 8.16808 10.7997 8.16743C11.2647 8.16677 11.7122 8.34531 12.049 8.66595C12.049 8.66595 13.4525 9.74629 13.4706 9.76437ZM12.6679 10.6125C12.6679 10.6125 11.272 9.53862 11.2539 9.52054C11.1337 9.40138 10.9714 9.33453 10.8021 9.33453C10.6329 9.33453 10.4705 9.40138 10.3503 9.52054C10.3346 9.53687 9.158 10.4743 9.158 10.4743C9.07871 10.5374 8.98435 10.5788 8.88421 10.5943C8.78407 10.6099 8.68161 10.5991 8.58692 10.563C7.41118 10.1252 6.34326 9.43989 5.45549 8.55342C4.56771 7.66695 3.88082 6.60004 3.44133 5.42496C3.40237 5.32897 3.38966 5.22434 3.40453 5.12182C3.41939 5.0193 3.46129 4.92259 3.52592 4.84162C3.52592 4.84162 4.46333 3.66445 4.47908 3.64929C4.59824 3.52911 4.6651 3.36673 4.6651 3.1975C4.6651 3.02826 4.59824 2.86588 4.47908 2.7457C4.461 2.7282 3.38708 1.33112 3.38708 1.33112C3.26511 1.22175 3.10592 1.16318 2.94214 1.16741C2.77837 1.17164 2.62242 1.23835 2.50625 1.35387L1.83542 1.9372C-1.45575 5.89454 8.619 15.4105 12.0869 12.1333L12.6183 11.5208C12.7429 11.4054 12.8177 11.2462 12.8269 11.0767C12.8362 10.9072 12.7791 10.7408 12.6679 10.6125Z"/>
</symbol><symbol viewBox="0 0 21 20" id="plus" xmlns="http://www.w3.org/2000/svg">
<path d="M20.0832 9.94832C20.0832 10.4773 19.6538 10.9067 19.1248 10.9067H11.4582V18.5733C11.4582 19.1023 11.0288 19.5317 10.4998 19.5317C9.97084 19.5317 9.5415 19.1023 9.5415 18.5733V10.9067H1.87484C1.34584 10.9067 0.916504 10.4773 0.916504 9.94832C0.916504 9.41932 1.34584 8.98999 1.87484 8.98999H9.5415V1.32332C9.5415 0.794324 9.97084 0.36499 10.4998 0.36499C11.0288 0.36499 11.4582 0.794324 11.4582 1.32332V8.98999H19.1248C19.6538 8.98999 20.0832 9.41932 20.0832 9.94832Z"/>
</symbol><symbol viewBox="0 0 14 14" id="remove" xmlns="http://www.w3.org/2000/svg">
<path d="M13.9729 1.47292L12.5 0L6.98646 5.51354L1.47292 0L0 1.47292L5.51354 6.98646L0 12.5L1.47292 13.9729L6.98646 8.45937L12.5 13.9729L13.9729 12.5L8.45937 6.98646L13.9729 1.47292Z"/>
</symbol><symbol viewBox="0 0 16 16" id="search" xmlns="http://www.w3.org/2000/svg">
<path d="M15.9999 15.0572L11.8252 10.8825C12.9096 9.55625 13.4428 7.86392 13.3144 6.15556C13.1861 4.44721 12.406 2.85354 11.1356 1.7042C9.86516 0.554862 8.20158 -0.0622172 6.48895 -0.019396C4.77632 0.0234252 3.14566 0.72287 1.93426 1.93426C0.72287 3.14566 0.0234252 4.77632 -0.019396 6.48895C-0.0622172 8.20158 0.554862 9.86516 1.7042 11.1356C2.85354 12.406 4.44721 13.1861 6.15556 13.3144C7.86392 13.4428 9.55625 12.9096 10.8825 11.8252L15.0572 15.9999L15.9999 15.0572ZM6.66652 11.9999C5.61169 11.9999 4.58054 11.6871 3.70348 11.101C2.82642 10.515 2.14283 9.68204 1.73916 8.7075C1.3355 7.73296 1.22988 6.6606 1.43567 5.62604C1.64145 4.59147 2.14941 3.64117 2.89529 2.89529C3.64117 2.14941 4.59147 1.64145 5.62604 1.43567C6.6606 1.22988 7.73296 1.3355 8.7075 1.73916C9.68204 2.14283 10.515 2.82642 11.101 3.70348C11.6871 4.58054 11.9999 5.61169 11.9999 6.66652C11.9983 8.08052 11.4359 9.43615 10.436 10.436C9.43615 11.4359 8.08052 11.9983 6.66652 11.9999Z"/>
</symbol><symbol viewBox="0 0 13 12" id="share" xmlns="http://www.w3.org/2000/svg">
<path d="M12.6667 1V5H11.6667V1.707L5.27019 8.1035L4.56319 7.3965L10.9597 1H7.66669V0H11.6667C12.2182 0 12.6667 0.4485 12.6667 1ZM9.66669 11H1.66669V3.5C1.66669 3.2245 1.89119 3 2.16669 3H7.54519L8.54519 2H2.16669C1.33969 2 0.666687 2.673 0.666687 3.5V12H10.6667V4.1215L9.66669 5.1215V11Z"/>
</symbol><symbol viewBox="0 0 20 20" id="show-pass" xmlns="http://www.w3.org/2000/svg">
<path d="M19.3923 7.8488C18.64 6.6169 17.6911 5.51651 16.5831 4.5913L18.9165 2.25796C19.0683 2.10079 19.1523 1.89029 19.1504 1.6718C19.1485 1.4533 19.0608 1.24429 18.9063 1.08978C18.7518 0.935274 18.5428 0.847633 18.3243 0.845735C18.1058 0.843836 17.8953 0.927831 17.7381 1.07963L15.2006 3.62046C13.6276 2.68615 11.8293 2.19918 9.9998 2.21213C4.84063 2.21213 1.90063 5.7438 0.607299 7.8488C0.207739 8.49505 -0.00390625 9.23983 -0.00390625 9.99963C-0.00390625 10.7594 0.207739 11.5042 0.607299 12.1505C1.3596 13.3824 2.30854 14.4828 3.41646 15.408L1.08313 17.7413C1.00354 17.8182 0.940055 17.9101 0.896381 18.0118C0.852707 18.1135 0.829718 18.2228 0.828757 18.3335C0.827795 18.4441 0.84888 18.5538 0.890781 18.6563C0.932681 18.7587 0.994559 18.8517 1.0728 18.93C1.15105 19.0082 1.24409 19.0701 1.3465 19.112C1.44892 19.1539 1.55865 19.175 1.6693 19.174C1.77995 19.173 1.8893 19.1501 1.99097 19.1064C2.09264 19.0627 2.18459 18.9992 2.26147 18.9196L4.8048 16.3763C6.37585 17.3105 8.17202 17.7983 9.9998 17.7871C15.159 17.7871 18.099 14.2555 19.3923 12.1505C19.7919 11.5042 20.0035 10.7594 20.0035 9.99963C20.0035 9.23983 19.7919 8.49505 19.3923 7.8488ZM2.0273 11.278C1.78991 10.8938 1.66417 10.4512 1.66417 9.99963C1.66417 9.54807 1.78991 9.10542 2.0273 8.7213C3.13897 6.9163 5.65147 3.8788 9.9998 3.8788C11.3834 3.87105 12.7475 4.20449 13.9715 4.84963L12.294 6.52713C11.4939 5.99596 10.5347 5.75796 9.57916 5.8535C8.6236 5.94904 7.73052 6.37224 7.05147 7.0513C6.37241 7.73035 5.94921 8.62343 5.85367 9.57899C5.75813 10.5346 5.99613 11.4937 6.5273 12.2938L4.6023 14.2188C3.58155 13.3936 2.7105 12.3988 2.0273 11.278ZM12.4998 9.99963C12.4998 10.6627 12.2364 11.2986 11.7676 11.7674C11.2987 12.2362 10.6628 12.4996 9.9998 12.4996C9.62856 12.4982 9.26246 12.4127 8.92897 12.2496L12.2498 8.9288C12.4129 9.26229 12.4984 9.62839 12.4998 9.99963ZM7.4998 9.99963C7.4998 9.33659 7.76319 8.7007 8.23203 8.23186C8.70087 7.76302 9.33676 7.49963 9.9998 7.49963C10.371 7.50107 10.7371 7.58654 11.0706 7.74963L7.7498 11.0705C7.58671 10.737 7.50124 10.3709 7.4998 9.99963ZM17.9723 11.278C16.8606 13.083 14.3481 16.1205 9.9998 16.1205C8.61624 16.1282 7.2521 15.7948 6.02813 15.1496L7.70563 13.4721C8.50569 14.0033 9.46488 14.2413 10.4204 14.1458C11.376 14.0502 12.2691 13.627 12.9481 12.948C13.6272 12.2689 14.0504 11.3758 14.1459 10.4203C14.2415 9.46471 14.0035 8.50552 13.4723 7.70546L15.3973 5.78046C16.418 6.6057 17.2891 7.6005 17.9723 8.7213C18.2097 9.10542 18.3354 9.54807 18.3354 9.99963C18.3354 10.4512 18.2097 10.8938 17.9723 11.278Z"/>
</symbol><symbol viewBox="0 0 16 16" id="trash" xmlns="http://www.w3.org/2000/svg">
<path d="M13.9997 2.66667H11.933C11.7783 1.91428 11.3689 1.23823 10.7738 0.752479C10.1788 0.266727 9.43448 0.000969683 8.66634 0L7.33301 0C6.56487 0.000969683 5.82055 0.266727 5.22551 0.752479C4.63046 1.23823 4.22107 1.91428 4.06634 2.66667H1.99967C1.82286 2.66667 1.65329 2.7369 1.52827 2.86193C1.40325 2.98695 1.33301 3.15652 1.33301 3.33333C1.33301 3.51014 1.40325 3.67971 1.52827 3.80474C1.65329 3.92976 1.82286 4 1.99967 4H2.66634V12.6667C2.6674 13.5504 3.01893 14.3976 3.64382 15.0225C4.26871 15.6474 5.11594 15.9989 5.99967 16H9.99968C10.8834 15.9989 11.7306 15.6474 12.3555 15.0225C12.9804 14.3976 13.332 13.5504 13.333 12.6667V4H13.9997C14.1765 4 14.3461 3.92976 14.4711 3.80474C14.5961 3.67971 14.6663 3.51014 14.6663 3.33333C14.6663 3.15652 14.5961 2.98695 14.4711 2.86193C14.3461 2.7369 14.1765 2.66667 13.9997 2.66667ZM7.33301 1.33333H8.66634C9.07986 1.33384 9.48309 1.46225 9.82075 1.70096C10.1584 1.93967 10.414 2.27699 10.5523 2.66667H5.44701C5.5854 2.27699 5.84094 1.93967 6.1786 1.70096C6.51626 1.46225 6.91949 1.33384 7.33301 1.33333ZM11.9997 12.6667C11.9997 13.1971 11.789 13.7058 11.4139 14.0809C11.0388 14.456 10.5301 14.6667 9.99968 14.6667H5.99967C5.46924 14.6667 4.96053 14.456 4.58546 14.0809C4.21039 13.7058 3.99967 13.1971 3.99967 12.6667V4H11.9997V12.6667Z"/>
<path d="M6.66667 12.0003C6.84348 12.0003 7.01305 11.9301 7.13807 11.8051C7.2631 11.68 7.33333 11.5105 7.33333 11.3337V7.33366C7.33333 7.15685 7.2631 6.98728 7.13807 6.86225C7.01305 6.73723 6.84348 6.66699 6.66667 6.66699C6.48986 6.66699 6.32029 6.73723 6.19526 6.86225C6.07024 6.98728 6 7.15685 6 7.33366V11.3337C6 11.5105 6.07024 11.68 6.19526 11.8051C6.32029 11.9301 6.48986 12.0003 6.66667 12.0003Z"/>
<path d="M9.33366 12.0003C9.51047 12.0003 9.68004 11.9301 9.80506 11.8051C9.93009 11.68 10.0003 11.5105 10.0003 11.3337V7.33366C10.0003 7.15685 9.93009 6.98728 9.80506 6.86225C9.68004 6.73723 9.51047 6.66699 9.33366 6.66699C9.15685 6.66699 8.98728 6.73723 8.86225 6.86225C8.73723 6.98728 8.66699 7.15685 8.66699 7.33366V11.3337C8.66699 11.5105 8.73723 11.68 8.86225 11.8051C8.98728 11.9301 9.15685 12.0003 9.33366 12.0003Z"/>
</symbol><symbol viewBox="0 0 20 20" id="user" xmlns="http://www.w3.org/2000/svg">
<path d="M10 0C4.48583 0 0 4.48583 0 10C0 15.5142 4.48583 20 10 20C15.5142 20 20 15.5142 20 10C20 4.48583 15.5142 0 10 0ZM6.66667 17.6367V17.5C6.66667 15.6617 8.16167 14.1667 10 14.1667C11.8383 14.1667 13.3333 15.6617 13.3333 17.5V17.6367C12.3117 18.0842 11.185 18.3333 10 18.3333C8.815 18.3333 7.68833 18.0842 6.66667 17.6367ZM14.9375 16.7092C14.5575 14.3267 12.4883 12.5 10 12.5C7.51167 12.5 5.44333 14.3267 5.0625 16.7092C3.00417 15.19 1.66667 12.7483 1.66667 10C1.66667 5.405 5.405 1.66667 10 1.66667C14.595 1.66667 18.3333 5.405 18.3333 10C18.3333 12.7483 16.9958 15.19 14.9375 16.7092ZM10 4.16667C8.16167 4.16667 6.66667 5.66167 6.66667 7.5C6.66667 9.33833 8.16167 10.8333 10 10.8333C11.8383 10.8333 13.3333 9.33833 13.3333 7.5C13.3333 5.66167 11.8383 4.16667 10 4.16667ZM10 9.16667C9.08083 9.16667 8.33333 8.41917 8.33333 7.5C8.33333 6.58083 9.08083 5.83333 10 5.83333C10.9192 5.83333 11.6667 6.58083 11.6667 7.5C11.6667 8.41917 10.9192 9.16667 10 9.16667Z"/>
</symbol><symbol viewBox="0 0 21 20" id="user-mobile" xmlns="http://www.w3.org/2000/svg">
<path d="M10.5 0C4.98583 0 0.5 4.48583 0.5 10C0.5 15.5142 4.98583 20 10.5 20C16.0142 20 20.5 15.5142 20.5 10C20.5 4.48583 16.0142 0 10.5 0ZM7.16667 17.6367V17.5C7.16667 15.6617 8.66167 14.1667 10.5 14.1667C12.3383 14.1667 13.8333 15.6617 13.8333 17.5V17.6367C12.8117 18.0842 11.685 18.3333 10.5 18.3333C9.315 18.3333 8.18833 18.0842 7.16667 17.6367ZM15.4375 16.7092C15.0575 14.3267 12.9883 12.5 10.5 12.5C8.01167 12.5 5.94333 14.3267 5.5625 16.7092C3.50417 15.19 2.16667 12.7483 2.16667 10C2.16667 5.405 5.905 1.66667 10.5 1.66667C15.095 1.66667 18.8333 5.405 18.8333 10C18.8333 12.7483 17.4958 15.19 15.4375 16.7092ZM10.5 4.16667C8.66167 4.16667 7.16667 5.66167 7.16667 7.5C7.16667 9.33833 8.66167 10.8333 10.5 10.8333C12.3383 10.8333 13.8333 9.33833 13.8333 7.5C13.8333 5.66167 12.3383 4.16667 10.5 4.16667ZM10.5 9.16667C9.58083 9.16667 8.83333 8.41917 8.83333 7.5C8.83333 6.58083 9.58083 5.83333 10.5 5.83333C11.4192 5.83333 12.1667 6.58083 12.1667 7.5C12.1667 8.41917 11.4192 9.16667 10.5 9.16667Z"/>
</symbol></svg>