<svg width="71" height="70" viewBox="0 0 71 70" fill="none" xmlns="http://www.w3.org/2000/svg">
<g clip-path="url(#clip0_2191_40)">
<path d="M17.0264 21.8756V4.37565C17.0264 3.6021 17.3337 2.86024 17.8806 2.31326C18.4276 1.76628 19.1695 1.45898 19.943 1.45898H66.6097C67.3833 1.45898 68.1251 1.76628 68.6721 2.31326C69.2191 2.86024 69.5264 3.6021 69.5264 4.37565V39.3756C69.5264 40.1492 69.2191 40.8911 68.6721 41.438C68.1251 41.985 67.3833 42.2923 66.6097 42.2923H34.5264" stroke="#19453F" stroke-width="3" stroke-linecap="round" stroke-linejoin="round"/>
<path d="M33.0674 51.041H53.484" stroke="#19453F" stroke-width="3" stroke-linecap="round" stroke-linejoin="round"/>
<path d="M43.2764 42.291V51.041" stroke="#19453F" stroke-width="3" stroke-linecap="round" stroke-linejoin="round"/>
<path d="M34.5257 68.5417C34.5257 64.2872 32.8356 60.2069 29.8272 57.1985C26.8188 54.1901 22.7386 52.5 18.4841 52.5C14.2295 52.5 10.1493 54.1901 7.14088 57.1985C4.13248 60.2069 2.44238 64.2872 2.44238 68.5417H34.5257Z" stroke="#19453F" stroke-width="3" stroke-linecap="round" stroke-linejoin="round"/>
<path d="M9 37.4792C9 39.9932 9.99869 42.4043 11.7764 44.1819C13.5541 45.9596 15.9651 46.9583 18.4792 46.9583C20.9932 46.9583 23.4043 45.9596 25.1819 44.1819C26.9596 42.4043 27.9583 39.9932 27.9583 37.4792C27.9583 34.9651 26.9596 32.5541 25.1819 30.7764C23.4043 28.9987 20.9932 28 18.4792 28C15.9651 28 13.5541 28.9987 11.7764 30.7764C9.99869 32.5541 9 34.9651 9 37.4792Z" stroke="#19453F" stroke-width="3" stroke-linecap="round" stroke-linejoin="round"/>
<path d="M41.0889 15.3132C41.0889 15.9834 41.2209 16.6472 41.4774 17.2664C41.7339 17.8857 42.1099 18.4484 42.5838 18.9223C43.0578 19.3963 43.6205 19.7723 44.2398 20.0288C44.859 20.2853 45.5227 20.4173 46.193 20.4173C46.8633 20.4173 47.527 20.2853 48.1463 20.0288C48.7656 19.7723 49.3283 19.3963 49.8022 18.9223C50.2762 18.4484 50.6522 17.8857 50.9087 17.2664C51.1652 16.6472 51.2972 15.9834 51.2972 15.3132C51.2972 14.6429 51.1652 13.9791 50.9087 13.3599C50.6522 12.7406 50.2762 12.1779 49.8022 11.704C49.3283 11.23 48.7656 10.854 48.1463 10.5975C47.527 10.341 46.8633 10.209 46.193 10.209C45.5227 10.209 44.859 10.341 44.2398 10.5975C43.6205 10.854 43.0578 11.23 42.5838 11.704C42.1099 12.1779 41.7339 12.7406 41.4774 13.3599C41.2209 13.9791 41.0889 14.6429 41.0889 15.3132Z" stroke="#19453F" stroke-width="3" stroke-linecap="round" stroke-linejoin="round"/>
<path d="M56.401 30.6253C55.8226 28.3569 54.5051 26.3457 52.6566 24.9094C50.808 23.4731 48.5337 22.6934 46.1927 22.6934C43.8517 22.6934 41.5774 23.4731 39.7289 24.9094C37.8803 26.3457 36.5628 28.3569 35.9844 30.6253" stroke="#19453F" stroke-width="3" stroke-linecap="round" stroke-linejoin="round"/>
</g>
<defs>
<clipPath id="clip0_2191_40">
<rect width="70" height="70" fill="white" transform="translate(0.984375)"/>
</clipPath>
</defs>
</svg>
