<svg width="17" height="10" viewBox="0 0 17 10" fill="none" xmlns="http://www.w3.org/2000/svg">
<path opacity="0.2" fill-rule="evenodd" clip-rule="evenodd" d="M10.7266 0.596409L4.16285 7.81219L1.28033 4.92967L1.19621 4.85706C0.9026 4.6392 0.485936 4.66341 0.21967 4.92967C-0.0732233 5.22257 -0.0732233 5.69744 0.21967 5.99033L3.65821 9.42887L3.74522 9.50365C4.04911 9.72696 4.48145 9.69113 4.74334 9.40321L11.8362 1.60575L11.9048 1.51829C12.1085 1.21471 12.0646 0.799659 11.7861 0.546275C11.4797 0.267553 11.0053 0.289999 10.7266 0.596409ZM15.2881 0.596409L8.1952 8.39387L8.12663 8.48133C7.9229 8.78491 7.96677 9.19996 8.24533 9.45335C8.55174 9.73207 9.02608 9.70962 9.3048 9.40321L16.3977 1.60575L16.4662 1.51829C16.67 1.21471 16.6261 0.799659 16.3475 0.546275C16.0411 0.267553 15.5668 0.289999 15.2881 0.596409Z" fill="#19453F" style="fill:#19453F;fill:color(display-p3 0.0980 0.2706 0.2471);fill-opacity:1;"/>
</svg>
