<svg width="13" height="16" viewBox="0 0 13 16" fill="none" xmlns="http://www.w3.org/2000/svg">
<path d="M10.6486 2.08295L6.8897 0.829572C6.76663 0.78858 6.63358 0.78858 6.51051 0.829572L2.75157 2.08295C2.15392 2.28148 1.63403 2.6633 1.26577 3.17416C0.897517 3.68503 0.699618 4.29895 0.700197 4.92871V7.99886C0.700197 12.5366 6.22011 15.0428 6.45651 15.1472C6.5332 15.1812 6.61619 15.1988 6.7001 15.1988C6.78402 15.1988 6.86701 15.1812 6.9437 15.1472C7.1801 15.0428 12.7 12.5366 12.7 7.99886V4.92871C12.7006 4.29895 12.5027 3.68503 12.1344 3.17416C11.7662 2.6633 11.2463 2.28148 10.6486 2.08295ZM11.5 7.99886C11.5 11.2718 7.70869 13.4186 6.7001 13.9322C5.69032 13.4204 1.90018 11.2802 1.90018 7.99886V4.92871C1.90021 4.55088 2.01914 4.18264 2.24011 3.87617C2.46108 3.5697 2.77289 3.34053 3.13136 3.22114L6.7001 2.03135L10.2688 3.22114C10.6273 3.34053 10.9391 3.5697 11.1601 3.87617C11.3811 4.18264 11.5 4.55088 11.5 4.92871V7.99886Z" fill="black"/>
<path d="M8.68019 5.7775L6.16743 8.29746L4.82105 6.89349C4.76702 6.83441 4.70171 6.78674 4.62897 6.7533C4.55623 6.71985 4.47753 6.7013 4.39751 6.69874C4.3175 6.69617 4.23777 6.70965 4.16304 6.73838C4.08831 6.7671 4.02009 6.81049 3.96239 6.86599C3.90468 6.92149 3.85867 6.98797 3.82706 7.06153C3.79546 7.13509 3.77889 7.21422 3.77833 7.29428C3.77778 7.37434 3.79326 7.4537 3.82385 7.52768C3.85444 7.60167 3.89953 7.66878 3.95646 7.72507L5.34004 9.16505C5.44323 9.2765 5.56794 9.36587 5.70665 9.42774C5.84535 9.48962 5.99517 9.52272 6.14703 9.52505H6.16683C6.31566 9.52554 6.46311 9.49646 6.60061 9.4395C6.73811 9.38254 6.86293 9.29884 6.96782 9.19325L9.53098 6.63009C9.58696 6.57423 9.63139 6.50788 9.66173 6.43485C9.69207 6.36181 9.70773 6.28352 9.70782 6.20443C9.7079 6.12535 9.69241 6.04702 9.66222 5.97392C9.63203 5.90082 9.58774 5.83439 9.53188 5.7784C9.47601 5.72242 9.40967 5.67799 9.33664 5.64765C9.2636 5.61731 9.18531 5.60165 9.10622 5.60156C9.02713 5.60148 8.94881 5.61697 8.87571 5.64716C8.80261 5.67735 8.73617 5.72164 8.68019 5.7775Z" fill="black"/>
</svg>
