<svg width="19" height="30" viewBox="0 0 19 30" fill="none" xmlns="http://www.w3.org/2000/svg">
<mask id="path-1-outside-1_1_5266" maskUnits="userSpaceOnUse" x="-0.178711" y="-1" width="20" height="32" fill="black">
<rect fill="white" x="-0.178711" y="-1" width="20" height="32"/>
<path d="M18.778 2.23044C18.7143 2.26646 18.6479 2.29971 18.5843 2.33574C16.891 3.33887 15.6349 4.73549 14.7937 6.51453C14.2016 7.76428 14.0052 9.10549 13.8586 10.4605C13.6732 12.162 13.4657 13.8634 13.2582 15.5621C13.236 15.7422 13.2803 15.7893 13.4463 15.7561C13.4823 15.7478 13.5182 15.7533 13.557 15.7533C14.3372 15.7478 14.957 16.2964 15.0594 17.0834C15.1562 17.8178 14.6692 18.5272 13.936 18.7128C13.7091 18.771 13.4767 18.807 13.2499 18.8708C13.1336 18.904 13.0921 18.8597 13.0479 18.771C12.9566 18.5937 12.8625 18.4219 12.7657 18.2473C11.9052 16.726 11.3158 15.1049 10.9838 13.3868C10.7182 12.004 10.6933 10.613 10.7459 9.21356C10.8261 7.18513 10.8898 5.1567 10.9562 3.12549C10.9949 2.00044 10.6573 1.00008 9.9684 0.110559C9.85773 -0.0307665 9.79686 -0.0418508 9.68065 0.107788C8.98618 1.00285 8.65139 2.01152 8.69013 3.14489C8.76207 5.18164 8.8008 7.21838 8.90871 9.25235C9.07748 12.4225 8.47432 15.4069 6.9166 18.1863C6.78379 18.4219 6.71462 18.7821 6.49881 18.8569C6.27469 18.9345 5.96481 18.7793 5.69366 18.7101C5.00472 18.5327 4.51223 17.8427 4.57863 17.1555C4.65057 16.399 5.22884 15.8087 5.93161 15.7561C6.08655 15.745 6.30236 15.8503 6.37983 15.7145C6.44624 15.6009 6.36877 15.4014 6.3494 15.2434C6.13359 13.3979 5.89841 11.5524 5.6992 9.70127C5.41975 7.07706 4.31302 4.89899 2.29324 3.19754C1.85055 2.82345 1.37465 2.49923 0.862791 2.22766C0.807455 2.30248 0.826823 2.37176 0.826823 2.4355C0.826823 9.55717 0.826823 16.6761 0.821289 23.7978C0.821289 23.9834 0.876625 24.0305 1.05647 24.0305C2.56992 24.0222 4.08337 24.0305 5.59682 24.0222C5.77113 24.0222 5.84584 24.0555 5.88734 24.2467C6.2996 26.1532 7.25692 27.7355 8.7759 28.9603C9.13836 29.254 9.50357 29.5339 9.74982 29.9357C9.79686 30.0133 9.83559 30.0271 9.88816 29.9412C10.1399 29.5311 10.5107 29.2512 10.8787 28.952C12.3894 27.7272 13.3412 26.1504 13.7534 24.2522C13.7949 24.0666 13.8586 24.0194 14.0384 24.0222C15.5518 24.0305 17.0653 24.0222 18.5787 24.0305C18.778 24.0305 18.8195 23.9696 18.8195 23.7811C18.8139 16.6678 18.8167 9.5544 18.8139 2.44104C18.8222 2.36899 18.8527 2.2914 18.778 2.23044ZM2.34027 5.66103C2.34027 5.5779 2.31814 5.48923 2.37624 5.37561C3.12328 6.27899 3.64068 7.2738 3.9478 8.37946C4.17468 9.19139 4.22448 10.031 4.32962 10.8596C4.47073 11.968 4.5897 13.0792 4.73081 14.1849C4.76124 14.4287 4.73081 14.5701 4.49009 14.7114C3.86479 15.0772 3.45254 15.6342 3.23119 16.3242C3.18692 16.4627 3.12328 16.5126 2.98494 16.4987C2.77467 16.4766 2.50352 16.5902 2.37348 16.4516C2.2545 16.3242 2.34027 16.0581 2.34027 15.8531C2.34027 12.4585 2.34027 9.05838 2.34027 5.66103ZM5.94268 20.5778C5.78773 21.1458 5.71856 21.7305 5.71026 22.3208C5.7075 22.4676 5.67983 22.5231 5.51935 22.5231C4.52053 22.5147 3.52171 22.5175 2.52288 22.5231C2.38178 22.5231 2.33474 22.487 2.33751 22.3402C2.34581 21.6502 2.34027 20.9574 2.34027 20.2674C2.34027 19.5774 2.34304 18.8846 2.33751 18.1946C2.33751 18.0533 2.37348 18.0145 2.52012 18.0034C2.94344 17.9646 3.19799 18.0367 3.3889 18.5161C3.79839 19.5442 4.66164 20.0734 5.73516 20.2619C5.93991 20.2923 6.00631 20.3422 5.94268 20.5778ZM7.20711 22.3651C7.22371 21.8275 7.29842 21.2982 7.43123 20.7745C7.45613 20.672 7.50593 20.6581 7.60554 20.6775C8.37194 20.8327 9.01661 21.5615 9.06918 22.3319C9.08025 22.476 9.04428 22.5286 8.89487 22.5203C8.64586 22.5092 8.39685 22.5175 8.14507 22.5175C7.88775 22.5175 7.63044 22.512 7.37312 22.5203C7.25968 22.5231 7.20158 22.5009 7.20711 22.3651ZM9.08302 27.1341C8.49922 26.5882 8.08696 25.9537 7.77708 25.247C7.62214 24.8979 7.5004 24.5349 7.40632 24.1663C7.37866 24.0555 7.39802 24.0222 7.51146 24.0222C7.99012 24.025 8.46602 24.025 8.94191 24.0222C9.03045 24.0222 9.08025 24.0444 9.08025 24.1441C9.08302 25.139 9.08302 26.1366 9.08302 27.1341ZM9.97117 20.2286C9.86603 20.345 9.81346 20.3782 9.69172 20.2397C9.29606 19.788 8.80357 19.4749 8.23084 19.2948C8.11463 19.2587 8.04546 19.2338 8.12846 19.0897C8.834 17.8621 9.39014 16.5708 9.77196 15.2074C9.78026 15.1742 9.80516 15.1464 9.83006 15.0993C9.98223 15.5538 10.1206 15.9944 10.2783 16.4295C10.6048 17.3356 11.0143 18.2057 11.4985 19.0398C11.5898 19.2005 11.5759 19.2504 11.3961 19.3058C10.8399 19.4832 10.3613 19.7935 9.97117 20.2286ZM12.2483 24.1608C11.9688 25.272 11.4431 26.2529 10.6712 27.0981C10.6518 27.1175 10.6269 27.1286 10.6048 27.1452C10.5494 27.087 10.5716 27.0261 10.5716 26.9706C10.5688 26.059 10.5743 25.1473 10.566 24.2356C10.5633 24.0555 10.6214 24.0139 10.7901 24.0167C11.2301 24.0278 11.67 24.0194 12.1127 24.0194C12.2068 24.0222 12.287 24.0084 12.2483 24.1608ZM12.2953 22.5203C12.038 22.5147 11.7807 22.5175 11.5234 22.5175C11.2605 22.5175 10.9949 22.512 10.732 22.5203C10.6158 22.5231 10.5826 22.487 10.5826 22.3707C10.5937 21.6114 11.3324 20.7745 12.0767 20.6748C12.1791 20.6609 12.204 20.7052 12.2261 20.7856C12.3617 21.3066 12.4336 21.8358 12.4475 22.3762C12.453 22.4954 12.406 22.5231 12.2953 22.5203ZM17.3171 20.2702C17.3171 20.9546 17.3143 21.6391 17.3198 22.3208C17.3198 22.4676 17.2894 22.5231 17.1289 22.5203C16.1301 22.512 15.1313 22.5147 14.1325 22.5203C13.9914 22.5203 13.9471 22.4815 13.9443 22.3374C13.936 21.725 13.8586 21.1209 13.7008 20.5279C13.6538 20.3561 13.6898 20.2979 13.8613 20.2674C14.542 20.1538 15.159 19.9044 15.6598 19.4111C16.0167 19.0592 16.2795 18.6463 16.4234 18.1669C16.4649 18.0311 16.5285 17.9951 16.6558 18.0034C16.8025 18.0117 16.9491 18.0173 17.0957 18.0034C17.2645 17.9868 17.3226 18.0395 17.3198 18.2196C17.3088 18.9013 17.3171 19.5857 17.3171 20.2702ZM17.0653 16.5098C16.6696 16.5403 16.4345 16.471 16.2906 16.0249C16.0914 15.4097 15.6238 14.9608 15.0538 14.6393C14.9348 14.5728 14.8906 14.5091 14.9072 14.3678C15.0677 13.0543 15.2226 11.7408 15.3775 10.4273C15.4633 9.69018 15.5352 8.95308 15.7483 8.23537C16.0609 7.18513 16.5645 6.24019 17.2756 5.37838C17.3364 5.47814 17.3143 5.56128 17.3143 5.63887C17.3143 9.17754 17.3143 12.7134 17.3198 16.2521C17.3226 16.4572 17.2617 16.4932 17.0653 16.5098Z"/>
</mask>
<path d="M18.778 2.23044C18.7143 2.26646 18.6479 2.29971 18.5843 2.33574C16.891 3.33887 15.6349 4.73549 14.7937 6.51453C14.2016 7.76428 14.0052 9.10549 13.8586 10.4605C13.6732 12.162 13.4657 13.8634 13.2582 15.5621C13.236 15.7422 13.2803 15.7893 13.4463 15.7561C13.4823 15.7478 13.5182 15.7533 13.557 15.7533C14.3372 15.7478 14.957 16.2964 15.0594 17.0834C15.1562 17.8178 14.6692 18.5272 13.936 18.7128C13.7091 18.771 13.4767 18.807 13.2499 18.8708C13.1336 18.904 13.0921 18.8597 13.0479 18.771C12.9566 18.5937 12.8625 18.4219 12.7657 18.2473C11.9052 16.726 11.3158 15.1049 10.9838 13.3868C10.7182 12.004 10.6933 10.613 10.7459 9.21356C10.8261 7.18513 10.8898 5.1567 10.9562 3.12549C10.9949 2.00044 10.6573 1.00008 9.9684 0.110559C9.85773 -0.0307665 9.79686 -0.0418508 9.68065 0.107788C8.98618 1.00285 8.65139 2.01152 8.69013 3.14489C8.76207 5.18164 8.8008 7.21838 8.90871 9.25235C9.07748 12.4225 8.47432 15.4069 6.9166 18.1863C6.78379 18.4219 6.71462 18.7821 6.49881 18.8569C6.27469 18.9345 5.96481 18.7793 5.69366 18.7101C5.00472 18.5327 4.51223 17.8427 4.57863 17.1555C4.65057 16.399 5.22884 15.8087 5.93161 15.7561C6.08655 15.745 6.30236 15.8503 6.37983 15.7145C6.44624 15.6009 6.36877 15.4014 6.3494 15.2434C6.13359 13.3979 5.89841 11.5524 5.6992 9.70127C5.41975 7.07706 4.31302 4.89899 2.29324 3.19754C1.85055 2.82345 1.37465 2.49923 0.862791 2.22766C0.807455 2.30248 0.826823 2.37176 0.826823 2.4355C0.826823 9.55717 0.826823 16.6761 0.821289 23.7978C0.821289 23.9834 0.876625 24.0305 1.05647 24.0305C2.56992 24.0222 4.08337 24.0305 5.59682 24.0222C5.77113 24.0222 5.84584 24.0555 5.88734 24.2467C6.2996 26.1532 7.25692 27.7355 8.7759 28.9603C9.13836 29.254 9.50357 29.5339 9.74982 29.9357C9.79686 30.0133 9.83559 30.0271 9.88816 29.9412C10.1399 29.5311 10.5107 29.2512 10.8787 28.952C12.3894 27.7272 13.3412 26.1504 13.7534 24.2522C13.7949 24.0666 13.8586 24.0194 14.0384 24.0222C15.5518 24.0305 17.0653 24.0222 18.5787 24.0305C18.778 24.0305 18.8195 23.9696 18.8195 23.7811C18.8139 16.6678 18.8167 9.5544 18.8139 2.44104C18.8222 2.36899 18.8527 2.2914 18.778 2.23044ZM2.34027 5.66103C2.34027 5.5779 2.31814 5.48923 2.37624 5.37561C3.12328 6.27899 3.64068 7.2738 3.9478 8.37946C4.17468 9.19139 4.22448 10.031 4.32962 10.8596C4.47073 11.968 4.5897 13.0792 4.73081 14.1849C4.76124 14.4287 4.73081 14.5701 4.49009 14.7114C3.86479 15.0772 3.45254 15.6342 3.23119 16.3242C3.18692 16.4627 3.12328 16.5126 2.98494 16.4987C2.77467 16.4766 2.50352 16.5902 2.37348 16.4516C2.2545 16.3242 2.34027 16.0581 2.34027 15.8531C2.34027 12.4585 2.34027 9.05838 2.34027 5.66103ZM5.94268 20.5778C5.78773 21.1458 5.71856 21.7305 5.71026 22.3208C5.7075 22.4676 5.67983 22.5231 5.51935 22.5231C4.52053 22.5147 3.52171 22.5175 2.52288 22.5231C2.38178 22.5231 2.33474 22.487 2.33751 22.3402C2.34581 21.6502 2.34027 20.9574 2.34027 20.2674C2.34027 19.5774 2.34304 18.8846 2.33751 18.1946C2.33751 18.0533 2.37348 18.0145 2.52012 18.0034C2.94344 17.9646 3.19799 18.0367 3.3889 18.5161C3.79839 19.5442 4.66164 20.0734 5.73516 20.2619C5.93991 20.2923 6.00631 20.3422 5.94268 20.5778ZM7.20711 22.3651C7.22371 21.8275 7.29842 21.2982 7.43123 20.7745C7.45613 20.672 7.50593 20.6581 7.60554 20.6775C8.37194 20.8327 9.01661 21.5615 9.06918 22.3319C9.08025 22.476 9.04428 22.5286 8.89487 22.5203C8.64586 22.5092 8.39685 22.5175 8.14507 22.5175C7.88775 22.5175 7.63044 22.512 7.37312 22.5203C7.25968 22.5231 7.20158 22.5009 7.20711 22.3651ZM9.08302 27.1341C8.49922 26.5882 8.08696 25.9537 7.77708 25.247C7.62214 24.8979 7.5004 24.5349 7.40632 24.1663C7.37866 24.0555 7.39802 24.0222 7.51146 24.0222C7.99012 24.025 8.46602 24.025 8.94191 24.0222C9.03045 24.0222 9.08025 24.0444 9.08025 24.1441C9.08302 25.139 9.08302 26.1366 9.08302 27.1341ZM9.97117 20.2286C9.86603 20.345 9.81346 20.3782 9.69172 20.2397C9.29606 19.788 8.80357 19.4749 8.23084 19.2948C8.11463 19.2587 8.04546 19.2338 8.12846 19.0897C8.834 17.8621 9.39014 16.5708 9.77196 15.2074C9.78026 15.1742 9.80516 15.1464 9.83006 15.0993C9.98223 15.5538 10.1206 15.9944 10.2783 16.4295C10.6048 17.3356 11.0143 18.2057 11.4985 19.0398C11.5898 19.2005 11.5759 19.2504 11.3961 19.3058C10.8399 19.4832 10.3613 19.7935 9.97117 20.2286ZM12.2483 24.1608C11.9688 25.272 11.4431 26.2529 10.6712 27.0981C10.6518 27.1175 10.6269 27.1286 10.6048 27.1452C10.5494 27.087 10.5716 27.0261 10.5716 26.9706C10.5688 26.059 10.5743 25.1473 10.566 24.2356C10.5633 24.0555 10.6214 24.0139 10.7901 24.0167C11.2301 24.0278 11.67 24.0194 12.1127 24.0194C12.2068 24.0222 12.287 24.0084 12.2483 24.1608ZM12.2953 22.5203C12.038 22.5147 11.7807 22.5175 11.5234 22.5175C11.2605 22.5175 10.9949 22.512 10.732 22.5203C10.6158 22.5231 10.5826 22.487 10.5826 22.3707C10.5937 21.6114 11.3324 20.7745 12.0767 20.6748C12.1791 20.6609 12.204 20.7052 12.2261 20.7856C12.3617 21.3066 12.4336 21.8358 12.4475 22.3762C12.453 22.4954 12.406 22.5231 12.2953 22.5203ZM17.3171 20.2702C17.3171 20.9546 17.3143 21.6391 17.3198 22.3208C17.3198 22.4676 17.2894 22.5231 17.1289 22.5203C16.1301 22.512 15.1313 22.5147 14.1325 22.5203C13.9914 22.5203 13.9471 22.4815 13.9443 22.3374C13.936 21.725 13.8586 21.1209 13.7008 20.5279C13.6538 20.3561 13.6898 20.2979 13.8613 20.2674C14.542 20.1538 15.159 19.9044 15.6598 19.4111C16.0167 19.0592 16.2795 18.6463 16.4234 18.1669C16.4649 18.0311 16.5285 17.9951 16.6558 18.0034C16.8025 18.0117 16.9491 18.0173 17.0957 18.0034C17.2645 17.9868 17.3226 18.0395 17.3198 18.2196C17.3088 18.9013 17.3171 19.5857 17.3171 20.2702ZM17.0653 16.5098C16.6696 16.5403 16.4345 16.471 16.2906 16.0249C16.0914 15.4097 15.6238 14.9608 15.0538 14.6393C14.9348 14.5728 14.8906 14.5091 14.9072 14.3678C15.0677 13.0543 15.2226 11.7408 15.3775 10.4273C15.4633 9.69018 15.5352 8.95308 15.7483 8.23537C16.0609 7.18513 16.5645 6.24019 17.2756 5.37838C17.3364 5.47814 17.3143 5.56128 17.3143 5.63887C17.3143 9.17754 17.3143 12.7134 17.3198 16.2521C17.3226 16.4572 17.2617 16.4932 17.0653 16.5098Z" fill="#888F83" style="fill:#888F83;fill:color(display-p3 0.5333 0.5608 0.5137);fill-opacity:1;"/>
<path d="M18.778 2.23044C18.7143 2.26646 18.6479 2.29971 18.5843 2.33574C16.891 3.33887 15.6349 4.73549 14.7937 6.51453C14.2016 7.76428 14.0052 9.10549 13.8586 10.4605C13.6732 12.162 13.4657 13.8634 13.2582 15.5621C13.236 15.7422 13.2803 15.7893 13.4463 15.7561C13.4823 15.7478 13.5182 15.7533 13.557 15.7533C14.3372 15.7478 14.957 16.2964 15.0594 17.0834C15.1562 17.8178 14.6692 18.5272 13.936 18.7128C13.7091 18.771 13.4767 18.807 13.2499 18.8708C13.1336 18.904 13.0921 18.8597 13.0479 18.771C12.9566 18.5937 12.8625 18.4219 12.7657 18.2473C11.9052 16.726 11.3158 15.1049 10.9838 13.3868C10.7182 12.004 10.6933 10.613 10.7459 9.21356C10.8261 7.18513 10.8898 5.1567 10.9562 3.12549C10.9949 2.00044 10.6573 1.00008 9.9684 0.110559C9.85773 -0.0307665 9.79686 -0.0418508 9.68065 0.107788C8.98618 1.00285 8.65139 2.01152 8.69013 3.14489C8.76207 5.18164 8.8008 7.21838 8.90871 9.25235C9.07748 12.4225 8.47432 15.4069 6.9166 18.1863C6.78379 18.4219 6.71462 18.7821 6.49881 18.8569C6.27469 18.9345 5.96481 18.7793 5.69366 18.7101C5.00472 18.5327 4.51223 17.8427 4.57863 17.1555C4.65057 16.399 5.22884 15.8087 5.93161 15.7561C6.08655 15.745 6.30236 15.8503 6.37983 15.7145C6.44624 15.6009 6.36877 15.4014 6.3494 15.2434C6.13359 13.3979 5.89841 11.5524 5.6992 9.70127C5.41975 7.07706 4.31302 4.89899 2.29324 3.19754C1.85055 2.82345 1.37465 2.49923 0.862791 2.22766C0.807455 2.30248 0.826823 2.37176 0.826823 2.4355C0.826823 9.55717 0.826823 16.6761 0.821289 23.7978C0.821289 23.9834 0.876625 24.0305 1.05647 24.0305C2.56992 24.0222 4.08337 24.0305 5.59682 24.0222C5.77113 24.0222 5.84584 24.0555 5.88734 24.2467C6.2996 26.1532 7.25692 27.7355 8.7759 28.9603C9.13836 29.254 9.50357 29.5339 9.74982 29.9357C9.79686 30.0133 9.83559 30.0271 9.88816 29.9412C10.1399 29.5311 10.5107 29.2512 10.8787 28.952C12.3894 27.7272 13.3412 26.1504 13.7534 24.2522C13.7949 24.0666 13.8586 24.0194 14.0384 24.0222C15.5518 24.0305 17.0653 24.0222 18.5787 24.0305C18.778 24.0305 18.8195 23.9696 18.8195 23.7811C18.8139 16.6678 18.8167 9.5544 18.8139 2.44104C18.8222 2.36899 18.8527 2.2914 18.778 2.23044ZM2.34027 5.66103C2.34027 5.5779 2.31814 5.48923 2.37624 5.37561C3.12328 6.27899 3.64068 7.2738 3.9478 8.37946C4.17468 9.19139 4.22448 10.031 4.32962 10.8596C4.47073 11.968 4.5897 13.0792 4.73081 14.1849C4.76124 14.4287 4.73081 14.5701 4.49009 14.7114C3.86479 15.0772 3.45254 15.6342 3.23119 16.3242C3.18692 16.4627 3.12328 16.5126 2.98494 16.4987C2.77467 16.4766 2.50352 16.5902 2.37348 16.4516C2.2545 16.3242 2.34027 16.0581 2.34027 15.8531C2.34027 12.4585 2.34027 9.05838 2.34027 5.66103ZM5.94268 20.5778C5.78773 21.1458 5.71856 21.7305 5.71026 22.3208C5.7075 22.4676 5.67983 22.5231 5.51935 22.5231C4.52053 22.5147 3.52171 22.5175 2.52288 22.5231C2.38178 22.5231 2.33474 22.487 2.33751 22.3402C2.34581 21.6502 2.34027 20.9574 2.34027 20.2674C2.34027 19.5774 2.34304 18.8846 2.33751 18.1946C2.33751 18.0533 2.37348 18.0145 2.52012 18.0034C2.94344 17.9646 3.19799 18.0367 3.3889 18.5161C3.79839 19.5442 4.66164 20.0734 5.73516 20.2619C5.93991 20.2923 6.00631 20.3422 5.94268 20.5778ZM7.20711 22.3651C7.22371 21.8275 7.29842 21.2982 7.43123 20.7745C7.45613 20.672 7.50593 20.6581 7.60554 20.6775C8.37194 20.8327 9.01661 21.5615 9.06918 22.3319C9.08025 22.476 9.04428 22.5286 8.89487 22.5203C8.64586 22.5092 8.39685 22.5175 8.14507 22.5175C7.88775 22.5175 7.63044 22.512 7.37312 22.5203C7.25968 22.5231 7.20158 22.5009 7.20711 22.3651ZM9.08302 27.1341C8.49922 26.5882 8.08696 25.9537 7.77708 25.247C7.62214 24.8979 7.5004 24.5349 7.40632 24.1663C7.37866 24.0555 7.39802 24.0222 7.51146 24.0222C7.99012 24.025 8.46602 24.025 8.94191 24.0222C9.03045 24.0222 9.08025 24.0444 9.08025 24.1441C9.08302 25.139 9.08302 26.1366 9.08302 27.1341ZM9.97117 20.2286C9.86603 20.345 9.81346 20.3782 9.69172 20.2397C9.29606 19.788 8.80357 19.4749 8.23084 19.2948C8.11463 19.2587 8.04546 19.2338 8.12846 19.0897C8.834 17.8621 9.39014 16.5708 9.77196 15.2074C9.78026 15.1742 9.80516 15.1464 9.83006 15.0993C9.98223 15.5538 10.1206 15.9944 10.2783 16.4295C10.6048 17.3356 11.0143 18.2057 11.4985 19.0398C11.5898 19.2005 11.5759 19.2504 11.3961 19.3058C10.8399 19.4832 10.3613 19.7935 9.97117 20.2286ZM12.2483 24.1608C11.9688 25.272 11.4431 26.2529 10.6712 27.0981C10.6518 27.1175 10.6269 27.1286 10.6048 27.1452C10.5494 27.087 10.5716 27.0261 10.5716 26.9706C10.5688 26.059 10.5743 25.1473 10.566 24.2356C10.5633 24.0555 10.6214 24.0139 10.7901 24.0167C11.2301 24.0278 11.67 24.0194 12.1127 24.0194C12.2068 24.0222 12.287 24.0084 12.2483 24.1608ZM12.2953 22.5203C12.038 22.5147 11.7807 22.5175 11.5234 22.5175C11.2605 22.5175 10.9949 22.512 10.732 22.5203C10.6158 22.5231 10.5826 22.487 10.5826 22.3707C10.5937 21.6114 11.3324 20.7745 12.0767 20.6748C12.1791 20.6609 12.204 20.7052 12.2261 20.7856C12.3617 21.3066 12.4336 21.8358 12.4475 22.3762C12.453 22.4954 12.406 22.5231 12.2953 22.5203ZM17.3171 20.2702C17.3171 20.9546 17.3143 21.6391 17.3198 22.3208C17.3198 22.4676 17.2894 22.5231 17.1289 22.5203C16.1301 22.512 15.1313 22.5147 14.1325 22.5203C13.9914 22.5203 13.9471 22.4815 13.9443 22.3374C13.936 21.725 13.8586 21.1209 13.7008 20.5279C13.6538 20.3561 13.6898 20.2979 13.8613 20.2674C14.542 20.1538 15.159 19.9044 15.6598 19.4111C16.0167 19.0592 16.2795 18.6463 16.4234 18.1669C16.4649 18.0311 16.5285 17.9951 16.6558 18.0034C16.8025 18.0117 16.9491 18.0173 17.0957 18.0034C17.2645 17.9868 17.3226 18.0395 17.3198 18.2196C17.3088 18.9013 17.3171 19.5857 17.3171 20.2702ZM17.0653 16.5098C16.6696 16.5403 16.4345 16.471 16.2906 16.0249C16.0914 15.4097 15.6238 14.9608 15.0538 14.6393C14.9348 14.5728 14.8906 14.5091 14.9072 14.3678C15.0677 13.0543 15.2226 11.7408 15.3775 10.4273C15.4633 9.69018 15.5352 8.95308 15.7483 8.23537C16.0609 7.18513 16.5645 6.24019 17.2756 5.37838C17.3364 5.47814 17.3143 5.56128 17.3143 5.63887C17.3143 9.17754 17.3143 12.7134 17.3198 16.2521C17.3226 16.4572 17.2617 16.4932 17.0653 16.5098Z" stroke="#888F83" style="stroke:#888F83;stroke:color(display-p3 0.5333 0.5608 0.5137);stroke-opacity:1;" stroke-width="0.307692" mask="url(#path-1-outside-1_1_5266)"/>
</svg>
