<svg width="25" height="25" viewBox="0 0 25 25" fill="none" xmlns="http://www.w3.org/2000/svg">
<path d="M15.3381 21.9001C15.038 22.1261 14.719 22.3641 14.448 22.6001H16.7382C17.0035 22.6001 17.2578 22.7055 17.4454 22.8931C17.6329 23.0806 17.7383 23.335 17.7383 23.6002C17.7383 23.8655 17.6329 24.1199 17.4454 24.3074C17.2578 24.495 17.0035 24.6003 16.7382 24.6003H12.7378C12.4726 24.6003 12.2182 24.495 12.0306 24.3074C11.8431 24.1199 11.7377 23.8655 11.7377 23.6002C11.7377 22.1001 13.0128 21.144 14.138 20.2999C14.888 19.7379 15.7381 19.0998 15.7381 18.5997C15.7381 18.3345 15.6327 18.0801 15.4452 17.8926C15.2576 17.705 15.0033 17.5996 14.738 17.5996C14.4728 17.5996 14.2184 17.705 14.0308 17.8926C13.8433 18.0801 13.7379 18.3345 13.7379 18.5997C13.7379 18.865 13.6325 19.1194 13.445 19.3069C13.2574 19.4945 13.0031 19.5998 12.7378 19.5998C12.4726 19.5998 12.2182 19.4945 12.0306 19.3069C11.8431 19.1194 11.7377 18.865 11.7377 18.5997C11.7377 17.804 12.0538 17.0409 12.6165 16.4782C13.1791 15.9155 13.9423 15.5994 14.738 15.5994C15.5337 15.5994 16.2969 15.9155 16.8595 16.4782C17.4222 17.0409 17.7383 17.804 17.7383 18.5997C17.7383 20.0999 16.4632 21.056 15.3381 21.9001ZM23.7389 15.5994C23.4737 15.5994 23.2193 15.7048 23.0317 15.8924C22.8442 16.0799 22.7388 16.3343 22.7388 16.5995V19.5998H21.7387C21.4735 19.5998 21.2191 19.4945 21.0315 19.3069C20.844 19.1194 20.7386 18.865 20.7386 18.5997V16.5995C20.7386 16.3343 20.6332 16.0799 20.4457 15.8924C20.2581 15.7048 20.0038 15.5994 19.7385 15.5994C19.4733 15.5994 19.2189 15.7048 19.0313 15.8924C18.8438 16.0799 18.7384 16.3343 18.7384 16.5995V18.5997C18.7384 19.3955 19.0545 20.1586 19.6172 20.7213C20.1798 21.2839 20.943 21.6 21.7387 21.6H22.7388V23.6002C22.7388 23.8655 22.8442 24.1199 23.0317 24.3074C23.2193 24.495 23.4737 24.6003 23.7389 24.6003C24.0042 24.6003 24.2585 24.495 24.4461 24.3074C24.6336 24.1199 24.739 23.8655 24.739 23.6002V16.5995C24.739 16.3343 24.6336 16.0799 24.4461 15.8924C24.2585 15.7048 24.0042 15.5994 23.7389 15.5994ZM13.7379 12.5991V7.59865C13.7379 7.3334 13.6325 7.07902 13.445 6.89147C13.2574 6.70391 13.0031 6.59855 12.7378 6.59855C12.4726 6.59855 12.2182 6.70391 12.0306 6.89147C11.8431 7.07902 11.7377 7.3334 11.7377 7.59865V11.599H8.73742C8.47217 11.599 8.21779 11.7044 8.03024 11.892C7.84268 12.0795 7.73732 12.3339 7.73732 12.5991C7.73732 12.8644 7.84268 13.1188 8.03024 13.3063C8.21779 13.4939 8.47217 13.5992 8.73742 13.5992H12.7378C13.0031 13.5992 13.2574 13.4939 13.445 13.3063C13.6325 13.1188 13.7379 12.8644 13.7379 12.5991ZM23.7389 2.59815C23.4737 2.59815 23.2193 2.70352 23.0317 2.89107C22.8442 3.07863 22.7388 3.333 22.7388 3.59825V5.97248C21.6968 4.3999 20.2987 3.09512 18.658 2.16401C17.0173 1.2329 15.1802 0.701684 13.2958 0.613471C11.4113 0.525258 9.53266 0.88253 7.81216 1.6563C6.09165 2.43007 4.57779 3.59854 3.3934 5.0669C2.20902 6.53526 1.38747 8.26215 0.995418 10.1075C0.603368 11.9528 0.65186 13.8645 1.13696 15.6876C1.62206 17.5106 2.5301 19.1936 3.7874 20.6001C5.04471 22.0065 6.61586 23.0967 8.37338 23.7823C8.48953 23.8271 8.61293 23.8501 8.73742 23.8503C8.9708 23.8506 9.19696 23.7694 9.37673 23.6205C9.5565 23.4717 9.67856 23.2647 9.72177 23.0353C9.76498 22.806 9.72662 22.5687 9.61333 22.3647C9.50005 22.1607 9.31897 22.0027 9.10145 21.9181C7.60933 21.3411 6.27739 20.4146 5.21745 19.2163C4.15751 18.018 3.40049 16.583 3.00995 15.0316C2.61942 13.4802 2.60675 11.8578 2.97302 10.3005C3.33928 8.74315 4.0738 7.29644 5.1149 6.08177C6.156 4.86709 7.47331 3.9199 8.95625 3.31969C10.4392 2.71949 12.0445 2.4838 13.6373 2.6324C15.2302 2.781 16.7642 3.30955 18.1105 4.1737C19.4568 5.03784 20.5762 6.21236 21.3747 7.59865H18.7384C18.4732 7.59865 18.2188 7.70401 18.0312 7.89157C17.8437 8.07912 17.7383 8.3335 17.7383 8.59875C17.7383 8.86399 17.8437 9.11837 18.0312 9.30592C18.2188 9.49348 18.4732 9.59885 18.7384 9.59885H21.7387C22.5344 9.59885 23.2976 9.28274 23.8602 8.72008C24.4229 8.15741 24.739 7.39428 24.739 6.59855V3.59825C24.739 3.333 24.6336 3.07863 24.4461 2.89107C24.2585 2.70352 24.0042 2.59815 23.7389 2.59815Z" fill="#888F83" style="fill:#888F83;fill:color(display-p3 0.5333 0.5608 0.5137);fill-opacity:1;"/>
</svg>
