<svg width="21" height="20" viewBox="0 0 21 20" fill="none" xmlns="http://www.w3.org/2000/svg">
<path d="M10.5 0C4.98583 0 0.5 4.48583 0.5 10C0.5 15.5142 4.98583 20 10.5 20C16.0142 20 20.5 15.5142 20.5 10C20.5 4.48583 16.0142 0 10.5 0ZM7.16667 17.6367V17.5C7.16667 15.6617 8.66167 14.1667 10.5 14.1667C12.3383 14.1667 13.8333 15.6617 13.8333 17.5V17.6367C12.8117 18.0842 11.685 18.3333 10.5 18.3333C9.315 18.3333 8.18833 18.0842 7.16667 17.6367ZM15.4375 16.7092C15.0575 14.3267 12.9883 12.5 10.5 12.5C8.01167 12.5 5.94333 14.3267 5.5625 16.7092C3.50417 15.19 2.16667 12.7483 2.16667 10C2.16667 5.405 5.905 1.66667 10.5 1.66667C15.095 1.66667 18.8333 5.405 18.8333 10C18.8333 12.7483 17.4958 15.19 15.4375 16.7092ZM10.5 4.16667C8.66167 4.16667 7.16667 5.66167 7.16667 7.5C7.16667 9.33833 8.66167 10.8333 10.5 10.8333C12.3383 10.8333 13.8333 9.33833 13.8333 7.5C13.8333 5.66167 12.3383 4.16667 10.5 4.16667ZM10.5 9.16667C9.58083 9.16667 8.83333 8.41917 8.83333 7.5C8.83333 6.58083 9.58083 5.83333 10.5 5.83333C11.4192 5.83333 12.1667 6.58083 12.1667 7.5C12.1667 8.41917 11.4192 9.16667 10.5 9.16667Z" fill="#19453F" style="fill:#19453F;fill:color(display-p3 0.0980 0.2706 0.2471);fill-opacity:1;"/>
</svg>
